<svg id="Layer_1" enable-background="new 0 0 496.011 496.011" height="512" viewBox="0 0 496.011 496.011" width="512" xmlns="http://www.w3.org/2000/svg"><path d="m460 213.107v-71.514c0-8.837-7.163-16-16-16h-46.725v-24.6c0-8.836-7.163-16-16-16h-72.724c-8.837 0-16 7.164-16 16v52.379h-125.103v-52.379c0-8.836-7.163-16-16-16h-72.723c-8.837 0-16 7.164-16 16v24.6h-46.725c-8.837 0-16 7.164-16 16v121.8c0 8.836 7.163 16 16 16h46.725v24.6c0 8.836 7.163 16 16 16h72.724c8.837 0 16-7.164 16-16v-118.621h125.104v34.242h-85.053c-8.837 0-16 7.163-16 16s7.163 16 16 16h85.052v52.379c0 7.552 5.238 13.866 12.276 15.546 4.72 14.458 12.811 27.705 23.877 38.77 43.323 43.324 41.012 40.91 41.012 41.012 15.595 15.595 40.972 15.595 56.568 0l41.012-41.012c40.594-40.594 38.134-107.954-7.297-145.202zm-428 34.286v-89.8h30.725v89.8zm103.448 40.6h-40.723c0-7.071 0-163.891 0-171h40.724v171zm292.552-130.4v38.081c-9.601-3.074-19.888-4.731-30.725-4.652v-33.429zm-103.448-40.6h40.724v79.595c-15.349 5.422-29.365 14.725-40.724 27.551 0-15.412 0-91.861 0-107.146zm120.117 218.689-41.012 41.012c-3.119 3.119-8.195 3.119-11.314 0 0 .101-.042-.041-41.012-41.012-36.929-36.929-18.238-100.574 33.076-111.264 64.979-12.898 106.165 65.362 60.262 111.264z"/><path d="m398 256.993c-15.99 0-29 13.009-29 29s13.01 29 29 29 29-13.009 29-29-13.01-29-29-29z"/></svg>