<svg id="Layer_3" enable-background="new 0 0 64 64" height="512" viewBox="0 0 64 64" width="512" xmlns="http://www.w3.org/2000/svg"><g><path d="m62 35v-6c0-.155-.036-.309-.105-.447l-.895-1.789v-2.764c0-.552-.447-1-1-1h-3c-.553 0-1 .448-1 1v2.764l-.895 1.789c-.069.138-.105.292-.105.447v6h-4v-1.667l2.8-3.733c.228-.303.264-.708.095-1.047-.17-.339-.516-.553-.895-.553h-6c-.379 0-.725.214-.895.553-.169.339-.133.744.095 1.047l2.8 3.733v1.667h-7c-.553 0-1 .448-1 1v4c0 .552.447 1 1 1h1v5c0 .552.447 1 1 1h2c.379 0 .725-.214.895-.553l2.723-5.447h4.764l2.724 5.447c.169.339.515.553.894.553h2c.553 0 1-.448 1-1v-5h1c.553 0 1-.448 1-1v-4c0-.552-.447-1-1-1zm-11-5-1 1.333-1-1.333zm6-.764.895-1.789c.069-.138.105-.292.105-.447v-2h1v2c0 .155.036.309.105.447l.895 1.789v5.764h-3zm-11.618 15.764h-.382v-4h2.382zm13.618 0h-.382l-2-4h2.382zm2-6h-18v-2h18z"/><path d="m5 34.899v5.101c0 1.343.893 2.469 2.112 2.851l-1.912 2.549c-.228.303-.264.708-.095 1.047.17.339.516.553.895.553h3c.228 0 .447-.077.625-.219l4.726-3.781h16.298l4.726 3.781c.178.142.397.219.625.219h3c.379 0 .725-.214.895-.553.169-.339.133-.744-.095-1.047l-1.912-2.549c1.219-.382 2.112-1.508 2.112-2.851v-5.101c2.279-.464 4-2.485 4-4.899 0-2.757-2.243-5-5-5h-1v-5c0-1.654-1.346-3-3-3h-26c-1.654 0-3 1.346-3 3v5c-2.757 0-5 2.243-5 5 0 2.415 1.721 4.435 4 4.899zm3.649 10.101h-.649l1.5-2h1.649zm27.702 0-2.5-2h1.649l1.5 2zm-28.351-25c0-.551.448-1 1-1h26c.552 0 1 .449 1 1v5h-1c-.553 0-1 .448-1 1v8.556c-.591-.344-1.268-.556-2-.556h-19c-.732 0-1.409.212-2 .556v-8.556c0-.552-.447-1-1-1h-2zm25.722 17h-22.444c.347-.595.985-1 1.722-1h19c.737 0 1.375.405 1.722 1zm-27.722-10h3v11c0 .552.447 1 1 1h25c.553 0 1-.448 1-1v-11h3c1.654 0 3 1.346 3 3s-1.346 3-3 3c-.553 0-1 .448-1 1v6c0 .551-.448 1-1 1h-29c-.552 0-1-.449-1-1v-6c0-.552-.447-1-1-1-1.654 0-3-1.346-3-3s1.346-3 3-3z"/><path d="m1 49h62v2h-62z"/></g></svg>