<svg id="Capa_1" enable-background="new 0 0 512 512" height="512" viewBox="0 0 512 512" width="512" xmlns="http://www.w3.org/2000/svg"><path d="m460.186 189h-124.186v-3c0-24.813-20.187-45-45-45h-13v-45c0-8.284-6.716-15-15-15h-22.32l55.394-55.394c5.858-5.857 5.858-15.355 0-21.213-5.857-5.857-15.355-5.857-21.213 0l-76.607 76.607h-66.087l55.394-55.394c5.858-5.857 5.858-15.355 0-21.213-5.856-5.858-15.354-5.858-21.213 0l-76.607 76.607h-16.741c-8.284 0-15 6.716-15 15v45h-13c-24.813 0-45 20.187-45 45v296c0 16.542 13.458 30 30 30h31c16.542 0 30-13.458 30-30v-20h154v20c0 16.542 13.458 30 30 30h31c16.542 0 30-13.458 30-30v-20.022h85v20.022c0 16.542 13.458 30 30 30h31c16.542 0 30-13.458 30-30v-241.185c0-28.571-23.244-51.815-51.814-51.815zm0 30c12.028 0 21.814 9.786 21.814 21.814v91.186h-146v-113zm-232.186 213v-23.001c0-18.196-14.804-33-33-33h-53.925c-8.968 0-17.054 3.359-23.383 9.715-6.328 6.354-9.653 14.453-9.616 23.423l.096 22.863h-63.172c-8.271 0-15-6.729-15-15v-81.089c11.591 8.23 25.734 13.089 41 13.089h194c15.266 0 29.409-4.859 41-13.089v81.089c0 8.271-6.729 15-15 15zm-89.924-22.987c-.004-.979.184-1.438.874-2.131s1.147-.883 2.125-.883h53.925c1.626 0 3 1.374 3 3v23.001h-59.827zm-50.076-298.013h160v30h-160zm-58 75c0-8.271 6.729-15 15-15h246c8.271 0 15 6.729 15 15v92c0 22.607-18.393 41-41 41h-194c-22.607 0-41-18.393-41-41zm31 296h-31v-22.58c4.695 1.665 9.741 2.58 15 2.58h16zm214 0v-20h16c5.259 0 10.305-.915 15-2.58v22.58zm61-70h37.175c8.284 0 15-6.716 15-15s-6.716-15-15-15h-37.175v-20h146v48.162c0 12.029-9.786 21.815-21.814 21.815h-124.186zm115 70v-20.022h9.186c7.791 0 15.179-1.739 21.814-4.833v24.855z"/><path d="m435.218 382c-8.261 0-15 6.739-15 15 0 8.262 6.738 15 15 15s15-6.739 15-15-6.738-15-15-15z"/><path d="m72.746 377.754c-7.02 0-12.746 5.726-12.746 12.746 0 7.021 5.726 12.746 12.746 12.746s12.746-5.726 12.746-12.746c.001-7.02-5.725-12.746-12.746-12.746z"/><path d="m263.254 377.754c-7.02 0-12.746 5.726-12.746 12.746 0 7.021 5.726 12.746 12.746 12.746s12.746-5.726 12.746-12.746c.001-7.02-5.725-12.746-12.746-12.746z"/></svg>