<?xml version="1.0" encoding="iso-8859-1"?>
<!-- Generator: Adobe Illustrator 19.0.0, SVG Export Plug-In . SVG Version: 6.00 Build 0)  -->
<svg version="1.1" id="Capa_1" xmlns="http://www.w3.org/2000/svg" xmlns:xlink="http://www.w3.org/1999/xlink" x="0px" y="0px"
	 viewBox="0 0 512.001 512.001" style="enable-background:new 0 0 512.001 512.001;" xml:space="preserve">
<path style="fill:#FFC89F;" d="M256.001,124.337c-38.423,0.594-77.952-11.415-117.463-35.751v55.843v56.643v72.661
	c-4.426,8.678-7.494,18.843-7.497,30.366c-0.004,17.247,7.464,32.396,21.028,42.66c11.967,9.055,27.596,13.692,45.053,13.691
	c9.869-0.001,20.322-1.482,31.022-4.487c1.76-0.39,9.799-2.345,19.259-7.314c9.47-0.334,20.184,0.097,32.324,1.301
	c0.901,0.089,1.784,0.17,2.661,0.242c23.528,1.925,46.125-5.88,63.599-21.983c17.717-16.326,27.474-38.584,27.474-62.673v-55.544
	V88.587C333.946,112.923,294.42,124.905,256.001,124.337z"/>
<path style="fill:#DB9975;" d="M167.465,355.283c17.246-1.481,40.432-8.956,55.345-13.152c4.006-0.868,41.497-9.693,59.509-39.215
	c2.156-3.534,1.04-8.147-2.495-10.304c-3.533-2.155-8.147-1.041-10.304,2.495c-15.195,24.905-49.675,32.329-50.01,32.398
	c-0.181,0.037-0.359,0.08-0.537,0.131c-21.191,5.991-52.507,13.815-73.303,13.432C151.225,347.291,158.637,352.134,167.465,355.283z
	"/>
<path style="fill:#F7B081;" d="M343.476,104.683v105.307v55.544c0,24.089-9.758,46.348-27.474,62.673
	c-12.278,11.314-27.087,18.526-42.968,21.15c2.186,0.172,4.409,0.365,6.695,0.591c0.901,0.089,1.784,0.17,2.661,0.242
	c23.528,1.925,46.125-5.88,63.599-21.983c17.717-16.326,27.474-38.584,27.474-62.673v-55.544V88.587
	C363.462,94.746,353.46,100.111,343.476,104.683z"/>
<g>
	<path style="fill:#DB9975;" d="M361.008,152.974c-9.008-7.865-20.241-10.945-33.388-9.157c-8.9,1.211-16.122,5.544-21.462,12.877
		c-6.883,9.452-10.331,23.655-10.25,42.217c0.018,4.252,0.224,8.232,0.498,11.697c-16.791-3.757-34.984,1.136-45.453,4.924
		c-1.694-5.458-4.274-10.796-7.756-15.97c-4.07-6.048-8.667-11.105-13.747-15.19c-4.65-4.14-7.057-9.06-7.353-15.04
		c-0.809-16.311,14.438-36.579,20.382-43.012c2.811-3.035,2.631-7.773-0.402-10.588c-3.037-2.817-7.779-2.638-10.594,0.397
		c-1.047,1.127-25.621,27.93-24.362,53.902c0.058,1.194,0.172,2.367,0.333,3.518c-1.187-0.285-2.385-0.546-3.604-0.758
		c-34.091-5.943-68.305,18.802-69.744,19.857c-3.335,2.447-4.054,7.131-1.611,10.469c2.443,3.336,7.131,4.063,10.473,1.625
		c0.303-0.221,30.612-22.048,58.361-17.171c6.75,1.186,12.749,3.812,18.096,7.945c0.036,0.032,0.07,0.066,0.106,0.098
		c0.194,0.172,0.395,0.33,0.601,0.479c3.877,3.13,7.411,7.058,10.628,11.839c23.601,35.066-15.5,67.474-17.176,68.836
		c-3.213,2.602-3.713,7.314-1.117,10.533c1.481,1.836,3.65,2.79,5.839,2.79c1.652,0,3.316-0.544,4.703-1.661
		c0.521-0.421,12.852-10.466,21.606-26.093c5.96-10.64,8.867-21.289,8.742-31.673c9.685-3.814,32.718-11.174,48.194-2.231
		c11.802,6.819,20.996,25.549,21.388,43.566c0.178,8.186-1.489,23.175-14.655,31.568c-3.491,2.226-4.518,6.859-2.292,10.35
		c1.429,2.243,3.853,3.468,6.328,3.468c1.379,0,2.774-0.38,4.022-1.176c14.346-9.144,22.012-24.961,21.586-44.537
		c-0.472-21.68-11.108-43.744-25.741-54.195c-1.761-12.564-3.207-39.186,6.093-51.957c2.883-3.959,6.6-6.198,11.363-6.847
		c8.792-1.195,15.825,0.634,21.506,5.595c7.164,6.255,14.818,20.926,14.818,43.343c0,4.141,3.355,7.497,7.497,7.497
		c4.14,0,7.497-3.355,7.497-7.497C380.959,198.882,379.519,169.138,361.008,152.974z"/>
	<path style="fill:#DB9975;" d="M265.388,193.882c0.037,0,0.075,0,0.113-0.001c4.14-0.062,7.446-3.466,7.385-7.607
		c-0.46-31.115,35.156-63.937,35.559-64.304c3.063-2.784,3.289-7.522,0.508-10.586c-2.784-3.067-7.526-3.296-10.589-0.512
		c-1.676,1.52-41.03,37.693-40.469,75.624C257.955,190.598,261.299,193.882,265.388,193.882z"/>
	<path style="fill:#DB9975;" d="M135.193,148.758c0.622,0.31,8.927,4.334,20.341,4.334c9.568,0,21.321-2.83,32.556-13.044
		c3.063-2.786,3.29-7.527,0.504-10.59c-2.785-3.063-7.525-3.289-10.59-0.505c-16.862,15.329-35.285,6.788-36.158,6.368
		c-3.699-1.82-8.176-0.311-10.016,3.382C129.982,142.41,131.487,146.911,135.193,148.758z"/>
</g>
<path style="fill:#F77474;" d="M415.541,10.961c0,0,0,0-0.001,0C388.335-4.226,354.94-3.493,328.39,12.87
	c-25.471,15.7-49.51,23.404-71.418,23.01c-0.646-0.014-1.291-0.014-1.933,0c-21.941,0.451-46.005-7.314-71.564-23.096
	c-26.453-16.332-59.758-17.064-86.918-1.912c-27.201,15.172-44.098,43.941-44.098,75.08v218.15
	c0,25.799,20.989,46.789,46.789,46.789s46.789-20.989,46.789-46.789V99.294c36.886,20.558,73.812,30.684,109.968,30.161
	c36.178,0.511,73.107-9.626,109.964-30.161v163.861c0,21.972-8.899,42.271-25.058,57.161
	c-15.917,14.666-36.496,21.776-57.904,20.025c-0.838-0.069-1.681-0.146-2.537-0.231c-22.993-2.277-41.215-1.872-55.71,1.244
	c-32.072,6.895-44.435,26.791-48.949,38.037c-4.643,11.567-7.787,30.105,3.59,52.739c4.141,8.239,9.885,16.407,17.548,24.952
	c9.758,15.425,27.294,24.545,51.021,26.616c-0.099,14.587,11.15,27.045,25.904,28.214c0.745,0.059,1.499,0.089,2.245,0.089
	c14.558,0,26.864-11.379,28.013-25.906c0.249-3.141,1.831-27.978-7.809-52.095c39.792-1.768,78.596-17.772,107.998-44.866
	c35.095-32.34,55.223-78.256,55.223-125.977V85.951C459.543,54.85,442.683,26.116,415.541,10.961z"/>
<g>
	<path style="fill:#E55555;" d="M146.035,98.396c-14.991-9.007-28.717-16.451-38.379-26.532V304.1
		c0,18.962-11.346,35.314-27.599,42.656c5.86,2.647,12.352,4.133,19.189,4.133c25.799,0,46.789-20.989,46.789-46.789V98.396z"/>
	<path style="fill:#E55555;" d="M415.541,10.961c0,0,0,0-0.001,0c-18.851-10.524-40.674-13.397-61.133-8.728
		c7.858,1.793,15.526,4.693,22.755,8.728c0.001,0,0.001,0,0.001,0c27.142,15.155,44.003,43.889,44.003,74.99v177.204
		c0,47.72-20.128,93.637-55.223,125.977c-29.402,27.093-68.206,43.097-107.998,44.866c9.641,24.117,8.058,48.955,7.809,52.095
		c-0.571,7.208-3.889,13.639-8.865,18.291c4.494,4.219,10.387,7.004,16.985,7.527c0.745,0.059,1.499,0.089,2.245,0.089
		c14.558,0,26.864-11.379,28.013-25.906c0.249-3.141,1.831-27.978-7.809-52.095c39.792-1.768,78.596-17.772,107.998-44.866
		c35.095-32.34,55.223-78.256,55.223-125.977V85.951C459.543,54.85,442.683,26.116,415.541,10.961z"/>
</g>
<g>
</g>
<g>
</g>
<g>
</g>
<g>
</g>
<g>
</g>
<g>
</g>
<g>
</g>
<g>
</g>
<g>
</g>
<g>
</g>
<g>
</g>
<g>
</g>
<g>
</g>
<g>
</g>
<g>
</g>
</svg>
