<svg height="512" viewBox="0 0 512 512" width="512" xmlns="http://www.w3.org/2000/svg"><g id="_06_Sick" data-name="06 Sick"><path d="m467.18 262.94a44.77 44.77 0 0 1 -25.84-81.37v-155.69a25.84 25.84 0 0 1 51.68 0v155.69a44.77 44.77 0 0 1 -25.84 81.37z" fill="#f4f4f4"/><path d="m485.39 69.74v-43.86a18.21 18.21 0 0 0 -36.42 0v43.86l18.21 9z" fill="#e4e4e4"/><path d="m467.18 246c17.36 0 36-20.89 36-37a37.22 37.22 0 0 0 -17.83-23.28v-116h-36.35v116a37.26 37.26 0 0 0 -17.86 23.28c0 17.35 18.68 37 36.04 37z" fill="#ff748f"/><path d="m467.18 237a37.21 37.21 0 0 1 -36-28 37.18 37.18 0 1 0 73.23 9.11 37 37 0 0 0 -1.15-9.11 37.21 37.21 0 0 1 -36.08 28z" fill="#fd5f7e"/><ellipse cx="461.73" cy="211.03" fill="#ffaec1" rx="11.81" ry="11.8"/><path d="m462.72 149.59h-21.38v15.25h21.38a7.63 7.63 0 1 0 0-15.25z" fill="#f4f4f4"/><path d="m462.72 105.85h-21.38v15.26h21.38a7.63 7.63 0 0 0 0-15.26z" fill="#f4f4f4"/><path d="m102.93 191.4 279.94 13.32c8.13-15.33 36.13-72.59 24.41-113.51-13.62-47.63-59.93-39.46-59.93-39.46-4.76-16.33-21.1-41.51-72.17-47.63s-89.69 24.61-125 19.78c-16.34-2.24-27.29-14.18-32.7-21.74a5.19 5.19 0 0 0 -8.56.2c-14.07 21.46-52.6 94.06-6 189z" fill="#827981"/><path d="m480.23 493.27c-3.65-9.08-10.13-21-21.63-34.7-26.35-31.39-156-71.14-156-71.14h-121.02s-129.58 39.75-155.96 71.14c-11.5 13.71-18 25.62-21.63 34.7l238.12 9z" fill="#ff748f"/><path d="m4 493.27a75 75 0 0 0 -3.89 12.47 5.21 5.21 0 0 0 5.1 6.26h473.79a5.2 5.2 0 0 0 5.1-6.26 73.9 73.9 0 0 0 -3.87-12.47z" fill="#fd5f7e"/><path d="m302.57 358-121-.07v29.51s12.28 32 60.53 32 60.54-32 60.54-32v-29.51z" fill="#f4b184"/><path d="m302.57 358v-18.75l-121-.06v18.73c17.9 15.46 39.93 27.08 60.53 27.08s42.58-11.59 60.47-27z" fill="#eaa678"/><path d="m133 174.15c-12.12 0-25.52 3.77-30.11 17.25 1.63 3.33 3.35 6.68 5.2 10.06l272.6 7.16s.8-1.38 2.14-3.9c1.24-24.47-16.27-30.57-31.68-30.57z" fill="#706970"/><path d="m351.19 192.88a22.06 22.06 0 0 0 -2.72.18v-.13a33.28 33.28 0 0 0 -6.64-22c-13.39-17.6-21.11-36.29-25.4-49.88-.05 0-182.74 19.84-182.92 19.72.4 13.2 1.1 32.06 2.23 52.32a22 22 0 0 0 -2.71-.18c-16.25 0-34.84 6.77-31.33 34.7 3.45 27.34 20.57 40.9 36.82 40.9a14.88 14.88 0 0 0 3.83-.51v.12c1.28 5.43 3 14.54 4.55 17.59 15 29.74 57.23 70.86 95.18 70.86s80.92-43.08 95.92-72.82c1.54-3.06 2.56-10.23 3.85-15.66v-.09a14.88 14.88 0 0 0 3.83.51c16.25 0 33.38-13.56 36.82-40.9 3.5-27.96-15.06-34.73-31.31-34.73z" fill="#ffc89f"/><path d="m316.44 121c-1.81-5.7-3-10.51-3.76-13.94a5.19 5.19 0 0 0 -6.74-3.8c-75.58 25.74-146.68 21.34-167.09 19.35a5.19 5.19 0 0 0 -5.69 5.3c.08 3.2.19 7.56.36 12.83 7.23.87 95.87 10.65 182.92-19.74z" fill="#f7bc94"/><path d="m200.74 51.77a7.8 7.8 0 0 1 -1-15.55 187.23 187.23 0 0 0 38-9.73 7.8 7.8 0 1 1 5.56 14.58 200.5 200.5 0 0 1 -41.6 10.64 8.18 8.18 0 0 1 -.96.06z" fill="#aaa0a9"/><path d="m432.41 493.27h-41.66a7.81 7.81 0 1 1 0-15.61h41.66a7.81 7.81 0 1 1 0 15.61z" fill="#ffbbcd"/><path d="m361.1 493.27h-20.83a7.81 7.81 0 1 1 0-15.61h20.83a7.81 7.81 0 1 1 0 15.61z" fill="#ffbbcd"/><path d="m214.39 300.08a7.79 7.79 0 0 0 10.13-4.34 19.56 19.56 0 0 1 35.14 0 7.82 7.82 0 0 0 14.51-5.83c-.34-.84-8.5-20.76-32.08-20.76s-31.74 19.9-32.09 20.74a7.85 7.85 0 0 0 4.39 10.19z" fill="#ff748f"/><path d="m210.86 205.12a7.82 7.82 0 0 0 -14.54-5.77c0 .09-4.07 8.43-20.54 7.6a7.82 7.82 0 1 0 -.79 15.62c1 .06 2 .08 3 .08 20.36 0 30.22-10.84 32.87-17.53z" fill="#706970"/><g fill="#fccb88"><path d="m102.07 290.26a7.83 7.83 0 0 0 -11 1.27c-.44.57-11.07 14.25-11.07 35.58 0 11.22 3.77 19.45 7.1 26.71 3.18 6.95 6.18 13.51 6.18 22.89a7.83 7.83 0 0 0 15.65 0c0-12.79-4-21.62-7.61-29.4-3-6.65-5.67-12.39-5.67-20.2a45.74 45.74 0 0 1 7.75-25.9 7.82 7.82 0 0 0 -1.33-10.95z"/><path d="m38.17 401.54a7.82 7.82 0 1 0 15.64 0c0-12.8-4-21.62-7.6-29.4-3.05-6.66-5.68-12.4-5.68-20.21a47.6 47.6 0 0 1 3.35-17.61 7.82 7.82 0 0 0 -14.54-5.76 63.16 63.16 0 0 0 -4.45 23.37c0 11.22 3.77 19.45 7.09 26.72 3.18 6.94 6.19 13.5 6.19 22.89z"/><path d="m375.29 376.71a7.82 7.82 0 1 0 15.64 0c0-9.38 3-15.94 6.18-22.89 3.33-7.26 7.1-15.49 7.1-26.71 0-21.33-10.66-35-11.11-35.58a7.82 7.82 0 1 0 -12.29 9.68 45.7 45.7 0 0 1 7.76 25.9c0 7.81-2.63 13.55-5.68 20.2-3.56 7.78-7.6 16.61-7.6 29.4z"/><path d="m430.37 401.54a7.82 7.82 0 0 0 15.64 0c0-9.39 3-16 6.19-22.89 3.32-7.27 7.09-15.5 7.09-26.72a63.15 63.15 0 0 0 -4.44-23.37 7.82 7.82 0 0 0 -14.55 5.76 47.4 47.4 0 0 1 3.35 17.61c0 7.81-2.63 13.55-5.67 20.21-3.57 7.78-7.61 16.6-7.61 29.4z"/></g><path d="m306.19 222.65c1 0 2 0 3-.08a7.82 7.82 0 1 0 -.78-15.62c-16.47.83-20.52-7.51-20.55-7.6a7.82 7.82 0 0 0 -14.54 5.77c2.68 6.69 12.51 17.53 32.87 17.53z" fill="#706970"/><path d="m337.62 281c-15 29.74-57.56 66.55-95.51 66.55s-80.54-36.81-95.5-66.55a61.63 61.63 0 0 1 -4.23-12.9c2 14.18 4.48 25.56 7.43 31.63 14.46 29.74 55.63 66.55 92.3 66.55s77.84-36.81 92.3-66.55c2.95-6.07 5.4-17.45 7.44-31.63a62.83 62.83 0 0 1 -4.23 12.9z" fill="#f7bc94"/><path d="m184 160.1h105.21c8.43 0 15.27-15.82 15.27-24.25v-23.5a15.26 15.26 0 0 0 -15.26-15.26h-105.22a15.26 15.26 0 0 0 -15.26 15.26v23.5c-.04 8.43 6.79 24.25 15.26 24.25z" fill="#a4e6ff"/><path d="m289.21 151.1h-105.21a15.26 15.26 0 0 1 -15.27-15.25v18.3a15.27 15.27 0 0 0 15.27 15.26h105.21a15.27 15.27 0 0 0 15.27-15.26v-18.3a15.26 15.26 0 0 1 -15.27 15.25z" fill="#81ddfd"/><rect fill="#d7f7ff" height="35.71" rx="5.79" width="96.1" x="188.53" y="115.39"/></g></svg>