<svg id="Layer_1" enable-background="new 0 0 497 497" height="512" viewBox="0 0 497 497" width="512" xmlns="http://www.w3.org/2000/svg"><g><g><path d="m378.317 497-.124-299.12h86.996v299.12" fill="#ffdac9"/><path d="m435.189 197.88h30v299.12h-30z" fill="#ffd0ba"/><path d="m31.811 197.88h101.991v88.953h-101.991z" fill="#ffdac9"/></g><g><path d="m378.317 497v-331.894 53.094h99.184v-55.016c0-68.433-55.504-123.909-123.973-123.909h-105.527.999-105.529c-68.468 0-123.973 55.476-123.973 123.909v55.016h99.184v-51.401 281.201l164.592 49z" fill="#869bb0"/></g><g fill="#7c90a3"><path d="m348.317 218.2h30v278.8h-30z"/><path d="m353.529 39.276h-30c68.468 0 123.973 55.476 123.973 123.909v55.015h30v-55.016c-.001-68.433-55.505-123.908-123.973-123.908z"/></g><path d="m190.77 0v40.662c34.989 23.195 80.472 23.195 115.461 0v-40.662z" fill="#ffdac9"/><path d="m276.23 0v40.662c-13.135 8.707-27.748 14.145-42.73 16.315 24.928 3.61 50.876-1.827 72.73-16.315v-40.662z" fill="#ffd0ba"/><g><path d="m240.588 420.017h-32.817l33.024-46.534c9.724-13.702 32.16.926 21.825 15.489z" fill="#ffdac9"/><g><path d="m20.275 286.593h97.547v91.101c0 13.025 10.565 23.585 23.597 23.585h136.322c26.446 0 47.885 21.428 47.885 47.861 0 26.433-21.439 47.861-47.885 47.861h-188.74c-37.974 0-68.727-30.768-68.727-68.722v-141.686z" fill="#fff6db"/><g><g fill="#ffeebd"><path d="m85.286 286.593-65.011 64.986v21.209l86.228-86.195z"/><path d="m277.741 401.278h-19.006l-95.763 95.722h21.217l95.708-95.667c-.715-.032-1.433-.055-2.156-.055z"/><path d="m309.328 413.184-83.85 83.816h21.217l72.258-72.228c-2.584-4.356-5.84-8.264-9.625-11.588z"/></g></g></g></g><path d="m370.683 26.591h-20.101c-5.699 0-11.102 2.541-14.735 6.932l-315.572 381.31v16.615c0 36.203 29.349 65.552 65.552 65.552h91.781l200.985-458.215c2.563-5.729-1.631-12.194-7.91-12.194z" fill="#cff5ff"/><path d="m370.683 26.591h-20.101c-2.046 0-4.052.333-5.953.956 3.899 2 5.935 6.831 3.964 11.239l-200.985 458.214h30l200.985-458.215c2.563-5.729-1.631-12.194-7.91-12.194z" fill="#b8f0ff"/></g></svg>