<svg height="512pt" viewBox="0 0 512 512" width="512pt" xmlns="http://www.w3.org/2000/svg"><path d="m228.550781 219.9375-.035156-.085938-14.960937 14.960938-5.75 15.058594 16.554687 16.558594 42.421875-42.421876-6.054688-6.054687zm0 0" fill="#9facba"/><path d="m512 331v88.800781l-29.097656 19.5c-2.703125-1.5-6.402344-2.703125-9.402344-4.5-22.5-15.300781-51.300781-15-73.5 0-32.402344 21.300781-74.097656 21.300781-106.800781 0-11.398438-7.800781-24.300781-11.699219-37.199219-11.402343-12.300781 0-25.199219 3.601562-36 11.402343-32.402344 21.300781-74.097656 21.300781-106.800781 0-22.199219-15.300781-51-15.300781-73.199219 0-2.699219 1.5-6.699219 3-9.699219 4.5l-30.300781-19.203125v-89.097656zm0 0" fill="#ffcebf"/><path d="m512 331v88.800781l-29.097656 19.5c-2.703125-1.5-6.402344-2.703125-9.402344-4.5-22.5-15.300781-51.300781-15-73.5 0-32.402344 21.300781-74.097656 21.300781-106.800781 0-11.398438-7.800781-24.300781-11.699219-37.199219-11.402343v-92.398438zm0 0" fill="#ffb99c"/><path d="m503 415.898438c-4.199219-1.800782-8.402344-3.898438-12-6-32.101562-21.898438-75.101562-21.898438-107.800781-.296876-21.597657 14.699219-51.300781 14.699219-73.199219.296876-16.5-11.097657-35.402344-16.5-54-16.5-18.300781 0-36.898438 5.402343-52.800781 16.203124-21.597657 14.699219-51.300781 14.699219-73.199219.296876-32.402344-21.898438-75.101562-21.898438-107.800781 0-3.601563 2.402343-8.101563 4.5-12.597657 6.300781l-9.601562 3.898437v91.902344h512v-92.199219zm0 0" fill="#ff637b"/><path d="m512 419.800781v92.199219h-256v-118.601562c18.601562 0 37.5 5.402343 54 16.5 21.902344 14.402343 51.601562 14.402343 73.199219-.296876 32.703125-21.601562 75.699219-21.601562 107.800781.296876 3.601562 2.101562 7.800781 4.199218 12 6zm0 0" fill="#e63950"/><g fill="#c5d3dd"><path d="m150.09375 394.457031c-19.96875 0-38.746094-7.808593-52.898438-21.957031l-10.589843-10.59375 127.074219-127.425781 63.851562 63.855469-74.558594 74.191406c-14.121094 14.121094-32.902344 21.929687-52.878906 21.929687zm0 0"/><path d="m362.171875 213.285156-2.21875-44.640625-23.425781-23.425781-37.804688 4.542969-70.171875 70.175781 95.417969 31.945312 38.324219-38.578124zm0 0"/><path d="m362.523438 86.3125-2.222657 40.199219 15.308594 15.3125 50.34375 7.988281 86.046875-86.296875-63.515625-63.515625-86.046875 86.296875c.007812 0 .085938.015625.085938.015625zm0 0"/></g><path d="m362.171875 213.285156-63.53125-63.515625 63.882813-63.457031 63.53125 63.515625zm0 0" fill="#9facba"/></svg>