<svg id="_x33_0" enable-background="new 0 0 64 64" height="512" viewBox="0 0 64 64" width="512" xmlns="http://www.w3.org/2000/svg"><g><g><g><path d="m44.563 59c-.165 0-.33-.003-.496-.009-5.832-.194-10.929-4.017-12.983-9.738l-11.415-28.577c-.442-1.107-.668-2.289-.665-3.481l-.004-.168c-.001-.06-.001-.952 0-1.296v-.126c0-5.876 4.729-10.605 10.54-10.605 16.244 0 29.46 13.187 29.46 29.396v10.162c0 3.943-1.565 7.629-4.407 10.378-2.722 2.631-6.267 4.064-10.03 4.064z" fill="#f0bc5e"/></g></g><g><path d="m29.54 1c-8.018 0-14.54 6.522-14.54 14.605 0 1.706.296 3.386.88 4.99l3.029 8.332c.061.166.091.34.091.518 0 .578-.321 1.098-.838 1.355l-17.162 8.582v14.342l21.867-12.496c.261-.149.558-.228.858-.228.835 0 1.549.597 1.699 1.418l.988 5.438c1.596 8.775 9.228 15.144 18.146 15.144 10.169 0 18.442-8.273 18.442-18.442v-10.162c0-18.415-15.01-33.396-33.46-33.396zm31.46 43.558c0 9.066-7.376 16.442-16.442 16.442-7.951 0-14.755-5.678-16.179-13.501l-.988-5.439c-.323-1.773-1.865-3.06-3.666-3.06-.647 0-1.287.17-1.85.491l-18.875 10.785v-3.676l19.61-10.418 2.151.539c.742.185 1.505.279 2.267.279 1.444 0 2.891-.342 4.183-.987l1.104-.552c1.049.42 2.004 1.046 2.801 1.842-2.946.943-5.116 4.033-5.116 7.697 0 4.411 3.141 8 7 8 1.588 0 3.087-.617 4.299-1.697.868 3.291 3.542 5.697 6.701 5.697 3.859 0 7-3.589 7-8 0-2.408-.94-4.566-2.418-6.034 3.588-.34 6.418-3.779 6.418-7.966 0-4.411-3.141-8-7-8-3.253 0-5.987 2.554-6.769 5.996-1.745-1.289-3.842-1.996-6.053-1.996-1.577 0-3.159.373-4.573 1.079l-4.288 2.145c-1.551.775-3.38.975-5.069.558l9.2-4.887c2.478-1.24 5.253-1.895 8.024-1.895h2.528v-2h-2.528c-.584 0-1.168.035-1.75.086 1.765-.891 3.638-1.539 5.59-1.929l1.962-.393c2.262-.452 4.581-.707 6.895-.756l-.043-2c-1.355.029-2.711.132-4.059.294.992-1.194 1.669-2.656 1.87-4.276l-1.984-.246c-.252 2.033-1.457 3.766-3.176 4.729.77-1.284 1.223-2.837 1.223-4.509 0-4.411-3.141-8-7-8s-7 3.589-7 8c0 3.411 1.881 6.322 4.517 7.47-.544.285-1.083.579-1.607.906l-2.91 1.82v-1.724c0-3.005-.698-6.011-2.011-8.715-.114-4.298-3.201-7.757-6.989-7.757-3.859 0-7 3.589-7 8 0 4.357 3.065 7.905 6.859 7.992l.041.008c2.533.507 4.817 1.805 6.545 3.693l-29.445 15.644v-3.719l16.057-8.028c1.198-.599 1.943-1.804 1.943-3.145 0-.413-.071-.818-.212-1.202l-3.029-8.331c-.503-1.385-.759-2.834-.759-4.372 0-6.915 5.625-12.54 12.54-12.54 17.347 0 31.46 14.084 31.46 31.396zm-15.981-9.125c.083 1.753.653 3.359 1.57 4.635-3.195-1.272-5.791-3.777-7.159-7.056 2.102.063 4.071.903 5.565 2.397zm-8.019 3.567c2.731 0 4.955 2.642 4.996 5.908-.564 1.076-.911 2.314-.976 3.639-.944 1.536-2.43 2.453-4.02 2.453-2.757 0-5-2.691-5-6s2.243-6 5-6zm6.702 3.699c-.253-.962-.663-1.844-1.192-2.617.842.621 1.753 1.145 2.713 1.578-.548.272-1.057.625-1.521 1.039zm4.298.301c2.757 0 5 2.691 5 6s-2.243 6-5 6-5-2.691-5-6 2.243-6 5-6zm4-2c-2.757 0-5-2.691-5-6s2.243-6 5-6 5 2.691 5 6-2.243 6-5 6zm-14.638-7.792c.64 1.728 1.567 3.285 2.723 4.622-.782-.441-1.643-.72-2.555-.799-.804-1.083-1.817-1.999-2.968-2.694l.936-.468c.592-.296 1.22-.515 1.864-.661zm-11.362-10.208c-2.757 0-5-2.691-5-6s2.243-6 5-6 5 2.691 5 6-2.243 6-5 6zm6.289-2.509c.466 1.617.711 3.299.711 4.981v.955c-1.088-.989-2.327-1.79-3.664-2.395 1.279-.796 2.312-2.04 2.953-3.541zm9.711 2.509c-2.757 0-5-2.691-5-6s2.243-6 5-6 5 2.691 5 6-2.243 6-5 6z"/><path d="m23 17h2c0-1.299.71-2 1-2v-2c-1.626 0-3 1.832-3 4z"/><path d="m39 17h2c0-1.299.71-2 1-2v-2c-1.626 0-3 1.832-3 4z"/><path d="m49 35h2c0-1.299.71-2 1-2v-2c-1.626 0-3 1.832-3 4z"/><path d="m37 43v-2c-1.626 0-3 1.832-3 4h2c0-1.299.71-2 1-2z"/><path d="m48 47v-2c-1.626 0-3 1.832-3 4h2c0-1.299.71-2 1-2z"/></g></g></svg>