<?xml version="1.0" encoding="iso-8859-1"?>
<!-- Generator: Adobe Illustrator 19.0.0, SVG Export Plug-In . SVG Version: 6.00 Build 0)  -->
<svg version="1.1" id="Capa_1" xmlns="http://www.w3.org/2000/svg" xmlns:xlink="http://www.w3.org/1999/xlink" x="0px" y="0px"
	 viewBox="0 0 512 512" style="enable-background:new 0 0 512 512;" xml:space="preserve">
<g>
	<path style="fill:#E9937C;" d="M291.63,512l-2.343-17.065c5.556-0.767,11.147-1.723,16.626-2.895l3.549,16.859
		C303.587,510.131,297.591,511.182,291.63,512z"/>
	<path style="fill:#E9937C;" d="M327.286,504.479l-4.738-16.557c59.475-16.988,110.112-56.236,141.4-109.595l14.834,8.752
		C445.263,444.246,391.008,486.294,327.286,504.479z"/>
	<path style="fill:#E9937C;" d="M206.087,19.96l-3.549-16.859C208.413,1.861,214.409,0.818,220.37,0l2.343,17.066
		C217.157,17.832,211.566,18.806,206.087,19.96z"/>
	<path style="fill:#E9937C;" d="M48.052,133.673l-14.834-8.735C66.729,67.771,120.992,25.715,184.714,7.521l4.738,16.557
		C129.977,41.066,79.34,80.314,48.052,133.673z"/>
</g>
<circle style="fill:#F2C09A;" cx="256" cy="256" r="215.365"/>
<path style="fill:#DA4836;" d="M238.771,256h-17.229v-43.504c0-14.274-11.569-25.844-25.844-25.844v-17.229
	c23.776,0.026,43.047,19.297,43.073,43.073V256z"/>
<g>
	<rect x="169.854" y="92.323" style="fill:#E9937C;" width="17.229" height="17.229"/>
	<rect x="118.166" y="376.604" style="fill:#E9937C;" width="17.229" height="17.229"/>
	<rect x="195.698" y="367.99" style="fill:#E9937C;" width="17.229" height="17.229"/>
	<rect x="247.385" y="144.01" style="fill:#E9937C;" width="17.229" height="17.229"/>
	<rect x="187.083" y="419.677" style="fill:#E9937C;" width="17.229" height="17.229"/>
	<rect x="376.604" y="376.604" style="fill:#E9937C;" width="17.229" height="17.229"/>
	<rect x="299.073" y="367.99" style="fill:#E9937C;" width="17.229" height="17.229"/>
	<rect x="307.688" y="419.677" style="fill:#E9937C;" width="17.229" height="17.229"/>
	<rect x="256" y="66.479" style="fill:#E9937C;" width="17.229" height="17.229"/>
	<rect x="333.531" y="92.323" style="fill:#E9937C;" width="17.229" height="17.229"/>
</g>
<path style="fill:#F7931E;" d="M204.312,238.34v17.229c14.274,0,25.844,11.569,25.844,25.844v188.358
	c5.677,0.672,11.423,1.146,17.229,1.378V281.413C247.36,257.637,228.089,238.366,204.312,238.34z"/>
<path style="fill:#DA4836;" d="M204.312,246.955c0.009-11.44-4.54-22.415-12.646-30.487c16.368-16.678,16.247-43.435-0.276-59.966
	l0,0c-16.652-16.652-43.65-16.652-60.302,0l0,0c-49.956,49.956-49.956,130.951,0,180.907l0,0l0,0
	c16.652,16.652,43.65,16.652,60.302,0l0,0c16.523-16.531,16.643-43.288,0.276-59.975
	C199.773,269.361,204.33,258.395,204.312,246.955z"/>
<path style="fill:#C13421;" d="M212.927,246.955c-0.009-11.018-3.549-21.735-10.114-30.582
	c16.471-22.967,11.199-54.935-11.768-71.406c-20.374-14.61-48.337-12.302-66.048,5.453c-53.238,53.359-53.238,139.729,0,193.088
	c19.934,20.038,52.334,20.115,72.363,0.181c17.815-17.72,20.124-45.752,5.453-66.152
	C209.378,268.689,212.918,257.973,212.927,246.955z M185.3,331.317c-13.292,13.266-34.829,13.266-48.121,0
	c-46.51-46.631-46.51-122.095,0-168.726c13.465-12.853,34.657-12.853,48.121,0c11.018,11.087,13.068,28.256,4.962,41.626
	c-8.554-5.841-18.668-8.959-29.023-8.951v17.229c19.03,0,34.458,15.429,34.458,34.458s-15.429,34.458-34.458,34.458v17.229
	c10.355,0.009,20.468-3.11,29.023-8.942C198.368,303.062,196.318,320.23,185.3,331.317z"/>
<path style="fill:#DA4836;" d="M273.229,256h17.229v-43.504c0-14.274,11.569-25.844,25.844-25.844v-17.229
	c-23.776,0.026-43.047,19.297-43.073,43.073V256z"/>
<path style="fill:#F7931E;" d="M307.688,238.34v17.229c-14.274,0-25.844,11.569-25.844,25.844v188.358
	c-5.677,0.672-11.423,1.146-17.229,1.378V281.413C264.64,257.637,283.911,238.366,307.688,238.34z"/>
<path style="fill:#DA4836;" d="M307.688,246.955c-0.009-11.44,4.54-22.415,12.646-30.487c-16.368-16.678-16.247-43.435,0.276-59.966
	l0,0c16.652-16.652,43.65-16.652,60.302,0l0,0c49.956,49.956,49.956,130.951,0,180.907l0,0l0,0
	c-16.652,16.652-43.65,16.652-60.302,0l0,0c-16.523-16.531-16.643-43.288-0.276-59.975
	C312.227,269.361,307.67,258.395,307.688,246.955z"/>
<path style="fill:#C13421;" d="M309.187,277.536c-16.419,23.001-11.087,54.97,11.914,71.389
	c20.348,14.524,48.207,12.224,65.902-5.436c53.238-53.359,53.238-139.729,0-193.088c-19.934-20.038-52.334-20.115-72.363-0.181
	c-17.815,17.72-20.124,45.752-5.453,66.151C295.713,234.532,295.713,259.377,309.187,277.536z M321.738,289.692
	c8.554,5.841,18.668,8.959,29.023,8.951v-17.229c-19.03,0-34.458-15.429-34.458-34.458c0-19.03,15.429-34.458,34.458-34.458v-17.229
	c-10.355-0.009-20.468,3.11-29.023,8.951c-8.106-13.37-6.056-30.539,4.962-41.626c13.465-12.853,34.656-12.853,48.121,0
	c46.51,46.631,46.51,122.095,0,168.726c-13.249,13.284-34.751,13.31-48.035,0.06c-11.096-11.07-13.18-28.282-5.048-41.677V289.692z"
	/>
<g>
</g>
<g>
</g>
<g>
</g>
<g>
</g>
<g>
</g>
<g>
</g>
<g>
</g>
<g>
</g>
<g>
</g>
<g>
</g>
<g>
</g>
<g>
</g>
<g>
</g>
<g>
</g>
<g>
</g>
</svg>
