<svg id="Layer_1" enable-background="new 0 0 256 256" height="512" viewBox="0 0 256 256" width="512" xmlns="http://www.w3.org/2000/svg"><g><g><path d="m128 252c-5.187 0-9.392-4.205-9.392-9.392v-229.216c0-5.187 4.205-9.392 9.392-9.392 5.187 0 9.392 4.205 9.392 9.392v229.216c0 5.187-4.205 9.392-9.392 9.392z" fill="#f4efed"/></g><g><path d="m128 254c-6.282 0-11.392-5.11-11.392-11.393v-229.214c0-6.283 5.11-11.393 11.392-11.393 6.281 0 11.392 5.11 11.392 11.393v229.215c0 6.282-5.111 11.392-11.392 11.392zm0-248c-4.076 0-7.392 3.316-7.392 7.393v229.215c0 4.076 3.316 7.393 7.392 7.393s7.392-3.316 7.392-7.393v-229.215c0-4.077-3.316-7.393-7.392-7.393z" fill="#690589"/></g><g><path d="m252 128c0 5.187-4.205 9.392-9.392 9.392h-229.216c-5.187 0-9.392-4.205-9.392-9.392 0-5.187 4.205-9.392 9.392-9.392h229.216c5.187 0 9.392 4.205 9.392 9.392z" fill="#f4efed"/></g><g><path d="m242.608 118.608h-10c5.187 0 9.392 4.205 9.392 9.392 0 5.187-4.205 9.392-9.392 9.392h10c5.187 0 9.392-4.205 9.392-9.392 0-5.187-4.205-9.392-9.392-9.392z" fill="#d6d1cf"/></g><g><path d="m13.392 137.392h10c-5.187 0-9.392-4.205-9.392-9.392 0-5.187 4.205-9.392 9.392-9.392h-10c-5.187 0-9.392 4.205-9.392 9.392 0 5.187 4.205 9.392 9.392 9.392z" fill="#fff"/></g><g><path d="m242.607 139.393h-229.215c-6.282 0-11.392-5.111-11.392-11.393s5.11-11.393 11.392-11.393h229.215c6.282 0 11.393 5.11 11.393 11.393 0 6.282-5.11 11.393-11.393 11.393zm-229.215-18.786c-4.076 0-7.392 3.317-7.392 7.393s3.316 7.393 7.392 7.393h229.215c4.076 0 7.393-3.316 7.393-7.393s-3.316-7.393-7.393-7.393z" fill="#690589"/></g><g><path d="m40.319 215.681c-3.668-3.668-3.668-9.615 0-13.282l162.08-162.08c3.668-3.668 9.615-3.668 13.282 0 3.668 3.668 3.668 9.614 0 13.282l-162.08 162.08c-3.668 3.668-9.614 3.668-13.282 0z" fill="#f4efed"/></g><g><path d="m215.681 215.681c-3.668 3.668-9.615 3.668-13.282 0l-162.08-162.08c-3.668-3.668-3.668-9.615 0-13.282 3.668-3.668 9.614-3.668 13.282 0l162.08 162.08c3.668 3.668 3.668 9.614 0 13.282z" fill="#f4efed"/></g><g><path d="m46.96 220.427c-2.918 0-5.835-1.11-8.055-3.331-4.442-4.441-4.442-11.67 0-16.111l162.08-162.08c4.441-4.441 11.67-4.441 16.111 0 4.441 4.442 4.441 11.669 0 16.111l-162.081 162.08c-2.221 2.22-5.138 3.331-8.055 3.331zm-5.227-6.159c2.882 2.881 7.572 2.881 10.454 0l162.081-162.08c2.882-2.883 2.882-7.572 0-10.455-2.884-2.882-7.573-2.88-10.455 0l-162.08 162.08c-2.882 2.882-2.882 7.572 0 10.455z" fill="#690589"/></g><g><path d="m209.04 220.427c-2.917 0-5.835-1.11-8.056-3.331l-162.079-162.08c-4.442-4.441-4.442-11.67 0-16.111s11.669-4.44 16.11 0l162.081 162.08c4.441 4.442 4.441 11.669 0 16.111-2.221 2.22-5.139 3.331-8.056 3.331zm-162.08-180.856c-1.893 0-3.786.721-5.227 2.161-2.882 2.883-2.882 7.572 0 10.455l162.08 162.08c2.884 2.881 7.573 2.881 10.455 0 2.882-2.883 2.882-7.572 0-10.455l-162.081-162.08c-1.441-1.44-3.335-2.161-5.227-2.161zm168.722 176.111h.01z" fill="#690589"/></g><g><path d="m140.839 34.26c17.96-5.814 37.484 2.273 46.073 19.084 3.68 7.204 9.54 13.063 16.744 16.744 16.811 8.589 24.898 28.113 19.084 46.073-2.491 7.696-2.491 15.983 0 23.679 5.814 17.96-2.273 37.484-19.084 46.073-7.204 3.68-13.063 9.54-16.744 16.744-8.589 16.811-28.113 24.898-46.073 19.084-7.696-2.491-15.983-2.491-23.679 0-17.96 5.814-37.484-2.273-46.073-19.084-3.681-7.204-9.54-13.063-16.744-16.744-16.81-8.589-24.897-28.113-19.083-46.073 2.491-7.696 2.491-15.983 0-23.679-5.814-17.96 2.273-37.484 19.084-46.073 7.204-3.681 13.063-9.54 16.744-16.744 8.588-16.811 28.112-24.898 46.072-19.084 7.697 2.491 15.983 2.491 23.679 0z" fill="#f4efed"/></g><g><g><path d="m222.74 139.839c-2.492-7.696-2.492-15.982 0-23.679 5.814-17.96-2.273-37.484-19.084-46.073-7.204-3.681-13.063-9.54-16.744-16.744-7.428-14.538-23.034-22.543-38.734-20.684 12.406 1.468 23.736 8.945 29.734 20.684 3.68 7.204 9.54 13.063 16.744 16.744 16.811 8.589 24.898 28.113 19.084 46.073-2.492 7.696-2.492 15.982 0 23.679 5.814 17.96-2.273 37.484-19.084 46.073-7.204 3.681-13.063 9.54-16.744 16.744-5.997 11.739-17.328 19.215-29.734 20.684 15.7 1.859 31.306-6.146 38.734-20.684 3.68-7.204 9.54-13.063 16.744-16.744 16.811-8.588 24.898-28.112 19.084-46.073z" fill="#d6d1cf"/></g></g><g><g><path d="m35.26 116.161c2.492 7.696 2.492 15.982 0 23.679-5.814 17.96 2.273 37.484 19.084 46.073 7.204 3.681 13.063 9.54 16.744 16.744 7.428 14.538 23.034 22.543 38.734 20.684-12.406-1.468-23.736-8.945-29.734-20.684-3.681-7.204-9.54-13.063-16.744-16.744-16.811-8.589-24.898-28.113-19.084-46.073 2.492-7.696 2.492-15.982 0-23.679-5.814-17.96 2.273-37.484 19.084-46.073 7.204-3.681 13.063-9.54 16.744-16.744 5.997-11.739 17.328-19.215 29.734-20.684-15.7-1.859-31.306 6.146-38.734 20.684-3.681 7.204-9.54 13.063-16.744 16.744-16.811 8.588-24.898 28.112-19.084 46.073z" fill="#fff"/></g></g><g><path d="m152.795 225.64c-4.168 0-8.402-.647-12.571-1.997-7.342-2.375-15.104-2.377-22.447 0-18.999 6.151-39.384-2.292-48.47-20.076-3.512-6.874-9-12.362-15.872-15.872-17.784-9.086-26.228-29.471-20.077-48.471 2.377-7.343 2.377-15.104 0-22.447-6.15-19 2.293-39.385 20.077-48.471 6.873-3.51 12.361-8.998 15.873-15.872 9.086-17.783 29.47-26.228 48.471-20.076 7.343 2.376 15.105 2.377 22.447 0 19.002-6.153 39.384 2.293 48.47 20.076 3.512 6.873 9 12.362 15.873 15.872 17.784 9.087 26.228 29.472 20.076 48.471-2.376 7.343-2.376 15.105 0 22.447 6.151 18.999-2.292 39.384-20.076 48.471-6.873 3.51-12.361 8.999-15.873 15.872-7.094 13.881-21.073 22.072-35.901 22.073zm-23.795-7.781c4.191 0 8.382.659 12.456 1.979 17.118 5.542 35.488-2.066 43.675-18.092 3.897-7.628 9.988-13.719 17.615-17.614 16.025-8.188 23.634-26.556 18.092-43.676-2.638-8.15-2.638-16.763 0-24.912 5.542-17.12-2.066-35.488-18.092-43.676-7.627-3.896-13.718-9.986-17.615-17.614-8.187-16.026-26.553-23.634-43.675-18.092-8.148 2.639-16.763 2.639-24.911 0-17.12-5.541-35.489 2.067-43.676 18.092-3.897 7.628-9.989 13.719-17.615 17.614-16.024 8.188-23.633 26.556-18.091 43.676 2.638 8.149 2.638 16.763 0 24.912-5.543 17.12 2.066 35.488 18.091 43.676 7.626 3.895 13.717 9.986 17.615 17.614 8.187 16.025 26.556 23.632 43.676 18.092 4.074-1.319 8.265-1.979 12.455-1.979zm11.84-183.599h.01z" fill="#690589"/></g><g><path d="m142.086 186.613c-2.551 0-5.142-.396-7.694-1.223-4.181-1.354-8.602-1.354-12.784 0-11.631 3.767-24.108-1.403-29.669-12.289-1.999-3.914-5.125-7.04-9.04-9.04-10.885-5.561-16.054-18.04-12.289-29.67 1.354-4.182 1.354-8.602 0-12.783-3.765-11.63 1.404-24.108 12.289-29.67 3.915-2 7.041-5.126 9.04-9.04 5.561-10.886 18.038-16.056 29.669-12.289 4.182 1.354 8.602 1.354 12.784 0 11.632-3.768 24.107 1.403 29.67 12.289 2 3.915 5.125 7.04 9.04 9.04 10.886 5.562 16.054 18.039 12.289 29.67-1.354 4.182-1.354 8.602 0 12.783 3.765 11.631-1.403 24.108-12.289 29.67-3.915 2-7.04 5.125-9.04 9.04-4.342 8.498-12.899 13.511-21.976 13.512zm-14.087-6.239c2.566 0 5.13.403 7.625 1.212 9.749 3.156 20.212-1.177 24.875-10.305 2.386-4.668 6.114-8.396 10.782-10.782 9.127-4.663 13.461-15.124 10.305-24.875-1.616-4.987-1.616-10.261 0-15.248 3.156-9.751-1.178-20.212-10.305-24.875-4.668-2.386-8.396-6.114-10.782-10.782-4.663-9.126-15.125-13.458-24.875-10.305-4.986 1.617-10.26 1.618-15.249 0-9.749-3.157-20.212 1.178-24.874 10.305-2.385 4.668-6.114 8.396-10.782 10.782-9.127 4.663-13.46 15.124-10.304 24.875 1.614 4.987 1.614 10.261 0 15.248-3.156 9.751 1.177 20.212 10.304 24.875 4.668 2.386 8.397 6.114 10.782 10.782 4.662 9.127 15.124 13.459 24.875 10.305 2.493-.808 5.059-1.212 7.623-1.212z" fill="#690589"/></g><g><g><path d="m42.392 105.335c-1.085 0-1.975-.867-1.999-1.957-.095-4.414.721-8.725 2.426-12.813.425-1.02 1.595-1.503 2.616-1.076 1.019.425 1.501 1.596 1.076 2.615-1.489 3.57-2.202 7.334-2.119 11.188.024 1.104-.852 2.019-1.957 2.043-.014 0-.029 0-.043 0z" fill="#690589"/></g></g></g></svg>