<svg id="Layer_35" enable-background="new 0 0 64 64" height="512" viewBox="0 0 64 64" width="512" xmlns="http://www.w3.org/2000/svg" xmlns:xlink="http://www.w3.org/1999/xlink"><linearGradient id="SVGID_1_" gradientUnits="userSpaceOnUse" x1="32" x2="32" y1="63" y2="1"><stop offset="0" stop-color="#9f2fff"/><stop offset="1" stop-color="#0bb1d3"/></linearGradient><path d="m18.67 48.228c3.742 3.077 8.476 4.772 13.33 4.772v2c-5.316 0-10.501-1.856-14.6-5.228zm15.241 4.686.179 1.992c.696-.062 1.399-.159 2.091-.286l-.361-1.967c-.632.117-1.274.204-1.909.261zm-4.809-41.715-.272-1.982c-.687.094-1.378.222-2.056.379l.453 1.948c.618-.143 1.249-.259 1.875-.345zm8.035-1.623c-.678-.154-1.37-.279-2.056-.372l-.267 1.982c.627.084 1.259.198 1.878.339zm-4.224 1.444.086-1.998c-.692-.029-1.396-.027-2.088.004l.093 1.998c.633-.03 1.275-.032 1.909-.004zm30.087 20.98c0 17.093-13.907 31-31 31s-31-13.907-31-31 13.907-31 31-31 31 13.907 31 31zm-2 0c0-15.991-13.009-29-29-29s-29 13.009-29 29 13.009 29 29 29 29-13.009 29-29zm-7.707 5.293-1 1-7 7 1.414 1.414 7-7 1-1zm-24.586 0-1.414 1.414 1 1 7 7 1.414-1.414-7-7zm21.414 1-5.828 5.828c-.189.189-.293.441-.293.708v5.171c0 1.654-1.346 3-3 3s-3-1.346-3-3v-5.171c0-.267-.104-.519-.293-.708l-5.828-5.828c-.567-.566-.879-1.32-.879-2.122 0-1.748 1.423-3.171 3.171-3.171.801 0 1.555.312 2.122.879l4.707 4.707 4.707-4.707c.566-.567 1.32-.879 2.122-.879 1.748 0 3.171 1.423 3.171 3.171 0 .802-.312 1.556-.879 2.122zm-1.121-2.122c0-.646-.525-1.171-1.171-1.171-.267 0-.519.104-.708.293l-6.121 6.121-6.121-6.121c-.189-.189-.441-.293-.708-.293-.646 0-1.171.525-1.171 1.171 0 .267.104.519.293.708l5.828 5.828c.567.566.879 1.32.879 2.122v5.171c0 .551.449 1 1 1s1-.449 1-1v-5.171c0-.801.312-1.555.879-2.122l5.828-5.828c.189-.189.293-.441.293-.708zm-24.293 2.536-1.414-1.414-1 1-7 7 1.414 1.414 7-7zm12.586-20 7 7 1.414-1.414-7-7-1-1-1.414 1.414zm21.707 13.293c0 14.888-12.112 27-27 27s-27-12.112-27-27 12.112-27 27-27 27 12.112 27 27zm-46.121 10.707 5.828-5.828c.189-.189.293-.441.293-.708 0-.646-.525-1.171-1.171-1.171-.267 0-.519.104-.708.293l-6.121 6.121-3.223-3.223c.825 3.226 2.279 6.203 4.223 8.792v-2.154c0-.802.312-1.556.879-2.122zm44.121-10.707c0-3.686-.808-7.185-2.247-10.339l-1.46 1.46c-.189.189-.293.441-.293.708v5.171c0 1.654-1.346 3-3 3s-3-1.346-3-3v-5.171c0-.267-.104-.519-.293-.708l-5.828-5.828c-.567-.566-.879-1.32-.879-2.122 0-1.748 1.423-3.171 3.171-3.171.801 0 1.555.312 2.122.879l4.707 4.707 1.37-1.37c-4.588-5.62-11.566-9.216-19.37-9.216-13.785 0-25 11.215-25 25 0 .926.055 1.839.153 2.739l3.847 3.847 4.707-4.707c.567-.567 1.32-.879 2.122-.879 1.748 0 3.171 1.423 3.171 3.171 0 .801-.312 1.555-.879 2.122l-5.828 5.828c-.189.189-.293.441-.293.708v4.494c4.551 4.727 10.935 7.677 18 7.677 13.785 0 25-11.215 25-25zm-8-8.171v5.171c0 .551.449 1 1 1s1-.449 1-1v-5.171c0-.801.312-1.555.879-2.122l1.922-1.922c-.377-.671-.783-1.323-1.219-1.953l-2.582 2.582-6.121-6.121c-.189-.189-.441-.293-.708-.293-.646 0-1.171.525-1.171 1.171 0 .267.104.519.293.708l5.828 5.828c.567.566.879 1.32.879 2.122zm-26 1.585-4.707 4.707c-.566.567-1.32.879-2.122.879-1.748 0-3.171-1.423-3.171-3.171 0-.801.312-1.555.879-2.122l5.828-5.828c.189-.189.293-.441.293-.708v-5.171c0-1.654 1.346-3 3-3s3 1.346 3 3v5.171c0 .267.104.519.293.708l5.828 5.828c.567.566.879 1.32.879 2.122 0 1.748-1.423 3.171-3.171 3.171-.801 0-1.555-.312-2.122-.879zm0-2.828 6.121 6.121c.189.189.441.293.708.293.646 0 1.171-.525 1.171-1.171 0-.267-.104-.519-.293-.708l-5.828-5.828c-.567-.566-.879-1.32-.879-2.122v-5.171c0-.551-.449-1-1-1s-1 .449-1 1v5.171c0 .801-.312 1.555-.879 2.122l-5.828 5.828c-.189.189-.293.441-.293.708 0 .646.525 1.171 1.171 1.171.267 0 .519-.104.708-.293zm-5.707-5.293-7 7-1 1 1.414 1.414 1-1 7-7zm11.414 0-1.414 1.414 7 7 1 1 1.414-1.414-1-1z" fill="url(#SVGID_1_)"/></svg>