<svg id="line" height="512" viewBox="0 0 64 64" width="512" xmlns="http://www.w3.org/2000/svg"><g fill="#c4a2fc"><path d="m22.775 27.036 8.485-8.485-1.571-1.572a6 6 0 0 0 -8.489 8.486z"/><path d="m59.674 27.036 1.571-1.572a6 6 0 0 0 -8.485-8.485l-1.571 1.572z"/><path d="m35.224 55v2a6 6 0 0 0 12 0v-2z"/><path d="m60.517 31.293-2.21 2.207-2.55-2.551 2.5-2.5-8.485-8.485-8.551 8.55-8.55-8.55-8.482 8.486 2.5 2.5-2.547 2.55-2.21-2.211a1 1 0 1 0 -1.415 1.414l2.917 2.917 3.081 3.081a1 1 0 0 0 1.415-1.414l-2.376-2.375 2.55-2.551 7.118 7.118v13.521h12v-13.515l7.118-7.118 2.551 2.551-2.376 2.375a1 1 0 0 0 1.415 1.414l3.081-3.081 2.917-2.917a1 1 0 1 0 -1.415-1.414z"/></g><path d="m40 5h-5.7c-8.163-5.333-16.437-5.333-24.6 0h-5.7a3 3 0 0 0 -3 3v26.761a2.984 2.984 0 0 0 1.658 2.684l18 9a3.02 3.02 0 0 0 2.683 0l18-9a2.984 2.984 0 0 0 1.659-2.684v-26.761a3 3 0 0 0 -3-3zm1 29.763a1 1 0 0 1 -.553.895l-18 9a1.006 1.006 0 0 1 -.895 0l-18-9a1 1 0 0 1 -.552-.897v-26.761a1 1 0 0 1 1-1h6a1.006 1.006 0 0 0 .555-.168c7.7-5.135 15.189-5.135 22.89 0a1.006 1.006 0 0 0 .555.168h6a1 1 0 0 1 1 1z" fill="#151a6a"/><path d="m32 18h-5v-5a3 3 0 0 0 -3-3h-4a3 3 0 0 0 -3 3v5h-5a3 3 0 0 0 -3 3v4a3 3 0 0 0 3 3h5v5a3 3 0 0 0 3 3h4a3 3 0 0 0 3-3v-5h5a3 3 0 0 0 3-3v-4a3 3 0 0 0 -3-3zm1 7a1 1 0 0 1 -1 1h-6a1 1 0 0 0 -1 1v6a1 1 0 0 1 -1 1h-4a1 1 0 0 1 -1-1v-6a1 1 0 0 0 -1-1h-6a1 1 0 0 1 -1-1v-4a1 1 0 0 1 1-1h6a1 1 0 0 0 1-1v-6a1 1 0 0 1 1-1h4a1 1 0 0 1 1 1v6a1 1 0 0 0 1 1h6a1 1 0 0 1 1 1z" fill="#151a6a"/></svg>