<svg id="Capa_1" enable-background="new 0 0 512 512" height="512" viewBox="0 0 512 512" width="512" xmlns="http://www.w3.org/2000/svg"><g><path d="m222.115 98.592-92.003-92.003-92.003 92.003c-50.812 50.812-50.812 133.194 0 184.006 50.812 50.812 133.194 50.812 184.006 0 50.812-50.812 50.812-133.194 0-184.006z" fill="#e3adb4"/><path d="m130.113 320.706c-33.295 0-66.597-12.704-92.005-38.111-50.809-50.809-50.809-133.194 0-184.003l92.005-92.005-44.197 92.005c-24.415 50.809-24.415 133.194 0 184.003 12.204 25.407 28.201 38.111 44.197 38.111z" fill="#db929a"/><path d="m457.609 188.4-131.311-131.311-131.311 131.311c-72.521 72.521-72.521 190.101 0 262.622 72.521 72.521 190.101 72.521 262.622 0 72.521-72.522 72.521-190.101 0-262.622z" fill="#e3adb4"/><path d="m326.3 505.411c-47.521 0-95.05-18.131-131.313-54.394-72.517-72.516-72.517-190.1 0-262.616l131.313-131.314-63.081 131.313c-34.847 72.516-34.847 190.1 0 262.616 17.419 36.263 40.25 54.395 63.081 54.395z" fill="#db929a"/><g><circle cx="270.777" cy="226.394" fill="#d87b7b" r="47.187"/><g fill="#d06161"><path d="m277.999 273.028c-2.35.37-4.767.554-7.221.554-26.059 0-47.188-21.129-47.188-47.188s21.129-47.188 47.188-47.188c2.454 0 4.87.185 7.221.554-22.637 3.466-39.975 23.029-39.975 46.634s17.338 43.168 39.975 46.634z"/><path d="m265.002 206.702c1.833-.54 3.769-.828 5.772-.828 11.337 0 20.523 9.186 20.523 20.523 0 11.33-9.186 20.516-20.523 20.516-2.003 0-3.939-.288-5.772-.828 8.529-2.491 14.751-10.361 14.751-19.688 0-9.334-6.222-17.205-14.751-19.695z"/></g></g><g><circle cx="410.885" cy="308.609" fill="#d87b7b" r="65.775"/><g fill="#d06161"><path d="m420.952 373.613c-3.276.515-6.645.773-10.065.773-36.324 0-65.777-29.453-65.777-65.777s29.453-65.777 65.777-65.777c3.42 0 6.789.258 10.065.773-31.554 4.832-55.722 32.101-55.722 65.005s24.167 60.172 55.722 65.003z"/><path d="m402.835 281.159c2.555-.752 5.254-1.154 8.046-1.154 15.803 0 28.608 12.805 28.608 28.608 0 15.793-12.805 28.598-28.608 28.598-2.792 0-5.491-.402-8.046-1.154 11.888-3.472 20.562-14.443 20.562-27.444 0-13.011-8.674-23.983-20.562-27.454z"/></g></g><g><path d="m313.743 378.358c10.211-8.017 13.244-22.525 6.564-34.095-6.68-11.57-20.761-16.197-32.809-11.362-1.838-12.852-12.885-22.732-26.245-22.732-13.36 0-24.407 9.881-26.245 22.732-12.049-4.834-26.129-.207-32.809 11.362-6.68 11.57-3.646 26.077 6.564 34.095-10.211 8.017-13.244 22.525-6.564 34.095 6.68 11.57 20.76 16.197 32.809 11.362 1.838 12.851 12.885 22.732 26.245 22.732 13.36 0 24.407-9.881 26.245-22.732 12.048 4.834 26.129.207 32.809-11.362 6.68-11.57 3.647-26.078-6.564-34.095z" fill="#bed8fb"/><g fill="#9dc6fb"><g><path d="m253.169 332.901c1.399-9.782 8.136-17.838 17.165-21.13-2.833-1.033-5.889-1.602-9.08-1.602-13.156 0-24.063 9.585-26.148 22.15 5.77-1.878 12.16-1.786 18.063.582z"/><path d="m253.169 423.815c-5.904 2.369-12.293 2.461-18.063.583 2.085 12.565 12.992 22.15 26.148 22.15 3.191 0 6.247-.569 9.08-1.602-9.029-3.293-15.766-11.349-17.165-21.131z"/><path d="m220.36 412.453c-6.68-11.57-3.646-26.077 6.564-34.095-10.211-8.017-13.244-22.525-6.564-34.095 3.243-5.618 8.233-9.592 13.886-11.648-11.875-4.345-25.507.321-32.046 11.648-6.68 11.57-3.646 26.077 6.564 34.095-10.211 8.017-13.244 22.525-6.564 34.095 6.54 11.327 20.171 15.993 32.046 11.648-5.652-2.056-10.642-6.03-13.886-11.648z"/></g><path d="m252.144 407.088c-2.576 0-5.094-1.287-6.559-3.632l-9.356-14.969c-2.262-3.619-1.161-8.385 2.457-10.647 3.619-2.262 8.385-1.161 10.647 2.457l9.356 14.969c2.262 3.619 1.161 8.385-2.457 10.647-1.274.795-2.69 1.175-4.088 1.175z"/><path d="m259.627 372.159c-2.371 0-4.712-1.088-6.226-3.144-2.531-3.435-1.798-8.272 1.637-10.803l11.851-8.732c3.435-2.531 8.273-1.798 10.803 1.637 2.531 3.435 1.798 8.272-1.637 10.803l-11.851 8.732c-1.379 1.017-2.985 1.507-4.577 1.507z"/><path d="m285.819 395.862c-.771 0-1.555-.116-2.329-.361l-11.851-3.742c-4.069-1.285-6.326-5.625-5.041-9.695 1.285-4.068 5.623-6.327 9.695-5.041l11.851 3.742c4.069 1.285 6.326 5.625 5.041 9.695-1.041 3.295-4.085 5.402-7.366 5.402z"/></g></g><g><path d="m139.027 180.616c7.765-6.097 10.072-17.13 4.992-25.928-5.08-8.798-15.788-12.317-24.951-8.641-1.398-9.773-9.799-17.287-19.958-17.287-10.16 0-18.561 7.514-19.958 17.287-9.163-3.676-19.871-.158-24.95 8.641-5.08 8.799-2.773 19.831 4.992 25.928-7.765 6.097-10.072 17.13-4.992 25.928 5.08 8.799 15.788 12.317 24.95 8.641 1.398 9.773 9.799 17.287 19.958 17.287 10.16 0 18.561-7.514 19.958-17.287 9.163 3.676 19.871.158 24.951-8.641 5.08-8.798 2.773-19.831-4.992-25.928z" fill="#bed8fb"/><g fill="#9dc6fb"><g><path d="m92.962 146.047c1.064-7.439 6.187-13.565 13.053-16.069-2.154-.786-4.479-1.219-6.905-1.219-10.005 0-18.299 7.289-19.885 16.844 4.388-1.427 9.248-1.357 13.737.444z"/><path d="m92.962 215.185c-4.489 1.801-9.349 1.871-13.736.443 1.585 9.555 9.88 16.844 19.885 16.844 2.426 0 4.751-.433 6.905-1.219-6.867-2.503-11.99-8.629-13.054-16.068z"/><path d="m68.012 206.544c-5.08-8.799-2.773-19.831 4.992-25.928-7.765-6.097-10.072-17.13-4.992-25.928 2.466-4.272 6.261-7.295 10.56-8.858-9.031-3.304-19.397.244-24.37 8.858-5.08 8.799-2.773 19.831 4.992 25.928-7.765 6.097-10.072 17.13-4.992 25.928 4.973 8.614 15.34 12.162 24.371 8.858-4.3-1.563-8.095-4.586-10.561-8.858z"/></g><path d="m92.184 204.315c-2.576 0-5.094-1.287-6.559-3.632l-7.115-11.384c-2.262-3.619-1.161-8.385 2.457-10.647 3.619-2.262 8.385-1.161 10.647 2.457l7.115 11.384c2.262 3.619 1.161 8.385-2.457 10.647-1.274.795-2.69 1.175-4.088 1.175z"/><path d="m97.875 177.753c-2.371 0-4.712-1.088-6.226-3.144-2.531-3.435-1.798-8.272 1.637-10.803l9.012-6.64c3.435-2.531 8.272-1.798 10.803 1.637s1.798 8.272-1.637 10.803l-9.012 6.64c-1.38 1.017-2.986 1.507-4.577 1.507z"/><path d="m117.792 195.778c-.771 0-1.555-.116-2.329-.361l-9.012-2.846c-4.069-1.285-6.326-5.625-5.041-9.695 1.285-4.069 5.623-6.327 9.695-5.041l9.012 2.846c4.069 1.285 6.326 5.625 5.041 9.695-1.041 3.296-4.085 5.402-7.366 5.402z"/></g></g></g></svg>