<svg id="Layer_1" enable-background="new 0 0 256 256" height="512" viewBox="0 0 256 256" width="512" xmlns="http://www.w3.org/2000/svg"><g><g fill="#ebe7f2"><path d="m163.655 173.173c-2.255 0-4.524-.146-6.747-.434-1.369-.178-2.335-1.432-2.158-2.801.178-1.367 1.423-2.336 2.801-2.158 2.01.261 4.063.393 6.104.393 25.918 0 47.003-21.085 47.003-47.003 0-1.381 1.119-2.5 2.5-2.5s2.5 1.119 2.5 2.5c0 28.675-23.328 52.003-52.003 52.003z"/><path d="m187.256 69.437c-.627 0-1.254-.234-1.739-.704-8.828-8.554-18.164-16.896-21.861-20.168-3.698 3.271-13.034 11.614-21.862 20.168-.991.959-2.573.937-3.535-.057-.96-.991-.936-2.574.057-3.535 11.373-11.019 23.575-21.684 23.696-21.79.943-.822 2.346-.824 3.289 0 .122.106 12.322 10.771 23.695 21.79.992.961 1.017 2.544.057 3.535-.491.507-1.145.761-1.797.761z"/><path d="m92.345 216.28c-28.675 0-52.003-23.328-52.003-52.003 0-1.381 1.119-2.5 2.5-2.5s2.5 1.119 2.5 2.5c0 25.918 21.085 47.003 47.003 47.003s47.003-21.085 47.003-47.003c0-1.381 1.119-2.5 2.5-2.5s2.5 1.119 2.5 2.5c.001 28.675-23.328 52.003-52.003 52.003z"/><path d="m68.744 112.545c-.653 0-1.305-.254-1.795-.761-.961-.991-.936-2.574.056-3.535 11.372-11.019 23.574-21.685 23.696-21.791.942-.822 2.347-.822 3.289 0 .122.106 12.323 10.772 23.696 21.791.992.961 1.017 2.544.056 3.535-.96.994-2.543 1.017-3.535.057-8.83-8.556-18.164-16.897-21.861-20.169-3.698 3.272-13.034 11.615-21.861 20.169-.487.47-1.114.704-1.741.704z"/></g><path d="m112.234 190.159c-2.285 0-4.525-1.04-5.961-2.902l-13.928-18.037-13.929 18.039c-1.892 2.461-5.413 3.513-8.371 2.496-2.982-1.026-5.065-3.938-5.065-7.08v-52.454c0-4.136 3.364-7.5 7.5-7.5s7.5 3.364 7.5 7.5v30.47l6.429-8.326c1.409-1.825 3.628-2.916 5.936-2.916s4.527 1.091 5.937 2.917l6.429 8.325v-30.47c0-4.136 3.364-7.5 7.5-7.5s7.5 3.364 7.5 7.5v52.454c0 1.131-.28 2.28-.811 3.325-.867 1.707-2.357 3.055-4.089 3.698-.838.312-1.711.461-2.577.461zm-19.889-27.53c.774 0 1.505.359 1.979.972l15.908 20.602c.627.813 1.873 1.169 2.838.81.559-.208 1.072-.685 1.372-1.275.176-.347.269-.714.269-1.062v-52.454c0-1.379-1.122-2.5-2.5-2.5s-2.5 1.121-2.5 2.5v37.798c0 1.069-.681 2.021-1.693 2.366-1.011.343-2.132.009-2.786-.838l-10.908-14.126c-.47-.609-1.21-.973-1.979-.973s-1.509.363-1.979.972l-10.908 14.127c-.654.847-1.773 1.18-2.786.838-1.012-.346-1.693-1.297-1.693-2.366v-37.798c0-1.379-1.122-2.5-2.5-2.5s-2.5 1.121-2.5 2.5v52.454c0 .992.743 2.025 1.691 2.352.94.325 2.188-.045 2.784-.819l15.911-20.606c.475-.615 1.206-.974 1.98-.974z" fill="#f9b087"/><g fill="#846f75"><path d="m165.028 25.883c-.834-.549-1.912-.549-2.746 0-1.249.82-30.807 20.423-50.192 48.498-.785 1.137-.5 2.693.637 3.479 1.137.784 2.694.499 3.478-.637 16.499-23.895 41.37-41.993 47.45-46.223 9.325 6.496 62.82 45.656 62.82 88.602 0 34.639-28.181 62.819-62.819 62.819-1.381 0-2.5 1.119-2.5 2.5s1.119 2.5 2.5 2.5c37.396 0 67.819-30.424 67.819-67.819 0-49.478-63.734-91.936-66.447-93.719z"/><path d="m93.718 68.99c-.833-.549-1.913-.549-2.746 0-2.713 1.783-66.447 44.241-66.447 93.719 0 37.396 30.424 67.819 67.82 67.819s67.82-30.424 67.82-67.819c0-49.478-63.733-91.936-66.447-93.719zm-1.373 156.538c-34.639 0-62.82-28.181-62.82-62.819 0-42.915 53.495-82.1 62.82-88.601 9.325 6.501 62.82 45.686 62.82 88.601 0 34.639-28.181 62.819-62.82 62.819z"/><path d="m195.651 98.218c7.308-7.307 9.555-16.08 5.229-20.406-4.324-4.326-13.098-2.077-20.405 5.229-3.233 3.233-5.624 6.979-6.729 10.546-1.275 4.116-.743 7.618 1.5 9.86 1.481 1.481 3.484 2.191 5.772 2.191 4.39.001 9.829-2.617 14.633-7.42zm-16.871 1.694c-.842-.842-.938-2.653-.26-4.845.857-2.766 2.858-5.86 5.489-8.491 5.751-5.75 11.643-6.922 13.335-5.229s.522 7.585-5.229 13.336c-5.751 5.749-11.64 6.92-13.335 5.229z"/><path d="m142.241 87.929c-4.326 4.326-2.078 13.099 5.229 20.405 3.233 3.233 6.979 5.624 10.546 6.729 1.466.454 2.854.68 4.135.68 2.315 0 4.281-.735 5.725-2.18 4.326-4.326 2.079-13.1-5.229-20.406-7.305-7.306-16.08-9.556-20.406-5.228zm22.1 22.099c-.843.841-2.651.939-4.844.26-2.766-.857-5.86-2.858-8.491-5.489-5.751-5.751-6.922-11.643-5.229-13.335.463-.462 1.238-.711 2.239-.711 2.663 0 6.917 1.76 11.097 5.939 5.75 5.751 6.92 11.644 5.228 13.336z"/><path d="m165.619 139.005c1.481 1.482 3.485 2.192 5.773 2.192 4.391 0 9.829-2.617 14.633-7.422 7.308-7.308 9.556-16.08 5.229-20.406-4.326-4.325-13.099-2.078-20.406 5.229-7.306 7.307-9.555 16.08-5.229 20.407zm19.862-22.811c1 0 1.775.248 2.238.71.842.842.938 2.653.259 4.845-.857 2.766-2.857 5.86-5.488 8.491s-5.726 4.631-8.491 5.488c-2.191.68-4.001.582-4.845-.259-1.691-1.692-.521-7.585 5.229-13.336 4.181-4.179 8.435-5.939 11.098-5.939z"/></g></g></svg>