<svg id="Capa_1" enable-background="new 0 0 512 512" height="512" viewBox="0 0 512 512" width="512" xmlns="http://www.w3.org/2000/svg"><g clip-rule="evenodd" fill-rule="evenodd"><path d="m171.27 317.395c-31.217-26.615-88.453-10.693-127.817 35.555-39.365 46.218-45.964 105.262-14.747 131.877 31.217 26.586 88.453 10.693 127.817-35.555 39.335-46.218 45.964-105.291 14.747-131.877z" fill="#ff8092"/><path d="m466.912 53.438c-39.364-46.218-96.6-62.14-127.817-35.525-31.217 26.586-24.617 85.629 14.747 131.877 39.364 46.218 96.6 62.14 127.817 35.525 31.217-26.586 24.617-85.63-14.747-131.877z" fill="#ff8092"/><path d="m116.575 415.237c20.558-24.161 29.815-50.075 20.646-57.875-9.14-7.8-33.232 5.463-53.819 29.624-20.558 24.161-29.815 50.075-20.646 57.875 9.14 7.8 33.231-5.464 53.819-29.624z" fill="#fd4755"/><path d="m447.609 145.348c9.169-7.8-.088-33.714-20.646-57.875-20.587-24.132-44.679-37.395-53.819-29.595-9.169 7.8.088 33.685 20.646 57.846 20.587 24.161 44.679 37.425 53.819 29.624z" fill="#fd4755"/><path d="m466.912 53.438c-25.114-29.449-57.44-46.627-85.679-48.292 28.676 13.059 49.994 48.614 53.002 91.589 15.331 21.21 21.376 41.807 13.375 48.614-3.825 3.272-10.25 2.863-17.93-.497-4.789 17.646-12.849 33.101-23.157 44.933 28.092 12.153 56.331 11.569 75.137-4.47 31.216-26.586 24.616-85.63-14.748-131.877z" fill="#fe636e"/><path d="m171.27 317.395c-23.624-20.129-62.142-15.922-96.542 7.362 12.469 9.992 22.748 24.628 29.582 42.216 13.959-10.605 26.778-14.841 32.911-9.612 9.169 7.8-.088 33.714-20.646 57.875-1.022 1.169-2.044 2.337-3.066 3.477-.175 29.478-8.965 56.122-23.04 75.375 22.836-6.573 46.607-21.999 66.055-44.816 39.334-46.218 45.963-105.291 14.746-131.877z" fill="#fe636e"/><path d="m349.198 273.485c-10.396 2.366-20.471 6.398-29.845 12.095-4.118 2.542-2.336 1.432-6.074-1.461-7.972-6.223-19.536-5.668-26.895 1.694-7.33 7.333-7.914 18.902-1.694 26.907 2.891 3.71 4.03 1.928 1.489 6.077-5.724 9.349-9.754 19.457-12.09 29.858-1.139 4.937-.321 3.827-5.87 3.827h-19.419c-10.016 0-18.222 8.209-18.222 18.259 0 10.021 8.206 18.23 18.222 18.23h19.419c5.548 0 4.731-1.11 5.87 3.856 2.336 10.371 6.366 20.48 12.09 29.829 2.541 4.149 1.402 2.366-1.489 6.077-6.22 8.005-5.636 19.574 1.694 26.907 7.359 7.362 18.923 7.917 26.895 1.724 3.738-2.892 1.957-4.032 6.074-1.49 9.374 5.726 19.449 9.758 29.845 12.095 4.964 1.11 3.825.321 3.825 5.872v19.399c0 10.05 8.235 18.259 18.251 18.259 10.046 0 18.251-8.209 18.251-18.259v-19.399c0-5.551-1.139-4.762 3.825-5.872 10.396-2.337 20.5-6.369 29.845-12.095 4.147-2.542 2.336-1.432 6.074 1.49 8.001 6.194 19.536 5.638 26.895-1.724 7.33-7.333 7.914-18.902 1.694-26.907-2.891-3.71-4.001-1.928-1.489-6.077 5.724-9.349 9.753-19.457 12.119-29.829 1.11-4.967.292-3.856 5.84-3.856h19.419c10.046 0 18.251-8.209 18.251-18.23 0-10.05-8.206-18.259-18.251-18.259h-19.419c-5.519 0-4.731 1.11-5.84-3.827-2.365-10.401-6.395-20.509-12.119-29.858-2.511-4.149-1.402-2.366 1.489-6.077 6.22-8.005 5.636-19.574-1.694-26.907-7.359-7.362-18.894-7.917-26.895-1.694-3.738 2.892-1.927 4.002-6.074 1.461-9.345-5.697-19.449-9.729-29.845-12.095-4.964-1.11-3.825-.321-3.825-5.843v-19.428c0-10.05-8.206-18.259-18.251-18.259-10.016 0-18.251 8.209-18.251 18.259v19.428c.001 5.522 1.14 4.733-3.825 5.843z" fill="#f4ebe9"/><path d="m345.986 354.82c-8.79-8.794-23.04-8.794-31.83 0s-8.79 23.051 0 31.844c8.79 8.794 23.04 8.794 31.83 0s8.79-23.05 0-31.844z" fill="#ff8092"/><path d="m434.965 367.996c0-22.612-18.31-40.93-40.883-40.93-2.774 0-5.052 2.279-5.052 5.025v71.781c0 2.775 2.278 5.025 5.052 5.025 22.573 0 40.883-18.318 40.883-40.901z" fill="#ff8092"/><path d="m423.196 285.58c-7.68-4.674-15.828-8.239-24.238-10.663 5.665 17.383 9.783 36.11 12.002 55.801 14.163 6.427 24.004 20.713 24.004 37.278 0 16.769-10.104 31.202-24.559 37.512-2.891 22.145-8.118 43.034-15.302 62.053 9.783-2.396 19.244-6.281 28.092-11.686 4.147-2.542 2.336-1.432 6.074 1.49 8.001 6.194 19.536 5.638 26.895-1.724 7.33-7.333 7.914-18.902 1.694-26.907-2.891-3.71-4.001-1.928-1.489-6.077 5.724-9.349 9.753-19.457 12.119-29.829 1.11-4.967.292-3.856 5.84-3.856h19.419c10.046 0 18.251-8.209 18.251-18.23 0-10.05-8.206-18.259-18.251-18.259h-19.419c-5.519 0-4.731 1.11-5.84-3.827-2.365-10.401-6.395-20.509-12.119-29.858-2.511-4.149-1.402-2.366 1.489-6.077 6.22-8.005 5.636-19.574-1.694-26.907-7.359-7.362-18.894-7.917-26.895-1.694-3.736 2.892-1.926 4.002-6.073 1.46z" fill="#e0d2ce"/><path d="m410.961 330.717c1.314 11.394 1.986 23.109 1.986 35.058 0 13.585-.876 26.878-2.541 39.732 14.455-6.31 24.559-20.743 24.559-37.512 0-16.564-9.841-30.85-24.004-37.278z" fill="#fe636e"/><path d="m66.639 38.538-15.214-15.25c-7.885-7.859-20.763-7.859-28.647 0-7.855 7.888-7.855 20.772 0 28.66l15.243 15.221c4.351 4.353 4.585 2.834 1.577 7.625-6.308 9.992-11.068 21.064-13.9 32.896-1.285 5.259-.759 2.951-5.928 3.623-11.155 1.402-19.77 10.897-19.77 22.437s8.615 21.035 19.77 22.437c5.169.672 4.643-1.636 5.928 3.623 2.833 11.832 7.593 22.905 13.9 32.896 3.008 4.791 2.774 3.272-1.577 7.625l-15.243 15.221c-7.855 7.888-7.855 20.772 0 28.66 7.885 7.859 20.763 7.859 28.647 0l15.214-15.25c4.351-4.353 2.833-4.587 7.622-1.578 9.987 6.31 21.055 11.072 32.882 13.906 5.256 1.285 2.949.76 3.621 5.931 1.402 11.16 10.892 19.779 22.427 19.779s21.026-8.618 22.427-19.779c.672-5.171-1.635-4.645 3.621-5.931 11.827-2.834 22.894-7.596 32.882-13.906 4.789-3.009 3.271-2.775 7.622 1.578l15.214 15.25c7.885 7.859 20.763 7.859 28.647 0 7.855-7.888 7.855-20.772 0-28.66l-15.243-15.221c-4.351-4.353-4.585-2.834-1.577-7.625 6.308-9.992 11.068-21.064 13.9-32.896 1.285-5.259.759-2.951 5.928-3.623 11.155-1.402 19.77-10.897 19.77-22.437s-8.615-21.035-19.77-22.437c-5.169-.672-4.643 1.636-5.928-3.623-2.833-11.832-7.593-22.905-13.9-32.896-3.008-4.791-2.774-3.272 1.577-7.625l15.243-15.221c7.855-7.888 7.855-20.772 0-28.66-7.885-7.859-20.763-7.859-28.647 0l-15.214 15.25c-4.351 4.353-2.833 4.587-7.622 1.578-9.987-6.31-21.055-11.072-32.882-13.906-5.256-1.285-2.949-.76-3.621-5.931-1.402-11.161-10.893-19.779-22.427-19.779-11.535 0-21.025 8.618-22.427 19.779-.672 5.171 1.635 4.645-3.621 5.931-11.827 2.834-22.894 7.596-32.882 13.906-4.789 3.009-3.271 2.775-7.622-1.578z" fill="#f4ebe9"/><path d="m100.864 76.401c-13.813 0-24.997 11.189-24.997 25.008 0 13.789 11.184 24.979 24.997 24.979 13.783 0 24.968-11.189 24.968-24.979 0-13.819-11.185-25.008-24.968-25.008z" fill="#ff8092"/><path d="m177.432 117.389-56.302 56.297c-2.161 2.162-2.161 5.726 0 7.888 17.726 17.734 46.461 17.734 64.186 0 17.726-17.704 17.726-46.452 0-64.185-2.161-2.191-5.723-2.191-7.884 0z" fill="#ff8092"/><path d="m192.12 40.116c-9.987-6.31-21.055-11.072-32.882-13.906-5.256-1.285-2.949-.76-3.621-5.931-1.401-11.161-10.892-19.779-22.426-19.779-11.535 0-21.025 8.618-22.427 19.779-.029.146-.058.321-.058.467 25.435 25.855 44.796 64.185 54.228 109.147l12.498-12.504c2.161-2.191 5.724-2.191 7.885 0 17.726 17.734 17.726 46.481 0 64.185-4.176 4.178-8.965 7.391-14.075 9.583.029.321.029.613.029.906 0 16.097-1.226 31.786-3.563 46.832 8.673-2.863 16.85-6.749 24.413-11.511 4.789-3.009 3.271-2.775 7.622 1.578l15.214 15.25c7.885 7.859 20.763 7.859 28.647 0 7.855-7.888 7.855-20.772 0-28.66l-15.243-15.221c-4.351-4.353-4.585-2.834-1.577-7.625 6.308-9.992 11.068-21.064 13.9-32.896 1.285-5.259.759-2.951 5.928-3.623 11.155-1.402 19.77-10.897 19.77-22.437s-8.615-21.035-19.77-22.437c-5.169-.672-4.643 1.636-5.928-3.623-2.833-11.832-7.593-22.905-13.9-32.896-3.008-4.791-2.774-3.272 1.577-7.625l15.243-15.221c7.855-7.888 7.855-20.772 0-28.66-7.885-7.859-20.763-7.859-28.647 0l-15.214 15.25c-4.352 4.353-2.833 4.587-7.623 1.578z" fill="#e0d2ce"/><path d="m177.432 117.389-12.498 12.504c4.059 19.34 6.249 39.937 6.308 61.264 5.11-2.191 9.9-5.405 14.075-9.583 17.726-17.704 17.726-46.452 0-64.185-2.162-2.191-5.724-2.191-7.885 0z" fill="#fe636e"/></g></svg>