<?xml version="1.0" encoding="utf-8"?>
<!-- Generator: Adobe Illustrator 21.0.0, SVG Export Plug-In . SVG Version: 6.00 Build 0)  -->
<svg xmlns="http://www.w3.org/2000/svg" xmlns:xlink="http://www.w3.org/1999/xlink" version="1.1" id="Layer_1" x="0px" y="0px" viewBox="0 0 256 256" style="enable-background:new 0 0 256 256;" xml:space="preserve" width="512" height="512">
<style type="text/css">
	.st0{fill:#F9D97D;}
	.st1{fill:#F9828B;}
	.st2{fill:#F9D0B4;}
	.st3{fill:#231F20;}
	.st4{fill:#6D6C6B;}
	.st5{fill:#F45D64;}
	.st6{fill:#60BAE2;}
	.st7{fill:#6DCC6D;}
</style>
<g id="Layer_11">
	<path class="st0" d="M181,112.5L181,112.5c-26.9,0.1-48.6,21.8-48.7,48.7l0,0c0.1,26.9,21.8,48.6,48.7,48.7l0,0   c26.9-0.1,48.6-21.8,48.7-48.7l0,0C229.6,134.4,207.9,112.6,181,112.5z"/>
	<path class="st1" d="M171,151.7c4.4-3.4,10.5-3.4,14.9,0c9.3-7.2,4.1-21.9-7.5-21.9S161.7,144.5,171,151.7z"/>
	<circle class="st1" cx="178.4" cy="161.4" r="12.2"/>
	<path class="st1" d="M186.2,170.8c-4.5,3.7-11.1,3.7-15.6,0c-6.7,4.3-8.6,13.2-4.3,19.9s13.2,8.6,19.9,4.3s8.6-13.2,4.3-19.9   C189.4,173.3,188,171.9,186.2,170.8z"/>
	<path class="st1" d="M190.6,159.7c0.6,4.2-1.1,8.4-4.4,11.1c0,0,0.1,0,0.1-0.1c4.1,2.6,6.6,7.2,6.6,12.1c0,0.1,0,0.1,0,0.2   c5.1,1,10.4-1.3,13-5.9C211.6,167.1,201.4,155.3,190.6,159.7z"/>
	<path class="st1" d="M185.9,151.7c2.6,2,4.2,4.9,4.7,8c3.4-1.4,7.2-1.2,10.4,0.5c6.3-7.6-0.9-18.9-10.4-16.3   C190,147,188.4,149.8,185.9,151.7z"/>
	<path class="st1" d="M166.3,163c-4,1.7-8.7,1.1-12.1-1.6c-10.2,7.9-2.8,24.2,9.9,21.7c0-0.1,0-0.1,0-0.2c0-4.9,2.5-9.4,6.6-12.1   C168.3,168.8,166.7,166,166.3,163z"/>
	<path class="st1" d="M171,151.7c-3.5-2.7-5.2-7-4.6-11.3c-6.2-2.6-13.4,0.4-16,6.6s0.4,13.4,6.6,16c3,1.2,6.3,1.2,9.3,0   C165.7,158.6,167.5,154.3,171,151.7z"/>
	<path class="st1" d="M190.5,143.9L190.5,143.9c4.5-1.2,9.2,0.8,11.5,4.9c4.5-4,4.9-11,0.8-15.5c-4-4.5-11-4.9-15.5-0.8   c-0.2,0.2-0.4,0.4-0.6,0.6C189.8,135.9,191.2,139.9,190.5,143.9z"/>
	<path class="st1" d="M205.5,142.1c-0.3,2.6-1.6,5-3.5,6.7c2,3.7,1.6,8.2-1.1,11.4c3.3,1.7,5.7,4.9,6.3,8.6   C221.2,164.7,219.9,144.4,205.5,142.1z"/>
	<path class="st2" d="M184.2,209.9c-1.1,0.1-2.1,0.1-3.2,0.1l0,0c-26.9-0.1-48.6-21.8-48.7-48.7c0-8.1,2-16.2,6-23.3   c-4-1.6-7.9-3.3-11.7-5.2l0,0c-1.8-0.9-3-2.7-3-4.8v-11.2c-10.7,5.8-23.7,6.1-34.6,0.6V128c0,2-1.1,3.9-3,4.8l0,0   c-9.7,4.8-19.9,8.5-30.3,11.2l-13.4,3.4c-6.3,1.6-10.8,7.1-11.2,13.5l-4.8,86.3c-0.2,3.3,2.4,6.2,5.7,6.4c0.1,0,0.2,0,0.3,0h147.9   c3.3,0,6-2.7,6-6c0-0.1,0-0.2,0-0.3L184.2,209.9z"/>
	<circle class="st1" cx="77.3" cy="180.5" r="7.1"/>
	<path class="st3" d="M77.3,190.1c-5.3,0-9.6-4.3-9.6-9.6c0-5.3,4.3-9.6,9.6-9.6c5.3,0,9.6,4.3,9.6,9.6   C86.9,185.8,82.6,190.1,77.3,190.1z M77.3,175.9c-2.5,0-4.6,2.1-4.6,4.6c0,2.5,2.1,4.6,4.6,4.6c2.5,0,4.6-2.1,4.6-4.6   C81.9,178,79.8,175.9,77.3,175.9L77.3,175.9z"/>
	<path class="st2" d="M145.7,55.3c-0.8,0-1.7,0.1-2.5,0.2c0.1,0.8,0.1,1.7,0.1,2.5v25.9c0,0.8,0,1.7-0.1,2.5c8.5,1.4,16.6-4.4,18-13   c1.4-8.5-4.4-16.6-13-18C147.4,55.3,146.5,55.3,145.7,55.3L145.7,55.3z"/>
	<path class="st2" d="M68.2,83.9V58c0-0.9,0-1.7,0.1-2.5c-8.5-1.4-16.6,4.3-18.1,12.8c-1.4,8.5,4.3,16.6,12.8,18.1   c1.7,0.3,3.5,0.3,5.2,0C68.2,85.6,68.2,84.7,68.2,83.9z"/>
	<path class="st2" d="M111.4,38.3C97.6,55.6,77.4,53.1,70.6,51.7c-1.1-0.2-2.1,0.5-2.4,1.5c0,0.1,0,0.3,0,0.4v30.2   c0.1,20.7,16.8,37.5,37.5,37.5l0,0c20.7-0.1,37.5-16.8,37.5-37.5V50.4c0-0.2,0-0.4,0-0.6c0-1.1-0.9-1.9-1.9-2   c-15.6-0.5-23.8-6.6-27-9.7c-0.8-0.8-2.1-0.8-2.9,0C111.4,38.2,111.4,38.3,111.4,38.3z"/>
	<path class="st4" d="M65.8,55.3c0.8,0,1.6,0.1,2.4,0.2v-1.8c0-1.1,0.9-2,2-2c0.1,0,0.3,0,0.4,0c6.8,1.4,27,3.9,40.7-13.4   c0.7-0.9,2-1,2.8-0.3c0.1,0,0.1,0.1,0.2,0.1c3.2,3.1,11.4,9.3,27,9.7c1.1,0,1.9,0.9,1.9,2c0,0.2,0,0.4,0,0.6v5   c4.8-0.8,9.8,0.8,13.3,4.2V31.5c0-11.8-9.6-21.4-21.4-21.4c-3.9,0-7.7,1.1-11,3.1c-3.9-6.5-10.8-10.5-18.4-10.5h-11   C73.4,2.6,56.1,20,56,41.3v17.4C58.8,56.5,62.2,55.3,65.8,55.3z"/>
	<path class="st5" d="M44.7,113.2h-1.8v-1.8c0-1.4-1.1-2.5-2.5-2.5s-2.5,1.1-2.5,2.5v1.8H36c-1.4,0-2.5,1.1-2.5,2.5s1.1,2.5,2.5,2.5   h1.8v1.8c0,1.4,1.1,2.5,2.5,2.5s2.5-1.1,2.5-2.5v-1.8h1.8c1.4,0,2.5-1.1,2.5-2.5S46.1,113.2,44.7,113.2L44.7,113.2z"/>
	<path class="st6" d="M164.1,2c0-0.2-0.1-0.3-0.1-0.5c-0.1-0.1-0.1-0.3-0.2-0.4c-0.1-0.1-0.2-0.3-0.3-0.4c-1-0.9-2.5-0.9-3.5,0   c-0.1,0.1-0.2,0.2-0.3,0.4c-0.1,0.1-0.2,0.3-0.2,0.4c-0.1,0.2-0.1,0.3-0.1,0.5c0,0.2-0.1,0.3-0.1,0.5c0,0.2,0,0.3,0.1,0.5   c0,0.2,0.1,0.3,0.1,0.5c0.1,0.2,0.1,0.3,0.2,0.4c0.1,0.1,0.2,0.3,0.3,0.4c1,1,2.5,1,3.5,0c0,0,0,0,0,0c0.1-0.1,0.2-0.2,0.3-0.4   c0.1-0.1,0.2-0.3,0.2-0.4c0.1-0.1,0.1-0.3,0.1-0.5c0-0.2,0-0.3,0.1-0.5C164.2,2.3,164.2,2.1,164.1,2z"/>
	<path class="st0" d="M24,134.8c0-0.2-0.1-0.3-0.1-0.5c-0.1-0.1-0.1-0.3-0.2-0.4c-0.1-0.1-0.2-0.3-0.3-0.4c-1-0.9-2.5-0.9-3.5,0   c-0.1,0.1-0.2,0.2-0.3,0.4c-0.2,0.3-0.3,0.6-0.4,0.9c-0.1,0.3-0.1,0.7,0,1c0,0.2,0.1,0.3,0.1,0.5c0.1,0.2,0.1,0.3,0.2,0.4   c0.1,0.1,0.2,0.3,0.3,0.4c1,1,2.5,1,3.5,0c0,0,0,0,0,0c0.1-0.1,0.2-0.2,0.3-0.4c0.1-0.1,0.2-0.3,0.2-0.4c0.1-0.1,0.1-0.3,0.1-0.5   C24.1,135.5,24.1,135.2,24,134.8z"/>
	<path class="st7" d="M191.1,22.6c-4.1-0.8-7.2-4-8-8c0-0.1-0.1-0.2-0.2-0.2c-0.1,0-0.1,0.1-0.2,0.2c-0.8,4.1-4,7.2-8,8   c-0.1,0-0.2,0.1-0.2,0.2c0,0.1,0.1,0.1,0.2,0.2c4.1,0.8,7.2,4,8,8c0,0.1,0.1,0.2,0.2,0.2c0.1,0,0.1-0.1,0.2-0.2c0.8-4.1,4-7.2,8-8   c0.1,0,0.2-0.1,0.2-0.2C191.3,22.7,191.2,22.6,191.1,22.6z"/>
	<path class="st3" d="M145.7,89.1c-1,0-1.9-0.1-2.9-0.2c-1.3-0.2-2.2-1.3-2.1-2.6c0.1-0.9,0.1-1.7,0.1-2.4V58c0-0.7,0-1.5-0.1-2.4   c-0.1-1.3,0.8-2.4,2.1-2.6c9.9-1.6,19.2,5.1,20.8,15c1.6,9.9-5.1,19.2-15,20.8C147.6,89,146.7,89.1,145.7,89.1L145.7,89.1z    M145.8,57.8c0,0.1,0,0.2,0,0.2v25.9c0,0.1,0,0.2,0,0.2c7.3,0,13.2-5.9,13.2-13.2C158.9,63.7,153,57.8,145.8,57.8z"/>
	<path class="st3" d="M65.8,89.1c-10,0-18.2-8.1-18.2-18.2s8.1-18.2,18.2-18.2c1,0,1.9,0.1,2.9,0.2c1.3,0.2,2.2,1.3,2.1,2.6   c-0.1,0.9-0.1,1.7-0.1,2.4v25.9c0,0.7,0,1.4,0.1,2.4c0.1,1.3-0.8,2.4-2.1,2.6C67.7,89,66.8,89.1,65.8,89.1z M65.7,57.8   c-7.3,0-13.2,5.9-13.2,13.2c0,7.3,5.9,13.2,13.2,13.2c0-0.1,0-0.2,0-0.2V58C65.7,57.9,65.7,57.8,65.7,57.8z"/>
	<path class="st3" d="M105.7,123.9c-22.1,0-40-17.9-40-40V53.7c0-2.5,2-4.5,4.5-4.5c0.3,0,0.6,0,0.9,0.1c7.3,1.5,25.7,3.4,38.3-12.5   l0,0c1.6-2,4.4-2.3,6.4-0.7c0.1,0.1,0.2,0.2,0.4,0.3c2.6,2.6,10.3,8.6,25.3,9c2.4,0.1,4.3,2,4.4,4.4c0,0.2,0,0.4,0,0.6v33.4   C145.8,106,127.8,123.9,105.7,123.9z M70.7,54.3v29.6c0,19.4,15.7,35,35,35s35-15.7,35-35V50.4c-15.3-0.6-23.9-6.4-27.8-10.1   C98.7,57.9,77.7,55.6,70.7,54.3z M113.3,39.9L113.3,39.9L113.3,39.9z"/>
	<path class="st3" d="M156.6,62.2c-0.6,0-1.3-0.3-1.7-0.7c-2.4-2.4-5.7-3.7-9.1-3.7c-0.7,0-1.4,0.1-2,0.2c-1.4,0.2-2.6-0.7-2.9-2.1   c0-0.1,0-0.3,0-0.4v-5.1c-15.3-0.6-23.9-6.4-27.8-10.1c-14.3,17.6-35.3,15.4-42.3,14v1.2c0,1.4-1.1,2.5-2.5,2.5c-0.1,0-0.3,0-0.4,0   c-0.7-0.1-1.3-0.2-2-0.2c-3,0-5.9,1-8.2,2.9c-1.1,0.9-2.7,0.7-3.5-0.4c-0.4-0.4-0.5-1-0.5-1.6V41.3C53.5,18.6,72,0.1,94.8,0.1h11   c7.6,0,14.7,3.6,19.2,9.7c3.2-1.5,6.6-2.3,10.1-2.3c13.2,0,23.9,10.7,23.9,23.9v28.2C159.1,61,157.9,62.2,156.6,62.2L156.6,62.2z    M145.8,52.8c2.9,0,5.7,0.7,8.3,2V31.5c0-10.4-8.4-18.9-18.8-18.9c-3.5,0-6.8,0.9-9.8,2.7c-1.2,0.7-2.7,0.3-3.4-0.9c0,0,0,0,0,0   c-3.4-5.7-9.6-9.2-16.2-9.3h-11c-20,0-36.2,16.2-36.3,36.3v12.9c2.3-1,4.8-1.5,7.3-1.5l0,0c0.2-1,0.8-1.9,1.6-2.6   c1.1-0.9,2.4-1.2,3.8-0.9c7.3,1.5,25.7,3.4,38.3-12.5c1.6-2,4.4-2.3,6.4-0.7c0.1,0.1,0.2,0.2,0.4,0.3c2.6,2.6,10.3,8.6,25.3,9   c2.4,0.1,4.3,2,4.4,4.4c0,0.2,0,0.4,0,0.6V52.8z"/>
	<path class="st3" d="M99.7,93.4c-1.4,0-2.5-1.1-2.5-2.5c0-1.1,0.7-2,1.7-2.4c2.4-0.7,4.8-1,7.3-0.9c2.5-0.1,4.9,0.2,7.3,0.9   c1.3,0.4,2,1.9,1.6,3.2c-0.4,1.3-1.8,2-3.1,1.6c-1.9-0.5-3.8-0.7-5.8-0.6c-1.9-0.1-3.9,0.2-5.8,0.6C100.3,93.4,100,93.4,99.7,93.4z   "/>
	<path class="st3" d="M92,73.4c-0.2,0-0.3,0-0.5-0.1c-0.2,0-0.3-0.1-0.5-0.1c-0.2-0.1-0.3-0.1-0.4-0.2c-0.3-0.2-0.5-0.4-0.7-0.7   c-0.1-0.1-0.2-0.3-0.2-0.4c-0.1-0.2-0.1-0.3-0.2-0.5c0-0.2,0-0.3,0-0.5c0-0.2,0-0.3,0-0.5c0-0.2,0.1-0.3,0.2-0.5   c0.1-0.2,0.1-0.3,0.2-0.4c0.1-0.1,0.2-0.3,0.3-0.4c0.1-0.1,0.2-0.2,0.4-0.3c0.1-0.1,0.3-0.2,0.4-0.2c0.9-0.4,2-0.2,2.7,0.5   c0.1,0.1,0.2,0.2,0.3,0.4c0.1,0.1,0.2,0.3,0.2,0.4c0.1,0.1,0.1,0.3,0.2,0.5c0.1,0.3,0.1,0.7,0,1c0,0.2-0.1,0.3-0.2,0.5   c-0.1,0.2-0.1,0.3-0.2,0.4c-0.1,0.1-0.2,0.3-0.3,0.4C93.3,73.2,92.6,73.4,92,73.4z"/>
	<path class="st3" d="M120.6,73.4c-0.2,0-0.3,0-0.5-0.1c-0.2,0-0.3-0.1-0.5-0.1c-0.2-0.1-0.3-0.1-0.4-0.2c-0.1-0.1-0.3-0.2-0.4-0.3   c-0.1-0.1-0.2-0.2-0.3-0.4c-0.1-0.1-0.2-0.3-0.2-0.4c-0.1-0.2-0.1-0.3-0.1-0.5c0-0.2,0-0.3-0.1-0.5c0-0.2,0-0.3,0.1-0.5   c0-0.2,0.1-0.3,0.1-0.5c0.1-0.2,0.2-0.3,0.2-0.4c0.1-0.1,0.2-0.3,0.3-0.4c0.1-0.1,0.2-0.2,0.4-0.3c0.1-0.1,0.3-0.2,0.4-0.2   c0.5-0.2,1-0.2,1.4-0.1c0.2,0,0.3,0.1,0.5,0.1c0.1,0.1,0.3,0.1,0.4,0.2c0.1,0.1,0.3,0.2,0.4,0.3c0.1,0.1,0.2,0.2,0.3,0.4   c0.1,0.1,0.2,0.3,0.2,0.4c0.1,0.1,0.1,0.3,0.1,0.5c0,0.2,0.1,0.3,0.1,0.5c0,0.2,0,0.3-0.1,0.5c0,0.2-0.1,0.3-0.1,0.5   c-0.1,0.2-0.1,0.3-0.2,0.4c-0.2,0.3-0.4,0.5-0.7,0.7c-0.1,0.1-0.3,0.2-0.4,0.2c-0.2,0.1-0.3,0.1-0.5,0.1   C120.9,73.4,120.8,73.4,120.6,73.4z"/>
	<path class="st3" d="M181,212.5c-28.3-0.1-51.1-23.2-51-51.4c0.1-28.1,22.9-50.9,51-51l0,0c28.3,0.1,51.1,23.2,51,51.4   C231.9,189.6,209.1,212.3,181,212.5z M181,115c-25.5,0-46.2,20.7-46.2,46.2s20.7,46.2,46.2,46.2c25.5,0,46.2-20.7,46.2-46.2   c0,0,0,0,0,0C227.2,135.7,206.5,115.1,181,115z"/>
	<path class="st3" d="M180.2,256H32.3c-4.7,0-8.5-3.8-8.5-8.5c0-0.2,0-0.3,0-0.5l4.8-86.3c0.4-7.6,5.7-14,13.1-15.8l13.4-3.4   c10.3-2.6,20.3-6.3,29.8-11c1-0.5,1.6-1.4,1.6-2.5v-10.6c0-1.4,1.1-2.5,2.5-2.5c0.4,0,0.8,0.1,1.1,0.3c4.8,2.5,10.2,3.7,15.6,3.7   c5.8,0,11.5-1.5,16.6-4.2c1.2-0.7,2.7-0.2,3.4,1c0.2,0.4,0.3,0.8,0.3,1.2V128c0,1.1,0.6,2,1.6,2.5c3.7,1.8,7.6,3.5,11.5,5.1   c1.3,0.5,1.9,2,1.4,3.2c0,0.1-0.1,0.2-0.1,0.3c-12.2,22.4-4,50.4,18.3,62.6c6.8,3.7,14.4,5.7,22.2,5.7c0.9,0,1.9,0,3-0.1   c1.4-0.1,2.6,1,2.7,2.3c0,0,0,0,0,0l2.1,37.3c0.3,4.7-3.3,8.7-8,9C180.6,256,180.4,256,180.2,256z M91.5,121.3v6.8   c0,3-1.7,5.7-4.4,7c-9.9,4.9-20.2,8.7-30.8,11.3l-13.4,3.4c-5.2,1.3-9,5.9-9.3,11.3l-4.8,86.3c-0.1,1.9,1.4,3.6,3.3,3.7   c0.1,0,0.1,0,0.2,0h147.9c2,0,3.5-1.6,3.5-3.5c0-0.1,0-0.1,0-0.2l-1.9-34.8c-0.3,0-0.6,0-0.8,0c-28.3,0-51.2-22.8-51.2-51.1   c0-7.6,1.7-15.2,5-22.1c-3.2-1.3-6.3-2.7-9.3-4.2c-2.7-1.3-4.4-4-4.4-7v-7.2c-4.9,2-10.1,3.1-15.3,3.1   C100.9,123.9,96,123,91.5,121.3z"/>
	<path class="st3" d="M132.4,215.3c-4.7,0-9.3-0.9-13.7-2.5l-8.4-3.2c-3.9-1.5-6.5-5.3-6.5-9.5v-28.3c0-1.4,1.1-2.5,2.5-2.5   s2.5,1.1,2.5,2.5v28.3c0,2.1,1.3,4,3.3,4.8l8.4,3.2c5.9,2.2,12.3,2.8,18.5,1.5c1.3-0.3,2.7,0.5,3,1.9s-0.5,2.7-1.9,3   c-0.1,0-0.1,0-0.2,0C137.5,215,134.9,215.3,132.4,215.3z"/>
	<path class="st3" d="M80.2,215.3c-2.5,0-5.1-0.3-7.6-0.7c-1.4-0.2-2.3-1.5-2.1-2.9c0.2-1.4,1.5-2.3,2.9-2.1c0.1,0,0.1,0,0.2,0   c6.2,1.2,12.6,0.7,18.5-1.5l8.4-3.2c2-0.8,3.3-2.7,3.3-4.8v-28.3c0-1.4,1.1-2.5,2.5-2.5s2.5,1.1,2.5,2.5v28.3c0,4.2-2.6,8-6.5,9.5   l-8.4,3.2C89.5,214.4,84.8,215.3,80.2,215.3z"/>
	<path class="st3" d="M111.2,158.9c-1.4,0-2.5-1.1-2.5-2.5c0-0.6,0.2-1.2,0.6-1.7l3.7-4.1c1.7-1.8,4-2.9,6.5-2.9H132   c1.4,0,2.5,1.1,2.5,2.5s-1.1,2.5-2.5,2.5h-12.5c-1,0-2,0.4-2.7,1.2l-3.7,4.1C112.6,158.6,112,158.9,111.2,158.9z"/>
	<path class="st3" d="M101.3,158.9c-0.7,0-1.4-0.3-1.9-0.8l-3.7-4.1c-0.7-0.8-1.7-1.2-2.7-1.2H80.5c-1.4,0-2.5-1.1-2.5-2.5   s1.1-2.5,2.5-2.5H93c2.5,0,4.8,1,6.5,2.9l3.7,4.1c0.9,1,0.8,2.6-0.2,3.5C102.5,158.7,101.9,158.9,101.3,158.9L101.3,158.9z"/>
	<path class="st3" d="M185.9,154.2c-0.6,0-1.1-0.2-1.5-0.5c-3.5-2.7-8.4-2.7-11.9,0c-0.9,0.7-2.2,0.7-3.1,0   c-6.4-5-7.6-14.2-2.6-20.6c5-6.4,14.2-7.6,20.6-2.6s7.6,14.2,2.6,20.6c-0.8,1-1.7,1.9-2.6,2.6C187,154,186.5,154.2,185.9,154.2z    M178.5,132.3c-5.4,0-9.7,4.4-9.7,9.8c0,2.4,0.9,4.7,2.5,6.5c4.5-2.5,10-2.5,14.4,0c3.6-4,3.2-10.2-0.8-13.8   C183.1,133.2,180.8,132.3,178.5,132.3L178.5,132.3z"/>
	<path class="st3" d="M178.4,176.1c-8.1,0-14.7-6.6-14.7-14.7c0-8.1,6.6-14.7,14.7-14.7c8.1,0,14.7,6.6,14.7,14.7   C193.2,169.5,186.6,176.1,178.4,176.1z M178.4,151.6c-5.4,0-9.7,4.4-9.7,9.7c0,5.4,4.4,9.7,9.7,9.7c5.4,0,9.7-4.4,9.7-9.7   C188.2,156,183.8,151.6,178.4,151.6z"/>
	<path class="st3" d="M178.4,199.7c-9.3,0-16.9-7.5-16.9-16.9c0-5.7,2.9-11.1,7.7-14.2c0.9-0.6,2.1-0.5,3,0.2c3.6,3,8.8,3,12.4,0   c0.8-0.7,2-0.8,3-0.2c7.8,5,10.1,15.5,5,23.3C189.5,196.8,184.2,199.7,178.4,199.7L178.4,199.7z M170.7,173.9   c-5,4.3-5.5,11.8-1.2,16.7c4.3,5,11.8,5.5,16.7,1.2c5-4.3,5.5-11.8,1.2-16.7c-0.4-0.4-0.8-0.8-1.2-1.2   C181.5,176.8,175.4,176.8,170.7,173.9z"/>
	<path class="st3" d="M195.2,185.7c-1,0-1.9-0.1-2.9-0.3c-1.2-0.2-2-1.3-2-2.5c0,0,0-0.1,0-0.2c0-3.8-1.9-7.4-5-9.6   c-1.3-0.4-2-1.9-1.6-3.2c0.1-0.4,0.4-0.8,0.8-1.1l0,0l0,0c2.6-2.1,4-5.5,3.5-8.8c-0.2-1.1,0.5-2.2,1.5-2.6   c7.5-3.1,16.1,0.5,19.2,8.1c1.7,4.2,1.4,9-0.9,12.9C205.3,182.9,200.5,185.7,195.2,185.7z M195.2,180.7L195.2,180.7   c3.5,0,6.7-1.9,8.4-4.9c2.7-4.7,1-10.6-3.6-13.3c-2.1-1.2-4.5-1.6-6.8-1.1c0,3.3-1.1,6.5-3.2,9   C192.9,173.2,194.7,176.8,195.2,180.7z"/>
	<path class="st3" d="M200.9,162.7c-0.4,0-0.8-0.1-1.2-0.3c-2.6-1.4-5.6-1.5-8.2-0.4c-1.3,0.5-2.7-0.1-3.3-1.4   c-0.1-0.2-0.1-0.4-0.2-0.6c-0.3-2.5-1.7-4.8-3.7-6.4c-1.1-0.8-1.3-2.4-0.5-3.5c0.1-0.2,0.3-0.3,0.5-0.5c2-1.5,3.3-3.7,3.7-6.2   c0.2-1,0.9-1.8,1.8-2c6.8-1.8,13.7,2.2,15.5,9c1.1,4,0.1,8.2-2.5,11.4C202.4,162.4,201.7,162.7,200.9,162.7z M195.2,156.3   c1.6,0,3.3,0.3,4.8,0.8c1.8-3.8,0.2-8.4-3.6-10.3c-1.2-0.6-2.5-0.8-3.9-0.7c-0.6,2.1-1.6,4-3,5.6c1.3,1.4,2.2,3.1,2.8,4.9   C193.3,156.4,194.3,156.3,195.2,156.3L195.2,156.3z"/>
	<path class="st3" d="M161.5,185.8c-8.1-0.1-14.6-6.9-14.5-15c0.1-4.5,2.2-8.7,5.7-11.4c0.9-0.7,2.2-0.7,3,0   c2.7,2.2,6.4,2.6,9.6,1.3c1.3-0.5,2.7,0.1,3.3,1.4c0.1,0.2,0.1,0.4,0.2,0.6c0.3,2.4,1.5,4.6,3.4,6.2c1.1,0.9,1.2,2.5,0.3,3.5   c-0.2,0.2-0.4,0.4-0.6,0.5c-3.4,2.2-5.4,5.9-5.4,9.9c0,0.1,0,0.1,0,0.2c0,1.2-0.8,2.2-2,2.5C163.6,185.7,162.5,185.8,161.5,185.8z    M154.5,164.5c-3.6,4-3.2,10.2,0.8,13.8c1.8,1.6,4.1,2.5,6.4,2.5c0.5-3.9,2.3-7.5,5.2-10.2c-1.1-1.3-1.9-2.8-2.4-4.4   C161.1,166.8,157.5,166.2,154.5,164.5L154.5,164.5z"/>
	<path class="st3" d="M161.7,166.4c-8.1,0-14.7-6.6-14.7-14.8c0-8.1,6.6-14.7,14.8-14.7c1.9,0,3.8,0.4,5.6,1.1   c1,0.4,1.7,1.5,1.5,2.6c-0.5,3.4,0.9,6.9,3.7,9c1.1,0.8,1.3,2.4,0.5,3.5c-0.1,0.2-0.3,0.3-0.5,0.5c-2.8,2.1-4.2,5.5-3.7,9   c0.1,1.1-0.5,2.2-1.5,2.6C165.5,166,163.6,166.4,161.7,166.4z M161.7,142c-5.4,0-9.7,4.3-9.7,9.7c0,3.5,1.8,6.7,4.9,8.4   c2.1,1.2,4.5,1.6,6.9,1.1c0-3.5,1.3-6.9,3.6-9.5c-2.3-2.6-3.6-6-3.6-9.5C163.1,142,162.4,142,161.7,142L161.7,142z"/>
	<path class="st3" d="M202,151.3c-0.9,0-1.7-0.5-2.2-1.3c-1.7-3.1-5.3-4.6-8.7-3.7c-1.3,0.4-2.7-0.4-3.1-1.8c-0.1-0.3-0.1-0.7-0.1-1   c0.5-3.2-0.6-6.4-2.9-8.6c-1-0.9-1.1-2.5-0.1-3.5c0,0,0,0,0,0c5.2-5.3,13.7-5.3,19-0.1c5.3,5.2,5.3,13.7,0.1,19   c-0.1,0.1-0.3,0.3-0.4,0.4C203.2,151.1,202.6,151.3,202,151.3z M193.2,141.1c3.3,0,6.5,1.3,8.9,3.7c0.7-1.2,1-2.6,1-4   c0-4.7-3.8-8.4-8.5-8.5c-1.5,0-2.9,0.4-4.2,1.1C192,135.6,193,138.3,193.2,141.1L193.2,141.1z"/>
	<path class="st3" d="M207.2,171.4c-1.2,0-2.2-0.9-2.5-2.1c-0.5-2.9-2.4-5.5-5-6.9c-1.2-0.6-1.7-2.2-1-3.4c0.1-0.2,0.2-0.3,0.3-0.4   c1.9-2.3,2.3-5.6,1-8.3c-0.1-0.1-0.1-0.2-0.2-0.3c-0.8-1.1-0.6-2.7,0.6-3.5c0.2-0.2,0.5-0.3,0.7-0.4c1-1.2,1.7-2.8,1.9-4.4   c0.2-1.4,1.4-2.3,2.8-2.2c0,0,0.1,0,0.1,0c8.9,1.5,14.9,9.8,13.4,18.7c-1,6.1-5.4,11.2-11.4,13   C207.7,171.3,207.5,171.4,207.2,171.4z M204.4,159.5c2,1.6,3.5,3.6,4.5,6c5.4-3.1,7.3-10.1,4.2-15.5c-1.3-2.2-3.3-4-5.7-4.9   c-0.5,1.5-1.3,2.9-2.3,4.2C206.2,152.6,206,156.3,204.4,159.5z"/>
	<path class="st3" d="M154.5,256c-1.4,0-2.5-1.1-2.5-2.5v-51.4c0-1.4,1.1-2.5,2.5-2.5s2.5,1.1,2.5,2.5v51.4   C157,254.9,155.8,256,154.5,256z"/>
	<path class="st3" d="M58.1,256c-1.4,0-2.5-1.1-2.5-2.5v-62.8c0-1.4,1.1-2.5,2.5-2.5s2.5,1.1,2.5,2.5v62.8   C60.6,254.9,59.5,256,58.1,256z"/>
</g>
</svg>
