<svg height="512" viewBox="0 0 48 48" width="512" xmlns="http://www.w3.org/2000/svg"><g id="Bone_marrow" data-name="Bone marrow"><path d="m35.49 25.52a5.87 5.87 0 0 0 -2.49 4.87v16.61h-18v-16.61a5.85 5.85 0 0 0 -2.5-4.87c-7.22-4.9-10-20 .06-23.75a12.88 12.88 0 0 1 10.44.73c2 1.13 2.53-1.5 8-1.5 14.39 0 13.29 18.54 4.49 24.52z" fill="#dad7e5"/><path d="m42 12c0 5.28-2.68 10.91-6.5 13.51a5.88 5.88 0 0 0 -2.5 4.88v14.61h-13a3 3 0 0 1 -3-3v-12.61a5.85 5.85 0 0 0 -2.5-4.87c-6.68-4.52-9.61-17.82-1.94-22.75a12.59 12.59 0 0 1 4.44-.77c5.46 0 6 2.63 8 1.5 6.08-3.5 17-1.26 17 9.5z" fill="#edebf2"/><path d="m34.09 21.53c-.57.55-4.2 2.65-4.88 6.86-.29 1.33-.21 1.15-.21 11.61-1.67 0-1.67-1-3.34-1s-1.66 1-3.33 1-1.67-1-3.33-1v-8.61a9.85 9.85 0 0 0 -3.17-7.32c-1-.93-3-1.83-4.55-5.35-1.27-2.8-1.89-6.79-.47-9.49 1.84-3.56 7.24-3.98 10.19-2.23a6 6 0 0 0 5.45.28 9.82 9.82 0 0 1 1.81-.84c3.29-1.07 7.89-.22 9.26 3.58s-.42 9.79-3.43 12.51z" fill="#fc6"/><path d="m38 12c0 3.68-1.84 8.2-4.75 10.21a9.48 9.48 0 0 0 -3.78 5.11c-.6 1.9-.47 2.49-.47 11a2.73 2.73 0 0 0 -1.34-.32c-1.66 0-1.66 1-3.33 1s-1.67-1-3.33-1c0-9.44 0-9.07-.09-10a9.78 9.78 0 0 0 -4.16-6.83c-4.43-3.08-6.82-12.48-2.4-15.83a9.09 9.09 0 0 1 2.65-.34c3.68 0 3.68 1.42 6.34 1.73a6 6 0 0 0 3.66-.73c4.18-2.33 11-.95 11 6z" fill="#ffde76"/><path d="m32.94 15.06c-1.49-.08-2.1-.68-3.2-1.8-1.36-1.36-.92.11 2.77-2a14.32 14.32 0 0 0 5.49-.26 8.24 8.24 0 0 0 -.42-2 11.72 11.72 0 0 1 -4.61.31 6.75 6.75 0 0 0 -3.56-2.23 4.45 4.45 0 0 1 -1.09-1.66 9.82 9.82 0 0 0 -1.81.84c1.66 3.5 2.17 2.2 4.29 3.68-3.69 1.7-5 .43-8.85 1.73a12 12 0 0 0 -2.83-1.75c1.33-1.33 4.08-2.09 4.27-3.18a6 6 0 0 1 -2.09-.63c-1.73 1.21-2.87 1.25-4.48 3.41-2.45-.25-2.79-.95-4.72-2.88a5.51 5.51 0 0 0 -1.24 1.6c1.8 1.8 2.72 3 5.93 3.29a4.71 4.71 0 0 1 3 1.06 23 23 0 0 0 -2.44 1.52 12.18 12.18 0 0 0 -5.35-1.11c-1.24 0-1.38-.56-2-.49a12.64 12.64 0 0 0 .28 2.18c1.48.58 2.65 0 5.11.83a17.23 17.23 0 0 1 -4.12 2.23 11.88 11.88 0 0 0 1 1.76 19.27 19.27 0 0 0 5.17-3c.87.73.72 1.33 2.45 3.44h-.89a8.43 8.43 0 0 0 -4.82 1.84 20 20 0 0 1 1.62 1.26c2.42-1.49 3-1 6.27-1.21.85-.09.47-.29 0 1.3s0 0 0 0c-.77 2.55.73 3.37-.2 4.25-.52.48-1.79.89-2.94 1.62.33 2.84-.73 2.54 2.42 1a11.28 11.28 0 0 0 1.15-.6c1.63 1.63 0 2.73 1.49 5-2 .46-2.85-.58-5 .64v2.21a1 1 0 0 0 .63-.22c1.66-1.37 3 .25 6-1.07a9 9 0 0 0 3.38 1.37v-2c-1.55-.34-3.35-1.19-3.66-2.75a4.73 4.73 0 0 0 2.07-1.28 3.09 3.09 0 0 1 1.59-.92c0-2 .49-2.12-.11-2-2.33.38-2.62 1.53-3.63 2.05a4.67 4.67 0 0 0 -1.38-2.44c.71-1.48-.13-2.7-.05-3.52a3.07 3.07 0 0 1 2.3 1.12 4.28 4.28 0 0 0 3.35 1.69 9 9 0 0 1 .81-1.88c-.58-.29-1.67.19-2.56-1a4.9 4.9 0 0 0 -3.26-1.85c.16-.35.37-.72.59-1.11 2.47-.45 2.77-1.35 9 .06a9.4 9.4 0 0 0 1.44-1.61 22.81 22.81 0 0 0 -4.26-.9c.66-.7 1.44-1.38 2-1.91a8.17 8.17 0 0 0 4.15-1.24 13.48 13.48 0 0 0 .5-2.4 1 1 0 0 0 -.76.18 6.49 6.49 0 0 1 -4.19 1.43zm-13.87.28a12.1 12.1 0 0 1 6.93-2.34 10.8 10.8 0 0 1 2.35 1.73c-3.58.62-4.22-.4-8.39 1.88a4.9 4.9 0 0 0 -.89-1.27zm9.76 3.43c-2.46 0-2 .65-6.42 1.05a17.87 17.87 0 0 1 -1.35-1.56c4.23-2.26 4.6-.59 9.19-2a3.25 3.25 0 0 0 .56.28 12.77 12.77 0 0 0 -1.98 2.23z" fill="#ffba55"/></g></svg>