<svg height="512pt" viewBox="0 -56 512 512" width="512pt" xmlns="http://www.w3.org/2000/svg"><path d="m438.5 131.355469c-9.328125 22.460937-22.488281 45.980469-38.761719 69.539062l-.007812.011719c-18.339844 26.550781-40.621094 53.148438-65.851563 78.378906-30.847656 30.851563-63.757812 57.3125-96.109375 77.511719-17.578125 10.988281-35 20.117187-51.820312 27.109375-24.347657 10.109375-46.210938 15.167969-64.730469 15.167969-19.410156 0-35.148438-5.546875-46.238281-16.648438-30.800781-30.800781-18.109375-97.601562 33.121093-174.320312.726563-1.089844 2.359376-3.410157 4.359376-5.988281 1.070312 6.808593 2.5 13.539062 4.277343 20.167968-20.859375 32.300782-34.847656 63.191406-40.566406 89.660156-4.09375 18.929688-5.78125 44.679688 9.417969 59.878907 16.851562 16.851562 51.332031 16.203125 94.601562-1.769531 13.277344-5.519532 26.957032-12.4375 40.808594-20.609376 34.148438-20.140624 69.371094-47.859374 102.269531-80.757812 31.820313-31.820312 58.789063-65.792969 78.742188-98.882812 9.046875-15.007813 16.660156-29.839844 22.628906-44.199219 17.980469-43.28125 18.621094-77.757813 1.769531-94.609375-12.941406-12.941406-33.660156-13.320313-48.761718-11.351563-19.519532 2.53125-42.546876 10.453125-67.160157 23.019531h-29.667969c5.089844-3.46875 10.019532-6.476562 11.53125-7.316406 30.320313-16.863281 59.136719-27.433594 83.367188-30.582031 26.441406-3.441406 47.640625 1.96875 61.300781 15.621094 21.671875 21.679687 22.199219 61.089843 1.480469 110.96875zm0 0" fill="#fef1da"/><path d="m256.007812 360.152344c-6.347656 0-12.5625-1.160156-18.480468-3.441406-37.140625-14.355469-68.859375-39.257813-91.730469-72.023438-23.425781-33.550781-35.804687-72.984375-35.804687-114.03125v-84.753906c0-23.84375 19.394531-43.238282 43.234374-43.238282h205.542969c23.84375 0 43.238281 19.398438 43.238281 43.238282v84.753906c0 41.046875-12.378906 80.480469-35.796874 114.03125-22.871094 32.765625-54.589844 57.667969-91.726563 72.019531-5.917969 2.285157-12.132813 3.445313-18.476563 3.445313zm0 0" fill="#a8d3d8"/><path d="m256.007812 346.152344c-4.613281 0-9.132812-.84375-13.4375-2.503906-34.527343-13.34375-64.019531-36.503907-85.292968-66.972657-21.773438-31.191406-33.285156-67.855469-33.285156-106.023437v-84.753906c0-16.121094 13.113281-29.234376 29.234374-29.234376h205.546876c16.117187 0 29.234374 13.113282 29.234374 29.234376v84.753906c0 38.167968-11.507812 74.828125-33.277343 106.019531-21.269531 30.472656-50.761719 53.632813-85.292969 66.976563-4.296875 1.660156-8.816406 2.503906-13.429688 2.503906zm0 0" fill="#8ebac5"/><path d="m153.226562 72.664062c-7.308593 0-13.234374 5.925782-13.234374 13.238282v84.753906c0 72.03125 44.960937 133.574219 108.347656 158.066406 4.933594 1.90625 10.402344 1.90625 15.332031 0 63.386719-24.492187 108.335937-86.035156 108.335937-158.066406v-84.753906c0-7.308594-5.925781-13.238282-13.234374-13.238282zm0 0" fill="#a3e72d"/><path d="m372.011719 85.898438v84.761718c0 72.027344-44.953125 133.570313-108.339844 158.058594-4.933594 1.910156-10.402344 1.910156-15.332031 0-1.308594-.5-2.601563-1.019531-3.890625-1.570312 61.332031-25.460938 104.441406-85.949219 104.441406-156.488282v-84.761718c0-7.308594-5.929687-13.230469-13.242187-13.230469h23.121093c7.308594 0 13.242188 5.921875 13.242188 13.230469zm0 0" fill="#98d829"/><path d="m299.777344 190.820312h-22.449219v-22.449218c0-5.523438-4.476563-10-10-10h-22.65625c-5.523437 0-10 4.476562-10 10v22.449218h-22.449219c-5.523437 0-10 4.476563-10 10v22.652344c0 5.523438 4.476563 10 10 10h22.449219v22.449219c0 5.523437 4.476563 10 10 10h22.65625c5.523437 0 10-4.476563 10-10v-22.449219h22.449219c5.523437 0 10-4.476562 10-10v-22.652344c0-5.523437-4.476563-10-10-10zm0 0" fill="#e3f7c3"/><path d="m437.019531 382.425781c-11.128906 11.128907-26.949219 16.621094-46.300781 16.621094-29.769531 0-67.890625-12.992187-110.128906-38.382813-1.070313-.636718-3.359375-2.128906-5.988282-4 5.570313-2.179687 11.109376-4.527343 16.449219-7.238281 61.257813 36.179688 112.96875 44.789063 135.359375 22.398438 16.851563-16.859375 16.210938-51.339844-1.769531-94.609375-7.390625-17.800782-17.300781-36.300782-29.359375-54.988282-19.132812-29.628906-43.640625-59.71875-72.011719-88.089843-39.199219-39.210938-81.679687-71.050781-121.730469-91.472657-7.210937-3.679687-14.328124-6.988281-21.347656-9.898437-43.269531-17.980469-77.75-18.621094-94.601562-1.769531-22.800782 22.800781-13.109375 76.570312 24.398437 138.738281v.921875c0 9.179688.621094 18.289062 1.839844 27.257812-3.839844-4.328124-7.378906-8.75-8.148437-9.9375-22.320313-34.730468-37.109376-68.191406-42.757813-96.761718-6.121094-31.007813-1.261719-55.5 14.058594-70.828125 21.667969-21.671875 61.078125-22.199219 110.96875-1.472657 15.082031 6.261719 30.640625 14.25 46.371093 23.75 34.089844 20.59375 68.980469 48.28125 101.558594 80.863282 25.171875 25.167968 47.421875 51.707031 65.722656 78.207031 16.339844 23.613281 29.546876 47.203125 38.898438 69.730469 20.71875 49.882812 20.191406 89.292968-1.480469 110.960937zm0 0" fill="#fef1da"/><path d="m512 201.40625c0 44.21875-57.449219 82.730469-149.929688 100.488281-1.53125.292969-5.71875.851563-10.398437 1.230469.507813-.578125 1.019531-1.160156 1.527344-1.738281 4.0625-4.621094 8.125-9.796875 11.761719-14.941407.117187-.160156.238281-.320312.347656-.488281 38.792968-7.992187 71.570312-20.03125 95.113281-34.972656 16.6875-10.589844 36.578125-27.789063 36.578125-49.578125 0-23.832031-24.839844-47.75-68.148438-65.640625-8.453124-3.488281-17.421874-6.691406-26.839843-9.589844-41.882813-12.917969-92.601563-19.910156-146.011719-19.910156s-104.128906 6.992187-146.011719 19.910156c-9.417969 2.898438-18.386719 6.101563-26.839843 9.589844-43.308594 17.890625-68.148438 41.808594-68.148438 65.640625 0 21.941406 20.148438 39.230469 37.050781 49.878906 23.527344 14.820313 56.140625 26.75 94.660157 34.679688 4.25 6 8.800781 11.730468 13.648437 17.171875-4.46875-.261719-8.5-.871094-8.757813-.921875-93.511718-17.617188-151.601562-56.238282-151.601562-100.808594 0-30.648438 27.5-58.890625 77.421875-79.511719 10.1875-4.199219 21.078125-8.007812 32.566406-11.386719 42.453125-12.5 93.011719-19.242187 146.011719-19.242187s103.558594 6.742187 146.011719 19.242187c11.488281 3.378907 22.378906 7.1875 32.566406 11.386719 49.921875 20.621094 77.421875 48.863281 77.421875 79.511719zm0 0" fill="#fef1da"/><path d="m499.683594 247.195312c0 12.152344-9.851563 22.003907-22.003906 22.003907-12.15625 0-22.007813-9.851563-22.007813-22.003907 0-12.152343 9.851563-22.007812 22.007813-22.007812 12.152343 0 22.003906 9.855469 22.003906 22.007812zm0 0" fill="#ff4755"/><path d="m499.679688 247.199219c0 12.148437-9.851563 22-22 22-3.210938 0-6.257813-.691407-9-1.929688 7.660156-3.429687 13-11.128906 13-20.070312 0-8.949219-5.339844-16.648438-13-20.082031 2.742187-1.238282 5.789062-1.929688 9-1.929688 12.148437 0 22 9.851562 22 22.011719zm0 0" fill="#fc2b3a"/><path d="m97.09375 372.804688c0 12.152343-9.851562 22.007812-22.003906 22.007812-12.15625 0-22.007813-9.855469-22.007813-22.007812 0-12.152344 9.851563-22.003907 22.007813-22.003907 12.152344 0 22.003906 9.851563 22.003906 22.003907zm0 0" fill="#ff8709"/><path d="m97.089844 372.808594c0 12.152344-9.847656 22-22 22-3.207032 0-6.257813-.691406-9-1.929688 7.660156-3.429687 13-11.128906 13-20.070312 0-8.949219-5.339844-16.648438-13-20.078125 2.742187-1.242188 5.792968-1.929688 9-1.929688 12.152344 0 22 9.847657 22 22.007813zm0 0" fill="#f70"/><path d="m110.839844 22.007812c0 12.152344-9.855469 22.003907-22.007813 22.003907-12.152343 0-22.007812-9.851563-22.007812-22.003907 0-12.15625 9.855469-22.007812 22.007812-22.007812 12.152344 0 22.007813 9.851562 22.007813 22.007812zm0 0" fill="#98d829"/><path d="m110.835938 22.011719c0 12.148437-9.851563 22-22 22-3.210938 0-6.261719-.691407-9-1.933594 7.65625-3.429687 13-11.128906 13-20.066406 0-8.953125-5.34375-16.652344-13-20.082031 2.738281-1.238282 5.789062-1.929688 9-1.929688 12.148437 0 22 9.851562 22 22.011719zm0 0" fill="#8cc826"/><path d="m325 97.890625c0 18.027344-14.613281 32.640625-32.644531 32.640625-18.027344 0-32.640625-14.613281-32.640625-32.640625s14.613281-32.644531 32.640625-32.644531c18.03125 0 32.644531 14.617187 32.644531 32.644531zm0 0" fill="#22a7ff"/><path d="m324.992188 97.894531c0 18.023438-14.609376 32.632813-32.632813 32.632813-4.761719 0-9.285156-1.023438-13.347656-2.863282 11.359375-5.085937 19.28125-16.507812 19.28125-29.769531 0-13.277343-7.921875-24.699219-19.28125-29.785156 4.0625-1.839844 8.585937-2.863281 13.347656-2.863281 18.023437 0 32.632813 14.609375 32.632813 32.648437zm0 0" fill="#0094fd"/></svg>