<svg id="Capa_1" enable-background="new 0 0 512 512" height="512" viewBox="0 0 512 512" width="512" xmlns="http://www.w3.org/2000/svg"><g><path d="m75 150h106v45c0 8.284 6.716 15 15 15h30c3.978 0 7.793-1.581 10.606-4.394l55.607-55.606h113.787c8.284 0 15-6.716 15-15 0-41.355-33.645-75-75-75h-53.787l-55.607-55.606c-2.813-2.813-6.628-4.394-10.606-4.394h-30c-8.284 0-15 6.716-15 15v45h-96.729l-25.854-51.708c-2.542-5.082-7.735-8.292-13.417-8.292h-30c-8.284 0-15 6.716-15 15v60c0 41.355 33.645 75 75 75zm136-120h8.787l30 30h-38.787zm-181 0h5.729l25.854 51.708c2.542 5.082 7.735 8.292 13.417 8.292h271c19.556 0 36.239 12.539 42.43 30h-102.43c-3.978 0-7.793 1.581-10.606 4.394l-55.607 55.606h-8.787v-45c0-8.284-6.716-15-15-15h-121c-24.813 0-45-20.187-45-45z"/><path d="m110.394 446.606c5.857 5.858 15.355 5.859 21.213 0l30-30c5.858-5.858 5.858-15.355 0-21.213l-30-30c-5.857-5.858-15.355-5.858-21.213 0s-5.858 15.355 0 21.213l4.394 4.394h-9.788c-24.813 0-45-20.187-45-45v-114.787l4.394 4.394c5.857 5.858 15.355 5.859 21.213 0 5.858-5.858 5.858-15.355 0-21.213l-30-30c-5.857-5.858-15.355-5.858-21.213 0l-30 30c-5.858 5.858-5.858 15.355 0 21.213 2.928 2.929 6.767 4.393 10.606 4.393s7.678-1.464 10.606-4.394l4.394-4.393v114.787c0 41.355 33.645 75 75 75h9.787l-4.394 4.394c-5.857 5.857-5.857 15.355.001 21.212z"/><path d="m497 301c-7.701 0-14.954 1.947-21.299 5.371l-4.727-28.77c-3.632-21.787-22.299-37.601-44.388-37.601h-22.875l-12.16-48.638c-1.668-6.677-7.668-11.362-14.551-11.362h-61c-6.883 0-12.883 4.685-14.552 11.362l-12.16 48.638h-22.875c-22.088 0-40.756 15.814-44.394 37.636l-4.721 28.735c-6.344-3.424-13.597-5.371-21.298-5.371-8.284 0-15 6.716-15 15s6.716 15 15 15c7.175 0 13.182 5.066 14.65 11.808-8.997 8.234-14.65 20.064-14.65 33.192v121c0 8.284 6.716 15 15 15h60c8.284 0 15-6.716 15-15v-45h121v45c0 8.284 6.716 15 15 15h60c8.284 0 15-6.716 15-15 0-14.649 0-106.18 0-121 0-13.128-5.653-24.958-14.65-33.192 1.468-6.742 7.475-11.808 14.65-11.808 8.284 0 15-6.716 15-15s-6.716-15-15-15zm-169.289-91h37.577l7.5 30h-52.577zm-76.093 72.534c1.21-7.263 7.433-12.534 14.796-12.534h160.173c7.363 0 13.585 5.271 14.79 12.5l7.969 48.5h-205.69zm4.382 199.466h-30v-30h30zm211 0h-30v-30h30zm0-60h-241v-46c0-8.271 6.729-15 15-15h211c8.271 0 15 6.729 15 15z"/></g></svg>