<svg height="512pt" viewBox="0 0 512 512" width="512pt" xmlns="http://www.w3.org/2000/svg" xmlns:xlink="http://www.w3.org/1999/xlink"><linearGradient id="a" gradientTransform="matrix(1 0 0 -1 0 -14446)" gradientUnits="userSpaceOnUse" x1="0" x2="512" y1="-14702" y2="-14702"><stop offset="0" stop-color="#00f1ff"/><stop offset=".231" stop-color="#00d8ff"/><stop offset=".5138" stop-color="#00c0ff"/><stop offset=".7773" stop-color="#00b2ff"/><stop offset="1" stop-color="#00adff"/></linearGradient><path d="m512 256c0 141.386719-114.613281 256-256 256s-256-114.613281-256-256 114.613281-256 256-256 256 114.613281 256 256zm0 0" fill="url(#a)"/><path d="m355.4375 252.015625c-22.992188 0-41.695312 18.703125-41.695312 41.695313 0 22.988281 18.703124 41.695312 41.695312 41.695312h56.726562c.226563 0 .449219-.023438.671876-.035156.222656.011718.441406.03125.664062.03125 8.285156 0 15-6.714844 15-15v-104.773438c0-18.203125-8.886719-34.363281-22.542969-44.386718l-45.234375-74.207032c-2.078125-3.414062-5.4375-5.855468-9.328125-6.78125-3.886719-.929687-7.984375-.265625-11.382812 1.84375l-32.050781 19.875-14.246094-24.105468c-2.039063-3.453126-5.375-5.941407-9.269532-6.917969-3.886718-.972657-8.007812-.351563-11.433593 1.734375l-128.1875 77.902344h-19.628907c-6.339843 0-11.515624-5.066407-11.691406-11.363282.175782-6.292968 5.351563-11.359375 11.691406-11.359375h24.691407c8.285156 0 15-6.714843 15-15 0-8.285156-6.714844-15-15-15h-24.691407c-19.613281 0-36.105468 13.613281-40.53125 31.882813-.75 1.785156-1.164062 3.746094-1.164062 5.808594v224.902343c0 30.351563 24.691406 55.042969 55.039062 55.042969h234.917969c23.730469 0 44.714844-15.117188 52.222657-37.617188 2.621093-7.859374-1.625-16.355468-9.484376-18.976562-7.855468-2.621094-16.351562 1.625-18.976562 9.484375-3.414062 10.230469-12.960938 17.105469-23.761719 17.105469h-234.914062c-13.808594 0-25.042969-11.230469-25.042969-25.039063v-181.550781c3.714844 1.085938 7.636719 1.679688 11.695312 1.679688h248.261719c13.808594 0 25.042969 11.230468 25.042969 25.039062v36.390625zm-11.695312 41.695313c0-6.449219 5.246093-11.695313 11.695312-11.695313h43.0625v23.386719h-43.0625c-6.449219.003906-11.695312-5.246094-11.695312-11.691406zm-.765626-168.152344 21.351563 35.027344h-27.644531l-13.460938-22.78125zm-67.363281-9.351563 13.316407 22.535157c.296874.691406.628906 1.375 1.039062 2.035156.304688.496094.640625.957031.996094 1.402344l10.875 18.40625h-99.25zm0 0" fill="#fff"/></svg>