<?xml version="1.0" encoding="iso-8859-1"?>
<!-- Generator: Adobe Illustrator 19.0.0, SVG Export Plug-In . SVG Version: 6.00 Build 0)  -->
<svg version="1.1" id="Layer_1" xmlns="http://www.w3.org/2000/svg" xmlns:xlink="http://www.w3.org/1999/xlink" x="0px" y="0px"
	 viewBox="0 0 512 512" style="enable-background:new 0 0 512 512;" xml:space="preserve">
<circle style="fill:#2D2D2D;" cx="256" cy="256" r="256"/>
<path style="fill:#FFFFFF;" d="M336.152,456H175.856c-17.032,0-30.96-13.936-30.96-30.96V86.96c0-17.032,13.936-30.96,30.96-30.96
	h160.288c17.032,0,30.96,13.936,30.96,30.96v338.08C367.112,442.064,353.176,456,336.152,456z"/>
<rect x="159.552" y="87.56" style="fill:#2D2D2D;" width="192.88" height="315.44"/>
<g>
	<path style="fill:#CCCCCC;" d="M284.936,75.08h-39.48c-1.776,0-3.224-1.448-3.224-3.224l0,0c0-1.776,1.448-3.224,3.224-3.224h39.48
		c1.776,0,3.224,1.448,3.224,3.224l0,0C288.16,73.632,286.704,75.08,284.936,75.08z"/>
	<circle style="fill:#CCCCCC;" cx="227.072" cy="71.856" r="3.224"/>
	<path style="fill:#CCCCCC;" d="M256.008,445.16c-8.656,0-15.696-7.04-15.696-15.688c0-8.656,7.04-15.696,15.696-15.696
		c8.648,0,15.688,7.04,15.688,15.696C271.696,438.12,264.656,445.16,256.008,445.16z M256.008,417.776
		c-6.448,0-11.696,5.248-11.696,11.696s5.248,11.688,11.696,11.688s11.688-5.24,11.688-11.688S262.448,417.776,256.008,417.776z"/>
</g>
<g>
	
		<rect x="251.318" y="164.542" transform="matrix(-0.7071 0.7071 -0.7071 -0.7071 610.0502 235.5834)" style="fill:#FFFFFF;" width="9.832" height="159.19"/>
	
		<rect x="176.637" y="239.227" transform="matrix(-0.7071 0.7071 -0.7071 -0.7071 610.0502 235.5947)" style="fill:#FFFFFF;" width="159.19" height="9.832"/>
</g>
<g>
</g>
<g>
</g>
<g>
</g>
<g>
</g>
<g>
</g>
<g>
</g>
<g>
</g>
<g>
</g>
<g>
</g>
<g>
</g>
<g>
</g>
<g>
</g>
<g>
</g>
<g>
</g>
<g>
</g>
</svg>
