<?xml version="1.0" encoding="UTF-8"?>
<svg xmlns="http://www.w3.org/2000/svg" id="Line_copy" data-name="Line copy" viewBox="0 0 256 256" width="512" height="512"><path d="M222.577,120.039H218.6V90.7a15.338,15.338,0,0,0-6.946-12.9V64.157h2.772v-6H191.885v6h2.772V77.8a15.339,15.339,0,0,0-6.947,12.9v29.336H172.88V109.49a14.3,14.3,0,0,0,11.274-13.951V87.563a3,3,0,0,0-3-3H158.6a3,3,0,0,0-3,3v7.976A14.3,14.3,0,0,0,166.88,109.49v10.549H141.529V109.49A14.3,14.3,0,0,0,152.8,95.539V87.563a3,3,0,0,0-3-3h-22.55a3,3,0,0,0-3,3v7.976a14.3,14.3,0,0,0,11.274,13.951v10.549H34.477a16.769,16.769,0,0,0-16.75,16.75,3,3,0,0,0,3,3h7.348v96.674h6V139.789h188.9v96.674h6V139.789h7.348a3,3,0,0,0,3-3A16.769,16.769,0,0,0,222.577,120.039ZM193.71,90.7a9.4,9.4,0,0,1,5.274-8.476,3,3,0,0,0,1.673-2.69V64.157h5v15.38a3,3,0,0,0,1.673,2.69A9.394,9.394,0,0,1,212.6,90.7v29.1H193.71ZM161.6,95.539V90.563h16.55v4.976a8.275,8.275,0,0,1-16.55,0Zm-31.35,0V90.563H146.8v4.976a8.275,8.275,0,0,1-16.55,0Zm-106.1,38.25a10.769,10.769,0,0,1,10.324-7.75h188.1a10.769,10.769,0,0,1,10.324,7.75Z"/><path d="M80.349,152.763H55.5a14.016,14.016,0,0,0-14,14v7.15a3,3,0,0,0,3,3H59.423v41.275a16.777,16.777,0,0,0-13.853,16.5,3,3,0,0,0,3,3h38.7a3,3,0,0,0,3-3,16.778,16.778,0,0,0-13.852-16.5V176.914H91.349a3,3,0,0,0,3-3v-7.15A14.016,14.016,0,0,0,80.349,152.763Zm3.5,78.925H52a10.769,10.769,0,0,1,10.324-7.75h.1a3,3,0,0,0,3-3V176.914h5v44.024a3,3,0,0,0,3,3h.1A10.769,10.769,0,0,1,83.849,231.688Zm4.5-60.774H47.5v-4.15a8.009,8.009,0,0,1,8-8H80.349a8.009,8.009,0,0,1,8,8Z"/><path d="M140.849,152.763H116a14.016,14.016,0,0,0-14,14v7.15a3,3,0,0,0,3,3h14.926v41.275a16.777,16.777,0,0,0-13.853,16.5,3,3,0,0,0,3,3h38.7a3,3,0,0,0,3-3,16.778,16.778,0,0,0-13.852-16.5V176.914h14.926a3,3,0,0,0,3-3v-7.15A14.016,14.016,0,0,0,140.849,152.763Zm3.5,78.925H112.5a10.769,10.769,0,0,1,10.324-7.75h.1a3,3,0,0,0,3-3V176.914h5v44.024a3,3,0,0,0,3,3h.1A10.769,10.769,0,0,1,144.349,231.688Zm4.5-60.774H108v-4.15a8.009,8.009,0,0,1,8-8h24.852a8.009,8.009,0,0,1,8,8Z"/><path d="M201.349,152.763H176.5a14.016,14.016,0,0,0-14,14v7.15a3,3,0,0,0,3,3h14.926v41.275a16.777,16.777,0,0,0-13.853,16.5,3,3,0,0,0,3,3h38.7a3,3,0,0,0,3-3,16.778,16.778,0,0,0-13.852-16.5V176.914h14.926a3,3,0,0,0,3-3v-7.15A14.016,14.016,0,0,0,201.349,152.763Zm3.5,78.925H173a10.769,10.769,0,0,1,10.324-7.75h.1a3,3,0,0,0,3-3V176.914h5v44.024a3,3,0,0,0,3,3h.1A10.769,10.769,0,0,1,204.849,231.688Zm4.5-60.774H168.5v-4.15a8.009,8.009,0,0,1,8-8h24.852a8.009,8.009,0,0,1,8,8Z"/><path d="M20.727,54.856h6.281a12.064,12.064,0,0,0,23.736,0h6.281a3,3,0,0,0,2.684-4.342l-8.25-16.5a3,3,0,0,0-2.684-1.658h-6.9v-11.5h-6v11.5h-6.9a3,3,0,0,0-2.684,1.658l-8.25,16.5a3,3,0,0,0,2.684,4.342Zm18.149,3.9a6.08,6.08,0,0,1-5.666-3.9H44.542A6.079,6.079,0,0,1,38.877,58.756Zm-8.045-20.4H46.921l5.25,10.5H25.582Z"/><path d="M76,54.856h6.281a12.064,12.064,0,0,0,23.736,0H112.3a3,3,0,0,0,2.684-4.342l-8.25-16.5a3,3,0,0,0-2.684-1.658h-6.9v-11.5h-6v11.5h-6.9a3,3,0,0,0-2.684,1.658l-8.25,16.5A3,3,0,0,0,76,54.856Zm18.148,3.9a6.079,6.079,0,0,1-5.665-3.9H99.814A6.08,6.08,0,0,1,94.148,58.756ZM86.1,38.357h16.089l5.25,10.5H80.854Z"/><path d="M131.271,54.856h6.282a12.063,12.063,0,0,0,23.735,0h6.282a3,3,0,0,0,2.684-4.342L162,34.015a3,3,0,0,0-2.684-1.658h-6.9v-11.5h-6v11.5h-6.9a3,3,0,0,0-2.684,1.658l-8.25,16.5a3,3,0,0,0,2.684,4.342Zm18.149,3.9a6.079,6.079,0,0,1-5.665-3.9h11.331A6.079,6.079,0,0,1,149.421,58.756Zm-8.045-20.4h16.09l5.25,10.5h-26.59Z"/></svg>
