<?xml version="1.0" encoding="iso-8859-1"?>
<!-- Generator: Adobe Illustrator 19.0.0, SVG Export Plug-In . SVG Version: 6.00 Build 0)  -->
<svg version="1.1" id="Capa_1" xmlns="http://www.w3.org/2000/svg" xmlns:xlink="http://www.w3.org/1999/xlink" x="0px" y="0px"
	 viewBox="0 0 512 512" style="enable-background:new 0 0 512 512;" xml:space="preserve">
<circle style="fill:#54FBFF;" cx="256" cy="256" r="256"/>
<path style="fill:#00D9E0;" d="M512,256c0-8.664-0.436-17.225-1.277-25.667l-172.4-172.4c-68.168-4.541-85.655,37.24-90.225,74.693
	l-12.671-12.643c-22.46-23.462-57.68-37.006-106.736-10.84l55.573,55.239c-25.935,5.492-51.165,23.075-63.419,66.373l83.434,83.626
	c-4.06,24.973-6.686,53.77-6.686,86.498c0,0,63.243,62.276,107.428,106.414C422.952,484.42,512,380.617,512,256z"/>
<path style="fill:#FFC473;" d="M454.97,417.09C408.04,474.99,336.34,512,256,512c-2.76,0-5.5-0.04-8.24-0.13
	C166.9,509.31,95.5,469.26,50.38,408.52c56.34-35.86,123.61-56.72,195.89-56.72C324.11,351.8,396.14,376,454.97,417.09z"/>
<path style="fill:#FFAA20;" d="M454.97,417.09C408.04,474.99,336.34,512,256,512c-2.76,0-5.5-0.04-8.24-0.13V351.81
	c8.42,0.03,16.78,0.34,25.05,0.93C340.47,357.57,402.91,380.72,454.97,417.09z"/>
<path style="fill:#C06200;" d="M248.723,188.475c0,0-51.131,67.963-51.131,212.403h83.429c0,0-31.148-140.218,0-212.403
	L248.723,188.475L248.723,188.475z"/>
<path style="fill:#703700;" d="M278.654,389.116c1.412,7.464,2.367,11.762,2.367,11.762h-33.26V189.844
	c0.623-0.914,0.965-1.37,0.965-1.37h32.295c-19.475,45.126-14.606,116.838-8.211,164.268
	C274.854,367.897,277.055,380.583,278.654,389.116z"/>
<path style="fill:#008300;" d="M241.712,177.92c0,0,118.732-38.202,134.969,73.677L246.07,195.803L241.712,177.92z"/>
<path style="fill:#2CD729;" d="M264.318,175.436c0,0-112.688-53.461-143.474,55.318l126.921-34.227l8.048-3.385L264.318,175.436z"/>
<g>
	<path style="fill:#00AE00;" d="M247.098,169.283c0,0,67.977-104.574,151.189-28.047l-130.228,48.139L247.098,169.283z"/>
	<path style="fill:#00AE00;" d="M338.323,57.933l-69.781,130.54l-0.488,0.903l-20.284,7.152l-0.01-0.01l-119.069-87.376
		c59.223-31.589,98.287-5.304,119.069,26.44C251.778,97.412,268.356,53.272,338.323,57.933z"/>
</g>
<path style="fill:#008300;" d="M338.323,57.933l-69.781,130.54l-0.488,0.903l-20.284,7.152l-0.01-0.01v-60.936
	C251.778,97.412,268.356,53.272,338.323,57.933z"/>
<path style="fill:#FFAA20;" d="M244.151,383.576c-40.119,0-72.839,20.799-74.594,46.887h149.189
	C316.99,404.375,284.27,383.576,244.151,383.576z"/>
<path style="fill:#FF8900;" d="M318.745,430.463H247.76v-46.828c11.108,0.343,21.582,2.284,30.894,5.481
	C301.596,396.995,317.53,412.473,318.745,430.463z"/>
<g>
</g>
<g>
</g>
<g>
</g>
<g>
</g>
<g>
</g>
<g>
</g>
<g>
</g>
<g>
</g>
<g>
</g>
<g>
</g>
<g>
</g>
<g>
</g>
<g>
</g>
<g>
</g>
<g>
</g>
</svg>
