<svg height="512" viewBox="0 0 512 512" width="512" xmlns="http://www.w3.org/2000/svg"><g id="flat"><path d="m160 240-18.65-3.73a81.99 81.99 0 0 0 -42.006 2.615l-3.344 1.115-8-24 8-24 16-8v-24l-40-8-16 32-12.128 36.383a26 26 0 0 0 2.618 22l.743 1.188a129.994 129.994 0 0 0 94.115 60.1l2.652.329z" fill="#8ed2ff"/><path d="m346.538 240 18.65-3.73a81.99 81.99 0 0 1 42.006 2.615l3.344 1.115 8-24-8-24-16-8v-24l40-8 16 32 12.128 36.383a26 26 0 0 1 -2.618 22l-.742 1.188a130 130 0 0 1 -94.116 60.1l-2.652.332z" fill="#8ed2ff"/><path d="m152 280h-32a8 8 0 0 1 -7.155-4.422l-8-16a8 8 0 0 1 14.31-7.156l5.789 11.578h27.056a8 8 0 0 1 0 16z" fill="#84c3ec"/><path d="m386.538 280h-32a8 8 0 0 1 0-16h27.056l5.789-11.578a8 8 0 1 1 14.31 7.156l-8 16a8 8 0 0 1 -7.155 4.422z" fill="#84c3ec"/><path d="m379.176 329.529-13.311-39.929a195.447 195.447 0 0 1 -8.316-35.979l-1.978-14.832a100 100 0 0 0 -99.123-86.789h-.9a100 100 0 0 0 -99.123 86.784l-1.978 14.832a195.447 195.447 0 0 1 -8.316 35.979l-13.311 39.934a94 94 0 0 0 -4.82 29.725v1.436a94 94 0 0 0 48.35 82.171l1 .555a100 100 0 0 0 48.563 12.584h60.174a100 100 0 0 0 48.565-12.584l1-.555a94 94 0 0 0 48.348-82.171v-1.436a94 94 0 0 0 -4.824-29.725z" fill="#bce1ff"/><circle cx="224" cy="264" fill="#8ed2ff" r="16"/><circle cx="288" cy="264" fill="#8ed2ff" r="16"/><path d="m256 195.866a83.974 83.974 0 0 1 -26.529-4.277 8 8 0 1 1 5.058-15.178 68.34 68.34 0 0 0 42.942 0 8 8 0 1 1 5.058 15.178 83.974 83.974 0 0 1 -26.529 4.277z" fill="#84c3ec"/><g fill="#8ed2ff"><path d="m216 352a8 8 0 0 0 -8 8v16h-24v-16a8 8 0 0 0 -16 0v48a8 8 0 0 0 16 0v-16h24v16a8 8 0 0 0 16 0v-48a8 8 0 0 0 -8-8z"/><path d="m264 416h-16a8 8 0 0 1 -8-8v-48a8 8 0 0 1 8-8h16a32 32 0 0 1 0 64zm-8-16h8a16 16 0 0 0 0-32h-8z"/><path d="m344 416h-24a8 8 0 0 1 -8-8v-48a8 8 0 0 1 16 0v40h16a8 8 0 0 1 0 16z"/><path d="m256 327.294a51.2 51.2 0 0 1 -28.438-8.638 8 8 0 1 1 8.876-13.312 35.174 35.174 0 0 0 39.124 0 8 8 0 0 1 8.876 13.312 51.2 51.2 0 0 1 -28.438 8.638z"/></g><path d="m256 128c-27.874 0-56-7.421-56-24s28.126-24 56-24 56 7.421 56 24-28.126 24-56 24zm-39.273-24c3.755 2.957 17.162 8 39.273 8s35.518-5.043 39.273-8c-3.755-2.957-17.162-8-39.273-8s-35.518 5.043-39.273 8z" fill="#ea9d2d"/><path d="m360 48h16v16h-16z" fill="#8ed2ff"/><path d="m360 80h16v16h-16z" fill="#8ed2ff"/><path d="m344 64h16v16h-16z" fill="#8ed2ff"/><path d="m376 64h16v16h-16z" fill="#8ed2ff"/><path d="m136 88h16v16h-16z" fill="#bce1ff"/><path d="m136 136h16v16h-16z" fill="#bce1ff"/><path d="m112 112h16v16h-16z" fill="#bce1ff"/><path d="m160 112h16v16h-16z" fill="#bce1ff"/></g></svg>