<svg height="512" viewBox="0 0 512 512" width="512" xmlns="http://www.w3.org/2000/svg"><g id="flat"><path d="m456 376a8 8 0 0 0 8-8v-24a8 8 0 0 0 -8-8h-24a8 8 0 0 0 0 16h6l-4.584 6.112a30 30 0 0 0 10.584 44.832l.223.112a6.794 6.794 0 0 1 3.777 6.111v.833a6.006 6.006 0 0 1 -6 6h-.833a109.759 109.759 0 0 1 -68.315-23.963l-7.852-6.284a8 8 0 1 0 -10 12.494l7.854 6.283a125.816 125.816 0 0 0 78.313 27.47h.833a22.025 22.025 0 0 0 22-22v-.833a22.709 22.709 0 0 0 -12.621-20.422l-.223-.111a14 14 0 0 1 -4.939-20.923l1.783-2.377v2.666a8 8 0 0 0 8 8z" fill="#dc4d41"/><path d="m192 144v-56l40 40z" fill="#dc4d41"/><path d="m320 144v-56l-40 40z" fill="#dc4d41"/><path d="m160.466 261.741-18.766-3.071a81.989 81.989 0 0 1 -38.4-17.229l-2.738-2.22-15.934 19.65-.957 25.28 12.162 13.118-8.445 22.465-40.257-6.587-3.717-35.583 1.451-38.323a26 26 0 0 1 10.192-19.674l1.113-.851a130 130 0 0 1 109.243-23.135l2.6.623z" fill="#dc4d41"/><path d="m351.534 261.741 18.766-3.071a81.989 81.989 0 0 0 38.4-17.229l2.738-2.22 15.934 19.65.957 25.28-12.162 13.118 8.445 22.465 40.257-6.587 3.717-35.583-1.451-38.323a26 26 0 0 0 -10.192-19.674l-1.113-.851a130 130 0 0 0 -109.243-23.135l-2.6.623z" fill="#dc4d41"/><path d="m121.168 237.874a8 8 0 0 1 -5.44-13.867l13.119-12.161a8 8 0 0 1 8.254-1.622l29.953 11.26a8 8 0 1 1 -5.631 14.976l-25.323-9.52-9.494 8.8a7.97 7.97 0 0 1 -5.438 2.134z" fill="#c7463b"/><path d="m390.832 237.874a7.972 7.972 0 0 1 -5.436-2.133l-9.494-8.8-25.325 9.52a8 8 0 1 1 -5.631-14.976l29.953-11.26a8 8 0 0 1 8.254 1.622l13.119 12.161a8 8 0 0 1 -5.44 13.867z" fill="#c7463b"/><path d="m379.176 297.529-13.311-39.929a195.447 195.447 0 0 1 -8.316-35.979l-1.978-14.832a100 100 0 0 0 -99.123-86.789h-.9a100 100 0 0 0 -99.123 86.784l-1.978 14.832a195.447 195.447 0 0 1 -8.316 35.979l-13.311 39.934a94 94 0 0 0 -4.82 29.725v1.436a94 94 0 0 0 48.35 82.171l1 .555a100 100 0 0 0 48.563 12.584h60.174a100 100 0 0 0 48.565-12.584l1-.555a94 94 0 0 0 48.348-82.171v-1.436a94 94 0 0 0 -4.824-29.725z" fill="#f55648"/><path d="m256 163.866a83.974 83.974 0 0 1 -26.529-4.277 8 8 0 1 1 5.058-15.178 68.34 68.34 0 0 0 42.942 0 8 8 0 1 1 5.058 15.178 83.974 83.974 0 0 1 -26.529 4.277z" fill="#dc4d41"/><g fill="#c7463b"><path d="m256 384h-16a8 8 0 0 1 -8-8v-48a8 8 0 0 1 8-8h16a32 32 0 0 1 0 64zm-8-16h8a16 16 0 0 0 0-32h-8z"/><path d="m336 384h-24a8 8 0 0 1 -8-8v-48a8 8 0 0 1 16 0v40h16a8 8 0 0 1 0 16z"/><path d="m208 384h-24a8 8 0 0 1 -8-8v-48a8 8 0 0 1 16 0v40h16a8 8 0 0 1 0 16z"/><path d="m279.992 295.268a7.961 7.961 0 0 1 -4.43-1.345 35.174 35.174 0 0 0 -39.124 0 8 8 0 0 1 -8.876-13.313 51.132 51.132 0 0 1 56.876 0 8 8 0 0 1 -4.446 14.658z"/><path d="m243.578 216.845-32-16a8 8 0 1 0 -7.156 14.31l9.257 4.629a16 16 0 1 0 26.321 12.216 8 8 0 0 0 3.578-15.157z"/><path d="m311.155 204.422a8 8 0 0 0 -10.733-3.577l-32 16a8 8 0 0 0 3.578 15.155 16 16 0 1 0 26.321-12.218l9.257-4.629a8 8 0 0 0 3.577-10.731z"/></g></g></svg>