<svg id="_x33_0" enable-background="new 0 0 64 64" height="512" viewBox="0 0 64 64" width="512" xmlns="http://www.w3.org/2000/svg"><g><g><g><path d="m32 63c-7.168 0-13-5.832-13-13s5.832-13 13-13 13 5.832 13 13-5.832 13-13 13z" fill="#f0bc5e"/></g></g><g><path d="m55.783 27.609c-1.381.92-3.029 1.366-4.674 1.354l2.534-3.167 3.804-1.902-.895-1.789-2.552 1.277v-1.382h-2v2.649l-3.185 3.981c-.454-.133-.901-.291-1.327-.504l-3.051-1.526c-.785-.393-1.664-.6-2.542-.6-2.167 0-4.114 1.204-5.083 3.142-1.185 2.369-1.812 5.022-1.812 7.672v.549c.688.163 1.359.371 2 .64v-1.189c0-2.341.554-4.685 1.601-6.778.628-1.256 1.889-2.036 3.294-2.036.568 0 1.139.135 1.647.389l3.052 1.526c1.42.71 3.009 1.085 4.596 1.085 2.036 0 4.008-.597 5.702-1.727l.662-.441-1.109-1.664z"/><path d="m63 15c-2.056 0-4.12.205-6.138.608l-4.143.829.184-.338c1.122-2.056 3.067-3.561 5.339-4.128l-.484-1.94c-2.813.703-5.222 2.565-6.61 5.111l-2.051 3.76c-1.122 2.056-3.067 3.561-5.339 4.128l.484 1.94c2.813-.703 5.222-2.565 6.61-5.111l.618-1.133 5.784-1.157c.695-.139 1.398-.244 2.103-.332l.693 2.08 1.896-.633-.546-1.636c.535-.03 1.068-.048 1.6-.048z"/><path d="m33.298 11.037-.629 1.005c-1.092 1.749-1.669 3.762-1.669 5.822 0 2.935 1.143 5.694 3.218 7.768l.585.585 5.138-2.569c1.142-.571 2.118-1.434 2.826-2.495.806-1.211 1.233-2.62 1.233-4.074 0-.798-.098-1.595-.303-2.411-.093-.373-.17-.75-.245-1.127 1.497-.572 2.72-1.65 3.442-3.094l-1.789-.895c-.429.859-1.12 1.525-1.963 1.947-.089-.829-.142-1.663-.142-2.499h-2c0 1.405.127 2.808.362 4.206-.614-.417-1.127-.97-1.468-1.653l-1.789.895c.765 1.529 2.079 2.668 3.697 3.208l.054.018c.086.463.144.933.144 1.405 0 1.058-.311 2.083-.897 2.964-.515.772-1.227 1.4-2.057 1.815l-3.829 1.915c-1.435-1.636-2.217-3.712-2.217-5.909 0-1.685.473-3.332 1.365-4.763l.628-1.004c1.755-2.807 4.306-4.939 7.378-6.168l-.742-1.857c-.804.322-1.573.704-2.31 1.132.451-1.359.681-2.774.681-4.204h-2c0 1.219-.195 2.424-.582 3.582l-.878 2.634c-1.245 1.103-2.341 2.378-3.242 3.821z"/><path d="m44.441 16.171 1.158 1.631c2.078-1.385 3.767-3.298 4.883-5.531.994-1.985 1.518-4.208 1.518-6.428 0-1.27.81-2.392 2.014-2.793l.303-.101-.633-1.897-.303.101c-2.023.673-3.381 2.558-3.381 4.69 0 1.911-.452 3.824-1.307 5.534-.961 1.922-2.414 3.568-4.207 4.764z"/><path d="m53.293 8.293 1.414 1.414.879-.879c1.18-1.179 2.747-1.828 4.414-1.828v-2c-2.201 0-4.271.857-5.828 2.414z"/><path d="m15.956 8.942c.907 1.208 2.101 2.205 3.451 2.88l.833.417c.121.238.227.484.365.714 1.104 1.84 2.701 3.319 4.62 4.279l2.498 1.249.257-1.284c.615-3.077 2.113-5.876 4.375-8.138 1.061-1.061 1.645-2.471 1.645-3.97 0-.867-.205-1.734-.593-2.51l-.513-1.026-1.789.895.513 1.026c.25.499.382 1.057.382 1.615 0 .965-.376 1.873-1.102 2.599-.326.326-.633.666-.93 1.013l-.179-.358c-.517-1.034-.789-2.19-.789-3.343h-2c0 1.462.346 2.927 1 4.236l.623 1.245c-1.025 1.552-1.804 3.255-2.303 5.061l-.199-.1c-1.578-.789-2.892-2.006-3.8-3.519-.513-.855-.863-1.787-1.078-2.751l2.465-2.464-1.414-1.414-1.294 1.292v-2.586h-2v3.158c0 .752.1 1.493.248 2.223-.64-.461-1.219-1.009-1.692-1.639-1.003-1.338-1.556-2.996-1.556-4.669v-2.073h-2v2.073c0 .192.012.384.024.575l-2.509-1.505-1.029 1.715 4.07 2.442c.33.944.798 1.839 1.4 2.642z"/><path d="m10.583 26.438c1.344 1.007 3.008 1.562 4.688 1.562h1.345c3.445 0 6.814.649 10.014 1.928l1.37.549v-1.79c0-2.641-1.164-5.125-3.192-6.815-1.909-1.591-3.235-3.705-3.838-6.114l-1.939.484c.705 2.823 2.26 5.301 4.496 7.166 1.271 1.059 2.104 2.52 2.376 4.121-2.993-1.015-6.11-1.529-9.288-1.529h-1.345c-.676 0-1.345-.13-1.979-.36l.28-1.401c.211-1.056.82-1.966 1.716-2.562.665-.443 1.438-.677 2.235-.677h1.478v-2h-1.478c-.879 0-1.736.193-2.524.557-.009-2.539-.757-4.998-2.166-7.112l-1.664 1.109c.909 1.364 1.491 2.898 1.72 4.502l-1.334-.889-1.109 1.664 2.555 1.704v.543c-.686.783-1.179 1.72-1.389 2.768l-.141.706c-1.016-.885-1.709-2.07-1.932-3.41l-.552-3.308-1.973.329.552 3.307c.331 1.992 1.403 3.756 3.018 4.968z"/><path d="m26.541 38.218c-.696-2.024-1.964-3.838-3.638-5.177-1.16-.928-2.489-1.6-3.902-2.014v-.027h-.08c-.553-.157-1.115-.282-1.69-.354l-1.021-.127c-2.415-.302-4.693-1.416-6.414-3.137l-1.089-1.089-1.414 1.414 1.089 1.089c1.093 1.093 2.38 1.971 3.777 2.612-.981.346-1.884.902-2.64 1.659-1.001 1.002-2.631 1.193-3.848.49l-.215-.859c-.303-1.209-.456-2.453-.456-3.698h-2c0 1.134.118 2.266.34 3.378-.752-.244-1.538-.378-2.34-.378v2c1.11 0 2.186.326 3.109.941l.282.188c.854.57 1.848.871 2.876.871.152 0 .298-.031.447-.044-.457.947-.714 1.989-.714 3.044h2c0-1.075.355-2.141 1-3l1.471-1.961c.873-.663 1.923-1.039 3.039-1.039h4.091c1.103.344 2.142.875 3.052 1.603 1.474 1.178 2.559 2.805 3.102 4.61.563-.38 1.164-.706 1.786-.995z"/><path d="m35 52c-1.654 0-3 1.346-3 3s1.346 3 3 3 3-1.346 3-3-1.346-3-3-3zm0 4c-.552 0-1-.449-1-1s.448-1 1-1 1 .449 1 1-.448 1-1 1z"/><path d="m27 48c-1.654 0-3 1.346-3 3s1.346 3 3 3 3-1.346 3-3-1.346-3-3-3zm0 4c-.552 0-1-.449-1-1s.448-1 1-1 1 .449 1 1-.448 1-1 1z"/><path d="m36 45c0-1.654-1.346-3-3-3s-3 1.346-3 3 1.346 3 3 3 3-1.346 3-3zm-4 0c0-.551.448-1 1-1s1 .449 1 1-.448 1-1 1-1-.449-1-1z"/><path d="m38 48h2v2h-2z"/><path d="m25 44h2v2h-2z"/></g></g></svg>