<svg id="Layer_1" enable-background="new 0 0 512 512" height="512" viewBox="0 0 512 512" width="512" xmlns="http://www.w3.org/2000/svg"><g><circle cx="256" cy="256" fill="#f3f3f3" r="256"/><path d="m256 0c-5.19 0-10.339.173-15.453.478 134.188 7.991 240.548 119.327 240.548 255.522s-106.36 247.531-240.547 255.522c5.113.305 10.262.478 15.452.478 141.385 0 256-114.615 256-256s-114.615-256-256-256z" fill="#e4e4e4"/><path d="m256 481.095c-60.125 0-116.651-23.413-159.166-65.929-42.515-42.515-65.929-99.041-65.929-159.166s23.414-116.651 65.929-159.166 99.041-65.929 159.166-65.929 116.651 23.413 159.166 65.929c42.515 42.515 65.929 99.041 65.929 159.166s-23.414 116.651-65.929 159.166-99.041 65.929-159.166 65.929z" fill="#bbf7ff"/><path d="m415.166 96.834c-42.515-42.515-99.041-65.929-159.166-65.929-5.181 0-10.332.186-15.453.531 54.307 3.658 104.861 26.546 143.713 65.397 42.515 42.515 65.929 99.041 65.929 159.166s-23.414 116.651-65.929 159.166c-38.852 38.852-89.407 61.739-143.713 65.397 5.121.345 10.272.531 15.453.531 60.125 0 116.651-23.413 159.166-65.929 42.515-42.515 65.929-99.041 65.929-159.166s-23.414-116.649-65.929-159.164z" fill="#8bf0ff"/><circle cx="237.79" cy="143.304" fill="#f75632" r="67.992"/><circle cx="237.79" cy="143.304" fill="#e33629" r="37.087"/><circle cx="157.818" cy="315.3" fill="#f75632" r="64.901"/><circle cx="157.818" cy="315.3" fill="#e33629" r="33.996"/><circle cx="342.339" cy="350.401" fill="#f75632" r="55.63"/><circle cx="342.34" cy="350.4" fill="#e33629" r="24.724"/></g></svg>