<svg id="Layer_1" enable-background="new 0 0 512 512" height="512" viewBox="0 0 512 512" width="512" xmlns="http://www.w3.org/2000/svg"><g><g><g><path d="m333.449 24.022c-5.889-5.172-13.532-8.022-21.449-8.022-7.917 0-15.56 2.85-21.449 8.022-30.221 26.542-122.551 114.86-122.551 203.178 0 77.762 64.471 140.8 144 140.8s144-63.038 144-140.8c0-88.318-92.33-176.636-122.551-203.178z" fill="#d73728"/></g><g><path d="m240 297.6c39.765 0 72-31.519 72-70.4v-211.2c-7.917 0-15.56 2.85-21.449 8.022-30.221 26.542-122.551 114.86-122.551 203.178 0 .015.001.03.001.045.025 38.86 32.25 70.355 71.999 70.355z" fill="#f05a4b"/></g><path d="m200 235.2c-4.418 0-8-3.582-8-8 0-62.435 59.089-136.577 114.388-185.146 3.32-2.915 8.374-2.589 11.29.731 2.916 3.319 2.588 8.374-.731 11.29-52.669 46.259-108.947 116.03-108.947 173.125 0 4.418-3.582 8-8 8z" fill="#ff7869"/></g><g><g><circle cx="184" cy="480" fill="#d7e6f0" r="16"/></g><g><path d="m184 464v32c8.837 0 16-7.163 16-16s-7.163-16-16-16z" fill="#a5c3dc"/></g><g><path d="m200 368h-32c-61.856 0-112-50.144-112-112 0-61.856 50.144-112 112-112h32c61.856 0 112 50.144 112 112 0 61.856-50.144 112-112 112z" fill="#463c4b"/></g><g><circle cx="168" cy="256" fill="#555a6e" r="112"/></g><g><circle cx="168" cy="256" fill="#f05a4b" r="77.333"/></g><g><path d="m225.333 249.333h-38.02l26.884-26.884c3.124-3.124 3.124-8.189 0-11.313s-8.19-3.124-11.314 0l-26.883 26.884v-38.02c0-4.418-3.582-8-8-8s-8 3.582-8 8v38.02l-26.884-26.884c-3.124-3.124-8.19-3.124-11.314 0s-3.124 8.189 0 11.313l26.884 26.884h-38.02c-4.418 0-8 3.582-8 8 0 4.419 3.582 8 8 8h38.02l-26.884 26.884c-3.124 3.125-3.124 8.19 0 11.314 3.124 3.124 8.189 3.124 11.314 0l26.884-26.884v38.02c0 4.418 3.582 8 8 8s8-3.582 8-8v-38.02l26.884 26.884c3.124 3.124 8.189 3.124 11.314 0 3.124-3.124 3.124-8.189 0-11.314l-26.884-26.884h38.02c4.418 0 8-3.581 8-8-.001-4.418-3.582-8-8.001-8z" fill="#a5c3dc"/></g><g><g><circle cx="168" cy="256" fill="#fff" r="48"/></g><g><path d="m168 208v28.8c0 10.604-8.596 19.2-19.2 19.2h-28.8c0 26.51 21.49 48 48 48 26.51 0 48-21.49 48-48 0-26.51-21.49-48-48-48z" fill="#d7e6f0"/></g></g><g><path d="m168 368h32v16h-32z" fill="#d7e6f0"/></g><g><path d="m168 368v8h8c4.418 0 8 3.582 8 8h16v-16z" fill="#a5c3dc"/></g><g><path d="m200 480h-32c-4.418 0-8-3.582-8-8v-80c0-4.418 3.582-8 8-8h32c4.418 0 8 3.582 8 8v80c0 4.418-3.582 8-8 8z" fill="#555a6e"/></g><g><path d="m200 480h-16v-96h16c4.418 0 8 3.582 8 8v80c0 4.418-3.582 8-8 8z" fill="#463c4b"/></g></g></g></svg>