<svg id="Layer_3" enable-background="new 0 0 64 64" height="512" viewBox="0 0 64 64" width="512" xmlns="http://www.w3.org/2000/svg"><path d="m39 22.962v-3l-.192-.192c-2.438-2.439-3.808-5.745-3.808-9.193v-8.577h-6v8.577c0 3.448-1.37 6.754-3.808 9.192l-.192.193v3" fill="#fadfb2"/><path d="m30 41h9.515c5.238 0 9.485-4.247 9.485-9.485 0-2.494 2.021-4.515 4.515-4.515 2.872 0 5.626-1.141 7.657-3.171.53-.53.829-1.25.829-2-.001-1.563-1.267-2.829-2.829-2.829h-21.687c-1.591 0-3.117.632-4.243 1.757l-.242.243" fill="#c66b60"/><path d="m36 62v-3.376c0-7.631 2.074-15.118 6-21.662l-3-2c-4.572 7.184-7 15.523-7 24.038v3" fill="#f5cf88"/><path d="m46.413 38.011-.132-.105c-3.18-2.544-7.173-3.945-11.281-3.945l.037 2c3.55 0 7.028 1.204 9.828 3.384.564-.386 1.08-.837 1.548-1.334z" fill="#bf5763"/><path d="m36 34c0 4.971-4.029 9-9 9h-2.835c-3.322 0-6.413 1.391-8.568 3.822l-.114.128c-2.847 3.212-6.933 5.05-11.225 5.05h-.326c-1.106 0-1.932-.83-1.932-1.854 0-.702.397-1.344 1.025-1.658 3.049-1.525 4.975-4.641 4.975-8.05v-8.438c0-7.732 6.268-14 14-14h5.357c2.871 0 5.522 1.538 6.946 4.031l.247.433c.95 1.662 1.45 3.543 1.45 5.457z" fill="#e47c6e"/><path d="m25 38.962c4.482 4.482 7 10.561 7 16.899v6.139h-4v-4.139c0-6.339-2.518-12.417-7-16.899" fill="#fadfb2"/><path d="m19.6 42.761-1.2-1.6c2.752-2.064 6.161-3.2 9.6-3.2h4v2h-4c-3.009 0-5.992.995-8.4 2.8z" fill="#bf5763"/></svg>