<svg height="512pt" viewBox="0 -62 512.00012 512" width="512pt" xmlns="http://www.w3.org/2000/svg"><path d="m430.578125.00390625c-46.28125 1.64062475-180.023437 18.00390575-180.023437 18.00390575s.574218 110.761719-29.90625 184.398438h.007812c6.191406-.050781 18.417969-.296875 24.308594-.722656 19.449218-53.472656 67.691406-88.675782 127.804687-88.675782 11.285157 0 22.257813 1.359376 32.769531 3.902344 39.8125-54.738281 43.851563-117.570312 25.039063-116.90624975zm0 0" fill="#e54a4a"/><path d="m220.648438 202.410156h.007812c6.191406-.054687 18.417969-.296875 24.308594-.726562 6.261718-17.207032 15.515625-32.507813 27.175781-45.367188 3.011719-14.503906 5.351563-30.515625 7.027344-48.082031 4.574219-47.980469 2.347656-90.144531 2.25-91.917969l-.109375-1.957031c-18.433594 2.140625-30.753906 3.648437-30.753906 3.648437s.574218 110.761719-29.90625 184.402344zm0 0" fill="#d83f3f"/><path d="m250.554688 18.007812s-119.402344-44.152343-208.664063 53.363282c-63.089844 68.921875-41.046875 152.78125-22.699219 196.03125 5.769532 13.597656 21.566406 19.632812 35.046875 13.597656 36.980469-16.566406 109.84375-24.757812 152.0625-57.464844 53.257813-41.253906 44.253907-205.527344 44.253907-205.527344zm0 0" fill="#f25c5c"/><path d="m50.097656 267.402344c-18.347656-43.25-40.390625-127.109375 22.699219-196.03125 41.328125-45.148438 89.109375-59.917969 128.515625-62.773438-42.945312-3.0625-106.484375 4.941406-159.421875 62.773438-63.089844 68.921875-41.046875 152.78125-22.699219 196.03125 5.769532 13.597656 21.566406 19.632812 35.046875 13.59375 1.664063-.746094 3.429688-1.46875 5.238281-2.1875-4.019531-2.71875-7.332031-6.582032-9.378906-11.40625zm0 0" fill="#e54a4a"/><path d="m372.769531 388.375c-76.769531 0-139.226562-62.457031-139.226562-139.230469 0-76.769531 62.457031-139.226562 139.226562-139.226562 76.773438 0 139.230469 62.457031 139.230469 139.226562 0 76.773438-62.457031 139.230469-139.230469 139.230469zm0 0" fill="#e4eaf8"/><path d="m262.902344 249.144531c0-71.8125 54.652344-131.09375 124.546875-138.453125-4.824219-.507812-9.722657-.773437-14.679688-.773437-76.769531 0-139.226562 62.457031-139.226562 139.226562 0 76.773438 62.457031 139.230469 139.226562 139.230469 4.957031 0 9.855469-.265625 14.679688-.773438-69.894531-7.355468-124.546875-66.640624-124.546875-138.457031zm0 0" fill="#d8dce5"/><path d="m372.769531 134.128906c-63.417969 0-115.015625 51.597656-115.015625 115.015625 0 63.421875 51.597656 115.019531 115.015625 115.019531 63.421875 0 115.019531-51.597656 115.019531-115.019531 0-63.417969-51.597656-115.015625-115.019531-115.015625zm0 0" fill="#f77c7c"/><path d="m286.054688 249.144531c0-58.628906 44.097656-107.148437 100.867187-114.144531-4.640625-.570312-9.359375-.871094-14.152344-.871094-63.421875 0-115.015625 51.597656-115.015625 115.019532 0 63.417968 51.59375 115.015624 115.015625 115.015624 4.792969 0 9.511719-.296874 14.152344-.871093-56.769531-6.996094-100.867187-55.515625-100.867187-114.148438zm0 0" fill="#f25c5c"/><path d="m396.886719 304.859375c0 14.175781-11.488281 25.664063-25.664063 25.664063-14.175781 0-25.664062-11.488282-25.664062-25.664063 0-14.171875 11.488281-25.664063 25.664062-25.664063 14.175782 0 25.664063 11.492188 25.664063 25.664063zm0 0" fill="#f25c5c"/><path d="m373.859375 304.859375c0-8.941406 4.578125-16.8125 11.515625-21.40625-4.058594-2.6875-8.921875-4.257813-14.152344-4.257813-14.175781 0-25.664062 11.492188-25.664062 25.664063 0 14.175781 11.488281 25.664063 25.664062 25.664063 5.230469 0 10.09375-1.566407 14.152344-4.253907-6.9375-4.59375-11.515625-12.464843-11.515625-21.410156zm0 0" fill="#e54a4a"/><path d="m425.941406 251.109375c0 8.023437-6.503906 14.527344-14.527344 14.527344-8.023437 0-14.527343-6.503907-14.527343-14.527344s6.503906-14.527344 14.527343-14.527344c8.023438 0 14.527344 6.503907 14.527344 14.527344zm0 0" fill="#f25c5c"/><path d="m419.6875 251.109375c0-3.394531 1.171875-6.511719 3.125-8.984375-2.660156-3.371094-6.773438-5.542969-11.398438-5.542969-8.023437 0-14.527343 6.503907-14.527343 14.527344s6.503906 14.527344 14.527343 14.527344c4.625 0 8.738282-2.171875 11.398438-5.539063-1.953125-2.472656-3.125-5.589844-3.125-8.988281zm0 0" fill="#e54a4a"/><path d="m381.898438 220.832031c0 16.171875-13.113282 29.285157-29.285157 29.285157s-29.28125-13.113282-29.28125-29.285157 13.109375-29.28125 29.28125-29.28125 29.285157 13.109375 29.285157 29.28125zm0 0" fill="#f25c5c"/><path d="m351.632812 220.832031c0-11.039062 6.113282-20.648437 15.132813-25.636719-4.195313-2.320312-9.019531-3.644531-14.152344-3.644531-16.171875 0-29.28125 13.109375-29.28125 29.28125s13.109375 29.285157 29.28125 29.285157c5.132813 0 9.957031-1.328126 14.152344-3.648438-9.019531-4.988281-15.132813-14.597656-15.132813-25.636719zm0 0" fill="#e54a4a"/><path d="m322.363281 277.015625c0 6.820313-5.527343 12.351563-12.347656 12.351563s-12.347656-5.53125-12.347656-12.351563c0-6.816406 5.527343-12.347656 12.347656-12.347656s12.347656 5.53125 12.347656 12.347656zm0 0" fill="#f25c5c"/><path d="m439.0625 195.179688c0 9.226562-7.476562 16.707031-16.703125 16.707031s-16.707031-7.480469-16.707031-16.707031c0-9.226563 7.480468-16.703126 16.707031-16.703126s16.703125 7.476563 16.703125 16.703126zm0 0" fill="#f25c5c"/><g fill="#e54a4a"><path d="m433.957031 195.179688c0-3.253907.941407-6.28125 2.550781-8.847657-2.953124-4.710937-8.175781-7.855469-14.152343-7.855469-9.222657 0-16.703125 7.480469-16.703125 16.703126 0 9.230468 7.480468 16.707031 16.703125 16.707031 5.976562 0 11.199219-3.144531 14.152343-7.855469-1.609374-2.570312-2.550781-5.597656-2.550781-8.851562zm0 0"/><path d="m420.328125 299.261719c-2.765625-2.765625-2.765625-7.246094 0-10.007813l4.96875-4.96875c2.765625-2.765625 7.242187-2.765625 10.007813 0 2.761718 2.761719 2.761718 7.242188 0 10.007813l-4.96875 4.96875c-2.765626 2.761719-7.246094 2.761719-10.007813 0zm0 0"/></g></svg>