<svg id="Capa_1" enable-background="new 0 0 497 497" height="512" viewBox="0 0 497 497" width="512" xmlns="http://www.w3.org/2000/svg"><g><circle cx="248.5" cy="248.5" fill="#7894ab" r="248.5"/><path d="m424.48 423.95c-44.99 45.12-107.22 73.05-175.98 73.05-137.24 0-248.5-111.26-248.5-248.5 0-75.36 33.55-142.89 86.52-188.45-44.81 44.96-72.52 106.97-72.52 175.45 0 137.24 111.26 248.5 248.5 248.5 61.88 0 118.47-22.62 161.98-60.05z" fill="#5d748a"/><circle cx="248.5" cy="248.5" fill="#edf4ff" r="210.702"/><g fill="#dbeaff"><path d="m407.15 387.15c-38.61 44.16-95.37 72.05-158.65 72.05-116.37 0-210.7-94.33-210.7-210.7 0-63.28 27.89-120.04 72.05-158.65-32.42 37.05-52.05 85.56-52.05 138.65 0 116.37 94.33 210.7 210.7 210.7 53.09 0 101.6-19.63 138.65-52.05z"/><ellipse cx="179.5" cy="187.25" rx="73" ry="54.489"/><path d="m119.986 155.689 15.429-15.466-6.468 19.83z"/><path d="m236.576 221.224 12.684-12.708-8.824 1.452z"/></g><ellipse cx="192.5" cy="174.25" fill="#df646e" rx="73" ry="54.489"/><path d="m260.53 194.05c-10.61 20.3-37.07 34.69-68.03 34.69-40.32 0-73-24.4-73-54.49 0-13.71 6.78-26.23 17.97-35.8-3.21 6.14-4.97 12.81-4.97 19.8 0 30.09 32.68 54.49 73 54.49 21.96 0 41.65-7.24 55.03-18.69z" fill="#dc4955"/><ellipse cx="220.5" cy="349.25" fill="#dbeaff" rx="52.25" ry="70" transform="matrix(.707 -.707 .707 .707 -182.374 258.21)"/><ellipse cx="192.5" cy="174.25" fill="#dc4955" rx="39.047" ry="20.536"/><path d="m270.706 398.019 12.294-12.269h-13.287z" fill="#dbeaff"/><path d="m171.003 299.753 15.541-15.332-7.771 15.59z" fill="#dbeaff"/><ellipse cx="233.5" cy="336.25" fill="#df646e" rx="52.25" ry="70" transform="matrix(.707 -.707 .707 .707 -169.374 263.595)"/><path d="m289.96 376.34c-1.83 3.44-4.15 6.6-6.96 9.41-20.41 20.4-59.11 14.78-86.45-12.55-27.33-27.34-32.95-66.04-12.55-86.45 2.15-2.15 4.51-4.01 7.04-5.59-11.48 21.45-4.05 53.47 19.51 77.04 24.45 24.45 58 31.52 79.41 18.14z" fill="#dc4955"/><ellipse cx="233.5" cy="336.25" fill="#dc4955" rx="22.25" ry="40" transform="matrix(.707 -.707 .707 .707 -169.374 263.595)"/><ellipse cx="342.5" cy="242.25" fill="#dbeaff" rx="62.5" ry="46.652"/><ellipse cx="355.5" cy="229.25" fill="#df646e" rx="62.5" ry="46.652"/><path d="m294.359 212.497 11.882-11.962-6.571 15.731z" fill="#dbeaff"/><path d="m395.19 267.352 11.531-11.367-12.2 4.792z" fill="#dbeaff"/><path d="m412.09 249.07c-9.98 15.86-31.56 26.83-56.59 26.83-34.52 0-62.5-20.88-62.5-46.65 0-13.85 8.08-26.28 20.91-34.82-3.79 6.01-5.91 12.73-5.91 19.82 0 25.77 27.98 46.65 62.5 46.65 15.97 0 30.53-4.47 41.59-11.83z" fill="#dc4955"/><ellipse cx="355.5" cy="229.25" fill="#dc4955" rx="32.5" ry="16.651"/></g></svg>