<svg viewBox="0 -8 511.96692 511" xmlns="http://www.w3.org/2000/svg"><path d="m320.148438 69.628906c-13.421876-52.609375-78.785157-81.359375-145.992188-64.214844-67.210938 17.144532-110.8125 73.695313-97.390625 126.304688s78.785156 81.359375 145.992187 64.214844c67.210938-17.144532 110.8125-73.695313 97.390626-126.304688zm0 0" fill="#fd6f71"/><path d="m243.355469 185.625c-67.207031 17.144531-132.570313-11.605469-145.992188-64.210938-10.371093-40.664062 13.324219-83.671874 55.652344-109.027343-54.917969 22.476562-88.210937 72.464843-76.253906 119.328125 13.421875 52.609375 78.78125 81.359375 145.988281 64.210937 15.261719-3.890625 29.300781-9.824219 41.734375-17.273437-6.730469 2.757812-13.789063 5.101562-21.128906 6.972656zm0 0" fill="#e34b4c"/><path d="m160.914062 119.566406c-19.074218 0-35.867187-3.867187-47.566406-11.417968-3.582031-2.316407-4.613281-7.097657-2.300781-10.683594 2.3125-3.585938 7.09375-4.613282 10.679687-2.300782 15.878907 10.246094 45.847657 11.835938 76.355469 4.054688 30.5-7.78125 56.042969-23.535156 65.074219-40.132812 2.039062-3.746094 6.730469-5.132813 10.480469-3.09375 3.746093 2.039062 5.132812 6.734374 3.09375 10.480468-11.15625 20.503906-39.832031 38.792969-74.832031 47.71875-14.125 3.605469-28.078126 5.375-40.984376 5.375zm0 0" fill="#e34b4c"/><path d="m228.914062 451.421875c26.703126-47.273437-.609374-113.25-61-147.359375-60.390624-34.109375-130.992187-23.441406-157.695312 23.832031-26.699219 47.273438.609375 113.25 61 147.359375 60.390625 34.113282 130.996094 23.441406 157.695312-23.832031zm0 0" fill="#fd6f71"/><path d="m91.851562 475.265625c-60.394531-34.105469-87.707031-100.078125-61.007812-147.355469 14.613281-25.875 42.375-40.78125 74.421875-43.386718-40.449219-3.152344-77.355469 12.097656-95.027344 43.386718-26.699219 47.277344.617188 113.25 61.011719 147.355469 27.335938 15.441406 56.769531 21.703125 83.269531 19.546875-20.660156-1.609375-42.246093-8.011719-62.667969-19.546875zm0 0" fill="#e34b4c"/><path d="m179.996094 421.914062c-20.003906 0-44.148438-7.042968-67.265625-20.097656-31.457031-17.765625-54.355469-42.90625-59.765625-65.617187-.992188-4.152344 1.570312-8.316407 5.722656-9.308594 4.15625-.992187 8.320312 1.574219 9.308594 5.726563 4.378906 18.382812 24.921875 40.261718 52.332031 55.746093 27.410156 15.476563 56.753906 21.769531 74.757813 16.03125 4.066406-1.292969 8.414062.949219 9.707031 5.015625 1.296875 4.066406-.949219 8.414063-5.015625 9.707032-5.894532 1.882812-12.570313 2.796874-19.78125 2.796874zm0 0" fill="#e34b4c"/><path d="m283.0625 357.285156c26.699219 47.273438 97.300781 57.945313 157.691406 23.835938 60.394532-34.113282 87.703125-100.085938 61-147.359375-26.699218-47.273438-97.300781-57.945313-157.691406-23.832031-60.390625 34.109374-87.703125 100.082031-61 147.355468zm0 0" fill="#fd6f71"/><g fill="#e34b4c"><path d="m451.054688 360.488281c-60.394532 34.109375-130.996094 23.433594-157.695313-23.839843-12.902344-22.847657-13.1875-50.054688-3.226563-75.929688-19.492187 31.425781-23.46875 67.503906-7.074218 96.53125 26.699218 47.277344 97.300781 57.949219 157.691406 23.84375 31.210938-17.625 53.585938-43.761719 64.238281-71.429688-12.25 19.75-30.625 37.660157-53.933593 50.824219zm0 0"/><path d="m332.003906 327.738281c-7.214844 0-13.886718-.914062-19.78125-2.792969-4.066406-1.296874-6.3125-5.640624-5.015625-9.707031 1.296875-4.066406 5.644531-6.3125 9.707031-5.015625 18.003907 5.738282 47.347657-.554687 74.757813-16.035156s47.953125-37.359375 52.332031-55.742188c.988282-4.152343 5.160156-6.710937 9.308594-5.726562 4.148438.988281 6.714844 5.15625 5.722656 9.308594-5.410156 22.707031-28.308594 47.851562-59.765625 65.617187-23.113281 13.054688-47.261719 20.09375-67.265625 20.09375zm0 0"/></g></svg>