<svg height="490pt" viewBox="-21 0 490 490.66667" width="490pt" xmlns="http://www.w3.org/2000/svg"><path d="m171 0h192c23.5625 0 42.667969 19.101562 42.667969 42.667969v256c0 23.5625-19.105469 42.664062-42.667969 42.664062h-192c-23.5625 0-42.667969-19.101562-42.667969-42.664062v-256c0-23.566407 19.105469-42.667969 42.667969-42.667969zm0 0" fill="#ebedef"/><path d="m171 42.667969h192v85.332031h-192zm0 0" fill="#7c8691"/><path d="m149.667969 138.667969h42.664062v64h-42.664062zm0 0" fill="#ffca6b"/><path d="m.332031 245.332031v-149.332031c.035157-11.765625 9.566407-21.296875 21.335938-21.332031h192c11.765625.035156 21.296875 9.566406 21.332031 21.332031v10.667969h53.332031l-53.332031 53.332031v85.332031c-.035156 11.769531-9.566406 21.300781-21.332031 21.335938h-192c-11.769531-.035157-21.300781-9.566407-21.335938-21.335938zm0 0" fill="#ffca6b"/><path d="m85.667969 362.667969c0 17.671875-14.328125 32-32 32-17.675781 0-32-14.328125-32-32 0-17.707031 32-53.335938 32-53.335938s32 35.628907 32 53.335938zm0 0" fill="#f3596b"/><path d="m160.332031 426.667969c0 17.671875-14.324219 32-32 32-17.671875 0-32-14.328125-32-32 0-17.707031 32-53.335938 32-53.335938s32 35.628907 32 53.335938zm0 0" fill="#f3596b"/><path d="m320.332031 266.667969c.003907-6.292969 2.78125-12.261719 7.59375-16.3125s11.167969-5.773438 17.367188-4.703125c10.5 2.128906 17.960937 11.476562 17.707031 22.1875v-1.171875c.003906-6.292969 2.78125-12.261719 7.59375-16.3125s11.167969-5.773438 17.367188-4.703125c10.5 2.128906 17.960937 11.476562 17.707031 22.1875v-1.171875c0-11.785157 9.550781-21.335938 21.332031-21.335938 11.828125.925781 21.042969 10.648438 21.332031 22.507813v126.828125c.03125 15.238281-8.113281 29.324219-21.332031 36.90625v59.09375h-149.332031v-53.335938h-10.667969c-23.5625 0-42.667969-19.101562-42.667969-42.664062v-29.65625l-27.09375-27.089844c-4.785156-4.792969-6.21875-11.992187-3.628906-18.25 2.59375-6.257813 8.699219-10.335937 15.46875-10.339844 4.4375.035157 8.683594 1.796875 11.84375 4.90625l27.089844 27.09375h29.65625v-148.160156c-.257813-10.707031 7.207031-20.058594 17.707031-22.183594 6.199219-1.070312 12.550781.648438 17.363281 4.703125 4.8125 4.050782 7.59375 10.019532 7.59375 16.308594zm0 0" fill="#f2cac1"/><g fill="#fbb24c"><path d="m85.667969 213.332031h-53.335938v-21.332031h42.667969v-10.667969h-32c-5.890625 0-10.667969-4.773437-10.667969-10.664062v-32c0-5.890625 4.777344-10.667969 10.667969-10.667969h53.332031v21.332031h-42.664062v10.667969h32c5.890625 0 10.664062 4.777344 10.664062 10.667969v32c0 5.890625-4.773437 10.664062-10.664062 10.664062zm0 0"/><path d="m192.332031 213.332031h-42.664062c-5.890625 0-10.667969-4.773437-10.667969-10.664062v-64c0-5.890625 4.777344-10.667969 10.667969-10.667969h42.664062c5.890625 0 10.667969 4.777344 10.667969 10.667969v64c0 5.890625-4.777344 10.664062-10.667969 10.664062zm-32-21.332031h21.335938v-42.667969h-21.335938zm0 0"/><path d="m107 192h21.332031v21.332031h-21.332031zm0 0"/></g></svg>