<svg height="512" viewBox="0 0 64 64" width="512" xmlns="http://www.w3.org/2000/svg"><g id="flat"><path d="m3 12h58v40h-58z" fill="#f98c96"/><path d="m48 28.016c1.953-1.953 4.219-2.781 5-2l3 3c.781.781-.047 3.047-2 5s-4.219 2.781-5 2l-3-3c-.781-.781.047-3.048 2-5z" fill="#dd3e46"/><path d="m49.5 33.445-1-1.728a9.491 9.491 0 0 0 3.209-3.217l1.73 1a11.482 11.482 0 0 1 -3.939 3.945z" fill="#f4f4e6"/><path d="m24 26c1.953-1.953 4.219-2.781 5-2l3 3c.781.781-.047 3.047-2 5s-4.219 2.781-5 2l-3-3c-.781-.781.047-3.047 2-5z" fill="#dd3e46"/><path d="m25.5 31.429-1-1.729a9.527 9.527 0 0 0 3.2-3.2l1.727 1.009a11.479 11.479 0 0 1 -3.927 3.92z" fill="#f4f4e6"/><path d="m18 35c-1.953-1.953-4.219-2.781-5-2l-3 3c-.781.781.047 3.047 2 5s4.219 2.781 5 2l3-3c.781-.781-.047-3.047-2-5z" fill="#dd3e46"/><path d="m16.5 40.429a11.479 11.479 0 0 1 -3.925-3.924l1.725-1.005a9.527 9.527 0 0 0 3.2 3.2z" fill="#f4f4e6"/><path d="m38 35c-2.761 0-5 .9-5 2v4c0 1.1 2.239 2 5 2s5-.9 5-2v-4c0-1.1-2.239-2-5-2z" fill="#dd3e46"/><path d="m38 40a12.612 12.612 0 0 1 -2.172-.182l.344-1.969a11.159 11.159 0 0 0 3.656 0l.344 1.969a12.612 12.612 0 0 1 -2.172.182z" fill="#f4f4e6"/><path d="m12.379 20.672h4.243v5.657h-4.243z" fill="#b11e48" transform="matrix(.707 -.707 .707 .707 -12.37 17.136)"/><path d="m38 21h4v5h-4z" fill="#b11e48"/><g fill="#f4f4e6"><path d="m26 19h-2c0-3.242-2.293-4.043-2.316-4.051l.632-1.9c.151.051 3.684 1.284 3.684 5.951z"/><path d="m35 20h-2c0-4.163-2.293-5.043-2.316-5.051l.632-1.9c.151.051 3.684 1.295 3.684 6.951z"/><path d="m20.316 50.949-.632-1.9.316.951-.326-.945c.096-.034 2.326-.867 2.326-4.055h2c0 4.667-3.533 5.9-3.684 5.949z"/><path d="m45.316 50.949-.632-1.9.316.951-.326-.945c.096-.034 2.326-.867 2.326-4.055h2c0 4.667-3.533 5.9-3.684 5.949z"/><path d="m50.316 50.949-.632-1.9.316.951-.326-.945c.096-.034 2.326-.867 2.326-4.055h2c0 4.667-3.533 5.9-3.684 5.949z"/><path d="m25.316 50.949-.632-1.9.316.951-.331-.943c.095-.036 2.331-.914 2.331-5.057h2c0 5.656-3.533 6.9-3.684 6.949z"/><path d="m52 20h-2a6.48 6.48 0 0 0 -2.555-5.168l1.11-1.664a8.479 8.479 0 0 1 3.445 6.832z"/><path d="m57 21h-2c0-4.414-2.529-6.151-2.555-6.168l1.11-1.664c.145.094 3.445 2.36 3.445 7.832z"/></g><path d="m7 28h2v2h-2z" fill="#b11e48"/><path d="m25 38h2v2h-2z" fill="#b11e48"/><path d="m36 30h2v2h-2z" fill="#b11e48"/><path d="m55 38h2v2h-2z" fill="#b11e48"/><path d="m3 12h58v4h-58z" fill="#be2821"/><path d="m3 48h58v4h-58z" fill="#be2821"/></g></svg>