<svg id="Layer_2" enable-background="new 0 0 100 100" height="512" viewBox="0 0 100 100" width="512" xmlns="http://www.w3.org/2000/svg"><g><g><path d="m24.79 38.24c0-13.92 11.29-25.21 25.21-25.21s25.21 11.29 25.21 25.21-11.29 25.21-25.21 25.21c-13.92-.01-25.21-11.29-25.21-25.21z" fill="#fff"/><path d="m50 65.12c-14.83 0-26.89-12.06-26.89-26.89s12.06-26.89 26.89-26.89 26.89 12.06 26.89 26.89-12.06 26.89-26.89 26.89zm0-50.41c-12.97 0-23.53 10.55-23.53 23.53 0 12.97 10.55 23.53 23.53 23.53s23.53-10.55 23.53-23.53-10.56-23.53-23.53-23.53z" fill="#ff3e5f"/></g><g><g><path d="m25.79 45.24s4.72 1.78 9.43 3.57 14.79-24.84 20.14-24.72c0 0-4.72-1.78-9.43-3.57-4.72-1.78-13.23 25.44-20.14 24.72z" fill="#fdd6a0"/><path d="m35.72 50.59c-.37 0-.73-.07-1.1-.21l-9.43-3.57c-.79-.3-1.23-1.14-1.04-1.96.2-.82.97-1.37 1.81-1.28 2.53.22 6.99-7.78 9.92-13.11 4.11-7.47 7.08-12.86 10.65-11.51l9.43 3.57c.77.29 1.21 1.09 1.05 1.89s-.89 1.4-1.69 1.36c-1.71.07-6.22 7.74-8.64 11.86-4.36 7.4-7.63 12.96-10.96 12.96zm-5.58-5.5 5.67 2.15c1.47-.27 5.54-7.19 7.97-11.32 3.1-5.26 5.51-9.26 7.73-11.49l-6.07-2.3c-1.42.49-4.54 6.17-6.62 9.95-2.91 5.29-5.71 10.38-8.68 13.01z" fill="#fdb021"/></g><g><path d="m44.65 52.38s4.72 1.78 9.43 3.57c4.72 1.79 14.79-24.84 20.14-24.72 0 0-4.72-1.78-9.43-3.57-4.72-1.78-13.23 25.44-20.14 24.72z" fill="#fdd6a0"/><path d="m54.58 57.73c-.37 0-.73-.07-1.1-.21l-9.43-3.57c-.79-.3-1.23-1.14-1.04-1.96s.97-1.37 1.81-1.28c2.55.27 6.99-7.78 9.92-13.11 4.11-7.47 7.08-12.86 10.65-11.51l9.43 3.57c.77.29 1.21 1.09 1.05 1.89s-.91 1.44-1.69 1.36c-1.71.07-6.22 7.74-8.64 11.86-4.36 7.4-7.63 12.96-10.96 12.96zm-5.58-5.5 5.67 2.15c1.47-.27 5.54-7.19 7.97-11.32 3.1-5.27 5.52-9.26 7.73-11.49l-6.07-2.3c-1.42.49-4.54 6.17-6.62 9.95-2.91 5.29-5.71 10.38-8.68 13.01z" fill="#fdb021"/></g></g><g><g><path d="m75.01 88.65c-.93 0-1.68-.75-1.68-1.68v-13.44c0-.93.75-1.68 1.68-1.68s1.68.75 1.68 1.68v13.44c0 .93-.75 1.68-1.68 1.68z" fill="#7f5334"/></g><g><path d="m42.42 88.65c-3.02 0-5.47-2.45-5.47-5.47v-5.87c0-3.02 2.45-5.47 5.47-5.47s5.47 2.45 5.47 5.47v5.87c0 3.02-2.45 5.47-5.47 5.47zm0-13.44c-1.16 0-2.11.95-2.11 2.11v5.87c0 1.16.95 2.11 2.11 2.11s2.11-.95 2.11-2.11v-5.87c0-1.17-.95-2.11-2.11-2.11z" fill="#7f5334"/></g><g><g><path d="m88.65 88.65c-.6 0-1.16-.32-1.46-.86l-4.43-7.87v7.04c0 .93-.75 1.68-1.68 1.68s-1.68-.75-1.68-1.68v-13.43c0-.76.52-1.43 1.25-1.63.74-.19 1.52.13 1.89.8l4.43 7.87v-7.04c0-.93.75-1.68 1.68-1.68s1.68.75 1.68 1.68v13.44c0 .76-.52 1.43-1.25 1.63-.14.03-.29.05-.43.05z" fill="#7f5334"/></g></g><g><g><path d="m68.95 81.93h-6.06c-.93 0-1.68-.75-1.68-1.68v-6.72c0-.93.75-1.68 1.68-1.68h6.06c.93 0 1.68.75 1.68 1.68s-.75 1.68-1.68 1.68h-4.38v3.36h4.38c.93 0 1.68.75 1.68 1.68s-.76 1.68-1.68 1.68z" fill="#7f5334"/></g><g><path d="m68.95 88.65h-6.06c-.93 0-1.68-.75-1.68-1.68v-6.72c0-.93.75-1.68 1.68-1.68s1.68.75 1.68 1.68v5.04h4.38c.93 0 1.68.75 1.68 1.68s-.76 1.68-1.68 1.68z" fill="#7f5334"/></g></g><g><g><path d="m15.57 81.93h-4.22c-.93 0-1.68-.75-1.68-1.68v-6.72c0-.93.75-1.68 1.68-1.68h4.22c2.78 0 5.04 2.26 5.04 5.04s-2.26 5.04-5.04 5.04zm-2.54-3.36h2.54c.93 0 1.68-.75 1.68-1.68s-.75-1.68-1.68-1.68h-2.54z" fill="#7f5334"/></g><g><path d="m11.35 88.65c-.93 0-1.68-.75-1.68-1.68v-6.72c0-.93.75-1.68 1.68-1.68s1.68.75 1.68 1.68v6.72c0 .93-.75 1.68-1.68 1.68z" fill="#7f5334"/></g></g><g><g><path d="m53.79 88.65c-.93 0-1.68-.75-1.68-1.68v-13.44c0-.93.75-1.68 1.68-1.68s1.68.75 1.68 1.68v13.44c0 .93-.75 1.68-1.68 1.68z" fill="#7f5334"/></g><g><path d="m56.82 75.21h-6.06c-.93 0-1.68-.75-1.68-1.68s.75-1.68 1.68-1.68h6.06c.93 0 1.68.75 1.68 1.68s-.75 1.68-1.68 1.68z" fill="#7f5334"/></g></g><g><g><path d="m29.21 81.93h-4.22c-.93 0-1.68-.75-1.68-1.68v-6.72c0-.93.75-1.68 1.68-1.68h4.22c2.78 0 5.04 2.26 5.04 5.04s-2.26 5.04-5.04 5.04zm-2.54-3.36h2.54c.93 0 1.68-.75 1.68-1.68s-.75-1.68-1.68-1.68h-2.54z" fill="#7f5334"/></g><g><path d="m32.57 88.65c-.93 0-1.68-.75-1.68-1.68 0-1.46-.93-4.35-1.6-5.04h-2.62v5.04c0 .93-.75 1.68-1.68 1.68s-1.68-.75-1.68-1.68v-6.72c0-.93.75-1.68 1.68-1.68h4.55c3.48 0 4.71 6.69 4.71 8.4 0 .93-.75 1.68-1.68 1.68z" fill="#7f5334"/></g></g></g><g><g><path d="m27.06 13.38s4.72 1.79 9.43 3.57c4.72 1.78-5.36 28.41-1.28 31.86 0 0-4.72-1.78-9.43-3.57-4.71-1.78 6.94-27.81 1.28-31.86z" fill="#92ebfd"/><path d="m35.18 50.49c-.19 0-.37-.03-.56-.1l-9.43-3.57c-3.57-1.35-2.22-7.36-.35-15.68 1.33-5.93 3.35-14.89 1.25-16.39-.69-.49-.9-1.42-.5-2.16s1.29-1.08 2.08-.78l9.43 3.57c3.72 1.41 2.4 8.17.58 17.54-.91 4.69-2.61 13.42-1.37 14.61.57.55.72 1.47.29 2.14-.33.51-.86.82-1.42.82zm-8.69-6.78 6.07 2.3c-.18-3.14.65-7.73 1.81-13.73.91-4.71 2.45-12.58 1.41-13.83l-5.55-2.08c.49 3.94-.79 9.62-2.11 15.51-.95 4.2-2.37 10.53-1.63 11.83z" fill="#0ab5fd"/></g><g><path d="m45.92 20.52s4.72 1.79 9.43 3.57c4.72 1.78-5.36 28.41-1.28 31.86 0 0-4.72-1.78-9.43-3.57-4.71-1.78 6.94-27.81 1.28-31.86z" fill="#92ebfd"/><path d="m54.04 57.63c-.19 0-.37-.03-.56-.1l-9.43-3.57c-3.58-1.35-2.22-7.36-.35-15.67 1.33-5.93 3.35-14.89 1.25-16.39-.69-.49-.9-1.42-.5-2.16s1.29-1.08 2.08-.78l9.43 3.57c3.72 1.41 2.4 8.17.59 17.54-.91 4.69-2.61 13.42-1.37 14.61.57.55.72 1.47.29 2.15-.33.49-.87.8-1.43.8zm-8.69-6.78 6.07 2.3c-.18-3.14.65-7.73 1.81-13.73.91-4.71 2.44-12.58 1.4-13.83l-5.55-2.08c.49 3.94-.78 9.62-2.11 15.51-.94 4.2-2.36 10.53-1.62 11.83z" fill="#0ab5fd"/></g><g><path d="m64.78 27.66s4.72 1.79 9.43 3.57c4.72 1.78-5.36 28.41-1.28 31.86 0 0-4.72-1.78-9.43-3.57-4.71-1.78 6.94-27.82 1.28-31.86z" fill="#92ebfd"/><path d="m72.9 64.77c-.19 0-.37-.03-.56-.1l-9.43-3.57c-3.58-1.35-2.22-7.36-.35-15.68 1.33-5.93 3.35-14.89 1.25-16.39-.69-.49-.9-1.42-.5-2.16s1.29-1.08 2.08-.78l9.43 3.57c3.72 1.41 2.4 8.18.59 17.54-.91 4.69-2.61 13.42-1.37 14.61.57.55.72 1.47.29 2.14-.34.51-.87.82-1.43.82zm-8.69-6.78 6.07 2.3c-.18-3.14.65-7.73 1.82-13.73.91-4.71 2.45-12.59 1.4-13.83l-5.55-2.08c.49 3.94-.78 9.62-2.11 15.51-.95 4.2-2.37 10.53-1.63 11.83z" fill="#0ab5fd"/></g></g></g></svg>