<svg id="Layer_3" enable-background="new 0 0 64 64" height="512" viewBox="0 0 64 64" width="512" xmlns="http://www.w3.org/2000/svg"><g><path d="m36 40v22h4v-2c0-1.105.895-2 2-2h14c1.105 0 2 .895 2 2v2h4v-22" fill="#c7e2fc"/><path d="m36 53.042c4.382-3.535 7.998-7.978 10.57-13.042h-10.57z" fill="#ebf7fe"/><path d="m44 34v-28h10v28" fill="#c7e2fc"/><path d="m44 34h5.031c1.203-3.805 1.856-7.854 1.856-12.056 0-5.669-1.188-11.059-3.318-15.944h-3.569z" fill="#ebf7fe"/><path d="m54 25v24c0 2.761-2.239 5-5 5-2.761 0-5-2.239-5-5v-24z" fill="#f2c351"/><path d="m50.759 25c-2.961 0-6.759 0-6.759 0s0 13.336 0 19.369c3.807-5.602 6.218-12.224 6.759-19.369z" fill="#f7d881"/><path d="m28 62h-22c-1.105 0-2-.895-2-2v-34h26v34c0 1.105-.895 2-2 2z" fill="#c7e2fc"/><path d="m4 59.274c10.821-5.58 18.225-16.858 18.225-29.872 0-1.148-.058-2.283-.171-3.401h-18.054z" fill="#ebf7fe"/><path d="m30 45v15c0 1.105-.895 2-2 2h-22c-1.105 0-2-.895-2-2v-15z" fill="#f2c351"/><path d="m4 59.274c6.138-3.166 11.173-8.163 14.383-14.274-7.11 0-14.383 0-14.383 0s0 12.958 0 14.274z" fill="#f7d881"/><path d="m9 36h16v14h-16z" fill="#a8b0bc"/><path d="m21.574 36h-12.574v14h6.161c3.136-4.034 5.376-8.799 6.413-14z" fill="#c1c8d1"/><g fill="#758190"><path d="m3 23v-5c0-1.105.895-2 2-2h24c1.105 0 2 .895 2 2v5"/><path d="m9 36h16v3h-16z"/><path d="m9 47h16v3h-16z"/></g><path d="m30 26h-26c-1.105 0-2-.895-2-2 0-1.105.895-2 2-2h26c1.105 0 2 .895 2 2 0 1.105-.895 2-2 2z" fill="#a8b0bc"/><g><path d="m6 15.999h1.999v5.999h-1.999z" fill="#8892a0"/></g><g><path d="m10 15.999h1.999v5.999h-1.999z" fill="#8892a0"/></g><g><path d="m14 15.999h1.999v5.999h-1.999z" fill="#8892a0"/></g><g><path d="m18 15.999h1.999v5.999h-1.999z" fill="#8892a0"/></g><g><path d="m22 15.999h1.999v5.999h-1.999z" fill="#8892a0"/></g><g><path d="m26 15.999h1.999v5.999h-1.999z" fill="#8892a0"/></g><g><path d="m12 41.999h1.999v1.999h-1.999z" fill="#e7e4dd"/></g><g><path d="m16 41.999h1.999v1.999h-1.999z" fill="#e7e4dd"/></g><g><path d="m20 41.999h1.999v1.999h-1.999z" fill="#d5cec2"/></g><path d="m36 34h26v6h-26z" fill="#a8b0bc"/><path d="m54 6h-10c-1.105 0-2-.895-2-2 0-1.105.895-2 2-2h10c1.105 0 2 .895 2 2 0 1.105-.895 2-2 2z" fill="#a1cdfb"/><g><path d="m49.999 8.999h1.999v5.999h-1.999z" fill="#fff"/></g><path d="m21.574 36h-12.574v3h11.826c.293-.982.545-1.982.748-3z" fill="#8892a0"/><path d="m17.248 47h-8.248v3h6.161c.747-.961 1.446-1.96 2.087-3z" fill="#8892a0"/><path d="m45.547 2h-1.547c-1.105 0-2 .895-2 2s.895 2 2 2h3.569c-.6-1.376-1.277-2.71-2.022-4z" fill="#c7e2fc"/><path d="m49.031 34h-13.031v6h10.57c.974-1.917 1.803-3.92 2.461-6z" fill="#c1c8d1"/></g></svg>