<svg id="Flat" height="512" viewBox="0 0 512 512" width="512" xmlns="http://www.w3.org/2000/svg"><path d="m368 48h-128l-56 16h-24v32h24l56 16h128z" fill="#e9eef2"/><path d="m312 112h-72l-56-16h-24v-32h24l50.11-14.32z" fill="#3397e8"/><path d="m368 128v-96a16 16 0 0 1 16-16 16 16 0 0 1 16 16v96a16 16 0 0 1 -16 16 16 16 0 0 1 -16-16z" fill="#7e8589"/><path d="m432 40h16a32 32 0 0 1 32 32v48a0 0 0 0 1 0 0h-80a0 0 0 0 1 0 0v-48a32 32 0 0 1 32-32z" fill="#6a7073" transform="matrix(0 1 -1 0 520 -360)"/><circle cx="216" cy="312" fill="#e9eef2" r="184"/><circle cx="216" cy="312" fill="#2d85cc" r="152"/><path d="m224 342.627-22.627-22.627a16 16 0 0 1 0-22.627 16 16 0 0 1 22.627 0l22.627 22.627a16 16 0 0 1 0 22.627 16 16 0 0 1 -22.627 0z" fill="#f7b030"/><rect fill="#f7b030" height="56.569" rx="16" transform="matrix(.707 -.707 .707 .707 -211.411 193.608)" width="33.941" x="111.029" y="323.716"/><rect fill="#f7b030" height="33.941" rx="16" transform="matrix(.707 -.707 .707 .707 -181.226 314.482)" width="56.569" x="260.716" y="359.029"/><rect fill="#f7b030" height="33.941" rx="16" transform="matrix(.707 -.707 .707 .707 -88.42 220.536)" width="56.569" x="193.716" y="200.029"/><path d="m160 192a16 16 0 0 1 -16-16 67.785 67.785 0 0 1 7.155-30.311l8.845-17.689 8.845 17.689a67.785 67.785 0 0 1 7.155 30.311 16 16 0 0 1 -16 16z" fill="#3397e8"/><g fill="#b1bd70"><path d="m144 264a8 8 0 0 1 -8-8v-16a8 8 0 0 1 16 0v16a8 8 0 0 1 -8 8z"/><path d="m128 280h-16a8 8 0 0 1 0-16h16a8 8 0 0 1 0 16z"/><path d="m176 280h-16a8 8 0 0 1 0-16h16a8 8 0 0 1 0 16z"/><path d="m144 312a8 8 0 0 1 -8-8v-16a8 8 0 0 1 16 0v16a8 8 0 0 1 -8 8z"/><path d="m136 272a7.976 7.976 0 0 1 -5.657-2.343l-16-16a8 8 0 0 1 11.314-11.314l16 16a8 8 0 0 1 -5.657 13.657z"/><path d="m152 272a8 8 0 0 1 -5.657-13.657l16-16a8 8 0 0 1 11.314 11.314l-16 16a7.976 7.976 0 0 1 -5.657 2.343z"/><path d="m120 304a8 8 0 0 1 -5.657-13.657l16-16a8 8 0 1 1 11.314 11.314l-16 16a7.976 7.976 0 0 1 -5.657 2.343z"/><path d="m168 304a7.976 7.976 0 0 1 -5.657-2.343l-16-16a8 8 0 0 1 11.314-11.314l16 16a8 8 0 0 1 -5.657 13.657z"/><circle cx="144" cy="272" r="16"/></g><path d="m144 296a24 24 0 1 1 24-24 24.027 24.027 0 0 1 -24 24zm0-32a8 8 0 1 0 8 8 8.009 8.009 0 0 0 -8-8z" fill="#8f9e46"/><path d="m296 264a8 8 0 0 1 -8-8v-16a8 8 0 0 1 16 0v16a8 8 0 0 1 -8 8z" fill="#b1bd70"/><path d="m280 280h-16a8 8 0 0 1 0-16h16a8 8 0 0 1 0 16z" fill="#b1bd70"/><path d="m328 280h-16a8 8 0 0 1 0-16h16a8 8 0 0 1 0 16z" fill="#b1bd70"/><path d="m296 312a8 8 0 0 1 -8-8v-16a8 8 0 0 1 16 0v16a8 8 0 0 1 -8 8z" fill="#b1bd70"/><path d="m288 272a7.974 7.974 0 0 1 -5.657-2.343l-16-16a8 8 0 0 1 11.314-11.314l16 16a8 8 0 0 1 -5.657 13.657z" fill="#b1bd70"/><path d="m304 272a8 8 0 0 1 -5.657-13.657l16-16a8 8 0 0 1 11.314 11.314l-16 16a7.974 7.974 0 0 1 -5.657 2.343z" fill="#b1bd70"/><path d="m272 304a8 8 0 0 1 -5.657-13.657l16-16a8 8 0 0 1 11.314 11.314l-16 16a7.974 7.974 0 0 1 -5.657 2.343z" fill="#b1bd70"/><path d="m320 304a7.974 7.974 0 0 1 -5.657-2.343l-16-16a8 8 0 0 1 11.314-11.314l16 16a8 8 0 0 1 -5.657 13.657z" fill="#b1bd70"/><circle cx="296" cy="272" fill="#b1bd70" r="16"/><path d="m296 296a24 24 0 1 1 24-24 24.028 24.028 0 0 1 -24 24zm0-32a8 8 0 1 0 8 8 8.009 8.009 0 0 0 -8-8z" fill="#8f9e46"/><path d="m200 392a8 8 0 0 1 -8-8v-16a8 8 0 0 1 16 0v16a8 8 0 0 1 -8 8z" fill="#b1bd70"/><path d="m184 408h-16a8 8 0 0 1 0-16h16a8 8 0 0 1 0 16z" fill="#b1bd70"/><path d="m232 408h-16a8 8 0 0 1 0-16h16a8 8 0 0 1 0 16z" fill="#b1bd70"/><path d="m200 440a8 8 0 0 1 -8-8v-16a8 8 0 0 1 16 0v16a8 8 0 0 1 -8 8z" fill="#b1bd70"/><path d="m192 400a7.976 7.976 0 0 1 -5.657-2.343l-16-16a8 8 0 0 1 11.314-11.314l16 16a8 8 0 0 1 -5.657 13.657z" fill="#b1bd70"/><path d="m208 400a8 8 0 0 1 -5.657-13.657l16-16a8 8 0 1 1 11.314 11.314l-16 16a7.976 7.976 0 0 1 -5.657 2.343z" fill="#b1bd70"/><path d="m176 432a8 8 0 0 1 -5.657-13.657l16-16a8 8 0 1 1 11.314 11.314l-16 16a7.976 7.976 0 0 1 -5.657 2.343z" fill="#b1bd70"/><path d="m224 432a7.976 7.976 0 0 1 -5.657-2.343l-16-16a8 8 0 0 1 11.314-11.314l16 16a8 8 0 0 1 -5.657 13.657z" fill="#b1bd70"/><circle cx="200" cy="400" fill="#b1bd70" r="16"/><path d="m200 424a24 24 0 1 1 24-24 24.027 24.027 0 0 1 -24 24zm0-32a8 8 0 1 0 8 8 8.009 8.009 0 0 0 -8-8z" fill="#8f9e46"/></svg>