<svg id="Capa_1" enable-background="new 0 0 512 512" height="512" viewBox="0 0 512 512" width="512" xmlns="http://www.w3.org/2000/svg"><g><g><g><path d="m399.132 67.785h-337.824v188.189l35.803 21.402h302.021z" fill="#f2f9ff"/><path d="m414.889 277.376 35.803-21.402v-188.189h-65.412v209.591z" fill="#e2f4ff"/><path d="m399.132 484.296v-228.322h-337.824v228.322c0 15.301 12.404 27.704 27.704 27.704h282.415c15.301 0 27.705-12.403 27.705-27.704z" fill="#ffd064"/><path d="m450.692 484.296v-228.322h-65.412v228.322c0 15.301-12.404 27.704-27.704 27.704h65.412c15.3 0 27.704-12.403 27.704-27.704z" fill="#ffc250"/><path d="m427.993 92.48v-84.11l-3.434-8.37h-376.687c-13.799 0-24.985 11.186-24.985 24.985v67.495c0 13.799 11.186 24.985 24.985 24.985h355.136c13.799 0 24.985-11.186 24.985-24.985z" fill="#df75a5"/><path d="m464.128 0h-39.569v92.48c0 13.799-11.186 24.985-24.985 24.985h64.554c13.799 0 24.985-11.186 24.985-24.985v-67.495c0-13.799-11.186-24.985-24.985-24.985z" fill="#dd5790"/><g><g><path d="m80.194 89.293c-4.267 0-7.726-3.459-7.726-7.726v-45.669c0-4.268 3.459-7.726 7.726-7.726s7.726 3.459 7.726 7.726v45.668c0 4.268-3.459 7.727-7.726 7.727z" fill="#f2f9ff"/></g><g><path d="m138.796 89.293c-4.267 0-7.726-3.459-7.726-7.726v-45.669c0-4.268 3.459-7.726 7.726-7.726s7.726 3.459 7.726 7.726v45.668c0 4.268-3.459 7.727-7.726 7.727z" fill="#f2f9ff"/></g><g><path d="m197.398 89.293c-4.267 0-7.726-3.459-7.726-7.726v-45.669c0-4.268 3.459-7.726 7.726-7.726s7.726 3.459 7.726 7.726v45.668c0 4.268-3.459 7.727-7.726 7.727z" fill="#f2f9ff"/></g><g><path d="m256 89.293c-4.267 0-7.726-3.459-7.726-7.726v-45.669c0-4.268 3.459-7.726 7.726-7.726 4.268 0 7.726 3.459 7.726 7.726v45.668c0 4.268-3.458 7.727-7.726 7.727z" fill="#f2f9ff"/></g><g><path d="m314.603 89.293c-4.268 0-7.726-3.459-7.726-7.726v-45.669c0-4.268 3.459-7.726 7.726-7.726s7.726 3.459 7.726 7.726v45.668c0 4.268-3.459 7.727-7.726 7.727z" fill="#f2f9ff"/></g><g><path d="m373.204 89.293c-4.268 0-7.726-3.459-7.726-7.726v-45.669c0-4.268 3.459-7.726 7.726-7.726s7.726 3.459 7.726 7.726v45.668c.001 4.268-3.458 7.727-7.726 7.727z" fill="#f2f9ff"/></g><g><path d="m431.807 89.293c-4.268 0-7.726-3.459-7.726-7.726v-45.669c0-4.268 3.459-7.726 7.726-7.726s7.726 3.459 7.726 7.726v45.668c0 4.268-3.459 7.727-7.726 7.727z" fill="#f2f9ff"/></g></g><path d="m399.132 199.546h-192.079c-10.681 0-19.34 8.659-19.34 19.34v174.752c0 10.681 8.659 19.34 19.34 19.34h192.079z" fill="#fff0af"/><path d="m385.28 199.546h65.412v213.432h-65.412z" fill="#ffe07d"/></g></g><g><g><path d="m397.641 285.868h-146.276c-4.267 0-7.726-3.459-7.726-7.726s3.459-7.726 7.726-7.726h146.276c4.268 0 7.726 3.459 7.726 7.726s-3.459 7.726-7.726 7.726z" fill="#ac80dd"/></g><g><path d="m397.641 347.16h-146.276c-4.267 0-7.726-3.459-7.726-7.726s3.459-7.726 7.726-7.726h146.276c4.268 0 7.726 3.459 7.726 7.726s-3.459 7.726-7.726 7.726z" fill="#ac80dd"/></g></g></g></svg>