<svg height="511pt" viewBox="0 0 511.99999 511" width="511pt" xmlns="http://www.w3.org/2000/svg"><path d="m459.65625 347.007812c-5.839844 13.140626-25.859375 18.023438-33.835938 29.347657-8.21875 11.671875-6.148437 32.136719-16.265624 41.738281-10.292969 9.773438-30.660157 6.617188-42.519532 14.097656-11.953125 7.539063-17.886718 27.257813-31.027344 32.3125-13.140624 5.054688-30.761718-5.605468-44.683593-3.191406-13.816407 2.398438-26.820313 18.390625-41.007813 18.03125-13.941406-.347656-26.117187-16.925781-40.039062-20.082031-13.511719-3.0625-31.644532 6.734375-44.785156.894531-13.140626-5.839844-18.023438-25.863281-29.347657-33.835938-11.671875-8.222656-32.136719-6.152343-41.738281-16.265624-9.773438-10.292969-6.617188-30.660157-14.097656-42.523438-7.539063-11.949219-27.257813-17.882812-32.3125-31.023438-5.054688-13.140624 5.605468-30.761718 3.191406-44.683593-2.398438-13.816407-18.390625-26.820313-18.03125-41.007813.347656-13.945312 16.925781-26.117187 20.082031-40.042968 3.0625-13.511719-6.734375-31.640626-.894531-44.78125 5.839844-13.140626 25.863281-18.023438 33.835938-29.351563 8.222656-11.671875 6.152343-32.132813 16.265624-41.734375 10.292969-9.773438 30.660157-6.621094 42.523438-14.101562 11.949219-7.535157 17.882812-27.253907 31.023438-32.308594 13.140624-5.054688 30.761718 5.605468 44.683593 3.1875 13.816407-2.394532 26.820313-18.386719 41.007813-18.027344 13.945312.347656 26.117187 16.921875 40.042968 20.078125 13.511719 3.0625 31.640626-6.730469 44.78125-.890625 13.140626 5.839844 18.023438 25.859375 29.351563 33.835938 11.671875 8.21875 32.132813 6.148437 41.734375 16.265624 9.773438 10.292969 6.621094 30.660157 14.101562 42.519532 7.535157 11.953125 27.253907 17.886718 32.308594 31.027344 5.054688 13.140624-5.605468 30.761718-3.1875 44.683593 2.394532 13.816407 18.386719 26.820313 18.027344 41.007813-.347656 13.941406-16.921875 26.117187-20.078125 40.039062-3.0625 13.515625 6.730469 31.644532.890625 44.785156zm0 0" fill="#e3e3e3"/><path d="m458.765625 302.222656c3.15625-13.921875 19.730469-26.097656 20.078125-40.039062.359375-14.1875-15.632812-27.191406-18.027344-41.007813-2.417968-13.921875 8.242188-31.542969 3.1875-44.683593-5.050781-13.140626-24.773437-19.074219-32.308594-31.027344-7.480468-11.859375-4.328124-32.226563-14.101562-42.519532-4.09375-4.316406-10.167969-6.410156-16.6875-8.035156 11.4375 30.308594 17.714844 63.148438 17.714844 97.460938 0 128.542968-87.847656 236.566406-206.785156 267.308594 13.277343 3.972656 25.0625 19.328124 38.480468 19.664062 14.1875.359375 27.191406-15.632812 41.007813-18.03125 13.921875-2.414062 31.542969 8.246094 44.679687 3.191406 13.140625-5.054687 19.074219-24.773437 31.027344-32.3125 11.859375-7.480468 32.230469-4.324218 42.523438-14.097656 10.113281-9.601562 8.042968-30.066406 16.261718-41.738281 7.976563-11.328125 27.996094-16.207031 33.835938-29.347657 5.84375-13.140624-3.949219-31.269531-.886719-44.785156zm0 0" fill="#c4c4c4"/><path d="m330.128906 206.292969c4.632813-21.28125 38.484375-16.722657 45.453125 3.914062 10.386719 30.757813 26.671875 80.722657-1.710937 124.628907-55.597656 86.019531-187.761719 69.789062-127.0625 6.707031 41.917968-43.566407 70.921875-78.296875 83.320312-135.25zm0 0" fill="#5b9ed6"/><path d="m375.582031 210.207031c-2.96875-8.789062-10.8125-14.648437-19.199219-16.847656 10.355469 30.957031 24.417969 78.824219-2.898437 121.089844-32.53125 50.328125-91.273437 65.652343-122.257813 57.070312 1.398438 35.605469 97.386719 33.335938 142.644532-36.683593 28.382812-43.90625 12.097656-93.871094 1.710937-124.628907zm0 0" fill="#4b82b0"/><path d="m246.121094 223.664062c1.070312 26.367188-38.960938 34.976563-63.078125 24.257813-24.117188-10.714844-34.976563-38.957031-24.257813-63.074219 10.714844-24.117187 43.074219-41.480468 63.074219-24.261718 14.414063 12.410156 23.359375 40.984374 24.261719 63.078124zm0 0" fill="#5b9ed6"/><path d="m246.121094 223.664062c-.898438-22.09375-9.847656-50.667968-24.261719-63.078124-3.324219-2.859376-6.992187-4.746094-10.839844-5.828126 6.664063 13.613282 10.644531 30.6875 11.230469 45.03125 1.070312 26.371094-38.960938 34.980469-63.078125 24.261719-.085937-.039062-.171875-.085937-.261719-.125 4.660156 10.320313 12.972656 19.039063 24.136719 23.996094 24.113281 10.71875 64.144531 2.109375 63.074219-24.257813zm0 0" fill="#4b82b0"/><g fill="#5b9ed6"><path d="m346.507812 52.84375c5.238282 2.328125 9.164063 6.910156 12.707032 12.082031l16.082031-36.1875c3.707031-8.335937-.050781-18.097656-8.386719-21.804687-8.335937-3.703125-18.097656.050781-21.800781 8.386718l-16.082031 36.191407c6.210937-.835938 12.242187-.996094 17.480468 1.332031zm0 0"/><path d="m464.003906 176.492188c2.042969 5.304687 1.519532 11.34375.332032 17.570312l37.070312-14.261719c8.515625-3.273437 12.761719-12.832031 9.488281-21.34375-3.273437-8.515625-12.832031-12.761719-21.347656-9.488281l-37.074219 14.257812c5.058594 3.828126 9.492188 7.960938 11.53125 13.265626zm0 0"/><path d="m497.179688 345.609375-36.191407-16.085937c.835938 6.214843.996094 12.246093-1.332031 17.484374-2.328125 5.238282-6.910156 9.160157-12.082031 12.707032l36.1875 16.082031c8.335937 3.703125 18.097656-.050781 21.804687-8.386719 3.703125-8.335937-.050781-18.097656-8.386718-21.800781zm0 0"/><path d="m349.269531 452.972656c-3.824219 5.058594-7.957031 9.488282-13.261719 11.53125-5.308593 2.039063-11.34375 1.519532-17.570312.328125l14.257812 37.074219c3.273438 8.511719 12.832032 12.761719 21.347657 9.484375 8.515625-3.273437 12.761719-12.832031 9.488281-21.34375zm0 0"/><path d="m165.492188 460.15625c-5.238282-2.328125-9.160157-6.910156-12.707032-12.085938l-16.082031 36.191407c-3.703125 8.335937.050781 18.097656 8.386719 21.800781 8.335937 3.707031 18.097656-.050781 21.800781-8.386719l16.085937-36.1875c-6.214843.835938-12.246093.996094-17.484374-1.332031zm0 0"/><path d="m47.996094 336.503906c-2.042969-5.304687-1.519532-11.339844-.332032-17.570312l-37.070312 14.261718c-8.515625 3.273438-12.761719 12.832032-9.488281 21.347657 3.273437 8.511719 12.832031 12.761719 21.347656 9.488281l37.074219-14.261719c-5.058594-3.828125-9.492188-7.957031-11.53125-13.265625zm0 0"/><path d="m52.34375 165.992188c2.328125-5.238282 6.910156-9.164063 12.085938-12.707032l-36.191407-16.082031c-8.335937-3.707031-18.097656.050781-21.800781 8.386719-3.707031 8.335937.050781 18.097656 8.386719 21.800781l36.1875 16.082031c-.835938-6.210937-.996094-12.242187 1.332031-17.480468zm0 0"/><path d="m162.730469 60.023438c3.828125-5.054688 7.957031-9.488282 13.265625-11.527344 5.304687-2.042969 11.339844-1.519532 17.570312-.332032l-14.261718-37.070312c-3.273438-8.515625-12.832032-12.761719-21.347657-9.488281-8.511719 3.273437-12.761719 12.832031-9.484375 21.347656zm0 0"/></g></svg>