<svg id="Capa_1" enable-background="new 0 0 512 512" height="512" viewBox="0 0 512 512" width="512" xmlns="http://www.w3.org/2000/svg"><g><circle cx="256" cy="256" fill="#63c6f8" r="256"/><path d="m512 256c0 141.5-114.51 256-256 256v-512c141.5 0 256 114.51 256 256z" fill="#23a5f6"/><circle cx="256" cy="256" fill="#db375a" r="226"/><path d="m482 256c0 124.62-101.38 226-226 226v-452c124.62 0 226 101.38 226 226z" fill="#b71c4c"/><path d="m129.85 68.57v130l-99.85 57.65v-.22c0-36.53 8.72-71.07 24.17-101.64v-.01c4.53-8.95 9.63-17.55 15.26-25.76 16.17-23.61 36.71-44.01 60.42-60.02z" fill="#f26376"/><path d="m159.852 198.57 96.148 55.511 96.148-55.512v-147.065c-29.192-13.781-61.783-21.504-96.148-21.504s-66.956 7.723-96.148 21.504z" fill="#f26376"/><g fill="#db375a"><path d="m352.15 51.5v147.07l-96.15 55.51v-224.08c34.37 0 66.96 7.72 96.15 21.5z"/><path d="m482 256v.22l-99.85-57.65v-130c19.81 13.38 37.41 29.82 52.09 48.63 6.18 7.92 11.85 16.26 16.95 24.97 5.02 8.58 9.5 17.53 13.38 26.79 3.86 9.23 7.14 18.78 9.76 28.58 5 18.65 7.67 38.25 7.67 58.46z"/><path d="m367.354 224.669-96.354 55.63v110.786l101.418 58.554c56.532-34.116 96.989-92.274 107.105-160.209z"/></g><path d="m241 391.085v-110.786l-96.354-55.63-112.169 64.761c10.117 67.935 50.573 126.093 107.105 160.209z" fill="#f26376"/><path d="m256 417.065-84.242 48.637c26.047 10.502 54.479 16.298 84.242 16.298s58.195-5.796 84.242-16.297z" fill="#f26376"/><path d="m340.24 465.7c-26.05 10.5-54.48 16.3-84.24 16.3v-64.93z" fill="#db375a"/><path d="m278 60c-24.813 0-45 20.187-45 45s20.187 45 45 45 45-20.187 45-45-20.187-45-45-45zm0 60c-8.271 0-15-6.729-15-15s6.729-15 15-15 15 6.729 15 15-6.729 15-15 15z" fill="#db375a"/><path d="m278 60c-7.98 0-15.49 2.09-22 5.76v78.48c6.51 3.67 14.02 5.76 22 5.76 24.81 0 45-20.19 45-45s-20.19-45-45-45zm0 60c-8.27 0-15-6.73-15-15s6.73-15 15-15 15 6.73 15 15-6.73 15-15 15z" fill="#b71c4c"/><path d="m474.33 197.54c-5.4 2.26-11.27 3.46-17.33 3.46-24.81 0-45-20.19-45-45 0-16.51 8.94-30.98 22.24-38.8 6.18 7.92 11.85 16.26 16.95 24.97-5.4 2.28-9.19 7.62-9.19 13.83 0 8.27 6.73 15 15 15 2.71 0 5.31-.72 7.57-2.04 3.86 9.23 7.14 18.78 9.76 28.58z" fill="#b71c4c"/><path d="m145 266c-24.813 0-45 20.187-45 45s20.187 45 45 45 45-20.187 45-45-20.187-45-45-45zm0 60c-8.271 0-15-6.729-15-15s6.729-15 15-15 15 6.729 15 15-6.729 15-15 15z" fill="#db375a"/><circle cx="204" cy="172" fill="#db375a" r="15"/><circle cx="256" cy="202" fill="#db375a" r="15"/><path d="m271 202c0 8.28-6.72 15-15 15v-30c8.28 0 15 6.72 15 15z" fill="#b71c4c"/><path d="m76 141c0 8.28-6.72 15-15 15-2.46 0-4.78-.59-6.83-1.64v-.01c4.53-8.95 9.63-17.55 15.26-25.76 3.97 2.71 6.57 7.26 6.57 12.41z" fill="#db375a"/><circle cx="142" cy="397" fill="#db375a" r="15"/><path d="m391 280c-24.813 0-45 20.187-45 45s20.187 45 45 45 45-20.187 45-45-20.187-45-45-45zm0 60c-8.271 0-15-6.729-15-15s6.729-15 15-15 15 6.729 15 15-6.729 15-15 15z" fill="#b71c4c"/><circle cx="314" cy="364" fill="#b71c4c" r="15"/></g></svg>