<svg enable-background="new 0 0 57.36 58" height="512" viewBox="0 0 57.36 58" width="512" xmlns="http://www.w3.org/2000/svg"><path d="m55.26 13.88h-25.8c-.24 0-.47.04-.68.12-.61.2-1.1.69-1.3 1.3-.08.21-.12.44-.12.68v39.92c0 1.16.94 2.1 2.1 2.1h25.8c1.16 0 2.1-.94 2.1-2.1v-39.92c0-1.16-.94-2.1-2.1-2.1z" fill="#263d66"/><path d="m35.97 34h-4.11v1.22 3.78h5v-5z" fill="#a2c5d3"/><path d="m38.59 22.5v.5c0 .56-.2 1.08-.51 1.5.31.42.51.94.51 1.5v.5c0 1.38-1.12 2.5-2.5 2.5h-2c-.55 0-1-.45-1-1v-7c0-.55.45-1 1-1h2c1.38 0 2.5 1.12 2.5 2.5z" fill="#e5dfdc"/><path d="m47.34 21v8h-2v-5l-1.2 1.6c-.38.5-1.22.5-1.6 0l-.79-1.05-.41-.55v5h-2v-8c0-.43.28-.81.68-.95.41-.13.86.01 1.12.35l.77 1.02 1.43 1.91 2.2-2.93c.26-.34.71-.48 1.12-.35.4.14.68.52.68.95z" fill="#e5dfdc"/><path d="m48.34 20h2v9h-2z" fill="#e5dfdc"/><g fill="#a2c5d3"><path d="m48.78 3.83v10.05h-12.57c0-.1-.01-.19-.03-.29-1.05-5.56-5.93-9.76-11.79-9.76-.62 0-1.23.05-1.83.14-5.02.77-9.02 4.65-9.96 9.62-.17.88.49 1.71 1.4 1.71h13.48c-.08.21-.12.44-.12.68v28.02h-23.54c-2.11 0-3.82-1.71-3.82-3.83v-36.34c0-2.12 1.71-3.83 3.82-3.83h41.13c2.12 0 3.83 1.71 3.83 3.83z"/><path d="m50.92 42h-3.06v4.8.2h5v-5z"/><path d="m51.19 34h-3.33v5h3.24 1.76v-5z"/><path d="m33.22 50c-.47.02-.92.04-1.36.05v-.05z"/><path d="m39.86 50h5v5h-5z"/><path d="m36.86 50v5h-5v-4.95c.44-.01.89-.03 1.36-.05z"/><path d="m47.86 50h5v5h-5z"/></g><path d="m48.34 20h2v9h-2z" fill="#3a0e33"/><path d="m39.86 42h5v5h-5z" fill="#a2c5d3"/><path d="m39.86 34h5v5h-5z" fill="#a2c5d3"/><path d="m47.34 21v8h-2v-5l-1.2 1.6c-.38.5-1.22.5-1.6 0l-.79-1.05-.41-.55v5h-2v-8c0-.43.28-.81.68-.95.41-.13.86.01 1.12.35l.77 1.02 1.43 1.91 2.2-2.93c.26-.34.71-.48 1.12-.35.4.14.68.52.68.95z" fill="#3a0e33"/><path d="m51.72 18h-18.72c-.91 0-1.64.73-1.64 1.64v9.72c0 .91.73 1.64 1.64 1.64h18.72c.91 0 1.64-.73 1.64-1.64v-9.72c0-.91-.73-1.64-1.64-1.64zm-13.13 5c0 .56-.2 1.08-.51 1.5.31.42.51.94.51 1.5v.5c0 1.38-1.12 2.5-2.5 2.5h-2c-.55 0-1-.45-1-1v-7c0-.55.45-1 1-1h2c1.38 0 2.5 1.12 2.5 2.5zm8.75 6h-2v-5l-1.2 1.6c-.38.5-1.22.5-1.6 0l-.79-1.05-.41-.55v5h-2v-8c0-.43.28-.81.68-.95.41-.13.86.01 1.12.35l.77 1.02 1.43 1.91 2.2-2.93c.26-.34.71-.48 1.12-.35.4.14.68.52.68.95zm3 0h-2v-9h2z" fill="#e5dfdc"/><path d="m38.59 22.5c0-1.38-1.12-2.5-2.5-2.5h-2c-.55 0-1 .45-1 1v7c0 .55.45 1 1 1h2c1.38 0 2.5-1.12 2.5-2.5v-.5c0-.56-.2-1.08-.51-1.5.31-.42.51-.94.51-1.5zm-2 4c0 .28-.22.5-.5.5h-1v-1.5h1c.28 0 .5.22.5.5zm0-3.5c0 .28-.22.5-.5.5h-1v-1.5h1c.28 0 .5.22.5.5z" fill="#3a0e33"/><path d="m31.86 42h5v5h-5z" fill="#a2c5d3"/><path d="m36.59 26v.5c0 .28-.22.5-.5.5h-1v-1.5h1c.28 0 .5.22.5.5z" fill="#f4edea"/><path d="m36.59 22.5v.5c0 .28-.22.5-.5.5h-1v-1.5h1c.28 0 .5.22.5.5z" fill="#f4edea"/><path d="m28.78 14c-.61.2-1.1.69-1.3 1.3h-1.77c.24-.23.36-.59.27-.95l-.74-2.97c1.52.36 2.78 1.32 3.54 2.62z" fill="#f7d300"/><path d="m26.01 6.38c.5.23.71.83.48 1.33-.17.36-.53.57-.91.57-.14 0-.29-.03-.43-.09l-.8-.38.89 3.57c-.17-.05-.36-.08-.54-.11-.27-.05-.55-.07-.84-.07-.24 0-.48.01-.71.05l-.66-2.67-.37.62c-.29.47-.9.62-1.38.34-.47-.29-.62-.9-.34-1.37l1.62-2.69c.05-.08.11-.16.19-.22 0-.01 0-.01 0-.01.09-.08.19-.13.29-.17.04-.01.07-.02.1-.03.04-.01.08-.02.12-.03.04 0 .08-.01.13-.01h.17c.1.02.19.04.27.08 0 .01 0 .01.01.01h.01z" fill="#3a0e33"/><path d="m25.71 15.3h-1.4c-.13-.12-.23-.28-.27-.47l-.89-3.58c.23-.04.47-.05.71-.05.29 0 .57.02.84.07.18.03.37.06.54.11l.74 2.97c.09.36-.03.72-.27.95z" fill="#3a0e33"/><path d="m24.31 15.3h-5.95c.63-2.15 2.5-3.77 4.79-4.05l.89 3.58c.04.19.14.35.27.47z" fill="#f7d300"/><path d="m36.21 13.88h-6.75c-.24 0-.47.04-.68.12-.76-1.3-2.02-2.26-3.54-2.62l-.89-3.57.8.38c.14.06.29.09.43.09.38 0 .74-.21.91-.57.23-.5.02-1.1-.48-1.33l-2.7-1.28h-.01c-.01 0-.01 0-.01-.01-.08-.04-.17-.06-.27-.08h-.17c-.05 0-.09.01-.13.01-.04.01-.08.02-.12.03-.03.01-.06.02-.1.03-.1.04-.2.09-.29.17v.01c-.08.06-.14.14-.19.22l-1.62 2.69c-.28.47-.13 1.08.34 1.37.48.28 1.09.13 1.38-.34l.37-.62.66 2.67c-2.29.28-4.16 1.9-4.79 4.05h-4.36c-.91 0-1.57-.83-1.4-1.71.94-4.97 4.94-8.85 9.96-9.62.6-.09 1.21-.14 1.83-.14 5.86 0 10.74 4.2 11.79 9.76.02.1.03.19.03.29z" fill="#f4edea"/><path d="m27.36 36.03v7.97h-23.54c-2.11 0-3.82-1.71-3.82-3.83v-3.38c6.46.3 18.08.55 27.36-.76z" fill="#8bb7c1"/><path d="m51.72 31h-.56c-.07-4.63-.28-9.43-.46-13h1.02c.91 0 1.64.73 1.64 1.64v9.72c0 .91-.73 1.64-1.64 1.64z" fill="#e5dfdc"/><path d="m52.86 42v5h-5v-.2c1.67-1.02 2.8-2.37 2.99-4.12.02-.22.05-.44.07-.68z" fill="#8bb7c1"/><path d="m44.86 50h-5v5h5zm3 5h5v-5h-5zm7.4 3h-25.8c-1.16 0-2.1-.94-2.1-2.1v-5.83c1.13.03 2.7.04 4.5-.02v4.95h5v-5h-3.64c4.93-.23 11.05-.99 14.64-3.2v.2h5v-5h-1.94c.08-.9.14-1.91.18-3h1.76v-5h-1.67c0-.98-.01-1.99-.03-3h.56c.91 0 1.64-.73 1.64-1.64v-9.72c0-.91-.73-1.64-1.64-1.64h-1.02c-.1-1.7-.18-3.13-.24-4.12h4.8c1.16 0 2.1.94 2.1 2.1v39.92c0 1.16-.94 2.1-2.1 2.1z" fill="#183051"/><path d="m51.19 34h1.67v5h-1.76c.07-1.54.09-3.23.09-5z" fill="#8bb7c1"/><path d="m39.86 50h5v5h-5z" fill="#8bb7c1"/><path d="m31.86 55v-4.95c.44-.01.89-.03 1.36-.05h3.64v5z" fill="#8bb7c1"/><path d="m47.86 50h5v5h-5z" fill="#8bb7c1"/><path d="m48.78 3.83v10.05h-6.79c-.05-5.5-.29-10.74-.47-13.88h3.43c2.12 0 3.83 1.71 3.83 3.83z" fill="#8bb7c1"/></svg>