<svg height="512" viewBox="0 0 512 512" width="512" xmlns="http://www.w3.org/2000/svg"><g id="Flat"><path d="m56 200v136h112a16 16 0 0 1 16 16 16 16 0 0 1 -16 16h-128a16 16 0 0 1 -16-16v-152a16 16 0 0 1 16-16 16 16 0 0 1 16 16z" fill="#8fd0d9"/><path d="m456 200v136h-104a16 16 0 0 0 -16 16 16 16 0 0 0 16 16h120a16 16 0 0 0 16-16v-152a16 16 0 0 0 -16-16 16 16 0 0 0 -16 16z" fill="#8fd0d9"/><path d="m56 288h136.289a37.928 37.928 0 0 1 26.82 11.109 37.933 37.933 0 0 1 10.878 31.01l-13.987 125.881h-32v-120h-96a32 32 0 0 1 -32-32z" fill="#fec9a3"/><path d="m234.523 488h-50.523v-32h32l21.791 5.448a13.477 13.477 0 0 1 10.209 13.075 13.477 13.477 0 0 1 -13.477 13.477z" fill="#92563a"/><path d="m56 288h112a0 0 0 0 1 0 0v48a0 0 0 0 1 0 0h-80a32 32 0 0 1 -32-32v-16a0 0 0 0 1 0 0z" fill="#92563a"/><circle cx="105.381" cy="56" fill="#fcac1f" r="24"/><path d="m456 288h-72v-70.059a81.941 81.941 0 0 1 24-57.941h48z" fill="#ffb531"/><path d="m384 56-16 48h16v32h24v24h48v-24-80z" fill="#fec9a3"/><path d="m368 24h56a32 32 0 0 1 32 32v32l-24-32h-48a16 16 0 0 1 -16-16z" fill="#92563a"/><g fill="#cfcfcd"><path d="m72 368h32v80h-32z" transform="matrix(-1 0 0 -1 176 816)"/><path d="m40 456 32-8h32l32 8a16 16 0 1 1 -13.842 24h-68.316a15.995 15.995 0 1 1 -13.842-24z"/><path d="m408 368h32v80h-32z"/><path d="m472 456-32-8h-32l-32 8a16 16 0 1 0 13.842 24h68.316a15.995 15.995 0 1 0 13.842-24z"/></g><path d="m456 288h-137.4a35.241 35.241 0 0 0 -24.918 10.321 35.241 35.241 0 0 0 -9.483 32.563l27.801 125.116h40l-24-120h96a32 32 0 0 0 32-32z" fill="#92563a"/><path d="m296 456h56a0 0 0 0 1 0 0v32a0 0 0 0 1 0 0h-56a16 16 0 0 1 -16-16 16 16 0 0 1 16-16z" fill="#34507b"/><path d="m416 208v48l-96 8-32 16v24h16l24-8h104a24 24 0 0 0 24-24v-64z" fill="#fec9a3"/><path d="m456 208h-40v-28a20 20 0 0 1 20-20 20 20 0 0 1 20 20z" fill="#ffb531"/><path d="m136 392h-80v-104l64-136h48l16.845 33.689a32 32 0 0 1 0 28.622 32 32 0 0 1 -28.622 17.689h-4.223l-16 24z" fill="#e0e0de"/><path d="m80 296h32v16h-32z" fill="#bfbfbd"/><path d="m168 152 9.381-24h28.87v-27.753l9.749-9.747-9.749-19.5v-4.875a34.112 34.112 0 0 0 -33.684-34.125c-19.011-.231-34.561 15.892-34.561 34.891l-8.625 61.109-9.381 24z" fill="#fec9a3"/><path d="m149.717 94.362-7.391-7.391a11.974 11.974 0 0 1 13.937-19.119l2.6 1.335 26.037-34.711a33.967 33.967 0 0 0 -12.772-2.476h-15.513q-.917 0-1.824.037c-25.419 1.021-44.217 24.19-41.064 49.433l.223 1.329c2.964 17.688 7.431 29.2 15.431 45.2z" fill="#ffb531"/><path d="m352 208-32-8v-32l32-8z" fill="#348fd9"/><path d="m240.219 272a72.3 72.3 0 0 1 -72.219-72.219v-39.781h16v39.781a56.219 56.219 0 0 0 110.066 16.155l10.271-34.236a8 8 0 0 1 7.663-5.7h8v16h-2.048l-8.56 28.533a72.217 72.217 0 0 1 -69.173 51.467z" fill="#348fd9"/><path d="m176 168a32.036 32.036 0 0 1 -32-32v-56h16v56a16 16 0 0 0 32 0v-8h16v8a32.036 32.036 0 0 1 -32 32z" fill="#348fd9"/><path d="m158.485 158.485 65.515 65.515 64-56h32v32h-24l-48 56a43.266 43.266 0 0 1 -48 0l-72.671-65.4a22.141 22.141 0 0 1 -7.329-16.46 22.139 22.139 0 0 1 22.14-22.14h.689a22.142 22.142 0 0 1 15.656 6.485z" fill="#fec9a3"/><path d="m158.485 158.485a22.142 22.142 0 0 0 -15.656-6.485h-.689a22.139 22.139 0 0 0 -22.14 22.14 22.141 22.141 0 0 0 7.329 16.456l24.671 22.204 32-28.8z" fill="#e0e0de"/></g></svg>