<svg id="Layer_1" enable-background="new 0 0 374.913 374.913" height="512" viewBox="0 0 374.913 374.913" width="512" xmlns="http://www.w3.org/2000/svg"><path id="XMLID_334_" d="m60.725 374.913c-1.912 0-3.825-.727-5.288-2.182-2.938-2.921-2.951-7.669-.03-10.606l75.232-75.66c2.921-2.938 7.67-2.951 10.606-.03 2.938 2.921 2.951 7.669.03 10.606l-75.232 75.66c-1.466 1.474-3.391 2.212-5.318 2.212z" fill="#6e6075"/><path id="XMLID_671_" d="m23.356 154.47 81.206-154.47 81.206 154.47c32.116 61.091-12.187 134.434-81.206 134.434-69.018 0-113.322-73.343-81.206-134.434z" fill="#d64c52"/><path id="XMLID_405_" d="m48.442 154.39c-.313 0-.632-.073-.929-.229-.978-.515-1.354-1.724-.84-2.701l9.159-17.423c.515-.977 1.724-1.354 2.701-.84.978.515 1.354 1.724.84 2.701l-9.159 17.423c-.358.68-1.053 1.069-1.772 1.069z" fill="#fff"/><path id="XMLID_351_" d="m44.215 235.616c-.678 0-1.338-.344-1.714-.966-13.245-21.926-14.036-48.553-2.116-71.228.516-.977 1.723-1.354 2.701-.84.978.515 1.354 1.724.84 2.701-11.263 21.424-10.516 46.582 1.999 67.298.571.945.268 2.175-.678 2.746-.323.196-.679.289-1.032.289z" fill="#fff"/><circle id="XMLID_736_" cx="228.019" cy="199.753" fill="#e5dcdf" r="127.255"/><circle id="XMLID_620_" cx="228.019" cy="199.753" fill="#fcf5f0" r="103.984"/><path id="XMLID_347_" d="m227.98 333.925c-62.438.003-118.502-43.918-131.424-107.422-7.146-35.114-.188-70.91 19.589-100.793s50.008-50.274 85.123-57.42c35.109-7.145 70.909-.19 100.794 19.588 29.883 19.777 50.274 50.009 57.42 85.124 7.146 35.114.189 70.91-19.589 100.793-19.777 29.883-50.008 50.275-85.123 57.421-8.985 1.828-17.955 2.709-26.79 2.709zm.287-254.562c-8.057 0-16.171.812-24.247 2.455-31.501 6.41-58.621 24.704-76.363 51.512s-23.983 58.92-17.573 90.422c11.592 56.964 61.893 96.365 117.9 96.367 7.93.001 15.969-.789 24.034-2.43 65.029-13.233 107.17-76.905 93.937-141.935-6.41-31.502-24.704-58.622-51.512-76.364-19.936-13.193-42.806-20.027-66.176-20.027z" fill="#6e6075"/><path id="XMLID_10_" d="m185.153 202.953c-4.466-21.949-25.881-36.122-47.83-31.656-3.667.746-7.112 1.975-10.294 3.591-6.348 25.788-2.5 53.021 10.379 75.922 5.159 1.04 10.607 1.088 16.089-.028 21.95-4.465 36.122-25.879 31.656-47.829z" fill="#d64c52"/><path id="XMLID_11_" d="m149.87 240.039c-3.277 0-6.212-2.302-6.892-5.639-.774-3.811 1.686-7.527 5.496-8.303 4.013-.815 7.473-3.153 9.741-6.582 2.27-3.429 3.069-7.526 2.253-11.539-.697-3.422-2.477-6.419-5.147-8.668-2.974-2.504-3.354-6.945-.85-9.92 2.503-2.974 6.943-3.355 9.92-.85 5.05 4.253 8.558 10.158 9.874 16.629 1.567 7.699.037 15.554-4.308 22.119-4.346 6.564-10.979 11.043-18.677 12.609-.472.098-.944.144-1.41.144z" fill="#c12732"/><path id="XMLID_184_" d="m295.098 234.986c2.221 10.915 8.635 19.903 17.219 25.636.822-1.141 1.631-2.296 2.414-3.48 14.34-21.667 19.503-46.736 16.425-70.63-1.462.135-2.931.344-4.403.644-21.948 4.467-36.121 25.881-31.655 47.83z" fill="#d64c52"/><path id="XMLID_142_" d="m201.905 104.527c-.353-1.737-.824-3.419-1.382-5.053-23.442 6.417-44.75 21.03-59.217 42.89-.78 1.179-1.525 2.37-2.25 3.568 8.771 6.082 19.909 8.722 31.194 6.426 21.949-4.468 36.122-25.882 31.655-47.831z" fill="#d64c52"/><path id="XMLID_12_" d="m186.71 128.861c4.345-6.565 5.875-14.42 4.309-22.118-.261-1.282-.631-2.533-1.059-3.762-4.405 1.728-8.703 3.757-12.858 6.085.039.162.086.32.12.485.816 4.013.017 8.11-2.253 11.539-2.269 3.429-5.729 5.767-9.741 6.582-3.811.775-6.271 4.492-5.496 8.303.68 3.337 3.614 5.639 6.892 5.639.466 0 .938-.047 1.411-.143 7.697-1.567 14.33-6.046 18.675-12.61z" fill="#c12732"/><circle id="XMLID_48_" cx="248.059" cy="169.463" fill="#d64c52" r="40.557"/><path id="XMLID_13_" d="m252.52 198.462c-3.277 0-6.212-2.302-6.892-5.639-.774-3.81 1.686-7.527 5.496-8.303 4.012-.815 7.472-3.153 9.74-6.582 2.27-3.429 3.069-7.526 2.253-11.539-.696-3.421-2.476-6.418-5.146-8.668-2.975-2.505-3.355-6.946-.85-9.92 2.504-2.974 6.946-3.354 9.92-.85 5.052 4.255 8.558 10.161 9.874 16.63 1.566 7.698.036 15.553-4.309 22.118-4.345 6.564-10.978 11.043-18.676 12.609-.473.097-.944.144-1.41.144z" fill="#c12732"/><path id="XMLID_751_" d="m278.048 290.926c3.359-7.476 4.501-16.032 2.742-24.677-4.466-21.949-25.881-36.122-47.83-31.656s-36.122 25.881-31.656 47.83c1.598 7.856 5.376 14.706 10.564 20.072 22.735 3.56 46.074-.559 66.18-11.569z" fill="#d64c52"/><path id="XMLID_14_" d="m269.904 268.465c-1.316-6.469-4.823-12.375-9.874-16.629-2.974-2.506-7.416-2.124-9.92.85-2.505 2.974-2.125 7.415.85 9.92 2.671 2.25 4.451 5.247 5.146 8.667 1.689 8.304-3.691 16.433-11.994 18.123-3.81.775-6.27 4.492-5.494 8.303.47 2.309 2.031 4.101 4.029 4.998 4.286-.611 8.531-1.485 12.708-2.622 10.913-6.076 17.169-18.732 14.549-31.61z" fill="#c12732"/><g fill="#fff"><path id="XMLID_340_" d="m245.576 288.04c-.932 0-1.765-.653-1.958-1.602-.22-1.082.479-2.138 1.562-2.358 7.805-1.588 15.319-4.232 22.334-7.859.983-.511 2.188-.123 2.695.857.508.981.123 2.188-.857 2.695-7.344 3.797-15.208 6.564-23.375 8.227-.135.028-.27.04-.401.04z"/><path id="XMLID_335_" d="m283.835 269.843c-.577 0-1.15-.249-1.546-.729-.701-.854-.579-2.113.274-2.815 24.737-20.346 36.148-52.42 29.782-83.705-.22-1.082.479-2.138 1.562-2.358 1.075-.222 2.138.479 2.358 1.562 6.662 32.739-5.278 66.303-31.161 87.592-.371.304-.821.453-1.269.453z"/></g></svg>