<svg id="Capa_1" enable-background="new 0 0 512 512" height="512" viewBox="0 0 512 512" width="512" xmlns="http://www.w3.org/2000/svg"><g><circle cx="256" cy="256" fill="#f9f9f9" r="241" stroke="#f9f9f9" stroke-miterlimit="10"/><g><path d="m256 15v482c133.101 0 241-107.899 241-241s-107.899-241-241-241z" fill="#d8f1fb"/></g><path d="m256 512c-68.38 0-132.667-26.629-181.02-74.98-48.351-48.353-74.98-112.64-74.98-181.02s26.629-132.667 74.98-181.02c48.353-48.351 112.64-74.98 181.02-74.98s132.667 26.629 181.02 74.98c48.351 48.353 74.98 112.64 74.98 181.02s-26.629 132.667-74.98 181.02c-48.353 48.351-112.64 74.98-181.02 74.98zm0-482c-124.617 0-226 101.383-226 226s101.383 226 226 226 226-101.383 226-226-101.383-226-226-226z" fill="#acceff"/><g><path d="m437.02 74.98c-48.353-48.351-112.64-74.98-181.02-74.98v30c124.617 0 226 101.383 226 226s-101.383 226-226 226v30c68.38 0 132.667-26.629 181.02-74.98 48.351-48.353 74.98-112.64 74.98-181.02s-26.629-132.667-74.98-181.02z" fill="#989dec"/></g><path d="m225.872 451.004c-22.024 0-42.097-8.047-57.047-22.997-16.325-16.325-24.419-38.76-22.792-63.172 1.577-23.66 12.183-46.427 29.863-64.106 17.68-17.68 40.446-28.286 64.105-29.863 24.405-1.628 46.847 6.466 63.173 22.792 16.325 16.325 24.419 38.76 22.792 63.172-1.577 23.66-12.183 46.427-29.863 64.106-17.68 17.68-40.446 28.286-64.105 29.863-2.057.138-4.1.205-6.126.205z" fill="#ff7d47"/><g><path d="m303.175 293.658c-12.683-12.683-29.057-20.395-47.175-22.443v174.78c14.762-4.962 28.527-13.481 40.104-25.058 17.681-17.68 28.286-40.447 29.863-64.106 1.627-24.414-6.467-46.849-22.792-63.173z" fill="#ff405c"/></g><g><path d="m232.024 400.159c-6.87 0-13.065-4.75-14.626-11.733-1.806-8.085 3.285-16.104 11.37-17.909 3.835-.857 7.659-3.041 10.768-6.148 3.107-3.107 5.291-6.932 6.148-10.768 1.807-8.085 9.82-13.174 17.91-11.368 8.085 1.807 13.174 9.826 11.367 17.91-2.113 9.457-7.027 18.253-14.212 25.438-7.188 7.187-15.985 12.102-25.442 14.214-1.1.246-2.2.364-3.283.364z" fill="#ff405c"/></g><path d="m286.128 241.339c-2.027 0-4.068-.068-6.126-.205-23.659-1.577-46.426-12.183-64.105-29.863-17.681-17.68-28.286-40.447-29.863-64.106-1.627-24.413 6.467-46.848 22.792-63.173s38.764-24.421 63.173-22.792c23.659 1.577 46.426 12.183 64.105 29.863 17.681 17.68 28.286 40.447 29.863 64.106 1.627 24.413-6.467 46.848-22.792 63.173-14.949 14.95-35.025 22.997-57.047 22.997z" fill="#ff7d47"/><g><path d="m365.967 155.17c-1.577-23.66-12.183-46.427-29.863-64.106-17.68-17.68-40.446-28.286-64.105-29.863-5.447-.364-10.794-.24-15.998.349v174.78c7.781 2.616 15.835 4.26 24.002 4.805 2.058.137 4.099.205 6.126.205 22.022 0 42.098-8.048 57.047-22.997 16.324-16.325 24.418-38.76 22.791-63.173z" fill="#ff405c"/></g><path d="m406 331c-24.813 0-45-20.187-45-45s20.187-45 45-45 45 20.187 45 45-20.187 45-45 45z" fill="#ffc178"/><path d="m116 241c-24.813 0-45-20.187-45-45s20.187-45 45-45 45 20.187 45 45-20.187 45-45 45z" fill="#fff17d"/><circle cx="411" cy="181" fill="#ffc178" r="15"/><circle cx="391" cy="381" fill="#ff405c" r="15"/><circle cx="111" cy="301" fill="#ff7d47" r="15"/><g><g><path d="m279.976 190.494c-1.083 0-2.182-.118-3.283-.364-9.458-2.112-18.256-7.027-25.441-14.213s-12.101-15.982-14.213-25.439c-1.807-8.085 3.283-16.104 11.368-17.91 8.082-1.807 16.103 3.283 17.909 11.368.857 3.836 3.041 7.66 6.149 10.769 3.107 3.107 6.931 5.291 10.767 6.147 8.085 1.806 13.176 9.824 11.37 17.909-1.561 6.983-7.756 11.733-14.626 11.733z" fill="#ff405c"/></g></g><g><g><path d="m263.595 342.232c-2.609-.583-5.207-.439-7.595.282v47.293c1.647-1.307 3.236-2.713 4.75-4.227 7.185-7.185 12.099-15.981 14.212-25.438 1.807-8.084-3.282-16.103-11.367-17.91z" fill="#af3345"/></g><g><path d="m283.231 160.851c-3.836-.857-7.659-3.041-10.767-6.147-3.108-3.108-5.292-6.933-6.149-10.769-1.224-5.476-5.302-9.57-10.315-11.085v47.292c6.175 4.899 13.226 8.32 20.692 9.987 1.102.246 2.2.364 3.283.364 6.87 0 13.065-4.75 14.626-11.733 1.806-8.085-3.285-16.103-11.37-17.909z" fill="#af3345"/></g></g></g></svg>