<svg id="Layer_1" enable-background="new 0 0 378.537 378.537" height="512" viewBox="0 0 378.537 378.537" width="512" xmlns="http://www.w3.org/2000/svg" xmlns:xlink="http://www.w3.org/1999/xlink"><linearGradient id="XMLID_2_" gradientUnits="userSpaceOnUse" x1="49.746" x2="326.663" y1="175.091" y2="175.091"><stop offset=".0013" stop-color="#e5dcdf"/><stop offset=".2462" stop-color="#e1d8dc"/><stop offset=".513" stop-color="#d3cbd5"/><stop offset=".789" stop-color="#beb5c8"/><stop offset="1" stop-color="#a8a0bb"/></linearGradient><path id="XMLID_421_" d="m26.771 366.45c-1.922 0-3.844-.733-5.311-2.199-2.933-2.933-2.933-7.688 0-10.621l75.381-75.382c2.934-2.932 7.688-2.932 10.621 0 2.933 2.933 2.933 7.688 0 10.621l-75.381 75.382c-1.466 1.465-3.388 2.199-5.31 2.199z" fill="#6e6075"/><path id="XMLID_771_" d="m309.824 378.537c-19.989 0-36.194-16.204-36.194-36.194v-310.035l72.387 5v310.035c.001 14.989-16.204 31.194-36.193 31.194z" fill="#d64c52"/><path id="XMLID_801_" d="m273.63 32.308h72.387v92.008h-72.387z" fill="#e5dcdf"/><path id="XMLID_815_" d="m260.372.478h98.904v72.833h-98.904z" fill="#6e6075"/><g fill="#fcf5f0"><path id="XMLID_484_" d="m272.268 0h2v73h-2z"/><path id="XMLID_451_" d="m287.268 0h2v73h-2z"/><path id="XMLID_450_" d="m302.268 0h2v73h-2z"/><path id="XMLID_449_" d="m317.268 0h2v73h-2z"/><path id="XMLID_448_" d="m332.268 0h2v73h-2z"/><path id="XMLID_440_" d="m347.268 0h2v73h-2z"/></g><circle id="XMLID_652_" cx="188.205" cy="175.091" fill="url(#XMLID_2_)" r="138.458"/><path id="XMLID_437_" d="m188.204 321.058c-80.487 0-145.968-65.48-145.968-145.968s65.481-145.967 145.968-145.967c80.488 0 145.968 65.48 145.968 145.968s-65.48 145.967-145.968 145.967zm0-276.916c-72.205 0-130.948 58.743-130.948 130.948s58.743 130.948 130.948 130.948c72.206 0 130.949-58.743 130.949-130.948s-58.743-130.948-130.949-130.948z" fill="#6e6075"/><circle id="XMLID_8_" cx="188.006" cy="175.091" fill="#fcf5f0" r="119.345"/><path id="XMLID_479_" d="m295.028 206.285 1.739-34.041-22.841 25.3-22.841-25.3 1.739 34.041-34.041-1.739 25.3 22.841-25.3 22.841 34.041-1.739-1.468 28.737c4.455-2.769 8.718-5.818 12.759-9.129l9.812-10.868.881.975c13.866-14.477 24.142-32.417 29.41-52.391z" fill="#6f82ad"/><path id="XMLID_9_" d="m188.006 97.05 22.842-25.301-1.739 34.042 34.041-1.739-25.3 22.841 25.3 22.842-34.041-1.739 1.739 34.041-22.842-25.3-22.841 25.3 1.739-34.041-34.041 1.739 25.3-22.842-25.3-22.841 34.041 1.739-1.739-34.042z" fill="#6f82ad"/><path id="XMLID_454_" d="m111.683 206.285 1.739-34.041-22.841 25.3-22.719-25.165c-.013.601-.018 1.203-.023 1.806l.726 14.218c3.573 32.416 20.036 60.945 44.154 80.355l-1.035-20.269 34.041 1.739-25.3-22.841 25.3-22.841z" fill="#6f82ad"/><path id="XMLID_65_" d="m306.659 155.928c-4.245-26.492-17.142-50.093-35.71-67.807-1.729 1.233-3.384 2.616-4.936 4.167-15.099 15.099-15.099 39.579 0 54.678 10.991 10.991 26.95 13.972 40.646 8.962z" fill="#d64c52"/><path id="XMLID_67_" d="m160.916 256.455c-8.907 8.907-12.555 21.079-10.953 32.663 11.956 3.987 24.747 6.152 38.043 6.152 13.488 0 26.457-2.222 38.561-6.32 1.544-11.534-2.109-23.631-10.973-32.495-15.099-15.099-39.579-15.099-54.678 0z" fill="#d64c52"/><path id="XMLID_455_" d="m191.506 255.92c-3.691-.421-7.013 2.214-7.438 5.896-.426 3.683 2.213 7.013 5.896 7.438 3.306.383 6.297 1.829 8.65 4.183 5.712 5.711 5.712 15.005 0 20.717-.221.221-.416.457-.6.699 5.795-.478 11.475-1.361 17.008-2.632 3.023-9.658.722-20.638-6.916-28.276-4.453-4.452-10.347-7.302-16.6-8.025z" fill="#c12732"/><path id="XMLID_419_" d="m69.384 155.752c13.799 5.252 29.997 2.331 41.113-8.785 15.099-15.099 15.099-39.579 0-54.678-1.636-1.636-3.388-3.084-5.221-4.366-18.639 17.696-31.602 41.309-35.892 67.829z" fill="#d64c52"/><path id="XMLID_425_" d="m103.008 99.777c-1.571-1.571-3.33-2.93-5.214-4.08-2.99 3.395-5.792 6.96-8.388 10.68 1.51.71 2.897 1.677 4.111 2.891 5.711 5.712 5.711 15.007 0 20.719-2.621 2.621-2.621 6.87 0 9.491 1.311 1.311 3.028 1.965 4.746 1.965s3.436-.655 4.746-1.966c10.943-10.945 10.943-28.754-.001-39.7z" fill="#c12732"/></svg>