<svg id="Capa_1" enable-background="new 0 0 512 512" height="512" viewBox="0 0 512 512" width="512" xmlns="http://www.w3.org/2000/svg"><g><path d="m256.253.002c-6.051-.103-190.253 184.848-190.253 321.998 0 115.963 73.966 190 190 190 115.963 0 190-73.966 190-190 0-137.079-183.682-321.896-189.747-321.998z" fill="#f26376"/><path d="m446 322c0 116.03-74.04 190-190 190v-512c6.294 0 190 184.92 190 322z" fill="#db375a"/><path d="m195.919 262.045 8.153-4.994 24.995 11.397 1.692 7.874c1.743 8.114 9.736 13.253 17.816 11.514 8.1-1.74 13.254-9.717 11.514-17.816l-1.597-7.431 19.261-21.012c8.302 1.041 8.243 1.071 9.48 1.071 7.452 0 13.913-5.549 14.865-13.134 1.03-8.22-4.797-15.719-13.017-16.75l-8.044-1.009-13.522-23.912 3.128-6.272c3.697-7.413.686-16.42-6.728-20.118-7.415-3.697-16.421-.686-20.118 6.728l-3.207 6.428-28.473 5.787-7.575-6.943c-6.106-5.598-15.596-5.185-21.193.922s-5.185 15.595.922 21.193l7.574 6.942-3.295 28.869-8.302 5.085c-7.064 4.327-9.283 13.562-4.956 20.626 4.331 7.068 13.568 9.28 20.627 4.955z" fill="#e4edef"/><g fill="#bfdfe7"><path d="m302.1 229.51c-.95 7.59-7.41 13.14-14.87 13.14-1.23 0-1.17-.03-9.48-1.07l-19.26 21.01 1.6 7.43c1.11 5.18-.6 10.31-4.09 13.79v-123.88c11.458-.998 19.908 11.089 14.64 21.64l-3.12 6.27 13.52 23.91 8.04 1.01c8.22 1.03 14.05 8.53 13.02 16.75z"/><path d="m221.283 209.145 21.361-4.341 10.729 18.972-14.729 16.068-19.832-9.043z"/><path d="m392.208 343.323-8.634-5.573-1.603-29.011 7.33-6.409c6.237-5.453 6.872-14.929 1.419-21.166-5.452-6.238-14.93-6.872-21.165-1.419l-7.198 6.293-26.554-7.034-2.991-7.477c-3.077-7.692-11.805-11.433-19.498-8.357-7.692 3.077-11.434 11.806-8.357 19.498l2.823 7.058-15.456 23.949-7.646.337c-8.276.365-14.69 7.37-14.325 15.646.366 8.323 7.431 14.7 15.646 14.325l8.098-.357 17.348 21.3-2.03 6.709c-2.915 9.632 4.312 19.348 14.363 19.348 6.438 0 12.391-4.179 14.352-10.659l2.081-6.875 27.095-10.489 8.633 5.572c6.959 4.491 16.243 2.494 20.737-4.469 4.493-6.963 2.492-16.248-4.468-20.74z"/></g><path d="m333.114 344.024-13.764-16.9 11.819-18.313 21.069 5.581 1.202 21.763z" fill="#93cbd8"/><path d="m257.117 365.423-7.158-.594-15.933-24.298 3.639-9.608c2.935-7.747-.967-16.406-8.714-19.341-7.751-2.936-16.407.967-19.341 8.714l-3.64 9.609-28.033 7.645-7.802-5.825c-6.639-4.957-16.037-3.592-20.993 3.046s-3.593 16.037 3.046 20.993l7.662 5.72-1.316 27.438-6.685 4.491c-6.877 4.62-8.707 13.939-4.087 20.816 4.623 6.881 13.945 8.704 20.815 4.086l6.31-4.239 26.656 10.097 1.931 7.406c2.095 8.034 10.303 12.817 18.3 10.73 8.016-2.09 12.819-10.283 10.729-18.299l-2.045-7.844 17.193-21.425 6.985.58c8.239.687 15.503-5.439 16.188-13.708.687-8.257-5.451-15.505-13.707-16.19z" fill="#e4edef"/><path d="m270.83 381.61c-.65 7.81-7.16 13.71-14.83 13.76v-30.04l1.12.09c8.25.69 14.39 7.94 13.71 16.19z" fill="#bfdfe7"/><path d="m189.695 365.439 21.029-5.734 11.952 18.226-13.642 17-20.384-7.721z" fill="#bfdfe7"/></g></svg>