<svg height="512" viewBox="0 0 64 64" width="512" xmlns="http://www.w3.org/2000/svg"><g id="_15-Blood_cell" data-name="15-Blood cell"><rect fill="#8d2830" height="12" rx="6" width="40" x="6" y="11"/><circle cx="22" cy="13" fill="#f24754" r="2"/><path d="m60 8c-6 0-6-7-6-7h-5a10.82 10.82 0 0 0 3 7h-32l2-7h-6l-2 7h-13v18h28s-7 4-18 4a.994.994 0 0 0 -1 .99v1.99a1.016 1.016 0 0 0 1.01 1.02 15.193 15.193 0 0 0 5.99-1s-7 8-7 12v1a1 1 0 0 0 1 1h1.34a.987.987 0 0 0 .91-.59c.98-2.18 4.77-10.85 10.75-13.41l16-7h23v-18zm-15.76 13.24a5.944 5.944 0 0 1 -4.24 1.76h-28a6 6 0 0 1 -6-6 6.009 6.009 0 0 1 6-6h28a6 6 0 0 1 6 6 5.944 5.944 0 0 1 -1.76 4.24z" fill="#f24754"/><ellipse cx="31.002" cy="49.001" fill="#ad313b" rx="7.948" ry="2.984" transform="matrix(.707 -.707 .707 .707 -25.569 36.277)"/><ellipse cx="51.001" cy="42" fill="#c2313c" rx="8" ry="3"/><path d="m51 44c-3.965 0-7.246-1.079-7.88-2.5a1.227 1.227 0 0 0 -.12.5c0 1.66 3.58 3 8 3s8-1.34 8-3a1.242 1.242 0 0 0 -.119-.5c-.635 1.421-3.915 2.5-7.881 2.5z" fill="#ad313b"/><path d="m40.521 58.521c-4.81 4.8-11.709 5.7-14.519 2.9l-2.9-2.9.06-.11c3.06 1.88 8.6.15 13-4.25a19.572 19.572 0 0 0 3.44-4.57 8.694 8.694 0 0 0 4.28 3.99 16.062 16.062 0 0 1 -3.361 4.94z" fill="#ad313b"/><path d="m39 47a6.015 6.015 0 0 0 .6 2.59 19.572 19.572 0 0 1 -3.44 4.57c-4.4 4.4-9.939 6.13-13 4.25a4.321 4.321 0 0 1 -.79-.62c-2.8-2.81-1.18-8.98 3.63-13.791 4.63-4.63 10.519-6.3 13.459-3.92a4.307 4.307 0 0 0 -.459 1.921 3.965 3.965 0 0 0 .12.97l-.12.03zm-5.889 4.11c3.1-3.11 4.669-6.56 3.509-7.731s-4.619.41-7.729 3.511-4.67 6.56-3.51 7.73 4.619-.409 7.731-3.509z" fill="#c2313c"/><path d="m39.461 40.08c1.43-2.94 6.05-5.08 11.539-5.08 6.629 0 12 3.13 12 7s-5.37 7-12 7c-6.07 0-11.08-2.62-11.88-6.031a3.965 3.965 0 0 1 -.12-.969 4.307 4.307 0 0 1 .461-1.92zm19.539 1.92c0-1.66-3.58-3-8-3s-8 1.34-8 3 3.58 3 8 3 8-1.34 8-3z" fill="#f24754"/><path d="m63 47c0 3.87-4 8-12 8a16.52 16.52 0 0 1 -7.12-1.42 8.694 8.694 0 0 1 -4.28-3.99 6.015 6.015 0 0 1 -.6-2.59v-4l.12-.03c.801 3.411 5.811 6.03 11.88 6.03 6.629 0 12-3.13 12-7z" fill="#c2313c"/><path d="m12 15h28a6 6 0 0 1 5.651 4 5.986 5.986 0 0 0 -5.651-8h-28a5.986 5.986 0 0 0 -5.651 8 6 6 0 0 1 5.651-4z" fill="#7a2329"/><g fill="#f24754"><circle cx="11" cy="18" r="2"/><circle cx="16" cy="15" r="2"/><path d="m24 17a2 2 0 1 1 -.95.24 2.028 2.028 0 0 1 .95-.24z"/><circle cx="31" cy="16" r="2"/><circle cx="38" cy="19" r="2"/><circle cx="42" cy="16" r="2"/></g><path d="m51 39c3.965 0 7.245 1.08 7.88 2.5a1.238 1.238 0 0 0 .12-.5c0-1.66-3.58-3-8-3s-8 1.34-8 3a1.223 1.223 0 0 0 .12.5c.635-1.42 3.916-2.5 7.88-2.5z" fill="#f66"/><path d="m55 48.6a19.845 19.845 0 0 1 -4 .4 19.466 19.466 0 0 1 -4.83-.6 3.47 3.47 0 0 0 -2.17 3.1 3.336 3.336 0 0 0 1.5 2.708 18 18 0 0 0 5.479.792h.053a19.428 19.428 0 0 0 3.968-.392c5.331-1.117 8-4.448 8-7.607v-5.001c0 3.051-3.341 5.634-8 6.6z" fill="#db3744"/><path d="m39.6 49.591a18.885 18.885 0 0 1 -1.691 2.577c.06.1.122.2.188.3a4.3 4.3 0 0 1 -.742 5.64c-1.906 1.659-5.166 3.308-10.719 3.836 3.112 2.136 9.4 1.053 13.884-3.419a16.3 16.3 0 0 0 2.115-2.638 15.626 15.626 0 0 0 1.245-2.3 8.694 8.694 0 0 1 -4.28-3.996z" fill="#8d2830"/><path d="m37.46 42.08a4.307 4.307 0 0 0 -.46 1.92 3.965 3.965 0 0 0 .12.97l-.12.03v4a6.015 6.015 0 0 0 .6 2.59c.092.194.2.387.309.577a18.885 18.885 0 0 0 1.691-2.576 6.015 6.015 0 0 1 -.6-2.591v-4l.12-.03a3.965 3.965 0 0 1 -.12-.97 4.307 4.307 0 0 1 .46-1.92c-.069-.055-.147-.1-.219-.149a6.521 6.521 0 0 0 -1.781 2.149z" fill="#ad313b"/><path d="m29.892 47.891c2.649-2.641 5.539-4.165 7.062-3.843a1.312 1.312 0 0 0 -.333-.668c-1.17-1.16-4.619.41-7.729 3.511s-4.67 6.56-3.51 7.73a1.3 1.3 0 0 0 .667.333c-.321-1.524 1.202-4.414 3.843-7.063z" fill="#db3744"/><path d="m37.621 44.38a1.3 1.3 0 0 0 -.667-.332c.321 1.523-1.2 4.414-3.842 7.063s-5.54 4.164-7.063 3.843a1.3 1.3 0 0 0 .333.667c1.17 1.16 4.62-.41 7.73-3.51s4.669-6.561 3.509-7.731z" fill="#8d2830"/><path d="m60.857 42a1 1 0 0 1 -.961-.725c-.496-1.745-2.787-3.275-4.896-3.275a1 1 0 0 1 0-2c3.014 0 6.073 2.119 6.819 4.725a1 1 0 0 1 -.686 1.236 1.016 1.016 0 0 1 -.276.039z" fill="#ff8f8f"/><path d="m41 41a1 1 0 0 1 .961.725c.5 1.745 2.787 3.275 4.9 3.275a1 1 0 1 1 0 2c-3.014 0-6.074-2.119-6.819-4.725a1 1 0 0 1 .686-1.236 1.011 1.011 0 0 1 .272-.039z" fill="#ff8f8f"/><path d="m26 58.093h-.075a4.318 4.318 0 0 1 -3.493-1.793 5.77 5.77 0 0 1 -.381-4.617 1 1 0 0 1 1.9.629 3.839 3.839 0 0 0 .149 2.888 2.425 2.425 0 0 0 1.974.9 1 1 0 0 1 -.073 2z" fill="#db3744"/><path d="m54 1h-5a10.82 10.82 0 0 0 3 7h8c-6 0-6-7-6-7z" fill="#c2313c"/><path d="m17.414 6.549 1.586-5.549h-3l-2 7h1.491a2 2 0 0 0 1.923-1.451z" fill="#c2313c"/><path d="m29 26s-7 4-18 4a.994.994 0 0 0 -1 .99v1.99a1.016 1.016 0 0 0 1.01 1.02 19.238 19.238 0 0 0 4.685-.526l1.305-.474s-7 8-7 12v1a1 1 0 0 0 1 1h1s-1-1 0-3c.9-1.8 6.662-10.083 7.8-11.716a29.021 29.021 0 0 0 8.44-3.642 3.132 3.132 0 0 1 1.86-.642h5.334l4.566-2z" fill="#c2313c"/><path d="m40 23h-28a6 6 0 0 1 -6-6 5.941 5.941 0 0 1 .917-3.177 16.858 16.858 0 0 1 -1.789-5.823h-4.128v18h62v-3z" fill="#c2313c"/><path d="m40 10h-28a7 7 0 0 0 0 14h28a7 7 0 0 0 0-14zm0 13h-28a6 6 0 0 1 0-12h28a6 6 0 0 1 0 12z" fill="#f66"/><rect fill="#ff8f8f" height="3" rx="1.5" width="14" x="48" y="8"/><rect fill="#ff8f8f" height="3" rx="1.5" width="4" x="43" y="8"/><circle cx="31" cy="16" fill="#c2313c" r="1"/><circle cx="24" cy="19" fill="#c2313c" r="1"/><circle cx="16" cy="15" fill="#c2313c" r="1"/><circle cx="11" cy="18" fill="#c2313c" r="1"/><circle cx="38" cy="19" fill="#c2313c" r="1"/><circle cx="42" cy="16" fill="#c2313c" r="1"/><path d="m31 18a2 2 0 0 1 -1.929-1.5 1.966 1.966 0 0 0 -.071.5 2 2 0 0 0 4 0 1.966 1.966 0 0 0 -.071-.5 2 2 0 0 1 -1.929 1.5z" fill="#7a2329"/><path d="m38 21a2 2 0 0 1 -1.929-1.5 1.966 1.966 0 0 0 -.071.5 2 2 0 0 0 4 0 1.966 1.966 0 0 0 -.071-.5 2 2 0 0 1 -1.929 1.5z" fill="#7a2329"/><path d="m42 18a2 2 0 0 1 -1.929-1.5 1.966 1.966 0 0 0 -.071.5 2 2 0 0 0 4 0 1.966 1.966 0 0 0 -.071-.5 2 2 0 0 1 -1.929 1.5z" fill="#7a2329"/><path d="m24 21a2 2 0 0 1 -1.929-1.5 1.966 1.966 0 0 0 -.071.5 2 2 0 0 0 4 0 1.966 1.966 0 0 0 -.071-.5 2 2 0 0 1 -1.929 1.5z" fill="#7a2329"/><path d="m16 17a2 2 0 0 1 -1.929-1.5 1.966 1.966 0 0 0 -.071.5 2 2 0 0 0 4 0 1.966 1.966 0 0 0 -.071-.5 2 2 0 0 1 -1.929 1.5z" fill="#7a2329"/><path d="m11 20a2 2 0 0 1 -1.929-1.5 1.966 1.966 0 0 0 -.071.5 2 2 0 0 0 4 0 1.966 1.966 0 0 0 -.071-.5 2 2 0 0 1 -1.929 1.5z" fill="#7a2329"/></g></svg>