<svg id="Capa_1" enable-background="new 0 0 512 512" height="512" viewBox="0 0 512 512" width="512" xmlns="http://www.w3.org/2000/svg"><path clip-rule="evenodd" d="m352.766 333.776c0-78.933-119.513-246.554-151.039-298.592l-17.383-28.677c-5.454-9.023-11.316-8.323-16.273 0l-17.032 28.676c-31.117 52.273-151.039 219.659-151.039 298.593 0 111.289 88.308 178.425 176.383 178.221 88.074.204 176.383-66.932 176.383-178.221z" fill="#ff8092" fill-rule="evenodd"/><path clip-rule="evenodd" d="m352.766 333.776c0-78.933-119.513-246.554-151.039-298.592l-17.383-28.677c-5.454-9.023-11.316-8.323-16.273 0l-17.032 28.676c-3.208 5.373-7.349 11.973-12.22 19.595 38.788 61.208 144.507 213.876 144.507 288.137 0 86.672-53.545 146.536-118.843 168.701 3.966.263 7.933.409 11.899.38 88.075.205 176.384-66.931 176.384-178.22z" fill="#fe636e" fill-rule="evenodd"/><path d="m114.169 448.763c-1.326 0-2.669-.341-3.895-1.059-38.542-22.554-58.914-60.809-58.914-110.628 0-4.267 3.459-7.726 7.726-7.726s7.726 3.459 7.726 7.726c0 44.022 17.727 77.665 51.267 97.291 3.683 2.155 4.922 6.888 2.766 10.571-1.438 2.456-4.022 3.825-6.676 3.825z" fill="#fe636e"/><g clip-rule="evenodd" fill-rule="evenodd"><path d="m296.888 191.269c-65.706 21.464-113.185 83.343-113.185 156.29 0 36.882 12.132 70.932 32.634 98.382 29.951 40.065 77.692 65.968 131.5 65.968 90.67 0 164.163-73.56 164.163-164.35 0-90.76-73.493-164.35-164.163-164.35-17.761.001-34.909 2.833-50.949 8.06z" fill="#f4ebe9"/><path d="m344.046 292.776c7.728 6.6-.087 28.472-17.44 48.884-17.352 20.383-37.68 31.597-45.408 24.997-7.728-6.57.087-28.472 17.44-48.855 17.352-20.412 37.679-31.597 45.408-25.026zm16.273 77.619c1.254-1.489 2.479-3.008 3.675-4.526-1.196 1.518-2.421 3.037-3.675 4.526zm12.424-111.348c-26.335-22.456-74.601-9.023-107.819 30.02-33.188 39.014-38.759 88.891-12.424 111.348 8.049 6.862 18.14 10.367 29.222 10.834l-.029-.029c14.815.613 31.38-4.205 47.216-13.813 11.111-6.746 21.873-15.828 31.409-27.012 1.254-1.489 2.479-3.008 3.675-4.526 10.966-14.017 18.461-29.202 22.31-43.891 6.709-25.377 2.509-49.235-13.56-62.931z" fill="#ff8092"/><path d="m386.304 321.978c-.146.613-.321 1.256-.496 1.869.175-.613.35-1.256.496-1.869zm-.496 1.869c-.262.905-.525 1.781-.817 2.687-3.908 12.586-10.499 25.435-19.569 37.466v.029c9.246-12.265 16.391-26.048 20.386-40.182zm-56.898 73.56c-15.836 9.607-32.401 14.426-47.187 13.842 14.524 23.04 49.549 37.934 89.387 35.451 51.124-3.241 90.787-33.874 88.629-68.45-1.837-29.202-32.984-51.892-73.435-56.273-.146.613-.321 1.256-.496 1.869-3.82 13.462-10.645 27.275-20.385 40.182 0 0 0 0-.029 0-.437.613-.933 1.226-1.4 1.84l2.041-.146c26.714-1.665 48.879 5.169 49.52 15.331.642 10.133-20.502 19.711-47.216 21.376-15.982 1.023-30.33-1.021-39.429-5.022z" fill="#ff8092"/><path d="m363.994 365.869c-.03 0-7.146 9.169 0 0zm8.749-106.822c-6.095-5.198-13.386-8.498-21.377-9.958 15.603 13.754 19.627 37.35 13.007 62.463-7.991 30.399-30.564 59.164-57.394 75.429-15.836 9.578-32.401 14.426-47.216 13.813h.029c-2.683-.117-5.279-.38-7.816-.847.175.146.35.292.525.467 8.049 6.862 18.14 10.367 29.222 10.834l-.029-.029c14.815.613 31.38-4.205 47.216-13.813 13.474-8.147 25.402-19.127 35.084-31.538 10.966-14.017 18.461-29.202 22.31-43.891 6.708-25.376 2.508-49.234-13.561-62.93z" fill="#fe636e"/><path d="m439.557 365.256c2.187 34.575-37.505 65.208-88.6 68.45-21.844 1.373-42.258-2.482-58.619-10.046 17.644 15.769 46.662 25.055 78.771 23.04 51.124-3.241 90.787-33.874 88.629-68.45-1.254-19.799-15.953-36.59-37.884-46.723 10.441 9.316 16.886 20.909 17.703 33.729z" fill="#fe636e"/><path d="m359.298 183.589c54.77 26.632 92.537 82.876 92.537 147.938 0 7.476-.496 14.835-1.458 22.077 5.483 7.359 8.778 15.711 9.362 24.647 1.517 24.063-17.236 46.198-45.962 58.521-30.097 36.123-75.418 59.105-126.075 59.105-3.85 0-7.67-.117-11.461-.38 21.64 10.513 45.933 16.412 71.597 16.412 90.67 0 164.163-73.56 164.163-164.35-.001-86.905-67.399-158.071-152.703-163.97z" fill="#e0d2ce"/><path d="m306.599 309.246c-2.683 2.628-5.337 5.49-7.962 8.556-17.352 20.383-25.168 42.285-17.44 48.855 2.275 1.927 5.599 2.336 9.624 1.431 9.741-2.161 23.506-12.002 35.784-26.428 17.352-20.412 25.168-42.285 17.44-48.884-6.561-5.578-22.222 1.664-37.446 16.47z" fill="#fd4755"/><path d="m415.555 381.054c-.642-10.162-22.806-16.996-49.52-15.331l-2.041.146c-.262.35-.525.672-.787.993v.029c-3.966 5.081-2.158 2.745-.612.759-6.504 8.089-13.969 15.448-22.077 21.756-3.733 2.92-7.612 5.578-11.607 8.001 9.099 4.001 23.448 6.045 39.429 5.023 26.713-1.665 47.857-11.243 47.215-21.376z" fill="#fd4755"/></g></svg>