<svg id="Capa_1" enable-background="new 0 0 511.907 511.907" height="512" viewBox="0 0 511.907 511.907" width="512" xmlns="http://www.w3.org/2000/svg"><path id="XMLID_1135_" d="m123.282 447.046c-65.569-65.569-73.405-169.202-18.442-243.884l136.851-185.95c7.077-9.616 21.447-9.616 28.524 0l136.851 185.95c54.963 74.683 47.127 178.315-18.442 243.884-73.271 73.272-192.069 73.272-265.342 0z" fill="#ffcb7c"/><path id="XMLID_62_" d="m415.121 197.234-37.107-50.42c-3.273-4.448-9.534-5.4-13.981-2.126-4.448 3.273-5.4 9.533-2.126 13.981l37.107 50.42c52.429 71.239 45.086 168.341-17.458 230.886-69.257 69.256-181.945 69.256-251.201 0-62.545-62.545-69.887-159.646-17.459-230.885l136.849-185.95c1.468-1.995 3.731-3.14 6.208-3.14s4.74 1.145 6.208 3.139l46.395 63.041c3.273 4.448 9.534 5.399 13.981 2.126 4.448-3.273 5.4-9.533 2.127-13.981l-46.394-63.041c-5.278-7.171-13.412-11.284-22.316-11.284s-17.038 4.113-22.316 11.285l-136.852 185.949c-27.999 38.045-41.458 84.938-37.896 132.041s23.918 91.439 57.32 124.842c38.527 38.527 89.135 57.79 139.742 57.79 50.608 0 101.216-19.264 139.743-57.791 33.402-33.402 53.759-77.738 57.32-124.841 3.564-47.103-9.895-93.996-37.894-132.041z"/><path id="XMLID_81_" d="m188.287 286.823c5.523 0 10-4.477 10-10s-4.477-10-10-10h-40c-5.523 0-10 4.477-10 10v80c0 5.523 4.477 10 10 10s10-4.477 10-10v-30h30c5.523 0 10-4.477 10-10s-4.477-10-10-10h-30v-20z"/><path id="XMLID_82_" d="m356.287 266.823h-40c-5.523 0-10 4.477-10 10s4.477 10 10 10h10v70c0 5.523 4.477 10 10 10s10-4.477 10-10v-70h10c5.523 0 10-4.477 10-10s-4.477-10-10-10z"/><path id="XMLID_888_" d="m222.89 366.262c5.214 1.828 10.918-.923 12.742-6.135l1.156-3.304h34.811l1.156 3.304c1.442 4.12 5.307 6.699 9.438 6.699 1.096 0 2.21-.182 3.304-.564 5.212-1.824 7.959-7.529 6.135-12.742l-28-80c-1.404-4.011-5.189-6.696-9.438-6.696s-8.035 2.686-9.438 6.696l-28 80c-1.825 5.212.922 10.918 6.134 12.742zm31.304-59.168 10.405 29.729h-20.811z"/><path id="XMLID_1051_" d="m343.283 126.49c2.63 0 5.21-1.06 7.07-2.93 1.86-1.86 2.93-4.43 2.93-7.07 0-2.63-1.07-5.21-2.93-7.07s-4.44-2.93-7.07-2.93c-2.64 0-5.21 1.07-7.07 2.93s-2.93 4.44-2.93 7.07c0 2.64 1.07 5.21 2.93 7.07 1.86 1.87 4.44 2.93 7.07 2.93z"/></svg>