<svg id="Capa_1" enable-background="new 0 0 512 512" height="512" viewBox="0 0 512 512" width="512" xmlns="http://www.w3.org/2000/svg"><g><path d="m400.321 6.607c4.134-5.219 12.044-5.219 16.178 0 24.383 30.784 95.501 127.238 95.501 205.023 0 57.211-46.379 103.59-103.59 103.59s-103.59-46.379-103.59-103.59c-.001-77.785 71.117-174.239 95.501-205.023z" fill="#eab14d"/><path d="m445.387 308.417c-8.01-60.208-36.399-130.157-84.724-208.533-3.877-6.289-7.75-12.411-11.587-18.348-23.155 39.818-44.257 87.724-44.257 130.093 0 57.211 46.379 103.59 103.59 103.59 13.029.001 25.493-2.411 36.978-6.802z" fill="#e7a52e"/><path d="m111.679 6.607c-4.134-5.219-12.044-5.219-16.178 0-24.383 30.784-95.501 127.238-95.501 205.023 0 57.211 46.379 103.59 103.59 103.59s103.59-46.379 103.59-103.59c.001-77.785-71.117-174.239-95.501-205.023z" fill="#eab14d"/><path d="m66.613 308.417c8.01-60.208 36.399-130.157 84.724-208.533 3.877-6.289 7.75-12.411 11.587-18.348 23.155 39.818 44.257 87.724 44.257 130.093 0 57.211-46.379 103.59-103.59 103.59-13.029.001-25.493-2.411-36.978-6.802z" fill="#e7a52e"/><path d="m247.98 6.405c4.125-5.106 11.914-5.106 16.039 0 33.273 41.193 158.727 205.199 158.727 336.273 0 92.091-74.655 166.746-166.746 166.746s-166.746-74.654-166.746-166.746c0-131.074 125.453-295.079 158.726-336.273z" fill="#ffe07d"/><path d="m405.28 248.308c.1 2.574.167 5.157.167 7.756 0 108.185-87.701 195.885-195.885 195.885-35.829 0-69.407-9.627-98.3-26.424 28.756 50.13 82.803 83.899 144.739 83.899 92.091 0 166.746-74.655 166.746-166.746-.001-30.336-6.725-62.436-17.467-94.37z" fill="#ffd064"/></g></svg>