<svg height="511pt" viewBox="0 -3 511.99954 511" width="511pt" xmlns="http://www.w3.org/2000/svg"><path d="m65.886719 500.816406c7.414062 7.433594 19.929687 5.5 24.722656-3.839844 15.742187-30.683593 42.5-75.878906 82.429687-121.800781 57.90625-66.589843 115.089844-110.953125 191.234376-141.089843l30.996093-11.882813c35.625-12.292969 73.0625-20.714844 112.242188-25.203125 2.554687-.292969 4.488281-2.441406 4.488281-5.011719v-104.628906c0-2.945313-2.515625-5.3125-5.449219-5.03125-.015625 0-.035156.003906-.054687.003906-63.414063 6.144531-123.839844 20.964844-180.503906 44.207031 7.53125-45.015624 37.109374-89.054687 63.160156-113.542968 4.769531-4.484375 1.566406-12.496094-4.984375-12.496094-28.183594 0-78.726563 0-107.234375 0-13.050782 0-25.117188 6.910156-31.726563 18.160156l-.117187.199219c-20.3125 34.617187-41.707032 91.304687-34.140625 170.035156-46.308594 31.902344-88.957031 70.453125-127.195313 115.039063-36.082031 42.074218-62.882812 83.335937-81.761718 116.839844-3.40625 6.046874-2.371094 13.617187 2.53125 18.535156zm0 0" fill="#f5879f"/><g fill="#d47589"><path d="m107.609375 396.140625c0 7.738281-6.273437 14.007813-14.007813 14.007813-7.734374 0-14.007812-6.269532-14.007812-14.007813 0-7.734375 6.273438-14.007813 14.007812-14.007813 7.734376 0 14.007813 6.273438 14.007813 14.007813zm0 0"/><path d="m303.121094 68.1875c0 7.738281-6.273438 14.007812-14.007813 14.007812-7.738281 0-14.007812-6.269531-14.007812-14.007812 0-7.734375 6.269531-14.007812 14.007812-14.007812 7.734375 0 14.007813 6.273437 14.007813 14.007812zm0 0"/><path d="m365.457031 201.171875c0 7.734375-6.273437 14.007813-14.007812 14.007813-7.738281 0-14.007813-6.273438-14.007813-14.007813 0-7.738281 6.269532-14.007813 14.007813-14.007813 7.734375 0 14.007812 6.269532 14.007812 14.007813zm0 0"/><path d="m274.664062 174.484375c0 7.734375-6.269531 14.003906-14.007812 14.003906-7.734375 0-14.007812-6.269531-14.007812-14.003906 0-7.738281 6.273437-14.007813 14.007812-14.007813 7.738281 0 14.007812 6.269532 14.007812 14.007813zm0 0"/><path d="m235.753906 282.847656c0 7.738282-6.269531 14.007813-14.007812 14.007813-7.734375 0-14.007813-6.269531-14.007813-14.007813 0-7.734375 6.273438-14.007812 14.007813-14.007812 7.738281 0 14.007812 6.273437 14.007812 14.007812zm0 0"/><path d="m474.148438 137.238281c0 7.734375-6.273438 14.007813-14.007813 14.007813-7.738281 0-14.007813-6.273438-14.007813-14.007813s6.269532-14.007812 14.007813-14.007812c7.734375 0 14.007813 6.273437 14.007813 14.007812zm0 0"/><path d="m62.171875 424.15625c0 7.738281-6.273437 14.007812-14.007813 14.007812-7.738281 0-14.007812-6.269531-14.007812-14.007812 0-7.734375 6.269531-14.007812 14.007812-14.007812 7.734376 0 14.007813 6.273437 14.007813 14.007812zm0 0"/><path d="m90.1875 467.734375c0 7.738281-6.273438 14.007813-14.007812 14.007813-7.738282 0-14.007813-6.269532-14.007813-14.007813 0-7.734375 6.269531-14.007813 14.007813-14.007813 7.734374 0 14.007812 6.273438 14.007812 14.007813zm0 0"/><path d="m489.75 84.191406v58.128906c0 17.84375-12.875 33.164063-30.484375 36.027344-29.820313 4.847656-58.582031 12.058594-86.246094 21.605469l-30.996093 11.882813c-76.144532 30.136718-133.328126 74.5-191.230469 141.089843-49.394531 56.804688-78.632813 112.496094-91.796875 140.984375l6.890625 6.910156c7.414062 7.429688 19.929687 5.496094 24.722656-3.84375 15.742187-30.683593 42.5-75.878906 82.429687-121.800781 57.902344-66.589843 115.089844-110.953125 191.230469-141.089843l30.996094-11.882813c35.625-12.292969 73.066406-20.714844 112.246094-25.203125 2.550781-.292969 4.488281-2.4375 4.488281-5.007812v-104.609376c0-2.945312-2.507812-5.269531-5.441406-5.035156-5.273438.425782-11.976563 1.253906-16.808594 1.84375zm0 0"/></g><path d="m83.753906 303.9375c-15.769531 18.382812-29.757812 36.613281-42.09375 54.109375 17.128906-.71875 12.304688 7.578125 31.882813 2 9.652343-2.75 17.625-14.40625 28.910156-20.105469 9.578125-4.835937 23.867187-4.003906 33.25-11.664062 8.40625-6.863282 10.546875-20.710938 17.839844-30.335938 6.507812-8.589844 19.496093-14.183594 24.429687-25.320312 4.335938-9.773438.089844-23.175782 2.742188-35.148438 2.3125-10.417968 12.097656-20.566406 12.828125-32.808594l-2.355469-1.5625c-38.726562 28.9375-74.699219 62.667969-107.433594 100.835938zm0 0" fill="#fcda55"/><path d="m193.542969 204.664062-2.355469-1.5625c-9.050781 6.761719-17.945312 13.796876-26.691406 21.082032-1.65625 11.3125 1.742187 23.558594-2.292969 32.664062-4.9375 11.140625-17.921875 16.730469-24.433594 25.324219-7.289062 9.621094-9.433593 23.46875-17.839843 30.335937-9.378907 7.660157-23.667969 6.828126-33.246094 11.664063-11.285156 5.699219-19.257813 17.355469-28.910156 20.105469-2.96875.84375-5.367188 1.367187-7.375 1.65625-2.996094 4.070312-5.917969 8.113281-8.738282 12.113281 17.132813-.714844 12.308594 7.578125 31.886719 2 9.648437-2.75 17.625-14.40625 28.910156-20.105469 9.574219-4.835937 23.867188-4.003906 33.246094-11.664062 8.40625-6.863282 10.550781-20.710938 17.839844-30.332032 6.511719-8.59375 19.496093-14.1875 24.433593-25.324218 4.332032-9.773438.089844-23.171875 2.742188-35.148438 2.308594-10.417968 12.09375-20.566406 12.824219-32.808594zm0 0" fill="#d9bc49"/><path d="m101.101562 391.472656c0 7.734375-6.269531 14.007813-14.007812 14.007813-7.734375 0-14.007812-6.273438-14.007812-14.007813 0-7.738281 6.273437-14.007812 14.007812-14.007812 7.738281 0 14.007812 6.269531 14.007812 14.007812zm0 0" fill="#d81229"/><path d="m296.613281 63.519531c0 7.738281-6.273437 14.007813-14.007812 14.007813s-14.007813-6.269532-14.007813-14.007813c0-7.734375 6.273438-14.007812 14.007813-14.007812s14.007812 6.273437 14.007812 14.007812zm0 0" fill="#d81229"/><path d="m358.949219 196.503906c0 7.734375-6.269531 14.003906-14.007813 14.003906-7.734375 0-14.007812-6.269531-14.007812-14.003906 0-7.738281 6.273437-14.007812 14.007812-14.007812 7.738282 0 14.007813 6.269531 14.007813 14.007812zm0 0" fill="#d81229"/><path d="m268.15625 169.8125c0 7.738281-6.269531 14.007812-14.003906 14.007812-7.738282 0-14.007813-6.269531-14.007813-14.007812 0-7.734375 6.269531-14.007812 14.007813-14.007812 7.734375 0 14.003906 6.273437 14.003906 14.007812zm0 0" fill="#d81229"/><path d="m229.246094 278.179688c0 7.738281-6.269532 14.007812-14.007813 14.007812-7.734375 0-14.003906-6.269531-14.003906-14.007812 0-7.734376 6.269531-14.007813 14.003906-14.007813 7.738281 0 14.007813 6.273437 14.007813 14.007813zm0 0" fill="#d81229"/><path d="m467.640625 132.570312c0 7.734376-6.273437 14.007813-14.007813 14.007813-7.734374 0-14.007812-6.273437-14.007812-14.007813 0-7.738281 6.273438-14.007812 14.007812-14.007812 7.734376 0 14.007813 6.269531 14.007813 14.007812zm0 0" fill="#d81229"/><path d="m55.664062 419.488281c0 7.734375-6.273437 14.007813-14.007812 14.007813s-14.007812-6.273438-14.007812-14.007813c0-7.738281 6.273437-14.007812 14.007812-14.007812s14.007812 6.269531 14.007812 14.007812zm0 0" fill="#d81229"/><path d="m83.679688 463.066406c0 7.734375-6.273438 14.007813-14.007813 14.007813s-14.007813-6.273438-14.007813-14.007813 6.273438-14.007812 14.007813-14.007812 14.007813 6.273437 14.007813 14.007812zm0 0" fill="#d81229"/><path d="m108.617188 460.667969s.863281-.089844 2.421874-.25c15.445313-25.542969 35.90625-55.234375 62-85.242188 16.75-19.261719 33.4375-36.648437 50.542969-52.386719l-.574219-.351562c-10.226562.632812-20.84375-1.6875-28.964843 1.910156-11.136719 4.9375-16.730469 17.921875-25.320313 24.433594-9.625 7.292969-23.472656 9.433594-30.335937 17.839844-7.660157 9.382812-6.828125 23.671875-11.664063 33.246094-5.699218 11.285156-17.359375 19.261718-20.105468 28.910156-5.582032 19.582031 2.71875 14.753906 2 31.890625zm0 0" fill="#d9bc49"/></svg>