<?xml version="1.0" encoding="iso-8859-1"?>
<!-- Generator: Adobe Illustrator 19.0.0, SVG Export Plug-In . SVG Version: 6.00 Build 0)  -->
<svg version="1.1" id="Capa_1" xmlns="http://www.w3.org/2000/svg" xmlns:xlink="http://www.w3.org/1999/xlink" x="0px" y="0px"
	 viewBox="0 0 511.998 511.998" style="enable-background:new 0 0 511.998 511.998;" xml:space="preserve">
<path style="fill:#F28585;" d="M416.979,267.746c-3.843-1.07-7.844-1.509-11.827-1.299v-0.114h-33.34
	c-18.381,0-36.42,4.992-52.186,14.459l-8.598,5.159c-33.612,20.162-75.831,19.162-108.452-2.579
	c-16.661-11.108-36.227-17.03-56.248-17.039h-39.482v0.114c-3.983-0.211-7.984,0.228-11.827,1.299V494.45h321.996L416.979,267.746z"
	/>
<path style="fill:#F7A6A6;" d="M373.944,286.513L373.944,286.513c7.993-15.758,26.04-23.645,43.035-18.793l93.458,26.532v217.747
	H1.561V294.251l93.458-26.505c16.977-4.826,34.998,3.053,42.991,18.793l0,0c2.571,5.062,3.913,10.66,3.931,16.337v137.932
	c0.079,20.153,16.468,36.42,36.622,36.35l0,0c14.933,0.026,28.392-9.019,34.007-22.856l19.364-48.071
	c3.974-9.8,13.494-16.205,24.066-16.188l0,0c10.564-0.018,20.092,6.379,24.066,16.17l19.364,48.071
	c5.615,13.836,19.074,22.882,34.007,22.856l0,0c20.145,0.07,36.534-16.188,36.622-36.332V302.876
	C370.057,297.19,371.382,291.584,373.944,286.513z"/>
<path style="fill:#E6E6E6;" d="M288.725,17.247L288.725,17.247c-7.528-6.37-16.267-11.151-25.689-14.038l0,0
	c-38.438-11.766-79.13,9.835-90.931,48.256l0,0c-9.642,31.463-11.827,64.733-6.378,97.187l4.712,28.076L145.09,310.895
	c-2.36,12.511,5.062,24.795,17.232,28.523l0,0c11.818,3.615,24.496-1.957,29.831-13.108l55.95-116.91
	c6.528-13.652,22.057-20.469,36.525-16.038l0,0c14.468,4.431,23.514,18.785,21.276,33.744L286.707,355.29
	c-1.825,12.231,5.563,23.952,17.39,27.576l0,0c12.169,3.729,25.189-2.29,30.243-13.968l54.204-125.377l19.609-20.592
	c22.68-23.829,39.499-52.616,49.133-84.07l0,0c11.766-38.438-9.835-79.13-48.256-90.931l0,0c-9.423-2.86-19.337-3.773-29.129-2.694
	l0,0C346.956,48.771,314.011,38.655,288.725,17.247z"/>
<path style="fill:#F2F2F2;" d="M204.523,95.412l-16.775-5.141l3.588-11.695c6.624-21.715,23.689-38.666,45.448-45.15l5.027,16.81
	c-16.135,4.808-28.787,17.381-33.7,33.481L204.523,95.412z"/>
<path style="fill:#DEDEDE;" d="M169.27,169.769l1.167,6.958L145.09,310.895c-2.562,13.555,6.343,26.62,19.899,29.19
	c11.134,2.106,22.294-3.545,27.181-13.775l55.933-116.91c7.3-15.222,25.549-21.654,40.772-14.354
	c12.09,5.799,18.995,18.793,17.03,32.059L286.707,355.29c-2.044,13.643,7.361,26.356,21.004,28.401
	c11.204,1.676,22.136-4.396,26.628-14.793l54.204-125.377l19.609-20.592c22.68-23.829,39.499-52.616,49.133-84.07
	c6.036-19.688,3.413-41.017-7.203-58.661C383.832,156.17,245.681,168.945,169.27,169.769z"/>
<g>
</g>
<g>
</g>
<g>
</g>
<g>
</g>
<g>
</g>
<g>
</g>
<g>
</g>
<g>
</g>
<g>
</g>
<g>
</g>
<g>
</g>
<g>
</g>
<g>
</g>
<g>
</g>
<g>
</g>
</svg>
