<svg id="Capa_1" enable-background="new 0 0 512 512" height="512" viewBox="0 0 512 512" width="512" xmlns="http://www.w3.org/2000/svg"><g><g><path d="m145.303 326.422 1.224 166.787 98.811 9.21 81.688-9 27.133-165.218 4.922-114.015c2.946-68.254-47.483-127.126-115.38-134.697l-237.968-26.531c-3.058-.341-5.733 2.052-5.733 5.129v90.457l9 35.739-9 40.409v52.318l25.914 9h85.057c18.861 0 34.332 21.947 34.332 40.412z" fill="#fdd4bb"/><g fill="#f7c4a8"><path d="m146.527 493.209.102 13.668c.021 2.835 2.326 5.123 5.161 5.123h167.801c2.528 0 4.684-1.831 5.093-4.325l2.341-14.256z"/><path d="m145.445 330.005-.142-18.918c-.141-18.861-15.471-34.076-34.332-34.076h-110.971v13.419c0 2.85 2.311 5.161 5.161 5.161h105.81c18.861 0 34.333 15.553 34.474 34.414z"/></g><g fill="#ebf2f8"><path d="m156.027 217.096c11.715 14.99 33.786 45.428 55.587 35.941 5.975-2.6 10.672-10.231 10.672-21.563-2.225-13.102-7.642-27.132-9.457-36.262-5.168-26.001-2.725-67.705-33.229-67.705-18.536 0-28.05 11.786-32.67 21.037h-146.93v57.567l14.379 9h137.58c1.59.001 3.089.732 4.068 1.985z"/><path d="m253.296 194.266c0 24.25 13.168 41.855 25.747 41.855s25.747-18.721 25.747-41.855c-2.651-18.804-13.168-32.855-25.747-32.855-12.579-.001-23.096 14.05-25.747 32.855z"/><path d="m204.691 359.335 1.921 11.081v123.004l34.621 9 34.847-9v-114.927l2.388-11.041c15.761-9.98 25.922-22.797 25.922-42.107-2.259-9.887-7.826-17.634-13.378-20.593-15.079-8.036-37.346 9.22-62.819.305-19.917-6.971-37.273 3.728-41.903 21.013-.003 17.469 10.558 26.973 18.401 33.265z"/></g><path d="m413.191 182.266 58.829-25.003c3.478-1.478 4.24-6.069 1.428-8.592l-10.949-9.822c-2.742-2.46-2.099-6.918 1.227-8.502l41.547-19.788c3.254-1.55 3.958-5.874 1.363-8.375l-31.032-29.917c-2.036-1.963-5.271-1.922-7.257.091l-52.683 53.417c-2.135 2.165-1.946 5.697.409 7.621l8.558 6.992c2.077 1.697 2.508 4.702.992 6.915l-18.707 27.295c-2.919 4.256 1.526 9.686 6.275 7.668z" fill="#ffde91"/><path d="m376.91 96.409 18.293-43.326c1.47-3.481-1.176-7.31-4.952-7.165l-8.947.342c-3.681.141-6.32-3.509-5.033-6.961l12.057-32.335c1.257-3.372-1.237-6.964-4.837-6.964h-32.631c-2.832 0-5.135 2.282-5.161 5.115l-.534 58.961c-.028 3.04 2.566 5.446 5.596 5.19l6.985-.59c2.673-.226 5.073 1.633 5.523 4.277l3.798 22.316c.865 5.086 7.836 5.894 9.843 1.14z" fill="#ffde91"/><path d="m415.591 259.935 43.326 18.293c3.481 1.47 7.31-1.176 7.165-4.952l-.342-8.947c-.141-3.681 3.509-6.32 6.961-5.033l32.335 12.057c3.373 1.258 6.965-1.236 6.965-4.836v-32.631c0-2.832-2.282-5.135-5.115-5.161l-58.961-.534c-3.04-.028-5.446 2.566-5.19 5.596l.591 6.985c.226 2.673-1.633 5.073-4.277 5.523l-22.316 3.798c-5.088.864-5.896 7.835-1.142 9.842z" fill="#ffde91"/><g fill="#d6e3ed"><path d="m204.691 350.335c-7.843-6.291-15.583-14.593-18.403-24.265-1.166 4.351-1.538 9.112-.927 14.122 1.515 12.41 11.606 22.882 21.251 30.224v-16.069c-.001-1.561-.704-3.036-1.921-4.012z"/><path d="m276.079 362.799v15.694c27.055-15.979 31.928-37.311 28.31-53.148-2.571 11.26-10.16 23.126-25.922 33.107-1.488.942-2.388 2.587-2.388 4.347z"/><path d="m206.611 493.419h69.467v18.581h-69.467z"/></g><path d="m279.043 227.12c-12.579 0-23.096-14.051-25.747-32.855-.422 2.99-.652 6.097-.652 9.29 0 23.276 11.819 42.145 26.399 42.145s26.399-18.869 26.399-42.145c0-3.194-.23-6.3-.651-9.29-2.652 18.805-13.169 32.855-25.748 32.855z" fill="#d6e3ed"/><path d="m211.614 244.037c-21.801 9.487-43.873-20.951-55.587-35.941-.979-1.253-2.478-1.985-4.068-1.985h-151.959v18.581h147.477c11.228 14.058 41.323 47.854 64.137 37.925 11.873-5.166 12.961-17.664 10.672-31.143-1.457 5.504-4.697 9.963-10.672 12.563z" fill="#d6e3ed"/></g></g></svg>