<svg id="Capa_1" enable-background="new 0 0 512 512" height="512" viewBox="0 0 512 512" width="512" xmlns="http://www.w3.org/2000/svg"><g><g><path clip-rule="evenodd" d="m414.505 257.387c39.247 0 71.368-32.122 71.368-71.37v-147.733c0-19.011-13.812-34.955-31.917-38.284h-136.546c-18.105 3.329-31.917 19.273-31.917 38.284v147.733c0 39.248 32.121 71.37 71.368 71.37z" fill="#ffe58a" fill-rule="evenodd"/></g><g><path clip-rule="evenodd" d="m331.456 102.47h108.483c2.862 0 5.227-2.365 5.227-5.256v-51.892c0-2.891-2.365-5.256-5.227-5.256h-108.483c-2.891 0-5.256 2.365-5.256 5.256v51.892c0 2.891 2.365 5.256 5.256 5.256z" fill="#edf4ff" fill-rule="evenodd"/></g><g><path clip-rule="evenodd" d="m464.059 38.284v147.733c0 34.312-24.558 63.164-56.943 69.881v1.489h7.388c39.247 0 71.368-32.122 71.368-71.37v-147.733c0-19.011-13.812-34.955-31.917-38.284h-21.813c18.076 3.329 31.917 19.273 31.917 38.284z" fill="#ffd772" fill-rule="evenodd"/></g><g><path clip-rule="evenodd" d="m419.206 45.322v51.892c0 2.891-2.365 5.256-5.227 5.256h25.96c2.862 0 5.227-2.365 5.227-5.256v-51.892c0-2.891-2.365-5.256-5.227-5.256h-25.96c2.891-.001 5.227 2.365 5.227 5.256z" fill="#dbeaff" fill-rule="evenodd"/></g><g><path clip-rule="evenodd" d="m326.2 167.737c0 11.272 9.14 20.412 20.383 20.412 11.272 0 20.412-9.14 20.412-20.412s-9.14-20.383-20.412-20.383c-11.243 0-20.383 9.111-20.383 20.383z" fill="#ff8086" fill-rule="evenodd"/></g><g><path clip-rule="evenodd" d="m404.372 167.737c0 11.272 9.14 20.412 20.412 20.412s20.382-9.14 20.382-20.412-9.111-20.383-20.382-20.383-20.412 9.111-20.412 20.383z" fill="#c3ddff" fill-rule="evenodd"/></g><path clip-rule="evenodd" d="m417.293 314.185c-1.743-.309-3.6-.464-5.559-.464h-174.217c17.317-33.707 2.888-69.858-17.41-84.751-10.242-7.498-26.012-4.198-27.766 13.553-3.094 31.747-13.553 48.219-26.724 57.388-13.512 9.396-29.901 11.15-44.268 13.811h-50.106v167.677h44.763c31.86 0 33.521 26.394 72.477 30.602h72.251c-34.955 0-34.986-49.56 0-49.56-34.955 0-34.986-49.58 0-49.58-34.955 0-34.986-49.559 0-49.559h92.219 58.78c1.485 0 2.909-.083 4.26-.258 13.873-1.753 21.175-12.037 21.897-22.774.774-11.563-6.085-23.641-20.597-26.085z" fill="#ffeee6" fill-rule="evenodd"/><g><path clip-rule="evenodd" d="m217.776 327.151c7.096-.263 15.798-4.964 19.74-13.433 17.316-33.699 2.891-69.851-17.404-84.744-9.578-7.008-23.945-4.614-27.245 10.192 26.427 9.432 34.282 50.052 26.34 77.532-2.103 7.211-10.425 10.803-1.431 10.453z" fill="#ffdfcf" fill-rule="evenodd"/></g><g><path clip-rule="evenodd" d="m364.278 257.387v50.432c0 2.044.292 4.03.818 5.899 2.599 8.936 10.863 15.506 20.587 15.506s18.017-6.57 20.587-15.506c.555-1.869.847-3.855.847-5.899v-50.432-33.32c0-2.657-2.19-4.848-4.847-4.848h-33.173c-2.657 0-4.818 2.19-4.818 4.848v33.32z" fill="#7e707d" fill-rule="evenodd"/></g><g><path clip-rule="evenodd" d="m390.53 224.068v33.32 50.432c0 2.044-.292 4.03-.847 5.899-1.81 6.249-6.366 11.33-12.294 13.842 2.57 1.08 5.373 1.665 8.293 1.665 9.724 0 18.017-6.57 20.587-15.506.555-1.869.847-3.855.847-5.899v-50.432-1.489-31.83c0-2.657-2.19-4.848-4.847-4.848h-16.586c2.657-.002 4.847 2.188 4.847 4.846z" fill="#6a5d6a" fill-rule="evenodd"/></g><g><path clip-rule="evenodd" d="m260.731 412.859h77.646 12.206c34.954 0 34.954-49.556 0-49.556h-89.852c-34.984 0-34.954 49.556 0 49.556z" fill="#ffdfcf" fill-rule="evenodd"/></g><g><path clip-rule="evenodd" d="m260.731 462.444h65.469 12.177c34.954 0 34.983-49.585 0-49.585h-77.646c-34.984 0-34.954 49.585 0 49.585z" fill="#ffdfcf" fill-rule="evenodd"/></g><g><path clip-rule="evenodd" d="m260.731 412.859h77.646 12.206c25.318 0 32.297-26.019 20.937-40.357-3.3 8.673-11.505 15.594-24.558 15.594h-112.454c0 12.381 8.731 24.763 26.223 24.763z" fill="#ffcebf" fill-rule="evenodd"/></g><g><path clip-rule="evenodd" d="m26.127 302.65v189.814c0 1.84 1.489 3.329 3.329 3.329h59.104c1.81 0 3.3-1.489 3.3-3.329v-11.068-167.678-11.068c0-1.84-1.489-3.329-3.3-3.329h-59.104c-1.839 0-3.329 1.49-3.329 3.329z" fill="#ff8086" fill-rule="evenodd"/></g><g><path clip-rule="evenodd" d="m260.731 462.444h65.469 12.177c19.74 0 28.325-15.769 25.785-29.523-4.351 4.351-10.746 7.213-19.156 7.213h-110.381c1.08 11.505 9.782 22.31 26.106 22.31z" fill="#ffcebf" fill-rule="evenodd"/></g><g><path clip-rule="evenodd" d="m188.487 512h72.244c-16.703 0-25.405-11.301-26.164-23.099h-28.297c-38.925-4.234-40.619-30.633-72.478-30.633h-41.932v23.128h24.149c31.859 0 33.523 26.399 72.478 30.604z" fill="#ffdfcf" fill-rule="evenodd"/></g><g><path clip-rule="evenodd" d="m268.703 512h57.497c34.954 0 34.954-49.556 0-49.556h-65.469c-34.983 0-34.954 49.556 0 49.556z" fill="#ffdfcf" fill-rule="evenodd"/></g><g><path clip-rule="evenodd" d="m268.703 512h57.497c23.828 0 31.421-23.04 22.719-37.7-3.533 8.206-11.564 14.601-24.12 14.601h-90.232c.759 11.798 9.461 23.099 26.164 23.099z" fill="#ffcebf" fill-rule="evenodd"/></g><g><path clip-rule="evenodd" d="m29.456 495.793h59.104c1.81 0 3.3-1.489 3.3-3.329v-11.068-21.055c0 1.84-1.489 3.329-3.3 3.329h-17.317-41.787c-1.84 0-3.329-1.489-3.329-3.329v32.122c0 1.841 1.49 3.33 3.329 3.33z" fill="#e5646e" fill-rule="evenodd"/></g></g></svg>