<svg id="Capa_1" enable-background="new 0 0 512 512" height="512" viewBox="0 0 512 512" width="512" xmlns="http://www.w3.org/2000/svg"><g><path d="m460.23 129.235c0 13.202-.179 26.205-.515 38.977-3.487 134.818-24.231 244.785-37.234 301.681-5.639 24.651-27.591 42.107-52.872 42.107h-227.214c-25.291 0-47.243-17.456-52.873-42.107-13.129-57.42-34.135-168.921-37.339-305.451-.263-11.564-.41-23.306-.41-35.206h408.457z" fill="#c5e3ee"/><path d="m214.404 512h-72.009c-25.281 0-47.243-17.456-52.873-42.107-14.242-62.284-37.748-188.184-37.748-340.658h129.44c0 152.474 8.613 278.374 13.822 340.658 2.069 24.651 10.104 42.107 19.368 42.107z" fill="#98cfdd"/><path d="m423.984 247.983c-7.499 95.169-22.288 171.421-32.224 214.883-2.374 10.377-11.48 17.624-22.151 17.624h-227.214c-10.671 0-19.788-7.247-22.162-17.624-9.936-43.462-24.714-119.725-32.213-214.883z" fill="#ffd064"/><path d="m196.36 480.491h-53.965c-10.671 0-19.788-7.247-22.162-17.624-9.936-43.462-24.714-119.725-32.213-214.883h94.896c2.773 98.026 8.339 176.715 12.121 221.91.315 3.707.756 7.257 1.323 10.597z" fill="#ebb044"/><path d="m311.969 416.49c-37.313 3.047-74.626 3.047-111.939 0-19.719-1.61-35.322-17.443-36.573-37.188-3.112-49.123-3.112-98.246 0-147.369 1.251-19.745 16.854-35.578 36.573-37.188 37.313-3.047 74.626-3.047 111.939 0 19.719 1.61 35.322 17.443 36.573 37.188 3.112 49.123 3.112 98.246 0 147.369-1.251 19.745-16.853 35.578-36.573 37.188z" fill="#f5f0f0"/><path d="m256 426.491c-18.91 0-37.82-.767-56.598-2.3-23.405-1.911-42.173-20.999-43.655-44.4-3.119-49.218-3.119-99.128 0-148.346 1.482-23.401 20.25-42.489 43.655-44.4 37.555-3.066 75.641-3.066 113.196 0 23.405 1.911 42.173 20.999 43.655 44.4 3.119 49.218 3.119 99.128 0 148.346-1.482 23.401-20.25 42.489-43.655 44.4-18.778 1.533-37.688 2.3-56.598 2.3zm55.969-10.001h.01zm-55.969-216.293c-18.492 0-36.978.749-55.341 2.248-15.811 1.291-28.49 14.178-29.491 29.976-3.077 48.569-3.077 97.823 0 146.392 1.001 15.798 13.68 28.685 29.491 29.976 36.721 2.998 73.96 2.998 110.681 0 15.811-1.291 28.49-14.178 29.491-29.976 3.077-48.569 3.077-97.823 0-146.392-1.001-15.798-13.68-28.685-29.491-29.976-18.358-1.498-36.852-2.248-55.34-2.248z" fill="#e8ded8"/><path d="m460.23 129.235c0 13.202-.179 26.205-.515 38.977h-392.532c-5.43 0-10.535-1.365-14.998-3.771-.263-11.564-.41-23.306-.41-35.206z" fill="#98cfdd"/><path d="m430.922 0h-349.844c-31.284 0-56.645 25.361-56.645 56.645v50.09c0 17.439 14.137 31.576 31.576 31.576h399.983c17.439 0 31.576-14.137 31.576-31.576v-50.09c-.001-31.284-25.362-56.645-56.646-56.645z" fill="#edf9f9"/><path d="m180.352 138.31h-124.336c-17.446 0-31.583-14.137-31.583-31.572v-50.09c0-31.289 25.365-56.643 56.654-56.643h124.336c-31.278 0-56.643 25.354-56.643 56.643v50.089c-.001 17.436 14.137 31.573 31.572 31.573z" fill="#dcf1f4"/><g fill="#a2c6fd"><path d="m308.391 254.562h-104.782c-4.267 0-7.726-3.459-7.726-7.726s3.459-7.726 7.726-7.726h104.782c4.267 0 7.726 3.459 7.726 7.726s-3.459 7.726-7.726 7.726z"/><path d="m308.391 293.75h-104.782c-4.267 0-7.726-3.459-7.726-7.726s3.459-7.726 7.726-7.726h104.782c4.267 0 7.726 3.459 7.726 7.726s-3.459 7.726-7.726 7.726z"/><path d="m308.391 332.938h-104.782c-4.267 0-7.726-3.459-7.726-7.726s3.459-7.726 7.726-7.726h104.782c4.267 0 7.726 3.459 7.726 7.726s-3.459 7.726-7.726 7.726z"/><path d="m259.532 372.126h-55.923c-4.267 0-7.726-3.459-7.726-7.726s3.459-7.726 7.726-7.726h55.923c4.267 0 7.726 3.459 7.726 7.726.001 4.267-3.459 7.726-7.726 7.726z"/></g></g></svg>