<svg id="Flat" height="512" viewBox="0 0 64 64" width="512" xmlns="http://www.w3.org/2000/svg"><path d="m45.317 28.5976-7.317 6.4024h-12l-7.317-6.4024a2 2 0 0 1 -.683-1.5051v-25.0925h28v25.0925a2 2 0 0 1 -.683 1.5051z" fill="#e6ebf5"/><path d="m26 35h12v5h-12z" fill="#d2d9e3"/><path d="m29 40h6a0 0 0 0 1 0 0v19a3 3 0 0 1 -3 3 3 3 0 0 1 -3-3v-19a0 0 0 0 1 0 0z" fill="#e6ebf5"/><path d="m22 6h20v16h-20z" fill="#ffc939"/><circle cx="27" cy="28" fill="#e6503c" r="2"/><circle cx="37" cy="28" fill="#e6503c" r="2"/><g fill="#4e4e4e"><path d="m26 18a1 1 0 0 1 -1-1v-6a1 1 0 0 1 1-1h4a1 1 0 0 1 1 1v3a1 1 0 0 1 -1 1h-3v2a1 1 0 0 1 -1 1zm1-5h2v-1h-2z"/><path d="m38 18a1 1 0 0 1 -1-1v-6a1 1 0 0 1 2 0v6a1 1 0 0 1 -1 1z"/><path d="m34 18a1 1 0 0 1 -1-1v-6a1 1 0 0 1 2 0v6a1 1 0 0 1 -1 1z"/><path d="m38 15h-4a1 1 0 0 1 0-2h4a1 1 0 0 1 0 2z"/></g></svg>