<svg height="512" viewBox="0 0 512 512" width="512" xmlns="http://www.w3.org/2000/svg"><g id="Flat"><path d="m409.373 121.373a32 32 0 0 0 -22.628-9.373h-118.745a20 20 0 0 0 -20 20 20 20 0 0 0 20 20 20 20 0 0 0 -20 20 20 20 0 0 0 20 20 20 20 0 0 0 -20 20 20 20 0 0 0 20 20h60v9.353a82.389 82.389 0 0 0 40 70.647h64v-168z" fill="#3ba6d4"/><path d="m24 64h368v48h-368z" fill="#e0e0de"/><path d="m56 64h48v48h-48z" fill="#ffb531"/><path d="m136 64h48v48h-48z" fill="#d46c6c"/><path d="m216 64h48v48h-48z" fill="#60d1e0"/><path d="m368 312v48h120v-269.11a24 24 0 0 0 -8.2-18.061l-49.014-42.891a24 24 0 0 0 -15.804-5.938h-82.982a20 20 0 0 0 -20 20 20 20 0 0 0 20 20h60l40 32v88l-80-80a22.627 22.627 0 0 0 -32 0 22.627 22.627 0 0 0 0 32l56 56a137.37 137.37 0 0 0 -9.353 116.391l1.353 3.609v48" fill="#4db7e5"/><path d="m488 360v128h-120l16-128z" fill="#fec9a3"/><path d="m488 360v24h-107l3-24z" fill="#fec093"/><path d="m392 320h96v16h-96z" fill="#3ba6d4"/><rect fill="#2d97c4" height="16" rx="8" width="56" x="264" y="144"/><rect fill="#2d97c4" height="16" rx="8" width="72" x="264" y="184"/><path d="m216 488h-160a16 16 0 0 1 -16-16v-208h192v208a16 16 0 0 1 -16 16z" fill="#e0e0de"/><path d="m24 208h224v56h-224z" fill="#348fd9"/><g fill="#2d7dbf"><path d="m48 232h16v32h-16z"/><path d="m80 232h16v32h-16z"/><path d="m112 232h16v32h-16z"/><path d="m144 232h16v32h-16z"/><path d="m176 232h16v32h-16z"/><path d="m208 232h16v32h-16z"/></g><path d="m40 344h192a0 0 0 0 1 0 0v128a16 16 0 0 1 -16 16h-160a16 16 0 0 1 -16-16v-128a0 0 0 0 1 0 0z" fill="#ffb531"/><path d="m128 312h104v96h-104z" fill="#a0dde5"/><path d="m152 368h80v16h-80z" fill="#8fd0d9"/><path d="m152 336h16v16h-16z" fill="#8fd0d9"/><path d="m184 336h48v16h-48z" fill="#8fd0d9"/><path d="m64 344h16v40h-16z" fill="#ffc361"/><path d="m64 288h16v16h-16z" fill="#f2f2f2"/><path d="m64 320h16v24h-16z" fill="#f2f2f2"/><path d="m40 264h192v24h-192z" fill="#d9d9d7"/></g></svg>