<svg id="Capa_1" enable-background="new 0 0 512 512" height="512" viewBox="0 0 512 512" width="512" xmlns="http://www.w3.org/2000/svg"><path d="m320.318 224.201c-25.55 0-46.331 20.353-47.051 45.728v37.923h86.046v-83.651z" fill="#8379c1"/><path d="m444.974 71.717 14.137 94.122c1.53 10.184.081 20.621-4.152 29.904-7.935 17.403-24.547 28.458-42.762 28.458h-48.708-.18-48.708c-18.215 0-34.827-11.055-42.762-28.458-4.233-9.283-5.682-19.72-4.152-29.904l14.139-94.134c2.936-19.548 17.515-34.793 35.973-37.618 30.184-4.619 60.837-4.625 91.023-.016l.166.025c18.464 2.82 33.049 18.068 35.986 37.621z" fill="#acacac"/><path d="m363.372 224.201c-10.77 0-21.025-2.198-30.345-6.165v18.5c0 16.759 13.586 30.345 30.345 30.345 16.759 0 30.345-13.586 30.345-30.345v-18.5c-9.32 3.968-19.575 6.165-30.345 6.165z" fill="#ffa78f"/><path d="m494.14 437.446c9.397-11.122 13.859-26.631 12.099-42.059l-5.87-51.466c-6.341-55.596-43.983-102.637-96.835-121.016l-54.114 18.817c-19.687 6.846-34.079 26.427-36.771 50.03l-11.82 103.635c-1.76 15.428 2.702 30.937 12.099 42.059 8.226 9.736 19.492 15.224 31.254 15.224h118.704c11.762 0 23.028-5.488 31.254-15.224z" fill="#c86d36"/><path d="m506.24 395.387-5.87-51.466c-6.341-55.596-43.983-102.638-96.835-121.016l-17.524 6.094c44.981 21.428 76.279 64.679 82.01 114.922l5.87 51.466c1.76 15.428-2.702 30.937-12.099 42.059-8.226 9.736-19.492 15.224-31.254 15.224h32.35c11.762 0 23.028-5.488 31.254-15.224 9.396-11.122 13.857-26.631 12.098-42.059z" fill="#ac5e2e"/><path d="m459.111 165.839-14.137-94.122c-2.937-19.553-17.523-34.801-35.987-37.62l-.166-.025c-18.807-2.871-37.795-3.95-56.738-3.239 11.415.43 22.813 1.509 34.146 3.239l.166.025c18.464 2.819 33.05 18.067 35.987 37.62l14.137 94.122c1.53 10.184.08 20.621-4.152 29.904-7.935 17.403-24.547 28.458-42.762 28.458h22.592c18.215 0 34.827-11.055 42.762-28.458 4.233-9.283 5.682-19.72 4.152-29.904z" fill="#9c9c9c"/><path d="m486.413 511.927h-165.999v-40.235c0-16.386 13.283-29.669 29.669-29.669h106.66c16.386 0 29.669 13.283 29.669 29.669z" fill="#f58a97"/><path d="m456.744 442.023h-29.409c16.386 0 29.669 13.283 29.669 29.669v40.235h29.409v-40.235c0-16.386-13.284-29.669-29.669-29.669z" fill="#f07281"/><path d="m188.032 224.201c26.005 0 47.086 21.081 47.086 47.086v50.021h-93.877v-97.106z" fill="#0ab69f"/><path d="m182.711 232.972v-42.675h-60.69v42.675c0 16.759 13.586 30.345 30.345 30.345 16.759 0 30.345-13.586 30.345-30.345z" fill="#ffcebf"/><path d="m152.366 51.478h-74.664c-11.959 0-21.653 9.694-21.653 21.653v56.685h96.317z" fill="#acacac"/><path d="m152.366 51.478h-74.664c-11.959 0-21.653 9.694-21.653 21.653v56.685h96.317z" fill="#acacac"/><path d="m232.304 106.828c-.371 0-.739.013-1.106.028-6.336-37.885-39.271-66.76-78.955-66.76-39.684 0-72.619 28.875-78.955 66.76-.367-.015-.735-.028-1.106-.028-15.014 0-27.186 12.171-27.186 27.186s12.172 27.186 27.186 27.186c.371 0 .739-.013 1.106-.028 6.336 37.885 39.271 66.76 78.955 66.76 39.684 0 72.619-28.875 78.955-66.76.367.015.735.028 1.106.028 15.014 0 27.186-12.172 27.186-27.186s-12.171-27.186-27.186-27.186z" fill="#ffcebf"/><g><g><path d="m113.164 152.458c-2.905 0-5.26-2.355-5.26-5.26v-14.743c0-2.905 2.355-5.26 5.26-5.26s5.26 2.355 5.26 5.26v14.743c0 2.905-2.355 5.26-5.26 5.26z" fill="#5a5a5a"/></g><g><path d="m191.322 152.458c-2.905 0-5.26-2.355-5.26-5.26v-14.743c0-2.905 2.355-5.26 5.26-5.26s5.26 2.355 5.26 5.26v14.743c0 2.905-2.355 5.26-5.26 5.26z" fill="#5a5a5a"/></g></g><path d="m208.233 155.551c-4.23 0-7.367 0-11.665 0-2.897 0-5.246 2.349-5.246 5.246s2.349 5.246 5.246 5.246h11.665c2.897 0 5.246-2.349 5.246-5.246-.001-2.897-2.349-5.246-5.246-5.246z" fill="#fe8f83"/><path d="m208.233 155.551c-4.23 0-7.367 0-11.665 0-2.897 0-5.246 2.349-5.246 5.246s2.349 5.246 5.246 5.246h11.665c2.897 0 5.246-2.349 5.246-5.246-.001-2.897-2.349-5.246-5.246-5.246z" fill="#fe8f83"/><path d="m107.641 155.551c-4.23 0-7.367 0-11.665 0-2.897 0-5.246 2.349-5.246 5.246s2.349 5.246 5.246 5.246h11.665c2.897 0 5.246-2.349 5.246-5.246s-2.349-5.246-5.246-5.246z" fill="#fe8f83"/><path d="m232.304 106.828c-.371 0-.739.013-1.106.028-6.336-37.885-39.271-66.76-78.955-66.76-3 0-5.959.173-8.874.495 35.682 3.891 64.321 31.212 70.183 66.265.367-.015.735-.028 1.106-.028 15.014 0 27.186 12.171 27.186 27.186s-12.171 27.186-27.185 27.186c-.371 0-.739-.013-1.106-.028-5.862 35.053-34.501 62.373-70.183 66.265 2.914.322 5.873.495 8.873.495 39.684 0 72.619-28.875 78.955-66.76.367.015.735.028 1.106.028 15.014 0 27.186-12.172 27.186-27.186s-12.171-27.186-27.186-27.186z" fill="#ffb09e"/><path d="m187.378 511.927h-165.999v-40.235c0-16.386 13.283-29.669 29.669-29.669h106.66c16.386 0 29.669 13.283 29.669 29.669z" fill="#82aee3"/><path d="m157.709 442.023h-29.409c16.386 0 29.669 13.283 29.669 29.669v40.235h29.409v-40.235c0-16.386-13.283-29.669-29.669-29.669z" fill="#528fd8"/><path d="m135.785 436.81v-44.005h-62.581v44.005c0 17.281 14.009 31.291 31.291 31.291 17.281-.001 31.29-14.01 31.29-31.291z" fill="#ffa78f"/><path d="m436.126 429.627v-45.835h-65.184v45.835c0 18 14.592 32.592 32.592 32.592 18 0 32.592-14.592 32.592-32.592z" fill="#ffa78f"/><path d="m440.921 106.898c-.359 0-.716.013-1.071.027-6.137-36.696-38.038-64.665-76.477-64.665-38.439 0-70.34 27.969-76.477 64.665-.356-.014-.712-.027-1.071-.027-14.543 0-26.333 11.789-26.333 26.333s11.79 26.333 26.333 26.333c.359 0 .716-.013 1.071-.027 6.137 36.696 38.038 64.665 76.477 64.665 38.439 0 70.34-27.969 76.477-64.665.356.014.712.027 1.071.027 14.543 0 26.333-11.79 26.333-26.333s-11.79-26.333-26.333-26.333z" fill="#ffcebf"/><path d="m440.921 106.898c-.359 0-.716.013-1.071.027-6.137-36.696-38.038-64.665-76.477-64.665-2.984 0-5.923.186-8.819.517 34.4 3.9 61.977 30.291 67.646 64.124.163.001.324.009.486.012.197-.006.392-.015.59-.015 14.543 0 26.333 11.789 26.333 26.333s-11.79 26.333-26.333 26.333c-.198 0-.394-.009-.59-.015-.162.004-.323.012-.486.012-5.67 33.834-33.247 60.224-67.647 64.124 2.896.331 5.835.517 8.82.517 38.439 0 70.34-27.969 76.477-64.665.356.014.712.027 1.071.027 14.543 0 26.333-11.79 26.333-26.333s-11.79-26.333-26.333-26.333z" fill="#ffb09e"/><path d="m110.773 234.013h-59.362c-18.334 0-32.725 15.716-31.115 33.979l8.563 97.117h81.914z" fill="#9e5528"/><path d="m482.075 310.999c-.364 0-.726.013-1.087.027-6.225-37.223-38.584-65.593-77.574-65.593-38.99 0-71.349 28.37-77.574 65.593-.361-.015-.722-.027-1.087-.027-14.752 0-26.711 11.958-26.711 26.71s11.959 26.711 26.711 26.711c.365 0 .726-.013 1.087-.027 6.225 37.223 38.584 65.593 77.574 65.593 38.99 0 71.349-28.37 77.574-65.593.361.015.722.027 1.087.027 14.752 0 26.711-11.959 26.711-26.711s-11.959-26.71-26.711-26.71z" fill="#ffcebf"/><g><path d="m113.164 152.458c-2.905 0-5.26-2.355-5.26-5.26v-14.743c0-2.905 2.355-5.26 5.26-5.26s5.26 2.355 5.26 5.26v14.743c0 2.905-2.355 5.26-5.26 5.26z" fill="#5a5a5a"/></g><g><path d="m191.322 152.458c-2.905 0-5.26-2.355-5.26-5.26v-14.743c0-2.905 2.355-5.26 5.26-5.26s5.26 2.355 5.26 5.26v14.743c0 2.905-2.355 5.26-5.26 5.26z" fill="#5a5a5a"/></g><path d="m208.233 155.551c-4.23 0-7.367 0-11.665 0-2.897 0-5.246 2.349-5.246 5.246s2.349 5.246 5.246 5.246h11.665c2.897 0 5.246-2.349 5.246-5.246-.001-2.897-2.349-5.246-5.246-5.246z" fill="#fe8f83"/><path d="m401.225 150.982c-2.751 0-4.981-2.23-4.981-4.981v-14.28c0-2.751 2.23-4.981 4.981-4.981h6.14c2.751 0 4.981 2.23 4.981 4.981s-2.23 4.981-4.981 4.981h-1.158v9.299c-.001 2.751-2.231 4.981-4.982 4.981z" fill="#5a5a5a"/><path d="m325.52 150.982c-2.751 0-4.981-2.23-4.981-4.981v-9.299h-1.158c-2.751 0-4.981-2.23-4.981-4.981s2.23-4.981 4.981-4.981h6.14c2.751 0 4.981 2.23 4.981 4.981v14.28c-.001 2.751-2.231 4.981-4.982 4.981z" fill="#5a5a5a"/><path d="m271.979 106.925h101.851c27.55 0 49.884-22.334 49.884-49.884 0-25.44-20.623-46.064-46.064-46.064h-41.444c-35.472 0-64.228 28.756-64.228 64.228v31.72z" fill="#bfbfbf"/><path d="m377.65 10.977h-22.592c25.44 0 46.064 20.623 46.064 46.064 0 27.55-22.334 49.884-49.884 49.884h22.592c27.55 0 49.884-22.334 49.884-49.884 0-25.44-20.623-46.064-46.064-46.064z" fill="#acacac"/><path d="m179.899 313.821c-.35 0-.697.012-1.043.026-5.977-35.736-37.043-62.974-74.477-62.974-37.433 0-68.5 27.237-74.477 62.974-.347-.014-.693-.026-1.043-.026-14.163 0-25.644 11.481-25.644 25.644s11.481 25.644 25.644 25.644c.35 0 .697-.012 1.043-.026 5.977 35.736 37.043 62.973 74.477 62.973 37.433 0 68.5-27.237 74.477-62.973.347.014.693.026 1.043.026 14.163 0 25.644-11.481 25.644-25.644s-11.481-25.644-25.644-25.644z" fill="#ffcebf"/><g><path d="m67.517 359.683c-4.297 0-7.781-3.483-7.781-7.781v-13.907c0-4.298 3.484-7.781 7.781-7.781s7.781 3.483 7.781 7.781v13.907c0 4.297-3.484 7.781-7.781 7.781z" fill="#5a5a5a"/></g><g><path d="m141.241 359.683c-4.297 0-7.781-3.483-7.781-7.781v-13.907c0-4.298 3.484-7.781 7.781-7.781s7.781 3.483 7.781 7.781v13.907c0 4.297-3.483 7.781-7.781 7.781z" fill="#5a5a5a"/></g><path d="m441.809 358.444c-4.297 0-7.781-3.483-7.781-7.781v-14.485c0-4.298 3.484-7.781 7.781-7.781h6.228c4.297 0 7.781 3.483 7.781 7.781 0 3.766-2.675 6.907-6.228 7.626v6.859c0 4.298-3.484 7.781-7.781 7.781z" fill="#5a5a5a"/><path d="m365.018 358.444c-4.297 0-7.781-3.483-7.781-7.781v-6.859c-3.553-.719-6.228-3.86-6.228-7.626 0-4.298 3.484-7.781 7.781-7.781h6.228c4.297 0 7.781 3.483 7.781 7.781v14.485c0 4.298-3.484 7.781-7.781 7.781z" fill="#5a5a5a"/><path d="m248.313 48.43c0-26.747-21.683-48.43-48.43-48.43h-21.146-31.673-9.217c-29.497 0-53.408 23.911-53.408 53.407 0 29.496 23.911 53.407 53.407 53.407h93.227 17.239v-58.384z" fill="#bfbfbf"/><path d="m199.882 0h-21.146-8.264c26.747 0 48.43 21.683 48.43 48.43v58.383h12.17 17.239v-58.383c.002-26.747-21.681-48.43-48.429-48.43z" fill="#acacac"/><path d="m318.244 155.312c-4.006 0-6.977 0-11.047 0-2.744 0-4.968 2.224-4.968 4.968s2.224 4.968 4.968 4.968h11.047c2.744 0 4.968-2.224 4.968-4.968s-2.224-4.968-4.968-4.968z" fill="#fe8f83"/><path d="m419.547 155.312c-4.006 0-6.977 0-11.047 0-2.744 0-4.968 2.224-4.968 4.968s2.224 4.968 4.968 4.968h11.047c2.744 0 4.968-2.224 4.968-4.968s-2.224-4.968-4.968-4.968z" fill="#fe8f83"/><path d="m104.379 399.327c-13.134 0-23.82-10.686-23.82-23.82 0-4.298 3.484-7.781 7.781-7.781s7.781 3.483 7.781 7.781c0 4.553 3.704 8.257 8.257 8.257s8.257-3.704 8.257-8.257c0-4.298 3.484-7.781 7.781-7.781s7.781 3.483 7.781 7.781c.002 13.134-10.684 23.82-23.818 23.82z" fill="#ffa799"/><path d="m403.413 399.738c-13.502 0-24.487-10.985-24.487-24.487 0-4.298 3.484-7.781 7.781-7.781s7.781 3.483 7.781 7.781c0 4.921 4.004 8.925 8.925 8.925s8.925-4.004 8.925-8.925c0-4.298 3.484-7.781 7.781-7.781s7.781 3.483 7.781 7.781c0 13.503-10.985 24.487-24.487 24.487z" fill="#ffa799"/><path d="m482.075 310.999c-.365 0-.726.013-1.087.027-6.225-37.223-38.584-65.593-77.574-65.593-2.985 0-5.924.186-8.823.51 34.963 3.905 63.003 30.71 68.752 65.083.361-.015.722-.027 1.087-.027 14.752 0 26.711 11.958 26.711 26.71s-11.959 26.711-26.711 26.711c-.364 0-.726-.013-1.087-.027-5.749 34.373-33.789 61.178-68.752 65.083 2.898.324 5.838.509 8.823.509 38.99 0 71.349-28.37 77.574-65.593.361.015.722.027 1.087.027 14.752 0 26.711-11.959 26.711-26.711 0-14.751-11.959-26.709-26.711-26.709z" fill="#ffb09e"/><path d="m179.899 313.821c-.35 0-.697.012-1.043.026-5.977-35.736-37.043-62.974-74.477-62.974-2.986 0-5.927.192-8.823.529 33.402 3.89 60.154 29.559 65.654 62.444.347-.014.693-.026 1.043-.026 14.163 0 25.644 11.481 25.644 25.644s-11.481 25.644-25.644 25.644c-.35 0-.697-.012-1.043-.026-5.5 32.885-32.252 58.555-65.654 62.444 2.896.337 5.836.529 8.823.529 37.433 0 68.5-27.237 74.477-62.973.347.014.693.026 1.043.026 14.163 0 25.644-11.481 25.644-25.644 0-14.162-11.481-25.643-25.644-25.643z" fill="#ffb09e"/><path d="m492.902 311.026h-100.042c-27.945 0-50.6-22.654-50.6-50.6 0-25.805 20.919-46.725 46.725-46.725h38.769c35.981 0 65.149 29.168 65.149 65.149v32.176z" fill="#d77f4a"/><path d="m427.753 213.702h-29.409c35.981 0 65.149 29.168 65.149 65.149v32.175h29.409v-32.175c0-35.981-29.168-65.149-65.149-65.149z" fill="#c86d36"/><path d="m196.34 313.848h-103.315c-28.467 0-51.543-23.077-51.543-51.543v-13.875c0-20.804 16.865-37.668 37.668-37.668h66.268c28.123 0 50.922 22.798 50.922 50.922z" fill="#ac5e2e"/><path d="m145.418 210.761h-29.409c28.123 0 50.922 22.798 50.922 50.922v52.165h29.409v-52.165c0-28.124-22.799-50.922-50.922-50.922z" fill="#9e5528"/><path d="m325.41 366.486c-.533-3.8-1.319-7.343-2.576-10.412-2.492-7.51-9.612-12.509-17.526-12.509-12.883 0-21.062 13.941-14.629 25.104.138.24 1.908 3.255 2.049 3.495-11.468 3.378-23.69-5.977-32.235-14.874.864 7.043 3.621 11.115 5.826 14.874-12.647 3.726-24.961-5.389-34.07-14.874.864 7.043 3.62 11.114 5.826 14.874-20.496 6.036-43.409-28.599-43.409-28.599-3.952 6.986-6.748 14.712-8.121 22.922-.323-.013-.647-.025-.973-.025-13.204 0-23.907 10.704-23.907 23.907 0 13.204 10.704 23.907 23.907 23.907.326 0 .65-.012.973-.025 5.572 33.316 34.534 58.708 69.433 58.708 34.898 0 63.861-25.393 69.433-58.708.323.013.647.025.973.025 13.204 0 23.907-10.704 23.907-23.907 0-8.833-4.792-16.54-11.913-20.679-1.305-.759-2.689-1.396-4.135-1.901-3.039-.992-5.99-1.465-8.833-1.303z" fill="#ffcebf"/><path d="m255.978 449.804c-12.536 0-22.734-10.199-22.734-22.734 0-4.298 3.484-7.781 7.781-7.781s7.781 3.483 7.781 7.781c0 3.954 3.217 7.171 7.171 7.171s7.171-3.217 7.171-7.171c0-4.298 3.484-7.781 7.781-7.781s7.781 3.483 7.781 7.781c.001 12.536-10.197 22.734-22.732 22.734z" fill="#ffa799"/><g><path d="m221.612 412.844c-4.297 0-7.781-3.483-7.781-7.781v-12.965c0-4.298 3.484-7.781 7.781-7.781s7.781 3.483 7.781 7.781v12.965c0 4.298-3.484 7.781-7.781 7.781z" fill="#5a5a5a"/></g><g><path d="m290.344 412.844c-4.297 0-7.781-3.483-7.781-7.781v-12.965c0-4.298 3.484-7.781 7.781-7.781s7.781 3.483 7.781 7.781v12.965c0 4.298-3.484 7.781-7.781 7.781z" fill="#5a5a5a"/></g><path d="m325.41 366.484c-.723-3.963-1.564-7.497-2.576-10.412-2.492-7.51-9.612-12.509-17.526-12.509-3.215 0-6.137.869-8.612 2.345 3.919 2.17 7.019 5.722 8.492 10.164 1.094 3.124 1.951 6.597 2.576 10.412 4.486-.213 8.986.913 12.968 3.205 7.122 4.14 11.913 11.847 11.913 20.678 0 13.204-10.704 23.907-23.907 23.907-.326 0-.65-.012-.973-.025-5.094 30.462-29.748 54.286-60.61 58.147 2.891.362 5.833.562 8.823.562 34.898 0 63.861-25.392 69.433-58.708.323.013.647.025.973.025 13.204 0 23.907-10.704 23.907-23.907 0-8.832-4.792-16.539-11.913-20.679 0 0-5.216-3.454-12.968-3.205z" fill="#ffb09e"/><path d="m271.479 266.924h-12.161c-15.288 0-29.326 5.338-40.363 14.246.042-.034.082-.07.124-.104-25.715 4.399-45.288 26.794-45.288 53.764v8.733 26.004c3.478-1.974 7.496-3.107 11.781-3.107.326 0 .65.012.973.025 1.373-8.209 4.169-15.936 8.121-22.922 0 0 22.913 34.635 43.409 28.599-2.205-3.76-4.962-7.831-5.826-14.874 9.109 9.485 21.424 18.599 34.07 14.874-2.205-3.758-4.962-7.831-5.826-14.874 8.544 8.897 20.767 18.251 32.235 14.874-.141-.24-1.91-3.255-2.049-3.495-6.433-11.162 1.746-25.104 14.629-25.104 7.922 0 15.05 5.009 17.535 12.531 1.109 3.359 1.973 6.829 2.568 10.39.323-.013.647-.025.973-.025 4.374 0 8.47 1.18 11.997 3.231 0-.679 0-35.992 0-35.865-.001-36.948-29.954-66.901-66.902-66.901z" fill="#ac5e2e"/><path d="m271.479 266.924h-12.161c-2.919 0-5.791.198-8.606.574 32.863 4.242 58.26 32.31 58.26 66.328 0-.045 0 4.371 0 10.113 6.384 1.277 11.778 5.817 13.871 12.155 1.109 3.359 1.973 6.829 2.568 10.39.323-.013.647-.025.973-.025 4.374 0 8.47 1.18 11.997 3.231 0-.679 0-35.992 0-35.865-.001-36.948-29.954-66.901-66.902-66.901z" fill="#9e5528"/><g fill="#fe8f83"><path d="m59.367 360.141c-4.006 0-6.977 0-11.047 0-2.744 0-4.968 2.224-4.968 4.968s2.224 4.968 4.968 4.968h11.047c2.744 0 4.968-2.224 4.968-4.968s-2.224-4.968-4.968-4.968z"/><path d="m160.67 360.141c-4.006 0-6.977 0-11.047 0-2.744 0-4.968 2.224-4.968 4.968s2.224 4.968 4.968 4.968h11.047c2.744 0 4.968-2.224 4.968-4.968s-2.225-4.968-4.968-4.968z"/><path d="m358.286 362.758c-4.006 0-6.977 0-11.047 0-2.744 0-4.968 2.224-4.968 4.968s2.224 4.968 4.968 4.968h11.047c2.744 0 4.968-2.224 4.968-4.968s-2.225-4.968-4.968-4.968z"/><path d="m459.588 362.758c-4.006 0-6.977 0-11.047 0-2.744 0-4.968 2.224-4.968 4.968s2.224 4.968 4.968 4.968h11.047c2.744 0 4.968-2.224 4.968-4.968s-2.224-4.968-4.968-4.968z"/><path d="m210.958 414.322c-4.006 0-6.977 0-11.047 0-2.744 0-4.968 2.224-4.968 4.968s2.224 4.968 4.968 4.968h11.047c2.744 0 4.968-2.224 4.968-4.968s-2.224-4.968-4.968-4.968z"/><path d="m312.261 414.322c-4.006 0-6.977 0-11.047 0-2.744 0-4.968 2.224-4.968 4.968s2.224 4.968 4.968 4.968h11.047c2.744 0 4.968-2.224 4.968-4.968s-2.224-4.968-4.968-4.968z"/></g><path d="m187.55 192.45c-.924 0-1.863-.167-2.777-.519-3.982-1.534-5.966-6.006-4.431-9.988.853-2.215-.916-5.736-1.906-7.095-2.583-3.397-1.899-8.216 1.498-10.798 3.396-2.584 8.266-1.893 10.848 1.506.844 1.111 8.132 11.17 3.979 21.944-1.182 3.067-4.108 4.95-7.211 4.95z" fill="#ffb09e"/><path d="m116.687 192.45c-3.103 0-6.029-1.881-7.211-4.95-4.153-10.774 3.133-20.832 3.978-21.944 2.579-3.398 7.427-4.059 10.826-1.478 3.381 2.568 4.053 7.382 1.515 10.778-.992 1.364-2.753 4.876-1.9 7.087 1.535 3.982-.449 8.454-4.431 9.988-.914.352-1.853.519-2.777.519z" fill="#ffb09e"/><path d="m151.766 193.699c-11.4 0-20.676-9.276-20.676-20.676 0-4.268 3.459-7.726 7.726-7.726s7.726 3.459 7.726 7.726c0 2.88 2.343 5.223 5.223 5.223s5.224-2.343 5.224-5.223c0-4.268 3.459-7.726 7.726-7.726s7.726 3.459 7.726 7.726c.002 11.401-9.274 20.676-20.675 20.676z" fill="#ffb09e"/><path d="m398.551 192.782c-.924 0-1.863-.167-2.777-.519-3.982-1.534-5.966-6.006-4.431-9.988.956-2.481-1.392-6.417-1.864-7.039-2.581-3.397-1.92-8.244 1.478-10.826 3.398-2.581 8.244-1.921 10.826 1.478.845 1.112 8.132 11.171 3.979 21.945-1.182 3.066-4.108 4.949-7.211 4.949z" fill="#ffb09e"/><path d="m327.688 192.782c-3.103 0-6.029-1.881-7.211-4.95-4.152-10.774 3.133-20.833 3.977-21.945 2.581-3.396 7.429-4.059 10.827-1.479 3.381 2.569 4.053 7.382 1.515 10.778-.991 1.364-2.753 4.877-1.9 7.089 1.535 3.982-.449 8.454-4.431 9.988-.914.352-1.853.519-2.777.519z" fill="#ffb09e"/><path d="m362.767 194.031c-11.4 0-20.676-9.276-20.676-20.677 0-4.268 3.459-7.726 7.726-7.726 4.268 0 7.726 3.459 7.726 7.726 0 2.88 2.343 5.224 5.223 5.224s5.224-2.344 5.224-5.224c0-4.268 3.459-7.726 7.726-7.726s7.726 3.459 7.726 7.726c.002 11.402-9.274 20.677-20.675 20.677z" fill="#ffb09e"/><path d="m338.977 512h-165.999v-10.672c0-10.763 8.725-19.488 19.488-19.488h127.023c10.763 0 19.488 8.725 19.488 19.488z" fill="#0ab69f"/><path d="m319.489 481.84h-29.409c10.763 0 19.488 8.725 19.488 19.488v10.672h29.409v-10.672c0-10.763-8.725-19.488-19.488-19.488z" fill="#01998d"/><path d="m255.978 472.634c-10.364 0-20.204-2.24-29.064-6.261v7.176c0 16.111 13.061 29.172 29.171 29.172 16.111 0 29.171-13.06 29.171-29.172v-7.277c-8.915 4.084-18.83 6.362-29.278 6.362z" fill="#ffa78f"/></svg>