<svg id="Capa_1" enable-background="new 0 0 512 512" height="512" viewBox="0 0 512 512" width="512" xmlns="http://www.w3.org/2000/svg"><path d="m512 280.087s-28.958 31.933-101.202 24.831h-129.03c-72.255 7.102-101.213-24.831-101.213-24.831 17.066-17.066 16.547-53.779 16.547-118.942s25.858-135.105 149.176-135.105 149.175 69.943 149.175 135.106-.519 101.875 16.547 118.941z" fill="#e27d47"/><path d="m296.49 159.3v145.619h-14.723c-72.255 7.102-101.213-24.831-101.213-24.831 17.066-17.066 16.547-53.779 16.547-118.942s25.859-135.106 149.177-135.106c-57.118 0-49.788 75.562-49.788 133.26z" fill="#dd542e"/><path d="m452.965 233.587c-1.566 30.783-26.2 55.293-57.003 56.744-24.23 1.141-48.46 1.452-72.701.923-.031 0-.073 0-.104-.01-8.854-.187-17.709-.498-26.563-.912-30.793-1.451-55.427-25.961-57.003-56.744-1.13-21.939-1.244-43.867-.373-65.806h.01s25.308-1.286 57.263-8.481c28.398-6.387 62.042-17.449 87.827-36.423 0 0 26.895 44.904 69.02 44.904.881 21.938.757 43.866-.373 65.805z" fill="#f1d0a5"/><path d="m323.157 291.243c-8.854-.187-17.709-.498-26.563-.912-30.793-1.451-55.427-25.961-57.003-56.744-1.13-21.939-1.244-43.867-.373-65.806h.01s25.308-1.286 57.263-8.481v.01c-7.134 61.171.082 130.834 26.666 131.933z" fill="#f1b986"/><path d="m346.28 246.049c-12.225 0-23.511-7.138-28.753-18.184-1.803-3.798-.185-8.337 3.612-10.14 3.797-1.802 8.337-.185 10.14 3.613 2.735 5.763 8.623 9.487 15.001 9.487s12.266-3.724 15.001-9.487c1.802-3.799 6.341-5.414 10.14-3.613 3.798 1.802 5.415 6.342 3.612 10.14-5.241 11.046-16.528 18.184-28.753 18.184z" fill="#da4a54"/><ellipse cx="412.822" cy="218.031" fill="#eaac9d" rx="15.86" ry="9.999"/><ellipse cx="279.737" cy="218.031" fill="#eaac9d" rx="15.86" ry="9.999"/><path d="m264.553 170.199-158.809.68-78.86.332c-6.011-54.889-23.46-126.173 40.647-138.877 15.391-3.053 29.252-4.864 41.709-5.714 83.443-5.663 104.2 32.015 104.2 32.015s15.102-13.265 31.522-11.913c5.935.485 12.049 2.891 17.678 8.52 29.694 29.694 1.913 114.957 1.913 114.957z" fill="#aa593d"/><path d="m244.962 46.722c-19.507 13.401-32.27 53.503-38.18 76.36-5.782-23.282 1.284-48.911 6.658-64.447 0 0 15.102-13.265 31.522-11.913z" fill="#934d36"/><path d="m96.952 111.721 8.792 59.158-78.86.332c-6.011-54.889-23.46-126.173 40.647-138.877 15.391-3.053 29.252-4.864 41.709-5.714 0 .009-.008.009-.008.009-32.101 19.744-22.186 54.914-12.28 85.092z" fill="#934d36"/><path d="m254.045 214.546h.15c12.916 0 23.381-10.474 23.381-23.381 0-12.916-10.465-23.39-23.381-23.39-.168 0-.336 0-.504.009h-214.102c-.168-.009-.336-.009-.504-.009-12.916 0-23.381 10.474-23.381 23.39 0 12.907 10.465 23.381 23.381 23.381h.15" fill="#f1b986"/><path d="m254.273 196.644c0 12.313-.315 24.634-.944 36.947-1.573 30.782-26.207 55.289-57.006 56.743-21.531 1.02-43.07 1.369-64.6 1.063h-.009c-11.59-.162-23.172-.519-34.762-1.063-30.791-1.454-55.425-25.961-57.007-56.743-1.122-21.939-1.241-43.869-.366-65.807h.009c12.007-4.447 19.15-18.274 23.393-33.648 4.354-15.774 19.464-24.396 33.971-22.415 5.655.774 11.224 3.163 16.02 7.364 9.634 8.435 21.65 12.653 33.665 12.653s24.039-4.218 33.673-12.653c5.969-5.23 13.121-7.645 20.161-7.645 13.138 0 25.884 8.418 29.83 22.695 4.235 15.374 11.378 29.2 23.393 33.648.392 9.627.579 19.244.579 28.861z" fill="#f1d0a5"/><path d="m131.714 291.397c-11.59-.162-23.172-.519-34.762-1.063-30.791-1.454-55.425-25.961-57.007-56.743-1.122-21.939-1.241-43.869-.366-65.807h.009c12.007-4.447 19.15-18.274 23.393-33.648 4.354-15.774 19.464-24.396 33.971-22.415-11.012 98.325 0 178.596 34.762 179.676z" fill="#f1b986"/><path d="m94.231 252.854h26.025c14.57 0 26.381-11.811 26.381-26.381v-10.166h-26.025c-14.57 0-26.381 11.811-26.381 26.381z" fill="#aa593d"/><path d="m199.044 252.854h-26.025c-14.57 0-26.381-11.811-26.381-26.381v-10.166h26.025c14.57 0 26.381 11.811 26.381 26.381z" fill="#aa593d"/><path d="m49.073 431.301c-.052 0-.096 0-.148 0-12.741 0-23.064-10.332-23.064-23.064 0-12.741 10.323-23.073 23.064-23.073.166 0 .332 0 .497.009h165.868c.166-.009.332-.009.497-.009 12.741 0 23.064 10.332 23.064 23.073 0 12.732-10.323 23.064-23.064 23.064-.052 0-.096 0-.148 0" fill="#f1b986"/><path d="m215.013 440.784c-1.209 23.618-20.11 42.423-43.736 43.537-18.996.899-37.984 1.122-56.972.684l-.008-.008c-6.428-.151-12.847-.374-19.267-.676-23.618-1.114-42.519-19.919-43.736-43.537-.374-7.31-.477-23.689-.469-39.885.008-21.096.191-41.882.191-41.882h164.275s.08 8.774.127 20.714c.104 20.531.136 50.409-.405 61.053z" fill="#f1d0a5"/><path d="m114.297 484.996c-6.428-.151-12.847-.374-19.267-.676-23.618-1.114-42.519-19.919-43.736-43.537-.374-7.31-.477-23.689-.469-39.885.008-21.096.191-41.882.191-41.882h42.582c-.588 80.049-4.59 114.263 20.699 125.98z" fill="#f1b986"/><path d="m133.154 450.595c-9.476 0-18.224-5.532-22.286-14.094-1.441-3.038-.148-6.67 2.891-8.112 3.04-1.441 6.671-.148 8.112 2.891 2.056 4.335 6.486 7.137 11.283 7.137s9.227-2.802 11.285-7.137c1.442-3.039 5.073-4.332 8.112-2.89 3.038 1.442 4.332 5.074 2.889 8.112-4.063 8.561-12.812 14.093-22.286 14.093z" fill="#da4a54"/><path d="m99.264 281.544h67.654c26.717 0 48.375 21.658 48.375 48.375v29.094h-164.404v-29.094c0-26.717 21.658-48.375 48.375-48.375z" fill="#8078bc"/><path d="m130.214 281.544c-26.72 0-36.616 21.661-36.616 48.373v29.099h-42.71v-29.099c0-26.712 21.653-48.373 48.373-48.373z" fill="#5e54ac"/><path d="m68.803 359.016h-61.192c-4.204 0-7.611-3.408-7.611-7.612s3.407-7.611 7.611-7.611h61.191c4.204 0 7.611 3.408 7.611 7.611.001 4.204-3.406 7.612-7.61 7.612z" fill="#5e54ac"/><path d="m166.966 323.036h-14.938c-10.046 0-18.191 8.144-18.191 18.191v17.786h51.319v-17.786c0-10.046-8.144-18.191-18.19-18.191z" fill="#e27d47"/><ellipse cx="248.734" cy="460.336" fill="#934d36" rx="26.461" ry="12.793" transform="matrix(.707 -.707 .707 .707 -252.654 310.711)"/><ellipse cx="449.505" cy="460.336" fill="#aa593d" rx="12.793" ry="26.461" transform="matrix(.707 -.707 .707 .707 -193.85 452.678)"/><path d="m463.74 379.384c0 53.368-51.32 96.632-114.625 96.632-4.278 0-8.493-.198-12.644-.587-57.352-5.302-101.973-46.28-101.973-96.044 0-53.376 51.32-96.64 114.617-96.64 63.306-.001 114.625 43.263 114.625 96.639z" fill="#aa593d"/><path d="m302.709 369.105 33.764 106.323c-57.352-5.302-101.973-46.28-101.973-96.044 0-53.376 51.32-96.64 114.617-96.64-39.067 8.223-46.408 59.876-46.408 86.361z" fill="#934d36"/><path d="m430.794 441.625c-1.206 23.565-20.064 42.327-43.637 43.439-19.969.945-39.939 1.143-59.916.595h-.008c-5.381-.143-10.77-.341-16.152-.595-23.565-1.111-42.423-19.874-43.637-43.439-.857-16.795-.278-81.583-.278-81.583s13.858 7.564 35.541 9.064c22.128 1.524 52.415-3.262 84.417-28.859 0 0 20.668 30.2 44.066 38.184.112 20.485.168 52.169-.396 63.194z" fill="#f1d0a5"/><path d="m327.234 485.659c-5.381-.143-10.77-.341-16.152-.595-23.565-1.111-42.423-19.874-43.637-43.439-.857-16.795-.278-81.583-.278-81.583s13.858 7.564 35.541 9.064c.651 76.638 9.025 115.965 24.526 116.553z" fill="#f1b986"/><g fill="#454045"><path d="m296.495 173.616c-5.384 0-9.764 6.513-9.764 14.52s4.381 14.52 9.764 14.52c5.385 0 9.765-6.514 9.765-14.52s-4.381-14.52-9.765-14.52z"/><path d="m396.066 173.616c-5.384 0-9.764 6.513-9.764 14.52s4.381 14.52 9.764 14.52c5.385 0 9.765-6.514 9.765-14.52s-4.38-14.52-9.765-14.52z"/><path d="m96.854 168.432c-5.384 0-9.764 6.514-9.764 14.52s4.381 14.52 9.764 14.52c5.385 0 9.765-6.514 9.765-14.52s-4.38-14.52-9.765-14.52z"/><path d="m196.426 168.432c-5.385 0-9.765 6.514-9.765 14.52s4.381 14.52 9.765 14.52 9.764-6.514 9.764-14.52-4.38-14.52-9.764-14.52z"/><path d="m94.957 390.734c-4.164 0-7.55 5.024-7.55 11.2s3.387 11.2 7.55 11.2 7.551-5.024 7.551-11.2-3.387-11.2-7.551-11.2z"/><ellipse cx="171.354" cy="401.934" rx="7.551" ry="11.2"/><path d="m311.011 391.688c-4.155 0-7.534 5.013-7.534 11.175s3.38 11.175 7.534 11.175 7.535-5.013 7.535-11.175-3.381-11.175-7.535-11.175z"/><ellipse cx="387.235" cy="402.863" rx="7.534" ry="11.175"/></g><path d="m349.121 451.428c-9.459 0-18.191-5.523-22.248-14.07-1.442-3.038-.149-6.67 2.889-8.112 3.039-1.441 6.67-.148 8.113 2.89 2.051 4.321 6.465 7.113 11.246 7.113s9.196-2.792 11.246-7.113c1.442-3.038 5.072-4.332 8.112-2.891 3.038 1.442 4.332 5.073 2.891 8.112-4.056 8.548-12.789 14.071-22.249 14.071z" fill="#da4a54"/><ellipse cx="400.059" cy="429.717" fill="#eaac9d" rx="12.141" ry="7.654"/><ellipse cx="298.18" cy="429.717" fill="#eaac9d" rx="12.141" ry="7.654"/></svg>