<svg id="Capa_1" enable-background="new 0 0 512 512" height="512" viewBox="0 0 512 512" width="512" xmlns="http://www.w3.org/2000/svg"><g><g><path d="m236.801 125.641h34.89v-55.511c0-28.579-23.168-51.748-51.748-51.748h-18.421v71.98c0 19.484 15.795 35.279 35.279 35.279z" fill="#a74b30"/><path d="m87.269 295.532h-12.232c-22.843 0-41.36 18.518-41.36 41.36v70.931h248.086v-70.931c0-22.843-18.518-41.36-41.36-41.36z" fill="#c4e2ff"/><path d="m184.902 455.184h-56.683c-3.414 0-6.181-2.767-6.181-6.181v-82.358c0-3.414 2.767-6.181 6.181-6.181h56.683c3.414 0 6.181 2.767 6.181 6.181v82.358c0 3.414-2.767 6.181-6.181 6.181z" fill="#5f99d7"/><path d="m184.902 360.464h-23.362c3.414 0 6.181 2.767 6.181 6.181v82.358c0 3.414-2.767 6.181-6.181 6.181h23.362c3.414 0 6.181-2.767 6.181-6.181v-82.358c0-3.414-2.767-6.181-6.181-6.181z" fill="#3c87d0"/><path d="m119.4 215.881v62.117l38.179 25.452 38.179-25.452v-62.117z" fill="#ffbfb1"/><path d="m249.724 125.609c-.427 0-.85.015-1.273.032-7.292-43.603-45.198-76.836-90.872-76.836-45.674 0-83.579 33.233-90.872 76.836-.423-.017-.846-.032-1.273-.032-17.281 0-31.289 14.008-31.289 31.289s14.009 31.289 31.289 31.289c.427 0 .85-.015 1.273-.032 7.292 43.603 45.198 76.836 90.872 76.836 45.674 0 83.579-33.233 90.872-76.836.423.017.846.032 1.273.032 17.281 0 31.289-14.009 31.289-31.289s-14.009-31.289-31.289-31.289z" fill="#ffcebf"/><path d="m249.724 125.609c-.427 0-.851.015-1.273.032-7.292-43.603-45.198-76.836-90.872-76.836h-.001c-3.958 0-7.854.266-11.681.75 40.329 5.104 72.531 36.262 79.191 76.086.423-.017.846-.032 1.273-.032 17.281 0 31.289 14.009 31.289 31.289 0 17.281-14.009 31.29-31.289 31.29-.427 0-.85-.015-1.273-.032-6.66 39.824-38.862 70.981-79.191 76.086 3.827.485 7.722.75 11.681.75h.001c45.674 0 83.579-33.233 90.872-76.836.423.017.846.032 1.273.032 17.28 0 31.289-14.009 31.289-31.29s-14.009-31.289-31.289-31.289z" fill="#ffbfb1"/><g><path d="m157.309 367.449c-.011 0-.022 0-.033 0-2.514-.011-4.865-1.244-6.304-3.306l-44.774-64.19c-2.442-3.5-1.584-8.316 1.916-10.758 3.501-2.44 8.317-1.58 10.758 1.917l38.494 55.188 39.24-55.242c2.47-3.478 7.294-4.296 10.774-1.824 3.478 2.471 4.295 7.295 1.824 10.774l-45.597 64.19c-1.449 2.039-3.796 3.251-6.298 3.251z" fill="#3e5959"/></g><g><g><path d="m112.602 179.798c-4.268 0-7.726-3.459-7.726-7.726v-16.968c0-4.268 3.459-7.726 7.726-7.726 4.268 0 7.726 3.459 7.726 7.726v16.968c0 4.267-3.459 7.726-7.726 7.726z" fill="#384949"/></g><g><path d="m202.555 179.798c-4.268 0-7.726-3.459-7.726-7.726v-16.968c0-4.268 3.459-7.726 7.726-7.726s7.726 3.459 7.726 7.726v16.968c.001 4.267-3.458 7.726-7.726 7.726z" fill="#384949"/></g></g><g><path d="m157.578 228.17c-15.051 0-27.296-12.244-27.296-27.296 0-4.268 3.459-7.726 7.726-7.726 4.268 0 7.726 3.459 7.726 7.726 0 6.53 5.313 11.843 11.843 11.843s11.843-5.313 11.843-11.843c0-4.268 3.459-7.726 7.726-7.726s7.726 3.459 7.726 7.726c.002 15.052-12.242 27.296-27.294 27.296z" fill="#ffb09e"/></g><path d="m174.346 125.641h-130.879v-56.495c0-38.188 30.957-69.146 69.146-69.146h74.952c21.545 0 39.011 17.466 39.011 39.011v34.4c0 28.846-23.384 52.23-52.23 52.23z" fill="#c4573a"/><path d="m119.4 277.998-32.273 17.534 41.152 30.672c2.501 1.864 6 1.573 8.158-.68l21.142-22.073z" fill="#b3dafe"/><path d="m195.758 277.998 32.273 17.534-41.152 30.672c-2.501 1.864-6 1.573-8.158-.68l-21.142-22.073z" fill="#b3dafe"/><g><path d="m221.442 203.032h-11.383c-4.144 0-7.504-3.36-7.504-7.504s3.36-7.504 7.504-7.504h11.383c4.144 0 7.504 3.36 7.504 7.504s-3.36 7.504-7.504 7.504z" fill="#ffb09e"/></g><g><path d="m105.098 203.032h-11.383c-4.144 0-7.504-3.36-7.504-7.504s3.36-7.504 7.504-7.504h11.383c4.144 0 7.504 3.36 7.504 7.504s-3.36 7.504-7.504 7.504z" fill="#ffb09e"/></g><path d="m187.565 0h-35.043c21.546 0 39.012 17.466 39.012 39.012v34.399c0 28.846-23.384 52.23-52.23 52.23h35.043c28.846 0 52.229-23.384 52.229-52.23v-34.399c0-21.546-17.466-39.012-39.011-39.012z" fill="#a74b30"/><path d="m240.403 295.532h-29.202c22.843 0 41.36 18.518 41.36 41.36v70.932h29.202v-70.932c.001-22.842-18.518-41.36-41.36-41.36z" fill="#b3dafe"/><path d="m195.758 277.998-13.112 8.742 16.183 8.792-28.493 21.237 8.385 8.755c2.158 2.253 5.656 2.545 8.158.681l41.152-30.672z" fill="#8ac9fe"/></g><g><path d="m283.828 353.41h-12.231c-22.843 0-41.36 18.518-41.36 41.36v70.931h248.086v-70.931c0-22.843-18.518-41.36-41.36-41.36z" fill="#b3dafe"/><path d="m382.338 512h-56.683c-3.414 0-6.181-2.767-6.181-6.181v-82.359c0-3.414 2.767-6.181 6.181-6.181h56.683c3.414 0 6.181 2.767 6.181 6.181v82.358c.001 3.415-2.767 6.182-6.181 6.182z" fill="#5f99d7"/><path d="m382.339 417.279h-23.362c3.413 0 6.181 2.768 6.181 6.181v82.359c0 3.413-2.768 6.181-6.181 6.181h23.362c3.413 0 6.181-2.768 6.181-6.181v-82.359c0-3.413-2.768-6.181-6.181-6.181z" fill="#3c87d0"/><path d="m315.96 273.759v62.117l38.179 25.453 38.178-25.453v-62.117z" fill="#ffbfb1"/><path d="m446.283 183.487c-.427 0-.85.015-1.273.032-7.292-43.603-45.198-76.836-90.872-76.836-45.674 0-83.579 33.233-90.872 76.836-.423-.017-.846-.032-1.273-.032-17.281 0-31.289 14.008-31.289 31.289s14.009 31.289 31.289 31.289c.427 0 .85-.015 1.273-.032 7.292 43.603 45.198 76.836 90.872 76.836 45.674 0 83.579-33.233 90.872-76.836.423.017.846.032 1.273.032 17.281 0 31.289-14.009 31.289-31.289s-14.008-31.289-31.289-31.289z" fill="#ffcebf"/><g><g><path d="m309.161 237.676c-4.268 0-7.726-3.459-7.726-7.726v-16.968c0-4.268 3.459-7.726 7.726-7.726 4.268 0 7.726 3.459 7.726 7.726v16.968c0 4.267-3.458 7.726-7.726 7.726z" fill="#384949"/></g><g><path d="m399.116 237.676c-4.268 0-7.726-3.459-7.726-7.726v-16.968c0-4.268 3.459-7.726 7.726-7.726s7.726 3.459 7.726 7.726v16.968c0 4.267-3.459 7.726-7.726 7.726z" fill="#384949"/></g></g><g><path d="m354.139 286.048c-15.051 0-27.296-12.244-27.296-27.296 0-4.268 3.459-7.726 7.726-7.726s7.726 3.459 7.726 7.726c0 6.53 5.313 11.843 11.843 11.843s11.842-5.313 11.842-11.843c0-4.268 3.459-7.726 7.726-7.726s7.726 3.459 7.726 7.726c.002 15.052-12.243 27.296-27.293 27.296z" fill="#ffb09e"/></g><g><path d="m353.727 425.006c-.011 0-.022 0-.033 0-2.508-.011-4.854-1.237-6.294-3.291l-44.774-63.87c-2.449-3.494-1.603-8.312 1.892-10.762 3.496-2.448 8.313-1.601 10.762 1.891l38.504 54.927 39.251-54.98c2.48-3.473 7.307-4.277 10.778-1.8 3.473 2.48 4.279 7.305 1.8 10.778l-45.597 63.869c-1.451 2.033-3.794 3.238-6.289 3.238z" fill="#3e5959"/></g><path d="m315.96 335.876-32.273 17.534 41.152 30.672c2.501 1.864 6 1.573 8.158-.68l21.142-22.073z" fill="#7bacdf"/><path d="m392.317 335.876 32.273 17.534-41.152 30.672c-2.501 1.864-6 1.573-8.158-.68l-21.142-22.073z" fill="#7bacdf"/><g><path d="m418.143 259.059h-11.383c-4.144 0-7.504-3.36-7.504-7.504s3.36-7.504 7.504-7.504h11.383c4.144 0 7.504 3.36 7.504 7.504s-3.359 7.504-7.504 7.504z" fill="#ffb09e"/></g><g><path d="m301.799 259.059h-11.383c-4.144 0-7.504-3.36-7.504-7.504s3.36-7.504 7.504-7.504h11.383c4.144 0 7.504 3.36 7.504 7.504s-3.36 7.504-7.504 7.504z" fill="#ffb09e"/></g><path d="m436.963 353.41h-29.202c22.843 0 41.361 18.518 41.361 41.36v70.932h29.202v-70.932c-.001-22.842-18.519-41.36-41.361-41.36z" fill="#8ac9fe"/><path d="m392.317 335.876-13.113 8.741 16.183 8.793-28.493 21.237 8.385 8.755c2.157 2.253 5.656 2.545 8.157.68l41.152-30.672z" fill="#5f99d7"/><path d="m446.283 183.487c-.427 0-.85.015-1.273.032-7.292-43.603-45.198-76.837-90.871-76.837-4.463 0-8.848.327-13.141.941 39.645 5.662 71.151 36.553 77.731 75.896.423-.017.846-.032 1.273-.032 17.281 0 31.289 14.008 31.289 31.289s-14.009 31.289-31.289 31.289c-.427 0-.85-.015-1.273-.032-6.579 39.343-38.086 70.233-77.731 75.896 4.293.613 8.678.94 13.141.94 45.674 0 83.579-33.233 90.871-76.836.423.017.847.032 1.273.032 17.281 0 31.29-14.009 31.29-31.289s-14.009-31.289-31.29-31.289z" fill="#ffbfb1"/><path d="m416.503 76.261h-5.835c-9.58-11.243-23.833-18.382-39.762-18.382h-130.88v79.406c0 25.535 20.7 46.234 46.234 46.234h97.864c9.668 0 18.507-3.525 25.323-9.349 6.287 5.801 14.684 9.349 23.913 9.349h34.89v-55.511c0-28.579-23.168-51.747-51.747-51.747z" fill="#3e5959"/><g><path d="m416.503 76.261h-5.835c-9.58-11.243-23.833-18.382-39.762-18.382h-32.122c15.929 0 30.182 7.139 39.762 18.382h5.835c28.579 0 51.747 23.168 51.747 51.747v55.511h32.122v-55.511c0-28.579-23.168-51.747-51.747-51.747z" fill="#384949"/></g></g></g></svg>