<svg id="Capa_1" enable-background="new 0 0 512 512" height="512" viewBox="0 0 512 512" width="512" xmlns="http://www.w3.org/2000/svg"><g><path d="m512 91.786v.426c0 43.495-23.441 83.261-60.843 105.464-27.941 16.586-49.155 43.315-58.569 75.111-5.536 18.7-22.806 31.464-42.308 31.464-24.404 0-44.187-19.783-44.187-44.187v-153.213c0-24.404 19.783-44.187 44.187-44.187h132.598c16.084-.001 29.122 13.038 29.122 29.122z" fill="#d87b7b"/><path d="m356.522 291.313c3.603 3.603 7.835 6.587 12.503 8.779-5.744 2.689-12.118 4.161-18.745 4.161-12.209 0-23.251-4.942-31.248-12.94-7.997-7.997-12.94-19.049-12.94-31.248l-26.831-83.79 26.831-69.424c0-24.397 19.78-44.187 44.187-44.187h37.479c-24.397 0-44.187 19.79-44.187 44.187v153.214c.001 12.199 4.954 23.25 12.951 31.248z" fill="#d06161"/><path d="m306.093 104.811v167.728c0 18.682-12.336 35.011-30.219 40.417-50.347 15.219-93.682 49.65-119.668 97.15l-11.053 20.194c-6.421 11.736-18.736 19.036-32.105 19.036h-.01c-20.215 0-36.603-16.388-36.603-36.603v-162.553c0-103.561 83.953-187.514 187.514-187.514 23.275 0 42.144 18.869 42.144 42.145z" fill="#d87b7b"/><path d="m124.782 259.638v162.551c0 8.19 2.689 15.751 7.226 21.85-5.622 3.41-12.148 5.298-18.958 5.298h-.01c-20.216 0-36.606-16.38-36.606-36.596v-162.561c0-103.557 83.95-187.507 187.517-187.507 10.687 0 20.449 3.988 27.888 10.555-93.936 10.189-167.057 89.754-167.057 186.41z" fill="#d06161"/><g><circle cx="93.322" cy="296.876" fill="#f7e38d" r="85.71"/><path d="m93.322 390.198c-51.458 0-93.322-41.864-93.322-93.322s41.864-93.322 93.322-93.322 93.322 41.864 93.322 93.322-41.864 93.322-93.322 93.322zm0-171.421c-43.064 0-78.099 35.035-78.099 78.099s35.035 78.099 78.099 78.099 78.099-35.035 78.099-78.099-35.034-78.099-78.099-78.099z" fill="#f4d478"/><g fill="#d87b7b"><path d="m93.322 277.099c-4.204 0-7.611-3.408-7.611-7.611v-22.678c0-4.204 3.407-7.611 7.611-7.611s7.612 3.408 7.612 7.611v22.678c0 4.203-3.408 7.611-7.612 7.611z"/><path d="m93.322 354.555c-4.204 0-7.611-3.408-7.611-7.611v-22.678c0-4.204 3.407-7.611 7.611-7.611s7.612 3.408 7.612 7.611v22.678c0 4.203-3.408 7.611-7.612 7.611z"/><path d="m69.596 290.794c-1.291 0-2.6-.329-3.799-1.021l-19.64-11.339c-3.64-2.102-4.888-6.757-2.786-10.397 2.101-3.641 6.754-4.888 10.397-2.786l19.64 11.339c3.64 2.102 4.888 6.757 2.786 10.397-1.409 2.442-3.968 3.807-6.598 3.807z"/><path d="m136.674 329.522c-1.291 0-2.601-.329-3.799-1.021l-19.639-11.339c-3.64-2.102-4.888-6.757-2.786-10.397 2.101-3.641 6.758-4.889 10.397-2.786l19.639 11.339c3.64 2.102 4.888 6.757 2.786 10.397-1.409 2.442-3.968 3.807-6.598 3.807z"/><path d="m49.969 329.522c-2.63 0-5.189-1.365-6.599-3.807-2.102-3.641-.854-8.296 2.786-10.397l19.64-11.339c3.638-2.101 8.296-.855 10.397 2.786 2.102 3.641.854 8.296-2.786 10.397l-19.64 11.339c-1.197.692-2.506 1.021-3.798 1.021z"/><path d="m117.049 290.794c-2.63 0-5.188-1.365-6.599-3.807-2.102-3.64-.854-8.296 2.786-10.397l19.639-11.339c3.638-2.102 8.295-.855 10.397 2.786 2.102 3.64.854 8.296-2.786 10.397l-19.639 11.339c-1.198.692-2.507 1.021-3.798 1.021z"/></g><circle cx="93.322" cy="296.876" fill="#c0e3a0" r="32.515"/><path d="m102.529 328.068c-2.916.867-6.012 1.325-9.205 1.325-17.964 0-32.517-14.554-32.517-32.518 0-17.951 14.554-32.505 32.517-32.505 3.193 0 6.289.458 9.205 1.325-13.482 3.964-23.325 16.421-23.325 31.18 0 14.772 9.844 27.229 23.325 31.193z" fill="#a8d4a4"/></g><g><circle cx="246.455" cy="140.955" fill="#c0e3a0" r="22.158"/><path d="m254.346 161.665c-2.44.933-5.098 1.444-7.883 1.444-12.239 0-22.166-9.914-22.166-22.153s9.927-22.166 22.166-22.166c2.785 0 5.443.511 7.883 1.444-8.343 3.181-14.271 11.268-14.271 20.723 0 9.452 5.928 17.526 14.271 20.708z" fill="#a8d4a4"/></g><g><circle cx="236.711" cy="254.909" fill="#c0e3a0" r="22.158"/><path d="m244.602 275.619c-2.44.933-5.098 1.444-7.883 1.444-12.239 0-22.166-9.914-22.166-22.153s9.927-22.166 22.166-22.166c2.785 0 5.443.511 7.883 1.444-8.343 3.181-14.271 11.268-14.271 20.723 0 9.452 5.928 17.526 14.271 20.708z" fill="#a8d4a4"/></g><g><circle cx="172.279" cy="168.513" fill="#c0e3a0" r="22.158"/><path d="m180.17 189.223c-2.44.933-5.098 1.444-7.883 1.444-12.239 0-22.166-9.914-22.166-22.153s9.927-22.166 22.166-22.166c2.785 0 5.443.511 7.883 1.444-8.343 3.181-14.271 11.268-14.271 20.723 0 9.452 5.929 17.526 14.271 20.708z" fill="#a8d4a4"/></g><g fill="#c0e3a0"><path d="m232.526 205.793c-4.204 0-7.611-3.408-7.611-7.611v-.507c0-4.204 3.407-7.611 7.611-7.611s7.611 3.408 7.611 7.611v.507c.001 4.203-3.407 7.611-7.611 7.611z"/><path d="m188.479 242.779c-4.204 0-7.611-3.408-7.611-7.611v-.507c0-4.204 3.407-7.611 7.611-7.611s7.611 3.408 7.611 7.611v.507c0 4.203-3.407 7.611-7.611 7.611z"/><path d="m276.675 290.027c-4.204 0-7.612-3.408-7.612-7.612v-.507c0-4.204 3.407-7.612 7.612-7.612s7.611 3.408 7.611 7.612v.507c0 4.204-3.407 7.612-7.611 7.612z"/></g></g></svg>