<svg id="Layer_3" enable-background="new 0 0 64 64" height="512" viewBox="0 0 64 64" width="512" xmlns="http://www.w3.org/2000/svg"><g><path d="m22 2h16v14h-16z" fill="#d23f34"/><path d="m24 16v40c0 3.314 2.686 6 6 6 3.314 0 6-2.686 6-6v-40z" fill="#e2e7f6"/><path d="m24 24h12v28h-12z" fill="#d23f34"/><g><path d="m25 2h2v14h-2z" fill="#b52f28"/><path d="m29 2h2v14h-2z" fill="#b52f28"/><path d="m33 2h2v14h-2z" fill="#b52f28"/><g fill="#f8ced7"><path d="m31 27h-2v2h-2v2h2v2h2v-2h2v-2h-2z"/><path d="m27 37h6v2h-6z"/><path d="m27 41h6v2h-6z"/><path d="m27 45h6v2h-6z"/></g></g><path d="m51 15c-6.075 0-11 4.925-11 11 0 2.582.896 4.95 2.385 6.827l-2.385 4.173 5.128-1.709c1.701 1.077 3.71 1.709 5.872 1.709 6.075 0 11-4.925 11-11s-4.925-11-11-11z" fill="#e2e7f6"/><path d="m55.336 26.042c1.764 2.865-.156 6.601-3.77 6.932-.186.017-.375.026-.566.026s-.38-.009-.567-.026c-3.613-.331-5.533-4.068-3.77-6.932l4.337-7.042z" fill="#d23f34"/><path d="m2 2h16v14h-16z" fill="#d23f34"/><path d="m4 16v40c0 3.314 2.686 6 6 6 3.314 0 6-2.686 6-6v-40z" fill="#e2e7f6"/><path d="m4 24h12v28h-12z" fill="#d23f34"/><g><path d="m5 2h2v14h-2z" fill="#b52f28"/><path d="m9 2h2v14h-2z" fill="#b52f28"/><path d="m13 2h2v14h-2z" fill="#b52f28"/><g fill="#f8ced7"><path d="m11 27h-2v2h-2v2h2v2h2v-2h2v-2h-2z"/><path d="m7 37h6v2h-6z"/><path d="m7 41h6v2h-6z"/><path d="m7 45h6v2h-6z"/></g></g></g></svg>