<?xml version="1.0" encoding="iso-8859-1"?>
<!-- Generator: Adobe Illustrator 19.0.0, SVG Export Plug-In . SVG Version: 6.00 Build 0)  -->
<svg version="1.1" id="Capa_1" xmlns="http://www.w3.org/2000/svg" xmlns:xlink="http://www.w3.org/1999/xlink" x="0px" y="0px"
	 viewBox="0 0 512 512" style="enable-background:new 0 0 512 512;" xml:space="preserve">
<path style="fill:#EFEFEF;" d="M190.132,77.202C94.228,90.929,15.997,166.523,2.22,265.195
	c-25.146,179.213,168.406,305.048,325.043,214.614l0,0c86.889-50.165,127.052-150.281,104.384-241.943
	C405.18,130.839,301.052,61.299,190.132,77.202z"/>
<path style="fill:#D6D8D8;" d="M29.14,249.651c8.939-64.02,45.027-118.303,95.455-152.297
	C60.302,128.688,12.68,190.281,2.22,265.195c-25.146,179.213,168.406,305.049,325.043,214.614l0,0
	c4.459-2.574,8.786-5.287,12.994-8.119C186.337,547.237,4.734,423.589,29.14,249.651z"/>
<path style="fill:#F7CF9C;" d="M44.039,258.729L44.039,258.729c1.701-9.045,4.087-17.95,7.136-26.633l0,0
	c29.329-83.53,115.233-133.815,203.136-117.281l0,0c9.045,1.701,17.95,4.087,26.633,7.136l0,0
	c144.307,50.671,163.624,249.103,30.318,326.067C178.319,524.773,15.694,409.43,44.039,258.729z"/>
<path style="fill:#EAB883;" d="M70.571,243.41L70.571,243.41c1.701-9.045,4.087-17.95,7.136-26.633l0,0
	c12.911-36.771,36.789-67.094,66.971-88.116c-42.595,19.97-77.003,56.441-93.503,103.435l0,0
	c-3.049,8.684-5.435,17.589-7.136,26.633l0,0c-28.345,150.701,134.28,266.044,267.223,189.29c4.498-2.597,8.817-5.337,12.969-8.201
	C194.084,501.617,43.183,389.022,70.571,243.41z"/>
<circle style="fill:#F94A46;" cx="246.22" cy="259.13" r="20.236"/>
<path style="fill:#EA3B3B;" d="M245.586,259.499c-3.82-6.616-3.474-14.489,0.215-20.596c-3.303,0.065-6.636,0.937-9.699,2.705
	c-9.679,5.588-12.995,17.964-7.407,27.643s17.964,12.995,27.643,7.407c3.063-1.768,5.484-4.219,7.192-7.047
	C256.397,269.752,249.406,266.115,245.586,259.499z"/>
<path style="fill:#F94A46;" d="M196.115,322.073c4.447-5.42,6.96-12.488,6.481-20.151c-0.899-14.375-12.599-26.071-26.974-26.966
	c-16.786-1.045-30.727,12.261-30.727,28.822c0,3.96,0.798,7.734,2.241,11.17c2.777,6.612,1.325,14.135-3.224,19.679
	c-4.447,5.42-6.96,12.487-6.481,20.151c0.899,14.375,12.599,26.071,26.974,26.966c16.787,1.045,30.727-12.261,30.727-28.822
	c0-3.641-0.674-7.125-1.904-10.333C190.576,335.674,191.418,327.796,196.115,322.073z"/>
<path style="fill:#EA3B3B;" d="M160.761,354.777c-0.479-7.663,2.033-14.73,6.481-20.151c4.549-5.544,6.001-13.067,3.224-19.679
	c-1.443-3.436-2.241-7.21-2.241-11.17c0-11.788,7.065-21.92,17.19-26.409c-3.035-1.352-6.336-2.198-9.793-2.413
	c-16.786-1.045-30.727,12.261-30.727,28.822c0,3.96,0.798,7.734,2.241,11.17c2.777,6.612,1.325,14.135-3.224,19.679
	c-4.447,5.42-6.96,12.488-6.481,20.151c0.899,14.374,12.599,26.072,26.974,26.966c4.838,0.301,9.437-0.595,13.537-2.413
	C168.359,375.061,161.444,365.694,160.761,354.777z"/>
<path style="fill:#F94A46;" d="M230.486,162.333c-3.043-3.233-7.277-5.384-12.129-5.704c-9.1-0.602-17.394,5.797-19.122,14.751
	c-2.018,10.457,5.207,20.29,15.607,21.634c2.487,0.321,4.922,0.127,7.197-0.501c4.377-1.207,8.984,0.315,12.096,3.621
	c10.243,10.881,28.465,5.391,31.251-9.047c2.018-10.457-5.207-20.29-15.607-21.634c-2.287-0.295-4.529-0.155-6.643,0.358
	C238.579,166.915,233.699,165.746,230.486,162.333z"/>
<path style="fill:#EA3B3B;" d="M238.985,179.497c-3.112-3.307-7.719-4.829-12.096-3.621c-2.275,0.628-4.71,0.822-7.197,0.501
	c-7.889-1.019-13.939-6.926-15.526-14.281c-2.456,2.488-4.234,5.672-4.931,9.285c-2.018,10.457,5.207,20.29,15.607,21.634
	c2.487,0.321,4.922,0.127,7.197-0.501c4.377-1.207,8.984,0.315,12.096,3.621c10.243,10.881,28.465,5.392,31.251-9.047
	c0.484-2.508,0.424-4.976-0.072-7.303C258.479,186.632,246.556,187.539,238.985,179.497z"/>
<circle style="fill:#F94A46;" cx="276.17" cy="338.73" r="16.729"/>
<g>
	<circle style="fill:#EA3B3B;" cx="213.56" cy="406.84" r="9.25"/>
	<circle style="fill:#EA3B3B;" cx="322.69" cy="293.09" r="9.25"/>
	<circle style="fill:#EA3B3B;" cx="108.13" cy="259.13" r="9.25"/>
</g>
<circle style="fill:#F94A46;" cx="91.4" cy="322" r="16.729"/>
<path style="fill:#EA3B3B;" d="M91.402,321.999c-3.094-5.359-2.872-11.712,0.008-16.715c-2.846-0.004-5.73,0.703-8.372,2.228
	c-8.001,4.619-10.743,14.85-6.123,22.852c4.62,8.001,14.851,10.743,22.852,6.123c2.642-1.525,4.696-3.669,6.116-6.136
	C100.109,330.342,94.496,327.359,91.402,321.999z"/>
<path style="fill:#3D97C4;" d="M281.597,240.193c-6.762,0-10.256-8.235-5.416-13.075l66.471-66.471c2.991-2.99,7.841-2.99,10.831,0
	c2.991,2.992,2.991,7.841,0,10.833l-66.471,66.471C285.517,239.445,283.557,240.193,281.597,240.193z"/>
<path style="fill:#F94A46;" d="M139.932,173.636c27.48,0,41.57-32.412,23.803-52.61c-19.697,6.621-38.08,16.606-54.326,29.442
	C113.135,163.829,125.383,173.636,139.932,173.636z"/>
<path style="fill:#EA3B3B;" d="M142.994,173.484c0.524-0.047,1.044-0.103,1.556-0.175c0.271-0.038,0.539-0.08,0.807-0.124
	c0.488-0.081,0.971-0.173,1.448-0.274c0.252-0.054,0.505-0.105,0.754-0.164c0.542-0.129,1.074-0.275,1.601-0.431
	c0.165-0.049,0.334-0.09,0.498-0.141c0.678-0.213,1.343-0.448,1.995-0.703c0.187-0.073,0.367-0.157,0.552-0.233
	c0.466-0.193,0.928-0.393,1.38-0.607c0.237-0.112,0.469-0.231,0.702-0.349c0.395-0.199,0.784-0.406,1.167-0.621
	c0.233-0.131,0.465-0.262,0.694-0.398c0.39-0.232,0.771-0.476,1.148-0.724c0.198-0.13,0.399-0.256,0.593-0.39
	c0.548-0.379,1.084-0.772,1.604-1.183c0.108-0.085,0.208-0.178,0.315-0.265c0.418-0.341,0.828-0.689,1.226-1.049
	c0.191-0.173,0.375-0.353,0.561-0.53c0.305-0.29,0.605-0.583,0.897-0.884c0.191-0.197,0.379-0.396,0.564-0.598
	c0.281-0.305,0.555-0.617,0.823-0.933c0.169-0.198,0.34-0.395,0.504-0.598c0.309-0.381,0.605-0.772,0.896-1.168
	c0.105-0.143,0.218-0.282,0.321-0.427c0.008-0.011,0.015-0.023,0.023-0.034c-6.356,1.947-13.506,1.892-20.702-0.94
	c-9.539-3.754-16.211-11.627-18.835-20.774c-5.768,3.583-11.34,7.485-16.676,11.702l0.001,0.004
	c1.63,5.844,4.891,11.007,9.262,14.968c0,0,0.004,0.003,0.006,0.005c0.622,0.564,1.267,1.103,1.932,1.616
	c0.036,0.028,0.075,0.051,0.111,0.079c0.634,0.485,1.285,0.95,1.955,1.387c0.07,0.046,0.145,0.084,0.216,0.129
	c0.642,0.411,1.295,0.806,1.968,1.171c0.131,0.071,0.271,0.129,0.403,0.198c0.62,0.325,1.246,0.643,1.889,0.927
	c0.198,0.088,0.407,0.156,0.607,0.239c0.589,0.246,1.178,0.491,1.785,0.702c0.291,0.101,0.593,0.175,0.887,0.268
	c0.529,0.167,1.055,0.342,1.596,0.481c0.419,0.108,0.851,0.181,1.276,0.272c0.43,0.092,0.853,0.2,1.289,0.274
	c0.56,0.095,1.133,0.151,1.703,0.216c0.313,0.036,0.62,0.092,0.935,0.118c0.891,0.075,1.792,0.114,2.702,0.114
	c0.791,0,1.567-0.034,2.335-0.086C142.512,173.533,142.751,173.507,142.994,173.484z"/>
<path style="fill:#70B5E8;" d="M326.727,187.404c-5.384-5.384-5.384-14.113,0-19.497L488.465,6.168
	c5.383-5.384,14.114-5.384,19.497,0c5.384,5.384,5.384,14.113,0,19.497L346.224,187.404
	C340.841,192.787,332.11,192.788,326.727,187.404z"/>
<path style="fill:#53AAE0;" d="M359.988,154.143c-4.54-4.539-5.44-11.328-2.725-16.773l-30.536,30.536
	c-5.384,5.384-5.384,14.113,0,19.497c5.384,5.385,14.114,5.383,19.497,0l30.534-30.534
	C371.314,159.583,364.526,158.682,359.988,154.143z"/>
<g>
</g>
<g>
</g>
<g>
</g>
<g>
</g>
<g>
</g>
<g>
</g>
<g>
</g>
<g>
</g>
<g>
</g>
<g>
</g>
<g>
</g>
<g>
</g>
<g>
</g>
<g>
</g>
<g>
</g>
</svg>
